<svg width="694" height="872" viewBox="0 0 694 872" fill="none" xmlns="http://www.w3.org/2000/svg">
<mask id="path-1-inside-1_67_1570" fill="white">
<path fill-rule="evenodd" clip-rule="evenodd" d="M0 15.5951C0.0577841 15.5958 0.115651 15.5962 0.1736 15.5962C8.00117 15.5962 14.3467 9.25065 14.3467 1.42308C14.3467 0.942764 14.3228 0.46803 14.2761 0H16.0395C16.0388 0.0576108 16.0385 0.115304 16.0385 0.173079C16.0385 8.00065 22.384 14.3462 30.2115 14.3462C38.0391 14.3462 44.3846 8.00065 44.3846 0.173079C44.3846 0.115304 44.3843 0.0576108 44.3836 0H49.3857C49.385 0.0576108 49.3846 0.115304 49.3846 0.173079C49.3846 8.00065 55.7301 14.3462 63.5577 14.3462C71.3853 14.3462 77.7308 8.00065 77.7308 0.173079C77.7308 0.115304 77.7304 0.0576108 77.7298 0H82.7318C82.7311 0.0576108 82.7308 0.115304 82.7308 0.173079C82.7308 8.00065 89.0763 14.3462 96.9039 14.3462C104.731 14.3462 111.077 8.00065 111.077 0.173079C111.077 0.115304 111.077 0.0576108 111.076 0H116.078C116.077 0.0576108 116.077 0.115304 116.077 0.173079C116.077 8.00065 122.422 14.3462 130.25 14.3462C138.078 14.3462 144.423 8.00065 144.423 0.173079C144.423 0.115304 144.423 0.0576108 144.422 0H149.424C149.423 0.0576108 149.423 0.115304 149.423 0.173079C149.423 8.00065 155.769 14.3462 163.596 14.3462C171.424 14.3462 177.769 8.00065 177.769 0.173079C177.769 0.115304 177.769 0.0576108 177.768 0H182.77C182.77 0.0576108 182.769 0.115304 182.769 0.173079C182.769 8.00065 189.115 14.3462 196.942 14.3462C204.77 14.3462 211.115 8.00065 211.115 0.173079C211.115 0.115304 211.115 0.0576108 211.114 0H216.116C216.116 0.0576108 216.115 0.115304 216.115 0.173079C216.115 8.00065 222.461 14.3462 230.288 14.3462C238.116 14.3462 244.462 8.00065 244.462 0.173079C244.462 0.115304 244.461 0.0576108 244.461 0H249.463C249.462 0.0576108 249.462 0.115304 249.462 0.173079C249.462 8.00065 255.807 14.3462 263.635 14.3462C271.462 14.3462 277.808 8.00065 277.808 0.173079C277.808 0.115304 277.807 0.0576108 277.807 0H282.809C282.808 0.0576108 282.808 0.115304 282.808 0.173079C282.808 8.00065 289.153 14.3462 296.981 14.3462C304.808 14.3462 311.154 8.00065 311.154 0.173079C311.154 0.115304 311.154 0.0576108 311.153 0H316.155C316.154 0.0576108 316.154 0.115304 316.154 0.173079C316.154 8.00065 322.499 14.3462 330.327 14.3462C338.155 14.3462 344.5 8.00065 344.5 0.173079C344.5 0.115304 344.5 0.0576108 344.499 0H349.501C349.5 0.0576108 349.5 0.115304 349.5 0.173079C349.5 8.00065 355.846 14.3462 363.673 14.3462C371.501 14.3462 377.846 8.00065 377.846 0.173079C377.846 0.115304 377.846 0.0576108 377.845 0H382.847C382.847 0.0576108 382.846 0.115304 382.846 0.173079C382.846 8.00065 389.192 14.3462 397.019 14.3462C404.847 14.3462 411.192 8.00065 411.192 0.173079C411.192 0.115304 411.192 0.0576108 411.191 0H416.193C416.193 0.0576108 416.192 0.115304 416.192 0.173079C416.192 8.00065 422.538 14.3462 430.365 14.3462C438.193 14.3462 444.539 8.00065 444.539 0.173079C444.539 0.115304 444.538 0.0576108 444.538 0H449.54C449.539 0.0576108 449.539 0.115304 449.539 0.173079C449.539 8.00065 455.884 14.3462 463.712 14.3462C471.539 14.3462 477.885 8.00065 477.885 0.173079C477.885 0.115304 477.884 0.0576108 477.884 0H482.886C482.885 0.0576108 482.885 0.115304 482.885 0.173079C482.885 8.00065 489.23 14.3462 497.058 14.3462C504.885 14.3462 511.231 8.00065 511.231 0.173079C511.231 0.115304 511.23 0.0576108 511.23 0H516.232C516.231 0.0576108 516.231 0.115304 516.231 0.173079C516.231 8.00065 522.576 14.3462 530.404 14.3462C538.231 14.3462 544.577 8.00065 544.577 0.173079C544.577 0.115304 544.577 0.0576108 544.576 0H549.578C549.577 0.0576108 549.577 0.115304 549.577 0.173079C549.577 8.00065 555.922 14.3462 563.75 14.3462C571.578 14.3462 577.923 8.00065 577.923 0.173079C577.923 0.115304 577.923 0.0576108 577.922 0H582.924C582.923 0.0576108 582.923 0.115304 582.923 0.173079C582.923 8.00065 589.269 14.3462 597.096 14.3462C604.924 14.3462 611.269 8.00065 611.269 0.173079C611.269 0.115304 611.269 0.0576108 611.268 0H616.27C616.27 0.0576108 616.269 0.115304 616.269 0.173079C616.269 8.00065 622.615 14.3462 630.442 14.3462C638.27 14.3462 644.615 8.00065 644.615 0.173079C644.615 0.115304 644.615 0.0576108 644.614 0H649.616C649.616 0.0576108 649.615 0.115304 649.615 0.173079C649.615 8.00065 655.961 14.3462 663.788 14.3462C671.616 14.3462 677.961 8.00065 677.961 0.173079C677.961 0.115304 677.961 0.0576108 677.96 0H680.071C680.024 0.46803 680.001 0.942763 680.001 1.42308C680.001 9.19271 686.252 15.5021 694 15.5951V20.751C686.252 20.844 680.001 27.1534 680.001 34.9231C680.001 42.6927 686.252 49.0021 694 49.0951V54.251C686.252 54.344 680.001 60.6534 680.001 68.4231C680.001 76.1927 686.252 82.5021 694 82.5951V87.751C686.252 87.844 680 94.1535 680 101.923C680 109.693 686.252 116.002 694 116.095V121.251C686.252 121.344 680 127.653 680 135.423C680 143.193 686.252 149.502 694 149.595V154.751C686.252 154.844 680 161.153 680 168.923C680 176.693 686.252 183.002 694 183.095V188.251C686.252 188.344 680 194.653 680 202.423C680 210.193 686.252 216.502 694 216.595V221.751C686.252 221.844 680 228.153 680 235.923C680 243.693 686.252 250.002 694 250.095V255.251C686.252 255.344 680 261.653 680 269.423C680 277.193 686.252 283.502 694 283.595V288.751C686.252 288.844 680 295.153 680 302.923C680 310.693 686.252 317.002 694 317.095V322.251C686.252 322.344 680 328.653 680 336.423C680 344.193 686.252 350.502 694 350.595V355.751C686.252 355.844 680 362.153 680 369.923C680 377.693 686.252 384.002 694 384.095V389.251C686.252 389.344 680 395.653 680 403.423C680 411.193 686.252 417.502 694 417.595V422.751C686.252 422.844 680 429.153 680 436.923C680 444.693 686.252 451.002 694 451.095V456.251C686.252 456.344 680 462.653 680 470.423C680 478.193 686.252 484.502 694 484.595V489.751C686.252 489.844 680 496.153 680 503.923C680 511.693 686.252 518.002 694 518.095V523.251C686.252 523.344 680 529.654 680 537.423C680 545.193 686.252 551.502 694 551.595V556.751C686.252 556.844 680 563.154 680 570.923C680 578.693 686.252 585.002 694 585.095V590.251C686.252 590.344 680 596.654 680 604.423C680 612.193 686.252 618.502 694 618.595V623.751C686.252 623.844 680 630.154 680 637.923C680 645.693 686.252 652.002 694 652.095V657.251C686.252 657.344 680 663.654 680 671.423C680 679.193 686.252 685.502 694 685.595V690.751C686.252 690.844 680 697.154 680 704.923C680 712.693 686.252 719.002 694 719.095V724.251C686.252 724.344 680 730.654 680 738.423C680 746.193 686.252 752.502 694 752.595V757.751C686.252 757.844 680 764.154 680 771.923C680 779.693 686.252 786.002 694 786.095V791.251C686.252 791.344 680 797.654 680 805.423C680 813.193 686.252 819.502 694 819.595V824.751C686.252 824.844 680 831.154 680 838.923C680 846.693 686.252 853.002 694 853.095V858.251C686.394 858.342 680.229 864.426 680.007 872H677.96C677.868 864.252 671.558 858 663.788 858C656.019 858 649.709 864.252 649.616 872H644.614C644.522 864.252 638.212 858 630.442 858C622.672 858 616.363 864.252 616.27 872H611.268C611.175 864.252 604.866 858 597.096 858C589.326 858 583.017 864.252 582.924 872H577.922C577.829 864.252 571.52 858 563.75 858C555.98 858 549.671 864.252 549.578 872H544.576C544.483 864.252 538.174 858 530.404 858C522.634 858 516.325 864.252 516.232 872H511.23C511.137 864.252 504.828 858 497.058 858C489.288 858 482.978 864.252 482.886 872H477.884C477.791 864.252 471.481 858 463.712 858C455.942 858 449.632 864.252 449.54 872H444.538C444.445 864.252 438.135 858 430.365 858C422.596 858 416.286 864.252 416.193 872H411.191C411.099 864.252 404.789 858 397.019 858C389.249 858 382.94 864.252 382.847 872H377.845C377.752 864.252 371.443 858 363.673 858C355.903 858 349.594 864.252 349.501 872H344.499C344.406 864.252 338.097 858 330.327 858C322.557 858 316.248 864.252 316.155 872H311.153C311.06 864.252 304.751 858 296.981 858C289.211 858 282.901 864.252 282.809 872H277.807C277.714 864.252 271.404 858 263.635 858C255.865 858 249.555 864.252 249.463 872H244.461C244.368 864.252 238.058 858 230.288 858C222.519 858 216.209 864.252 216.116 872H211.114C211.022 864.252 204.712 858 196.942 858C189.173 858 182.863 864.252 182.77 872H177.768C177.676 864.252 171.366 858 163.596 858C155.826 858 149.517 864.252 149.424 872H144.422C144.329 864.252 138.02 858 130.25 858C122.48 858 116.171 864.252 116.078 872H111.076C110.983 864.252 104.674 858 96.9039 858C89.1341 858 82.8246 864.252 82.7318 872H77.7298C77.637 864.252 71.3275 858 63.5577 858C55.7879 858 49.4784 864.252 49.3857 872H44.3836C44.2909 864.252 37.9813 858 30.2115 858C22.4417 858 16.1322 864.252 16.0395 872H14.3404C14.1167 864.368 7.85959 858.25 0.173563 858.25C0.115627 858.25 0.0577719 858.25 0 858.251V853.095C0.0577719 853.096 0.115627 853.096 0.173563 853.096C8.00114 853.096 14.3466 846.751 14.3466 838.923C14.3466 831.096 8.00114 824.75 0.173565 824.75C0.115628 824.75 0.0577723 824.75 0 824.751V819.595C0.0577724 819.596 0.115628 819.596 0.173565 819.596C8.00114 819.596 14.3466 813.251 14.3466 805.423C14.3466 797.596 8.00114 791.25 0.173566 791.25C0.115629 791.25 0.0577728 791.25 0 791.251V786.095C0.0577729 786.096 0.115629 786.096 0.173566 786.096C8.00114 786.096 14.3466 779.751 14.3466 771.923C14.3466 764.096 8.00114 757.75 0.173567 757.75C0.11563 757.75 0.0577733 757.75 0 757.751V752.595C0.0577734 752.596 0.11563 752.596 0.173568 752.596C8.00114 752.596 14.3466 746.251 14.3466 738.423C14.3466 730.596 8.00114 724.25 0.173569 724.25C0.115631 724.25 0.0577738 724.25 0 724.251V719.095C0.0577739 719.096 0.115631 719.096 0.173569 719.096C8.00114 719.096 14.3466 712.751 14.3466 704.923C14.3466 697.096 8.00115 690.75 0.17357 690.75C0.115632 690.75 0.0577743 690.75 0 690.751V685.595C0.0577744 685.596 0.115632 685.596 0.173571 685.596C8.00115 685.596 14.3466 679.251 14.3467 671.423C14.3467 663.596 8.00115 657.25 0.173572 657.25C0.115633 657.25 0.0577748 657.25 0 657.251V652.095C0.0577748 652.096 0.115633 652.096 0.173572 652.096C8.00115 652.096 14.3467 645.751 14.3467 637.923C14.3467 630.096 8.00115 623.75 0.173573 623.75C0.115634 623.75 0.0577753 623.75 0 623.751V618.595C0.0577753 618.596 0.115634 618.596 0.173574 618.596C8.00115 618.596 14.3467 612.251 14.3467 604.423C14.3467 596.596 8.00115 590.25 0.173575 590.25C0.115635 590.25 0.0577757 590.25 0 590.251V585.095C0.0577758 585.096 0.115635 585.096 0.173575 585.096C8.00115 585.096 14.3467 578.751 14.3467 570.923C14.3467 563.096 8.00115 556.75 0.173576 556.75C0.115636 556.75 0.0577762 556.75 0 556.751V551.595C0.0577763 551.596 0.115636 551.596 0.173576 551.596C8.00115 551.596 14.3467 545.251 14.3467 537.423C14.3467 529.596 8.00115 523.25 0.173578 523.25C0.115637 523.25 0.0577767 523.25 0 523.251V518.095C0.0577768 518.096 0.115637 518.096 0.173578 518.096C8.00115 518.096 14.3467 511.751 14.3467 503.923C14.3467 496.096 8.00115 489.75 0.173579 489.75C0.115638 489.75 0.0577772 489.75 0 489.751V484.595C0.0577773 484.596 0.115638 484.596 0.173579 484.596C8.00115 484.596 14.3467 478.251 14.3467 470.423C14.3467 462.596 8.00116 456.25 0.173581 456.25C0.115639 456.25 0.0577777 456.25 0 456.251V451.095C0.0577778 451.096 0.115639 451.096 0.173581 451.096C8.00116 451.096 14.3467 444.751 14.3467 436.923C14.3467 429.096 8.00116 422.75 0.173582 422.75C0.11564 422.75 0.0577782 422.75 0 422.751V417.595C0.0577783 417.596 0.11564 417.596 0.173582 417.596C8.00116 417.596 14.3467 411.251 14.3467 403.423C14.3467 395.596 8.00116 389.25 0.173584 389.25C0.115641 389.25 0.0577787 389.25 0 389.251V384.095C0.0577787 384.096 0.115641 384.096 0.173584 384.096C8.00116 384.096 14.3467 377.751 14.3467 369.923C14.3467 362.096 8.00116 355.75 0.173585 355.75C0.115641 355.75 0.0577792 355.75 0 355.751V350.595C0.0577792 350.596 0.115642 350.596 0.173585 350.596C8.00116 350.596 14.3467 344.251 14.3467 336.423C14.3467 328.596 8.00116 322.25 0.173587 322.25C0.115642 322.25 0.0577796 322.25 0 322.251V317.095C0.0577797 317.096 0.115643 317.096 0.173587 317.096C8.00116 317.096 14.3467 310.751 14.3467 302.923C14.3467 295.096 8.00116 288.75 0.173588 288.75C0.115643 288.75 0.0577801 288.75 0 288.751V283.595C0.0577802 283.596 0.115644 283.596 0.173588 283.596C8.00116 283.596 14.3467 277.251 14.3467 269.423C14.3467 261.596 8.00116 255.25 0.173589 255.25C0.115644 255.25 0.0577806 255.25 0 255.251V250.095C0.0577807 250.096 0.115645 250.096 0.17359 250.096C8.00116 250.096 14.3467 243.751 14.3467 235.923C14.3467 228.096 8.00117 221.75 0.173591 221.75C0.115645 221.75 0.0577811 221.75 0 221.751V216.595C0.0577812 216.596 0.115646 216.596 0.173591 216.596C8.00117 216.596 14.3467 210.251 14.3467 202.423C14.3467 194.596 8.00117 188.25 0.173592 188.25C0.115646 188.25 0.0577816 188.25 0 188.251V183.095C0.0577817 183.096 0.115647 183.096 0.173593 183.096C8.00117 183.096 14.3467 176.751 14.3467 168.923C14.3467 161.096 8.00117 154.75 0.173594 154.75C0.115647 154.75 0.0577821 154.75 0 154.751V149.595C0.0577822 149.596 0.115647 149.596 0.173594 149.596C8.00117 149.596 14.3467 143.251 14.3467 135.423C14.3467 127.596 8.00117 121.25 0.173595 121.25C0.115648 121.25 0.0577826 121.25 0 121.251V116.095C0.0577826 116.096 0.115648 116.096 0.173596 116.096C8.00117 116.096 14.3467 109.751 14.3467 101.923C14.3467 94.0955 8.00117 87.75 0.173597 87.75C0.115649 87.75 0.057783 87.7504 0 87.7511V82.5951C0.0577831 82.5958 0.115649 82.5962 0.173597 82.5962C8.00117 82.5962 14.3467 76.2507 14.3467 68.4231C14.3467 60.5955 8.00117 54.25 0.173598 54.25C0.11565 54.25 0.0577835 54.2504 0 54.251V49.0951C0.0577836 49.0958 0.11565 49.0962 0.173598 49.0962C8.00117 49.0962 14.3467 42.7507 14.3467 34.9231C14.3467 27.0955 8.00117 20.75 0.1736 20.75C0.115651 20.75 0.057784 20.7504 0 20.751V15.5951Z"/>
</mask>
<path fill-rule="evenodd" clip-rule="evenodd" d="M0 15.5951C0.0577841 15.5958 0.115651 15.5962 0.1736 15.5962C8.00117 15.5962 14.3467 9.25065 14.3467 1.42308C14.3467 0.942764 14.3228 0.46803 14.2761 0H16.0395C16.0388 0.0576108 16.0385 0.115304 16.0385 0.173079C16.0385 8.00065 22.384 14.3462 30.2115 14.3462C38.0391 14.3462 44.3846 8.00065 44.3846 0.173079C44.3846 0.115304 44.3843 0.0576108 44.3836 0H49.3857C49.385 0.0576108 49.3846 0.115304 49.3846 0.173079C49.3846 8.00065 55.7301 14.3462 63.5577 14.3462C71.3853 14.3462 77.7308 8.00065 77.7308 0.173079C77.7308 0.115304 77.7304 0.0576108 77.7298 0H82.7318C82.7311 0.0576108 82.7308 0.115304 82.7308 0.173079C82.7308 8.00065 89.0763 14.3462 96.9039 14.3462C104.731 14.3462 111.077 8.00065 111.077 0.173079C111.077 0.115304 111.077 0.0576108 111.076 0H116.078C116.077 0.0576108 116.077 0.115304 116.077 0.173079C116.077 8.00065 122.422 14.3462 130.25 14.3462C138.078 14.3462 144.423 8.00065 144.423 0.173079C144.423 0.115304 144.423 0.0576108 144.422 0H149.424C149.423 0.0576108 149.423 0.115304 149.423 0.173079C149.423 8.00065 155.769 14.3462 163.596 14.3462C171.424 14.3462 177.769 8.00065 177.769 0.173079C177.769 0.115304 177.769 0.0576108 177.768 0H182.77C182.77 0.0576108 182.769 0.115304 182.769 0.173079C182.769 8.00065 189.115 14.3462 196.942 14.3462C204.77 14.3462 211.115 8.00065 211.115 0.173079C211.115 0.115304 211.115 0.0576108 211.114 0H216.116C216.116 0.0576108 216.115 0.115304 216.115 0.173079C216.115 8.00065 222.461 14.3462 230.288 14.3462C238.116 14.3462 244.462 8.00065 244.462 0.173079C244.462 0.115304 244.461 0.0576108 244.461 0H249.463C249.462 0.0576108 249.462 0.115304 249.462 0.173079C249.462 8.00065 255.807 14.3462 263.635 14.3462C271.462 14.3462 277.808 8.00065 277.808 0.173079C277.808 0.115304 277.807 0.0576108 277.807 0H282.809C282.808 0.0576108 282.808 0.115304 282.808 0.173079C282.808 8.00065 289.153 14.3462 296.981 14.3462C304.808 14.3462 311.154 8.00065 311.154 0.173079C311.154 0.115304 311.154 0.0576108 311.153 0H316.155C316.154 0.0576108 316.154 0.115304 316.154 0.173079C316.154 8.00065 322.499 14.3462 330.327 14.3462C338.155 14.3462 344.5 8.00065 344.5 0.173079C344.5 0.115304 344.5 0.0576108 344.499 0H349.501C349.5 0.0576108 349.5 0.115304 349.5 0.173079C349.5 8.00065 355.846 14.3462 363.673 14.3462C371.501 14.3462 377.846 8.00065 377.846 0.173079C377.846 0.115304 377.846 0.0576108 377.845 0H382.847C382.847 0.0576108 382.846 0.115304 382.846 0.173079C382.846 8.00065 389.192 14.3462 397.019 14.3462C404.847 14.3462 411.192 8.00065 411.192 0.173079C411.192 0.115304 411.192 0.0576108 411.191 0H416.193C416.193 0.0576108 416.192 0.115304 416.192 0.173079C416.192 8.00065 422.538 14.3462 430.365 14.3462C438.193 14.3462 444.539 8.00065 444.539 0.173079C444.539 0.115304 444.538 0.0576108 444.538 0H449.54C449.539 0.0576108 449.539 0.115304 449.539 0.173079C449.539 8.00065 455.884 14.3462 463.712 14.3462C471.539 14.3462 477.885 8.00065 477.885 0.173079C477.885 0.115304 477.884 0.0576108 477.884 0H482.886C482.885 0.0576108 482.885 0.115304 482.885 0.173079C482.885 8.00065 489.23 14.3462 497.058 14.3462C504.885 14.3462 511.231 8.00065 511.231 0.173079C511.231 0.115304 511.23 0.0576108 511.23 0H516.232C516.231 0.0576108 516.231 0.115304 516.231 0.173079C516.231 8.00065 522.576 14.3462 530.404 14.3462C538.231 14.3462 544.577 8.00065 544.577 0.173079C544.577 0.115304 544.577 0.0576108 544.576 0H549.578C549.577 0.0576108 549.577 0.115304 549.577 0.173079C549.577 8.00065 555.922 14.3462 563.75 14.3462C571.578 14.3462 577.923 8.00065 577.923 0.173079C577.923 0.115304 577.923 0.0576108 577.922 0H582.924C582.923 0.0576108 582.923 0.115304 582.923 0.173079C582.923 8.00065 589.269 14.3462 597.096 14.3462C604.924 14.3462 611.269 8.00065 611.269 0.173079C611.269 0.115304 611.269 0.0576108 611.268 0H616.27C616.27 0.0576108 616.269 0.115304 616.269 0.173079C616.269 8.00065 622.615 14.3462 630.442 14.3462C638.27 14.3462 644.615 8.00065 644.615 0.173079C644.615 0.115304 644.615 0.0576108 644.614 0H649.616C649.616 0.0576108 649.615 0.115304 649.615 0.173079C649.615 8.00065 655.961 14.3462 663.788 14.3462C671.616 14.3462 677.961 8.00065 677.961 0.173079C677.961 0.115304 677.961 0.0576108 677.96 0H680.071C680.024 0.46803 680.001 0.942763 680.001 1.42308C680.001 9.19271 686.252 15.5021 694 15.5951V20.751C686.252 20.844 680.001 27.1534 680.001 34.9231C680.001 42.6927 686.252 49.0021 694 49.0951V54.251C686.252 54.344 680.001 60.6534 680.001 68.4231C680.001 76.1927 686.252 82.5021 694 82.5951V87.751C686.252 87.844 680 94.1535 680 101.923C680 109.693 686.252 116.002 694 116.095V121.251C686.252 121.344 680 127.653 680 135.423C680 143.193 686.252 149.502 694 149.595V154.751C686.252 154.844 680 161.153 680 168.923C680 176.693 686.252 183.002 694 183.095V188.251C686.252 188.344 680 194.653 680 202.423C680 210.193 686.252 216.502 694 216.595V221.751C686.252 221.844 680 228.153 680 235.923C680 243.693 686.252 250.002 694 250.095V255.251C686.252 255.344 680 261.653 680 269.423C680 277.193 686.252 283.502 694 283.595V288.751C686.252 288.844 680 295.153 680 302.923C680 310.693 686.252 317.002 694 317.095V322.251C686.252 322.344 680 328.653 680 336.423C680 344.193 686.252 350.502 694 350.595V355.751C686.252 355.844 680 362.153 680 369.923C680 377.693 686.252 384.002 694 384.095V389.251C686.252 389.344 680 395.653 680 403.423C680 411.193 686.252 417.502 694 417.595V422.751C686.252 422.844 680 429.153 680 436.923C680 444.693 686.252 451.002 694 451.095V456.251C686.252 456.344 680 462.653 680 470.423C680 478.193 686.252 484.502 694 484.595V489.751C686.252 489.844 680 496.153 680 503.923C680 511.693 686.252 518.002 694 518.095V523.251C686.252 523.344 680 529.654 680 537.423C680 545.193 686.252 551.502 694 551.595V556.751C686.252 556.844 680 563.154 680 570.923C680 578.693 686.252 585.002 694 585.095V590.251C686.252 590.344 680 596.654 680 604.423C680 612.193 686.252 618.502 694 618.595V623.751C686.252 623.844 680 630.154 680 637.923C680 645.693 686.252 652.002 694 652.095V657.251C686.252 657.344 680 663.654 680 671.423C680 679.193 686.252 685.502 694 685.595V690.751C686.252 690.844 680 697.154 680 704.923C680 712.693 686.252 719.002 694 719.095V724.251C686.252 724.344 680 730.654 680 738.423C680 746.193 686.252 752.502 694 752.595V757.751C686.252 757.844 680 764.154 680 771.923C680 779.693 686.252 786.002 694 786.095V791.251C686.252 791.344 680 797.654 680 805.423C680 813.193 686.252 819.502 694 819.595V824.751C686.252 824.844 680 831.154 680 838.923C680 846.693 686.252 853.002 694 853.095V858.251C686.394 858.342 680.229 864.426 680.007 872H677.96C677.868 864.252 671.558 858 663.788 858C656.019 858 649.709 864.252 649.616 872H644.614C644.522 864.252 638.212 858 630.442 858C622.672 858 616.363 864.252 616.27 872H611.268C611.175 864.252 604.866 858 597.096 858C589.326 858 583.017 864.252 582.924 872H577.922C577.829 864.252 571.52 858 563.75 858C555.98 858 549.671 864.252 549.578 872H544.576C544.483 864.252 538.174 858 530.404 858C522.634 858 516.325 864.252 516.232 872H511.23C511.137 864.252 504.828 858 497.058 858C489.288 858 482.978 864.252 482.886 872H477.884C477.791 864.252 471.481 858 463.712 858C455.942 858 449.632 864.252 449.54 872H444.538C444.445 864.252 438.135 858 430.365 858C422.596 858 416.286 864.252 416.193 872H411.191C411.099 864.252 404.789 858 397.019 858C389.249 858 382.94 864.252 382.847 872H377.845C377.752 864.252 371.443 858 363.673 858C355.903 858 349.594 864.252 349.501 872H344.499C344.406 864.252 338.097 858 330.327 858C322.557 858 316.248 864.252 316.155 872H311.153C311.06 864.252 304.751 858 296.981 858C289.211 858 282.901 864.252 282.809 872H277.807C277.714 864.252 271.404 858 263.635 858C255.865 858 249.555 864.252 249.463 872H244.461C244.368 864.252 238.058 858 230.288 858C222.519 858 216.209 864.252 216.116 872H211.114C211.022 864.252 204.712 858 196.942 858C189.173 858 182.863 864.252 182.77 872H177.768C177.676 864.252 171.366 858 163.596 858C155.826 858 149.517 864.252 149.424 872H144.422C144.329 864.252 138.02 858 130.25 858C122.48 858 116.171 864.252 116.078 872H111.076C110.983 864.252 104.674 858 96.9039 858C89.1341 858 82.8246 864.252 82.7318 872H77.7298C77.637 864.252 71.3275 858 63.5577 858C55.7879 858 49.4784 864.252 49.3857 872H44.3836C44.2909 864.252 37.9813 858 30.2115 858C22.4417 858 16.1322 864.252 16.0395 872H14.3404C14.1167 864.368 7.85959 858.25 0.173563 858.25C0.115627 858.25 0.0577719 858.25 0 858.251V853.095C0.0577719 853.096 0.115627 853.096 0.173563 853.096C8.00114 853.096 14.3466 846.751 14.3466 838.923C14.3466 831.096 8.00114 824.75 0.173565 824.75C0.115628 824.75 0.0577723 824.75 0 824.751V819.595C0.0577724 819.596 0.115628 819.596 0.173565 819.596C8.00114 819.596 14.3466 813.251 14.3466 805.423C14.3466 797.596 8.00114 791.25 0.173566 791.25C0.115629 791.25 0.0577728 791.25 0 791.251V786.095C0.0577729 786.096 0.115629 786.096 0.173566 786.096C8.00114 786.096 14.3466 779.751 14.3466 771.923C14.3466 764.096 8.00114 757.75 0.173567 757.75C0.11563 757.75 0.0577733 757.75 0 757.751V752.595C0.0577734 752.596 0.11563 752.596 0.173568 752.596C8.00114 752.596 14.3466 746.251 14.3466 738.423C14.3466 730.596 8.00114 724.25 0.173569 724.25C0.115631 724.25 0.0577738 724.25 0 724.251V719.095C0.0577739 719.096 0.115631 719.096 0.173569 719.096C8.00114 719.096 14.3466 712.751 14.3466 704.923C14.3466 697.096 8.00115 690.75 0.17357 690.75C0.115632 690.75 0.0577743 690.75 0 690.751V685.595C0.0577744 685.596 0.115632 685.596 0.173571 685.596C8.00115 685.596 14.3466 679.251 14.3467 671.423C14.3467 663.596 8.00115 657.25 0.173572 657.25C0.115633 657.25 0.0577748 657.25 0 657.251V652.095C0.0577748 652.096 0.115633 652.096 0.173572 652.096C8.00115 652.096 14.3467 645.751 14.3467 637.923C14.3467 630.096 8.00115 623.75 0.173573 623.75C0.115634 623.75 0.0577753 623.75 0 623.751V618.595C0.0577753 618.596 0.115634 618.596 0.173574 618.596C8.00115 618.596 14.3467 612.251 14.3467 604.423C14.3467 596.596 8.00115 590.25 0.173575 590.25C0.115635 590.25 0.0577757 590.25 0 590.251V585.095C0.0577758 585.096 0.115635 585.096 0.173575 585.096C8.00115 585.096 14.3467 578.751 14.3467 570.923C14.3467 563.096 8.00115 556.75 0.173576 556.75C0.115636 556.75 0.0577762 556.75 0 556.751V551.595C0.0577763 551.596 0.115636 551.596 0.173576 551.596C8.00115 551.596 14.3467 545.251 14.3467 537.423C14.3467 529.596 8.00115 523.25 0.173578 523.25C0.115637 523.25 0.0577767 523.25 0 523.251V518.095C0.0577768 518.096 0.115637 518.096 0.173578 518.096C8.00115 518.096 14.3467 511.751 14.3467 503.923C14.3467 496.096 8.00115 489.75 0.173579 489.75C0.115638 489.75 0.0577772 489.75 0 489.751V484.595C0.0577773 484.596 0.115638 484.596 0.173579 484.596C8.00115 484.596 14.3467 478.251 14.3467 470.423C14.3467 462.596 8.00116 456.25 0.173581 456.25C0.115639 456.25 0.0577777 456.25 0 456.251V451.095C0.0577778 451.096 0.115639 451.096 0.173581 451.096C8.00116 451.096 14.3467 444.751 14.3467 436.923C14.3467 429.096 8.00116 422.75 0.173582 422.75C0.11564 422.75 0.0577782 422.75 0 422.751V417.595C0.0577783 417.596 0.11564 417.596 0.173582 417.596C8.00116 417.596 14.3467 411.251 14.3467 403.423C14.3467 395.596 8.00116 389.25 0.173584 389.25C0.115641 389.25 0.0577787 389.25 0 389.251V384.095C0.0577787 384.096 0.115641 384.096 0.173584 384.096C8.00116 384.096 14.3467 377.751 14.3467 369.923C14.3467 362.096 8.00116 355.75 0.173585 355.75C0.115641 355.75 0.0577792 355.75 0 355.751V350.595C0.0577792 350.596 0.115642 350.596 0.173585 350.596C8.00116 350.596 14.3467 344.251 14.3467 336.423C14.3467 328.596 8.00116 322.25 0.173587 322.25C0.115642 322.25 0.0577796 322.25 0 322.251V317.095C0.0577797 317.096 0.115643 317.096 0.173587 317.096C8.00116 317.096 14.3467 310.751 14.3467 302.923C14.3467 295.096 8.00116 288.75 0.173588 288.75C0.115643 288.75 0.0577801 288.75 0 288.751V283.595C0.0577802 283.596 0.115644 283.596 0.173588 283.596C8.00116 283.596 14.3467 277.251 14.3467 269.423C14.3467 261.596 8.00116 255.25 0.173589 255.25C0.115644 255.25 0.0577806 255.25 0 255.251V250.095C0.0577807 250.096 0.115645 250.096 0.17359 250.096C8.00116 250.096 14.3467 243.751 14.3467 235.923C14.3467 228.096 8.00117 221.75 0.173591 221.75C0.115645 221.75 0.0577811 221.75 0 221.751V216.595C0.0577812 216.596 0.115646 216.596 0.173591 216.596C8.00117 216.596 14.3467 210.251 14.3467 202.423C14.3467 194.596 8.00117 188.25 0.173592 188.25C0.115646 188.25 0.0577816 188.25 0 188.251V183.095C0.0577817 183.096 0.115647 183.096 0.173593 183.096C8.00117 183.096 14.3467 176.751 14.3467 168.923C14.3467 161.096 8.00117 154.75 0.173594 154.75C0.115647 154.75 0.0577821 154.75 0 154.751V149.595C0.0577822 149.596 0.115647 149.596 0.173594 149.596C8.00117 149.596 14.3467 143.251 14.3467 135.423C14.3467 127.596 8.00117 121.25 0.173595 121.25C0.115648 121.25 0.0577826 121.25 0 121.251V116.095C0.0577826 116.096 0.115648 116.096 0.173596 116.096C8.00117 116.096 14.3467 109.751 14.3467 101.923C14.3467 94.0955 8.00117 87.75 0.173597 87.75C0.115649 87.75 0.057783 87.7504 0 87.7511V82.5951C0.0577831 82.5958 0.115649 82.5962 0.173597 82.5962C8.00117 82.5962 14.3467 76.2507 14.3467 68.4231C14.3467 60.5955 8.00117 54.25 0.173598 54.25C0.11565 54.25 0.0577835 54.2504 0 54.251V49.0951C0.0577836 49.0958 0.11565 49.0962 0.173598 49.0962C8.00117 49.0962 14.3467 42.7507 14.3467 34.9231C14.3467 27.0955 8.00117 20.75 0.1736 20.75C0.115651 20.75 0.057784 20.7504 0 20.751V15.5951Z" fill="#FFF5E2"/>
<path d="M0.1736 15.5962L0.1736 14.4082H0.1736V15.5962ZM0 15.5951L0.0142525 14.4073L-1.18794 14.3928V15.5951H0ZM14.2761 0V-1.18794H12.9639L13.094 0.117851L14.2761 0ZM16.0395 0L17.2274 0.014197L17.2417 -1.18794H16.0395V0ZM44.3836 0V-1.18794H43.1813L43.1957 0.0142364L44.3836 0ZM49.3857 0L50.5735 0.0142364L50.5879 -1.18794H49.3857V0ZM77.7298 0V-1.18794H76.5276L76.5419 0.0141577L77.7298 0ZM82.7318 0L83.9197 0.0141577L83.934 -1.18794H82.7318V0ZM111.076 0V-1.18794H109.874L109.888 0.0141577L111.076 0ZM116.078 0L117.266 0.0141577L117.28 -1.18794H116.078V0ZM144.422 0V-1.18794H143.22L143.234 0.0141577L144.422 0ZM149.424 0L150.612 0.0141577L150.626 -1.18794H149.424V0ZM177.768 0V-1.18794H176.566L176.58 0.0141577L177.768 0ZM182.77 0L183.958 0.0141577L183.972 -1.18794H182.77V0ZM211.114 0V-1.18794H209.912L209.927 0.0141577L211.114 0ZM216.116 0L217.304 0.0141577L217.319 -1.18794H216.116V0ZM244.461 0V-1.18794H243.258L243.273 0.0141577L244.461 0ZM249.463 0L250.65 0.0141577L250.665 -1.18794H249.463V0ZM277.807 0V-1.18794H276.604L276.619 0.0144723L277.807 0ZM282.809 0L283.997 0.0144723L284.011 -1.18794H282.809V0ZM311.153 0V-1.18794H309.95L309.965 0.0144723L311.153 0ZM316.155 0L317.343 0.0144723L317.357 -1.18794H316.155V0ZM344.499 0V-1.18794H343.297L343.311 0.0144723L344.499 0ZM349.501 0L350.689 0.0144723L350.704 -1.18794H349.501V0ZM377.845 0V-1.18794H376.643L376.657 0.0144723L377.845 0ZM382.847 0L384.035 0.0144723L384.05 -1.18794H382.847V0ZM411.191 0V-1.18794H409.989L410.003 0.0144723L411.191 0ZM416.193 0L417.381 0.0144723L417.396 -1.18794H416.193V0ZM444.538 0V-1.18794H443.335L443.35 0.0144723L444.538 0ZM449.54 0L450.727 0.0144723L450.742 -1.18794H449.54V0ZM477.884 0V-1.18794H476.681L476.696 0.0144723L477.884 0ZM482.886 0L484.074 0.0144723L484.088 -1.18794H482.886V0ZM511.23 0V-1.18794H510.027L510.042 0.0144723L511.23 0ZM516.232 0L517.42 0.0138432L517.434 -1.18794H516.232V0ZM544.576 0V-1.18794H543.374L543.388 0.0138432L544.576 0ZM549.578 0L550.766 0.0138432L550.78 -1.18794H549.578V0ZM577.922 0V-1.18794H576.72L576.734 0.0138432L577.922 0ZM582.924 0L584.112 0.0138432L584.126 -1.18794H582.924V0ZM611.268 0V-1.18794H610.066L610.08 0.0138432L611.268 0ZM616.27 0L617.458 0.0138432L617.472 -1.18794H616.27V0ZM644.614 0V-1.18794H643.412L643.426 0.0138432L644.614 0ZM649.616 0L650.804 0.0138432L650.818 -1.18794H649.616V0ZM677.96 0V-1.18794H676.759L676.773 0.0138432L677.96 0ZM680.071 0L681.253 0.117774L681.383 -1.18794H680.071V0ZM694 15.5951H695.188V14.4213L694.014 14.4073L694 15.5951ZM694 20.751L694.014 21.9389L695.188 21.9248V20.751H694ZM694 49.0951H695.188V47.9213L694.014 47.9073L694 49.0951ZM694 54.251L694.014 55.4389L695.188 55.4248V54.251H694ZM694 82.5951H695.188V81.4213L694.014 81.4073L694 82.5951ZM694 87.751L694.014 88.9389L695.188 88.9248V87.751H694ZM694 116.095H695.188V114.921L694.014 114.907L694 116.095ZM694 121.251L694.014 122.439L695.188 122.425V121.251H694ZM694 149.595H695.188V148.421L694.014 148.407L694 149.595ZM694 154.751L694.014 155.939L695.188 155.925V154.751H694ZM694 183.095H695.188V181.921L694.014 181.907L694 183.095ZM694 188.251L694.014 189.439L695.188 189.425V188.251H694ZM694 216.595H695.188V215.421L694.014 215.407L694 216.595ZM694 221.751L694.014 222.939L695.188 222.925V221.751H694ZM694 250.095H695.188V248.921L694.014 248.907L694 250.095ZM694 255.251L694.014 256.439L695.188 256.425V255.251H694ZM694 283.595H695.188V282.421L694.014 282.407L694 283.595ZM694 288.751L694.014 289.939L695.188 289.925V288.751H694ZM694 317.095H695.188V315.921L694.014 315.907L694 317.095ZM694 322.251L694.014 323.439L695.188 323.425V322.251H694ZM694 350.595H695.188V349.421L694.014 349.407L694 350.595ZM694 355.751L694.014 356.939L695.188 356.925V355.751H694ZM694 384.095H695.188V382.921L694.014 382.907L694 384.095ZM694 389.251L694.014 390.439L695.188 390.425V389.251H694ZM694 417.595H695.188V416.421L694.014 416.407L694 417.595ZM694 422.751L694.014 423.939L695.188 423.925V422.751H694ZM694 451.095H695.188V449.921L694.014 449.907L694 451.095ZM694 456.251L694.014 457.439L695.188 457.425V456.251H694ZM694 484.595H695.188V483.421L694.014 483.407L694 484.595ZM694 489.751L694.014 490.939L695.188 490.925V489.751H694ZM694 518.095H695.188V516.921L694.014 516.907L694 518.095ZM694 523.251L694.014 524.439L695.188 524.425V523.251H694ZM694 551.595H695.188V550.421L694.014 550.407L694 551.595ZM694 556.751L694.014 557.939L695.188 557.925V556.751H694ZM694 585.095H695.188V583.921L694.014 583.907L694 585.095ZM694 590.251L694.014 591.439L695.188 591.425V590.251H694ZM694 618.595H695.188V617.421L694.014 617.407L694 618.595ZM694 623.751L694.014 624.939L695.188 624.925V623.751H694ZM694 652.095H695.188V650.921L694.014 650.907L694 652.095ZM694 657.251L694.014 658.439L695.188 658.425V657.251H694ZM694 685.595H695.188V684.421L694.014 684.407L694 685.595ZM694 690.751L694.014 691.939L695.188 691.925V690.751H694ZM694 719.095H695.188V717.921L694.014 717.907L694 719.095ZM694 724.251L694.014 725.439L695.188 725.425V724.251H694ZM694 752.595H695.188V751.421L694.014 751.407L694 752.595ZM694 757.751L694.014 758.939L695.188 758.925V757.751H694ZM694 786.095H695.188V784.921L694.014 784.907L694 786.095ZM694 791.251L694.014 792.439L695.188 792.425V791.251H694ZM694 819.595H695.188V818.421L694.014 818.407L694 819.595ZM694 824.751L694.014 825.939L695.188 825.925V824.751H694ZM694 853.095H695.188V851.921L694.014 851.907L694 853.095ZM694 858.251L694.014 859.439L695.188 859.425V858.251H694ZM680.007 872V873.188H681.16L681.194 872.035L680.007 872ZM677.96 872L676.773 872.014L676.787 873.188H677.96V872ZM649.616 872V873.188H650.79L650.804 872.014L649.616 872ZM644.614 872L643.426 872.014L643.44 873.188H644.614V872ZM616.27 872V873.188H617.444L617.458 872.014L616.27 872ZM611.268 872L610.08 872.014L610.094 873.188H611.268V872ZM582.924 872V873.188H584.098L584.112 872.014L582.924 872ZM577.922 872L576.734 872.014L576.748 873.188H577.922V872ZM549.578 872V873.188H550.752L550.766 872.014L549.578 872ZM544.576 872L543.388 872.014L543.402 873.188H544.576V872ZM516.232 872V873.188H517.406L517.42 872.014L516.232 872ZM511.23 872L510.042 872.014L510.056 873.188H511.23V872ZM482.886 872V873.188H484.06L484.074 872.014L482.886 872ZM477.884 872L476.696 872.014L476.71 873.188H477.884V872ZM449.54 872V873.188H450.713L450.727 872.014L449.54 872ZM444.538 872L443.35 872.014L443.364 873.188H444.538V872ZM416.193 872V873.188H417.367L417.381 872.014L416.193 872ZM411.191 872L410.003 872.014L410.018 873.188H411.191V872ZM382.847 872V873.188H384.021L384.035 872.014L382.847 872ZM377.845 872L376.657 872.014L376.671 873.188H377.845V872ZM349.501 872V873.188H350.675L350.689 872.014L349.501 872ZM344.499 872L343.311 872.014L343.325 873.188H344.499V872ZM316.155 872V873.188H317.329L317.343 872.014L316.155 872ZM311.153 872L309.965 872.014L309.979 873.188H311.153V872ZM282.809 872V873.188H283.983L283.997 872.014L282.809 872ZM277.807 872L276.619 872.014L276.633 873.188H277.807V872ZM249.463 872V873.188H250.636L250.65 872.014L249.463 872ZM244.461 872L243.273 872.014L243.287 873.188H244.461V872ZM216.116 872V873.188H217.29L217.304 872.014L216.116 872ZM211.114 872L209.927 872.014L209.941 873.188H211.114V872ZM182.77 872V873.188H183.944L183.958 872.014L182.77 872ZM177.768 872L176.58 872.014L176.594 873.188H177.768V872ZM149.424 872V873.188H150.598L150.612 872.014L149.424 872ZM144.422 872L143.234 872.014L143.248 873.188H144.422V872ZM116.078 872V873.188H117.252L117.266 872.014L116.078 872ZM111.076 872L109.888 872.014L109.902 873.188H111.076V872ZM82.7318 872V873.188H83.9056L83.9197 872.014L82.7318 872ZM77.7298 872L76.5419 872.014L76.5559 873.188H77.7298V872ZM49.3857 872V873.188H50.5595L50.5735 872.014L49.3857 872ZM44.3836 872L43.1957 872.014L43.2098 873.188H44.3836V872ZM16.0395 872V873.188H17.2133L17.2274 872.014L16.0395 872ZM14.3404 872L13.153 872.035L13.1868 873.188H14.3404V872ZM0 858.251H-1.18794V859.453L0.0138046 859.439L0 858.251ZM0 853.095L0.0138046 851.907L-1.18794 851.893V853.095H0ZM0 824.751H-1.18794V825.953L0.0138045 825.939L0 824.751ZM0 819.595L0.0138044 818.407L-1.18794 818.393V819.595H0ZM14.3466 805.423H13.1587H14.3466ZM0 791.251H-1.18794V792.453L0.0138043 792.439L0 791.251ZM0 786.095L0.0138043 784.907L-1.18794 784.893V786.095H0ZM0 757.751H-1.18794V758.953L0.0138042 758.939L0 757.751ZM0 752.595L0.0138042 751.407L-1.18794 751.393V752.595H0ZM14.3466 738.423H15.5346H14.3466ZM0 724.251H-1.18794V725.453L0.0138041 725.439L0 724.251ZM0 719.095L0.0138041 717.907L-1.18794 717.893V719.095H0ZM0 690.751H-1.18794V691.953L0.013804 691.939L0 690.751ZM0 685.595L0.013804 684.407L-1.18794 684.393V685.595H0ZM14.3467 671.423H15.5346H14.3467ZM0 657.251H-1.18794V658.453L0.0138039 658.439L0 657.251ZM0 652.095L0.0138039 650.907L-1.18794 650.893V652.095H0ZM14.3467 637.923H13.1587H14.3467ZM0 623.751H-1.18794V624.953L0.0138038 624.939L0 623.751ZM0 618.595L0.0138037 617.407L-1.18794 617.393V618.595H0ZM14.3467 604.423H15.5346H14.3467ZM0 590.251H-1.18794V591.453L0.0138036 591.439L0 590.251ZM0 585.095L0.0138036 583.907L-1.18794 583.893V585.095H0ZM14.3467 570.923H13.1587H14.3467ZM0 556.751H-1.18794V557.953L0.0138035 557.939L0 556.751ZM0 551.595L0.0138035 550.407L-1.18794 550.393V551.595H0ZM14.3467 537.423H15.5346H14.3467ZM0 523.251H-1.18794V524.453L0.0138034 524.439L0 523.251ZM0 518.095L0.0138034 516.907L-1.18794 516.893V518.095H0ZM14.3467 503.923H13.1587H14.3467ZM0 489.751H-1.18794V490.954L0.0144306 490.939L0 489.751ZM0 484.595L0.0144306 483.407L-1.18794 483.393V484.595H0ZM14.3467 470.423H15.5346H14.3467ZM0 456.251H-1.18794V457.454L0.0144305 457.439L0 456.251ZM0 451.095L0.0144305 449.907L-1.18794 449.893V451.095H0ZM14.3467 436.923H13.1587H14.3467ZM0 422.751H-1.18794V423.954L0.0144304 423.939L0 422.751ZM0 417.595L0.0144304 416.407L-1.18794 416.393V417.595H0ZM0 389.251H-1.18794V390.454L0.0144303 390.439L0 389.251ZM0 384.095L0.0144302 382.907L-1.18794 382.893V384.095H0ZM14.3467 369.923H13.1587H14.3467ZM0 355.751H-1.18794V356.954L0.0144301 356.939L0 355.751ZM0 350.595L0.0144301 349.407L-1.18794 349.393V350.595H0ZM0 322.251H-1.18794V323.454L0.01443 323.439L0 322.251ZM0 317.095L0.01443 315.907L-1.18794 315.893V317.095H0ZM14.3467 302.923H15.5346H14.3467ZM0 288.751H-1.18794V289.954L0.0144299 289.939L0 288.751ZM0 283.595L0.0144299 282.407L-1.18794 282.393V283.595H0ZM0 255.251H-1.18794V256.453L0.0141161 256.439L0 255.251ZM0 250.095L0.0141161 248.907L-1.18794 248.893V250.095H0ZM14.3467 235.923H15.5346H14.3467ZM0 221.751H-1.18794V222.953L0.014116 222.939L0 221.751ZM0 216.595L0.014116 215.407L-1.18794 215.393V216.595H0ZM0 188.251H-1.18794V189.453L0.0141159 189.439L0 188.251ZM0 183.095L0.0141159 181.907L-1.18794 181.893V183.095H0ZM14.3467 168.923H15.5346H14.3467ZM0 154.751H-1.18794V155.953L0.0141158 155.939L0 154.751ZM0 149.595L0.0141158 148.407L-1.18794 148.393V149.595H0ZM14.3467 135.423H13.1587H14.3467ZM0 121.251H-1.18794V122.453L0.0142725 122.439L0 121.251ZM0 116.095L0.0142725 114.907L-1.18794 114.893V116.095H0ZM14.3467 101.923H15.5346H14.3467ZM0 87.7511H-1.18794V88.9534L0.0142723 88.9389L0 87.7511ZM0 82.5951L0.0142723 81.4073L-1.18794 81.3928V82.5951H0ZM14.3467 68.4231H13.1587H14.3467ZM0 54.251H-1.18794V55.4534L0.0142722 55.4389L0 54.251ZM0 49.0951L0.0142722 47.9073L-1.18794 47.8928V49.0951H0ZM14.3467 34.9231H15.5346H14.3467ZM0 20.751H-1.18794V21.9533L0.0142721 21.9389L0 20.751ZM0.1736 14.4082C0.120409 14.4082 0.0672923 14.4079 0.0142525 14.4073L-0.0142525 16.783C0.0482759 16.7837 0.110894 16.7841 0.1736 16.7841V14.4082ZM13.1587 1.42308C13.1587 8.59457 7.34509 14.4082 0.1736 14.4082L0.1736 16.7841C8.65726 16.7841 15.5346 9.90674 15.5346 1.42308H13.1587ZM13.094 0.117851C13.1368 0.546782 13.1587 0.982184 13.1587 1.42308H15.5346C15.5346 0.903344 15.5088 0.389278 15.4582 -0.117851L13.094 0.117851ZM16.0395 -1.18794H14.2761V1.18794H16.0395V-1.18794ZM17.2264 0.173079C17.2264 0.120063 17.2267 0.0671019 17.2274 0.014197L14.8516 -0.014197C14.8509 0.0481197 14.8505 0.110546 14.8505 0.173079H17.2264ZM30.2115 13.1582C23.0401 13.1582 17.2264 7.34457 17.2264 0.173079H14.8505C14.8505 8.65674 21.7279 15.5341 30.2115 15.5341V13.1582ZM43.1967 0.173079C43.1967 7.34457 37.383 13.1582 30.2115 13.1582V15.5341C38.6952 15.5341 45.5726 8.65674 45.5726 0.173079H43.1967ZM43.1957 0.0142364C43.1964 0.0670626 43.1967 0.12001 43.1967 0.173079H45.5726C45.5726 0.110598 45.5722 0.048159 45.5714 -0.0142364L43.1957 0.0142364ZM49.3857 -1.18794H44.3836V1.18794H49.3857V-1.18794ZM50.5726 0.173079C50.5726 0.12001 50.5729 0.0670626 50.5735 0.0142364L48.1978 -0.0142364C48.1971 0.048159 48.1967 0.110598 48.1967 0.173079H50.5726ZM63.5577 13.1582C56.3862 13.1582 50.5726 7.34457 50.5726 0.173079H48.1967C48.1967 8.65674 55.0741 15.5341 63.5577 15.5341V13.1582ZM76.5428 0.173079C76.5428 7.34457 70.7292 13.1582 63.5577 13.1582V15.5341C72.0414 15.5341 78.9187 8.65674 78.9187 0.173079H76.5428ZM76.5419 0.0141577C76.5425 0.0671415 76.5428 0.120115 76.5428 0.173079H78.9187C78.9187 0.110494 78.9184 0.0480801 78.9176 -0.0141577L76.5419 0.0141577ZM82.7318 -1.18794H77.7298V1.18794H82.7318V-1.18794ZM83.9187 0.173079C83.9187 0.120115 83.9191 0.0671415 83.9197 0.0141577L81.544 -0.0141577C81.5432 0.0480801 81.5428 0.110494 81.5428 0.173079H83.9187ZM96.9039 13.1582C89.7324 13.1582 83.9187 7.34457 83.9187 0.173079H81.5428C81.5428 8.65674 88.4202 15.5341 96.9039 15.5341V13.1582ZM109.889 0.173079C109.889 7.34457 104.075 13.1582 96.9039 13.1582V15.5341C105.388 15.5341 112.265 8.65674 112.265 0.173079H109.889ZM109.888 0.0141577C109.889 0.0671415 109.889 0.120115 109.889 0.173079H112.265C112.265 0.110494 112.265 0.0480801 112.264 -0.0141577L109.888 0.0141577ZM116.078 -1.18794H111.076V1.18794H116.078V-1.18794ZM117.265 0.173079C117.265 0.120115 117.265 0.0671415 117.266 0.0141577L114.89 -0.0141577C114.889 0.0480801 114.889 0.110494 114.889 0.173079H117.265ZM130.25 13.1582C123.079 13.1582 117.265 7.34457 117.265 0.173079H114.889C114.889 8.65674 121.766 15.5341 130.25 15.5341V13.1582ZM143.235 0.173079C143.235 7.34457 137.422 13.1582 130.25 13.1582V15.5341C138.734 15.5341 145.611 8.65674 145.611 0.173079H143.235ZM143.234 0.0141577C143.235 0.0671415 143.235 0.120115 143.235 0.173079H145.611C145.611 0.110494 145.611 0.0480801 145.61 -0.0141577L143.234 0.0141577ZM149.424 -1.18794H144.422V1.18794H149.424V-1.18794ZM150.611 0.173079C150.611 0.120115 150.611 0.0671415 150.612 0.0141577L148.236 -0.0141577C148.236 0.0480801 148.235 0.110494 148.235 0.173079H150.611ZM163.596 13.1582C156.425 13.1582 150.611 7.34457 150.611 0.173079H148.235C148.235 8.65674 155.113 15.5341 163.596 15.5341V13.1582ZM176.581 0.173079C176.581 7.34457 170.768 13.1582 163.596 13.1582V15.5341C172.08 15.5341 178.957 8.65674 178.957 0.173079H176.581ZM176.58 0.0141577C176.581 0.0671415 176.581 0.120115 176.581 0.173079H178.957C178.957 0.110494 178.957 0.0480801 178.956 -0.0141577L176.58 0.0141577ZM182.77 -1.18794H177.768V1.18794H182.77V-1.18794ZM183.957 0.173079C183.957 0.120115 183.958 0.0671415 183.958 0.0141577L181.582 -0.0141577C181.582 0.0480801 181.581 0.110494 181.581 0.173079H183.957ZM196.942 13.1582C189.771 13.1582 183.957 7.34457 183.957 0.173079H181.581C181.581 8.65674 188.459 15.5341 196.942 15.5341V13.1582ZM209.927 0.173079C209.927 7.34457 204.114 13.1582 196.942 13.1582V15.5341C205.426 15.5341 212.303 8.65674 212.303 0.173079H209.927ZM209.927 0.0141577C209.927 0.0671415 209.927 0.120115 209.927 0.173079H212.303C212.303 0.110494 212.303 0.0480801 212.302 -0.0141577L209.927 0.0141577ZM216.116 -1.18794H211.114V1.18794H216.116V-1.18794ZM217.303 0.173079C217.303 0.120115 217.304 0.0671415 217.304 0.0141577L214.929 -0.0141577C214.928 0.0480801 214.927 0.110494 214.927 0.173079H217.303ZM230.288 13.1582C223.117 13.1582 217.303 7.34457 217.303 0.173079H214.927C214.927 8.65674 221.805 15.5341 230.288 15.5341V13.1582ZM243.274 0.173079C243.274 7.34457 237.46 13.1582 230.288 13.1582V15.5341C238.772 15.5341 245.65 8.65674 245.65 0.173079H243.274ZM243.273 0.0141577C243.273 0.0671415 243.274 0.120115 243.274 0.173079H245.65C245.65 0.110494 245.649 0.0480801 245.648 -0.0141577L243.273 0.0141577ZM249.463 -1.18794H244.461V1.18794H249.463V-1.18794ZM250.65 0.173079C250.65 0.120115 250.65 0.0671415 250.65 0.0141577L248.275 -0.0141577C248.274 0.0480801 248.274 0.110494 248.274 0.173079H250.65ZM263.635 13.1582C256.463 13.1582 250.65 7.34457 250.65 0.173079H248.274C248.274 8.65674 255.151 15.5341 263.635 15.5341V13.1582ZM276.62 0.173079C276.62 7.34457 270.806 13.1582 263.635 13.1582V15.5341C272.118 15.5341 278.996 8.65674 278.996 0.173079H276.62ZM276.619 0.0144723C276.619 0.067039 276.62 0.119903 276.62 0.173079H278.996C278.996 0.110705 278.995 0.0481826 278.995 -0.0144723L276.619 0.0144723ZM282.809 -1.18794H277.807V1.18794H282.809V-1.18794ZM283.996 0.173079C283.996 0.119903 283.996 0.067039 283.997 0.0144723L281.621 -0.0144723C281.62 0.0481826 281.62 0.110705 281.62 0.173079H283.996ZM296.981 13.1582C289.809 13.1582 283.996 7.34457 283.996 0.173079H281.62C281.62 8.65673 288.497 15.5341 296.981 15.5341V13.1582ZM309.966 0.173079C309.966 7.34457 304.152 13.1582 296.981 13.1582V15.5341C305.464 15.5341 312.342 8.65674 312.342 0.173079H309.966ZM309.965 0.0144723C309.966 0.067039 309.966 0.119903 309.966 0.173079H312.342C312.342 0.110705 312.341 0.0481826 312.341 -0.0144723L309.965 0.0144723ZM316.155 -1.18794H311.153V1.18794H316.155V-1.18794ZM317.342 0.173079C317.342 0.119903 317.342 0.067039 317.343 0.0144723L314.967 -0.0144723C314.966 0.0481826 314.966 0.110705 314.966 0.173079H317.342ZM330.327 13.1582C323.155 13.1582 317.342 7.34457 317.342 0.173079H314.966C314.966 8.65673 321.843 15.5341 330.327 15.5341V13.1582ZM343.312 0.173079C343.312 7.34457 337.498 13.1582 330.327 13.1582V15.5341C338.811 15.5341 345.688 8.65674 345.688 0.173079H343.312ZM343.311 0.0144723C343.312 0.067039 343.312 0.119903 343.312 0.173079H345.688C345.688 0.110705 345.688 0.0481826 345.687 -0.0144723L343.311 0.0144723ZM349.501 -1.18794H344.499V1.18794H349.501V-1.18794ZM350.688 0.173079C350.688 0.119903 350.688 0.067039 350.689 0.0144723L348.313 -0.0144723C348.312 0.0481826 348.312 0.110705 348.312 0.173079H350.688ZM363.673 13.1582C356.502 13.1582 350.688 7.34457 350.688 0.173079H348.312C348.312 8.65673 355.189 15.5341 363.673 15.5341V13.1582ZM376.658 0.173079C376.658 7.34457 370.845 13.1582 363.673 13.1582V15.5341C372.157 15.5341 379.034 8.65674 379.034 0.173079H376.658ZM376.657 0.0144723C376.658 0.067039 376.658 0.119903 376.658 0.173079H379.034C379.034 0.110705 379.034 0.0481826 379.033 -0.0144723L376.657 0.0144723ZM382.847 -1.18794H377.845V1.18794H382.847V-1.18794ZM384.034 0.173079C384.034 0.119903 384.034 0.067039 384.035 0.0144723L381.659 -0.0144723C381.659 0.0481826 381.658 0.110705 381.658 0.173079H384.034ZM397.019 13.1582C389.848 13.1582 384.034 7.34457 384.034 0.173079H381.658C381.658 8.65673 388.536 15.5341 397.019 15.5341V13.1582ZM410.004 0.173079C410.004 7.34457 404.191 13.1582 397.019 13.1582V15.5341C405.503 15.5341 412.38 8.65674 412.38 0.173079H410.004ZM410.003 0.0144723C410.004 0.067039 410.004 0.119903 410.004 0.173079H412.38C412.38 0.110705 412.38 0.0481826 412.379 -0.0144723L410.003 0.0144723ZM416.193 -1.18794H411.191V1.18794H416.193V-1.18794ZM417.38 0.173079C417.38 0.119903 417.381 0.067039 417.381 0.0144723L415.006 -0.0144723C415.005 0.0481826 415.004 0.110705 415.004 0.173079H417.38ZM430.365 13.1582C423.194 13.1582 417.38 7.34457 417.38 0.173079H415.004C415.004 8.65673 421.882 15.5341 430.365 15.5341V13.1582ZM443.351 0.173079C443.351 7.34457 437.537 13.1582 430.365 13.1582V15.5341C438.849 15.5341 445.727 8.65674 445.727 0.173079H443.351ZM443.35 0.0144723C443.35 0.067039 443.351 0.119903 443.351 0.173079H445.727C445.727 0.110705 445.726 0.0481826 445.725 -0.0144723L443.35 0.0144723ZM449.54 -1.18794H444.538V1.18794H449.54V-1.18794ZM450.726 0.173079C450.726 0.119903 450.727 0.067039 450.727 0.0144723L448.352 -0.0144723C448.351 0.0481826 448.351 0.110705 448.351 0.173079H450.726ZM463.712 13.1582C456.54 13.1582 450.726 7.34457 450.726 0.173079H448.351C448.351 8.65673 455.228 15.5341 463.712 15.5341V13.1582ZM476.697 0.173079C476.697 7.34457 470.883 13.1582 463.712 13.1582V15.5341C472.195 15.5341 479.073 8.65674 479.073 0.173079H476.697ZM476.696 0.0144723C476.696 0.067039 476.697 0.119903 476.697 0.173079H479.073C479.073 0.110705 479.072 0.0481826 479.072 -0.0144723L476.696 0.0144723ZM482.886 -1.18794H477.884V1.18794H482.886V-1.18794ZM484.073 0.173079C484.073 0.119903 484.073 0.067039 484.074 0.0144723L481.698 -0.0144723C481.697 0.0481826 481.697 0.110705 481.697 0.173079H484.073ZM497.058 13.1582C489.886 13.1582 484.073 7.34457 484.073 0.173079H481.697C481.697 8.65673 488.574 15.5341 497.058 15.5341V13.1582ZM510.043 0.173079C510.043 7.34457 504.229 13.1582 497.058 13.1582V15.5341C505.541 15.5341 512.419 8.65674 512.419 0.173079H510.043ZM510.042 0.0144723C510.043 0.067039 510.043 0.119903 510.043 0.173079H512.419C512.419 0.110705 512.418 0.0481826 512.418 -0.0144723L510.042 0.0144723ZM516.232 -1.18794H511.23V1.18794H516.232V-1.18794ZM517.419 0.173079C517.419 0.120316 517.419 0.0672548 517.42 0.0138432L515.044 -0.0138432C515.043 0.0479669 515.043 0.110293 515.043 0.173079H517.419ZM530.404 13.1582C523.232 13.1582 517.419 7.34457 517.419 0.173079H515.043C515.043 8.65674 521.92 15.5341 530.404 15.5341V13.1582ZM543.389 0.173079C543.389 7.34457 537.575 13.1582 530.404 13.1582V15.5341C538.888 15.5341 545.765 8.65673 545.765 0.173079H543.389ZM543.388 0.0138432C543.389 0.0672548 543.389 0.120316 543.389 0.173079H545.765C545.765 0.110293 545.764 0.0479669 545.764 -0.0138432L543.388 0.0138432ZM549.578 -1.18794H544.576V1.18794H549.578V-1.18794ZM550.765 0.173079C550.765 0.120316 550.765 0.0672548 550.766 0.0138432L548.39 -0.0138432C548.389 0.0479669 548.389 0.110293 548.389 0.173079H550.765ZM563.75 13.1582C556.578 13.1582 550.765 7.34457 550.765 0.173079H548.389C548.389 8.65674 555.266 15.5341 563.75 15.5341V13.1582ZM576.735 0.173079C576.735 7.34457 570.922 13.1582 563.75 13.1582V15.5341C572.234 15.5341 579.111 8.65673 579.111 0.173079H576.735ZM576.734 0.0138432C576.735 0.0672548 576.735 0.120316 576.735 0.173079H579.111C579.111 0.110293 579.111 0.0479669 579.11 -0.0138432L576.734 0.0138432ZM582.924 -1.18794H577.922V1.18794H582.924V-1.18794ZM584.111 0.173079C584.111 0.120316 584.111 0.0672548 584.112 0.0138432L581.736 -0.0138432C581.735 0.0479669 581.735 0.110293 581.735 0.173079H584.111ZM597.096 13.1582C589.925 13.1582 584.111 7.34457 584.111 0.173079H581.735C581.735 8.65674 588.612 15.5341 597.096 15.5341V13.1582ZM610.081 0.173079C610.081 7.34457 604.268 13.1582 597.096 13.1582V15.5341C605.58 15.5341 612.457 8.65673 612.457 0.173079H610.081ZM610.08 0.0138432C610.081 0.0672548 610.081 0.120316 610.081 0.173079H612.457C612.457 0.110293 612.457 0.0479669 612.456 -0.0138432L610.08 0.0138432ZM616.27 -1.18794H611.268V1.18794H616.27V-1.18794ZM617.457 0.173079C617.457 0.120316 617.457 0.0672548 617.458 0.0138432L615.082 -0.0138432C615.082 0.0479669 615.081 0.110293 615.081 0.173079H617.457ZM630.442 13.1582C623.271 13.1582 617.457 7.34457 617.457 0.173079H615.081C615.081 8.65674 621.959 15.5341 630.442 15.5341V13.1582ZM643.427 0.173079C643.427 7.34457 637.614 13.1582 630.442 13.1582V15.5341C638.926 15.5341 645.803 8.65673 645.803 0.173079H643.427ZM643.426 0.0138432C643.427 0.0672548 643.427 0.120316 643.427 0.173079H645.803C645.803 0.110293 645.803 0.0479669 645.802 -0.0138432L643.426 0.0138432ZM649.616 -1.18794H644.614V1.18794H649.616V-1.18794ZM650.803 0.173079C650.803 0.120316 650.804 0.0672548 650.804 0.0138432L648.428 -0.0138432C648.428 0.0479669 648.427 0.110293 648.427 0.173079H650.803ZM663.788 13.1582C656.617 13.1582 650.803 7.34457 650.803 0.173079H648.427C648.427 8.65674 655.305 15.5341 663.788 15.5341V13.1582ZM676.773 0.173079C676.773 7.34457 670.96 13.1582 663.788 13.1582V15.5341C672.272 15.5341 679.149 8.65673 679.149 0.173079H676.773ZM676.773 0.0138432C676.773 0.0672548 676.773 0.120316 676.773 0.173079H679.149C679.149 0.110293 679.149 0.0479669 679.148 -0.0138432L676.773 0.0138432ZM680.071 -1.18794H677.96V1.18794H680.071V-1.18794ZM681.188 1.42308C681.188 0.982239 681.21 0.546812 681.253 0.117774L678.889 -0.117774C678.839 0.389248 678.813 0.903287 678.813 1.42308H681.188ZM694.014 14.4073C686.916 14.3221 681.188 8.5414 681.188 1.42308H678.813C678.813 9.84401 685.589 16.6822 693.986 16.783L694.014 14.4073ZM695.188 20.751V15.5951H692.812V20.751H695.188ZM681.188 34.9231C681.188 27.8048 686.916 22.0241 694.014 21.9389L693.986 19.5632C685.589 19.664 678.813 26.5021 678.813 34.9231H681.188ZM694.014 47.9073C686.916 47.8221 681.188 42.0414 681.188 34.9231H678.813C678.813 43.344 685.589 50.1822 693.986 50.283L694.014 47.9073ZM695.188 54.251V49.0951H692.812V54.251H695.188ZM681.188 68.4231C681.188 61.3047 686.916 55.5241 694.014 55.4389L693.986 53.0632C685.589 53.164 678.813 60.0021 678.813 68.4231H681.188ZM694.014 81.4073C686.916 81.3221 681.188 75.5414 681.188 68.4231H678.813C678.813 76.844 685.589 83.6822 693.986 83.783L694.014 81.4073ZM695.188 87.751V82.5951H692.812V87.751H695.188ZM681.188 101.923C681.188 94.8048 686.916 89.0241 694.014 88.9389L693.986 86.5632C685.589 86.664 678.813 93.5021 678.813 101.923H681.188ZM694.014 114.907C686.916 114.822 681.188 109.041 681.188 101.923H678.813C678.813 110.344 685.589 117.182 693.986 117.283L694.014 114.907ZM695.188 121.251V116.095H692.812V121.251H695.188ZM681.188 135.423C681.188 128.305 686.916 122.524 694.014 122.439L693.986 120.063C685.589 120.164 678.813 127.002 678.813 135.423H681.188ZM694.014 148.407C686.916 148.322 681.188 142.541 681.188 135.423H678.813C678.813 143.844 685.589 150.682 693.986 150.783L694.014 148.407ZM695.188 154.751V149.595H692.812V154.751H695.188ZM681.188 168.923C681.188 161.805 686.916 156.024 694.014 155.939L693.986 153.563C685.589 153.664 678.813 160.502 678.813 168.923H681.188ZM694.014 181.907C686.916 181.822 681.188 176.041 681.188 168.923H678.813C678.813 177.344 685.589 184.182 693.986 184.283L694.014 181.907ZM695.188 188.251V183.095H692.812V188.251H695.188ZM681.188 202.423C681.188 195.305 686.916 189.524 694.014 189.439L693.986 187.063C685.589 187.164 678.813 194.002 678.813 202.423H681.188ZM694.014 215.407C686.916 215.322 681.188 209.541 681.188 202.423H678.813C678.813 210.844 685.589 217.682 693.986 217.783L694.014 215.407ZM695.188 221.751V216.595H692.812V221.751H695.188ZM681.188 235.923C681.188 228.805 686.916 223.024 694.014 222.939L693.986 220.563C685.589 220.664 678.813 227.502 678.813 235.923H681.188ZM694.014 248.907C686.916 248.822 681.188 243.041 681.188 235.923H678.813C678.813 244.344 685.589 251.182 693.986 251.283L694.014 248.907ZM695.188 255.251V250.095H692.812V255.251H695.188ZM681.188 269.423C681.188 262.305 686.916 256.524 694.014 256.439L693.986 254.063C685.589 254.164 678.813 261.002 678.813 269.423H681.188ZM694.014 282.407C686.916 282.322 681.188 276.541 681.188 269.423H678.813C678.813 277.844 685.589 284.682 693.986 284.783L694.014 282.407ZM695.188 288.751V283.595H692.812V288.751H695.188ZM681.188 302.923C681.188 295.805 686.916 290.024 694.014 289.939L693.986 287.563C685.589 287.664 678.813 294.502 678.813 302.923H681.188ZM694.014 315.907C686.916 315.822 681.188 310.041 681.188 302.923H678.813C678.813 311.344 685.589 318.182 693.986 318.283L694.014 315.907ZM695.188 322.251V317.095H692.812V322.251H695.188ZM681.188 336.423C681.188 329.305 686.916 323.524 694.014 323.439L693.986 321.063C685.589 321.164 678.813 328.002 678.813 336.423H681.188ZM694.014 349.407C686.916 349.322 681.188 343.541 681.188 336.423H678.813C678.813 344.844 685.589 351.682 693.986 351.783L694.014 349.407ZM695.188 355.751V350.595H692.812V355.751H695.188ZM681.188 369.923C681.188 362.805 686.916 357.024 694.014 356.939L693.986 354.563C685.589 354.664 678.813 361.502 678.813 369.923H681.188ZM694.014 382.907C686.916 382.822 681.188 377.041 681.188 369.923H678.813C678.813 378.344 685.589 385.182 693.986 385.283L694.014 382.907ZM695.188 389.251V384.095H692.812V389.251H695.188ZM681.188 403.423C681.188 396.305 686.916 390.524 694.014 390.439L693.986 388.063C685.589 388.164 678.813 395.002 678.813 403.423H681.188ZM694.014 416.407C686.916 416.322 681.188 410.541 681.188 403.423H678.813C678.813 411.844 685.589 418.682 693.986 418.783L694.014 416.407ZM695.188 422.751V417.595H692.812V422.751H695.188ZM681.188 436.923C681.188 429.805 686.916 424.024 694.014 423.939L693.986 421.563C685.589 421.664 678.813 428.502 678.813 436.923H681.188ZM694.014 449.907C686.916 449.822 681.188 444.041 681.188 436.923H678.813C678.813 445.344 685.589 452.182 693.986 452.283L694.014 449.907ZM695.188 456.251V451.095H692.812V456.251H695.188ZM681.188 470.423C681.188 463.305 686.916 457.524 694.014 457.439L693.986 455.063C685.589 455.164 678.813 462.002 678.813 470.423H681.188ZM694.014 483.407C686.916 483.322 681.188 477.541 681.188 470.423H678.813C678.813 478.844 685.589 485.682 693.986 485.783L694.014 483.407ZM695.188 489.751V484.595H692.812V489.751H695.188ZM681.188 503.923C681.188 496.805 686.916 491.024 694.014 490.939L693.986 488.563C685.589 488.664 678.813 495.502 678.813 503.923H681.188ZM694.014 516.907C686.916 516.822 681.188 511.041 681.188 503.923H678.813C678.813 512.344 685.589 519.182 693.986 519.283L694.014 516.907ZM695.188 523.251V518.095H692.812V523.251H695.188ZM681.188 537.423C681.188 530.305 686.916 524.524 694.014 524.439L693.986 522.063C685.589 522.164 678.813 529.002 678.813 537.423H681.188ZM694.014 550.407C686.916 550.322 681.188 544.542 681.188 537.423H678.813C678.813 545.844 685.589 552.682 693.986 552.783L694.014 550.407ZM695.188 556.751V551.595H692.812V556.751H695.188ZM681.188 570.923C681.188 563.805 686.916 558.024 694.014 557.939L693.986 555.563C685.589 555.664 678.813 562.502 678.813 570.923H681.188ZM694.014 583.907C686.916 583.822 681.188 578.042 681.188 570.923H678.813C678.813 579.344 685.589 586.182 693.986 586.283L694.014 583.907ZM695.188 590.251V585.095H692.812V590.251H695.188ZM681.188 604.423C681.188 597.305 686.916 591.524 694.014 591.439L693.986 589.063C685.589 589.164 678.813 596.002 678.813 604.423H681.188ZM694.014 617.407C686.916 617.322 681.188 611.542 681.188 604.423H678.813C678.813 612.844 685.589 619.682 693.986 619.783L694.014 617.407ZM695.188 623.751V618.595H692.812V623.751H695.188ZM681.188 637.923C681.188 630.805 686.916 625.024 694.014 624.939L693.986 622.563C685.589 622.664 678.813 629.502 678.813 637.923H681.188ZM694.014 650.907C686.916 650.822 681.188 645.042 681.188 637.923H678.813C678.813 646.344 685.589 653.182 693.986 653.283L694.014 650.907ZM695.188 657.251V652.095H692.812V657.251H695.188ZM681.188 671.423C681.188 664.305 686.916 658.524 694.014 658.439L693.986 656.063C685.589 656.164 678.813 663.002 678.813 671.423H681.188ZM694.014 684.407C686.916 684.322 681.188 678.542 681.188 671.423H678.813C678.813 679.844 685.589 686.682 693.986 686.783L694.014 684.407ZM695.188 690.751V685.595H692.812V690.751H695.188ZM681.188 704.923C681.188 697.805 686.916 692.024 694.014 691.939L693.986 689.563C685.589 689.664 678.813 696.502 678.813 704.923H681.188ZM694.014 717.907C686.916 717.822 681.188 712.042 681.188 704.923H678.813C678.813 713.344 685.589 720.182 693.986 720.283L694.014 717.907ZM695.188 724.251V719.095H692.812V724.251H695.188ZM681.188 738.423C681.188 731.305 686.916 725.524 694.014 725.439L693.986 723.063C685.589 723.164 678.813 730.002 678.813 738.423H681.188ZM694.014 751.407C686.916 751.322 681.188 745.542 681.188 738.423H678.813C678.813 746.844 685.589 753.682 693.986 753.783L694.014 751.407ZM695.188 757.751V752.595H692.812V757.751H695.188ZM681.188 771.923C681.188 764.805 686.916 759.024 694.014 758.939L693.986 756.563C685.589 756.664 678.813 763.502 678.813 771.923H681.188ZM694.014 784.907C686.916 784.822 681.188 779.042 681.188 771.923H678.813C678.813 780.344 685.589 787.182 693.986 787.283L694.014 784.907ZM695.188 791.251V786.095H692.812V791.251H695.188ZM681.188 805.423C681.188 798.305 686.916 792.524 694.014 792.439L693.986 790.063C685.589 790.164 678.813 797.002 678.813 805.423H681.188ZM694.014 818.407C686.916 818.322 681.188 812.542 681.188 805.423H678.813C678.813 813.844 685.589 820.682 693.986 820.783L694.014 818.407ZM695.188 824.751V819.595H692.812V824.751H695.188ZM681.188 838.923C681.188 831.805 686.916 826.024 694.014 825.939L693.986 823.563C685.589 823.664 678.813 830.502 678.813 838.923H681.188ZM694.014 851.907C686.916 851.822 681.188 846.042 681.188 838.923H678.813C678.813 847.344 685.589 854.182 693.986 854.283L694.014 851.907ZM695.188 858.251V853.095H692.812V858.251H695.188ZM681.194 872.035C681.398 865.096 687.046 859.523 694.014 859.439L693.986 857.063C685.741 857.162 679.06 863.755 678.819 871.965L681.194 872.035ZM677.96 873.188H680.007V870.812H677.96V873.188ZM663.788 859.188C670.907 859.188 676.688 864.916 676.773 872.014L679.148 871.986C679.048 863.588 672.209 856.812 663.788 856.812V859.188ZM650.804 872.014C650.889 864.916 656.67 859.188 663.788 859.188V856.812C655.367 856.812 648.529 863.588 648.428 871.986L650.804 872.014ZM644.614 873.188H649.616V870.812H644.614V873.188ZM630.442 859.188C637.561 859.188 643.341 864.916 643.426 872.014L645.802 871.986C645.702 863.588 638.863 856.812 630.442 856.812V859.188ZM617.458 872.014C617.543 864.916 623.324 859.188 630.442 859.188V856.812C622.021 856.812 615.183 863.588 615.082 871.986L617.458 872.014ZM611.268 873.188H616.27V870.812H611.268V873.188ZM597.096 859.188C604.215 859.188 609.995 864.916 610.08 872.014L612.456 871.986C612.355 863.588 605.517 856.812 597.096 856.812V859.188ZM584.112 872.014C584.197 864.916 589.978 859.188 597.096 859.188V856.812C588.675 856.812 581.837 863.588 581.736 871.986L584.112 872.014ZM577.922 873.188H582.924V870.812H577.922V873.188ZM563.75 859.188C570.868 859.188 576.649 864.916 576.734 872.014L579.11 871.986C579.009 863.588 572.171 856.812 563.75 856.812V859.188ZM550.766 872.014C550.851 864.916 556.632 859.188 563.75 859.188V856.812C555.329 856.812 548.491 863.588 548.39 871.986L550.766 872.014ZM544.576 873.188H549.578V870.812H544.576V873.188ZM530.404 859.188C537.522 859.188 543.303 864.916 543.388 872.014L545.764 871.986C545.663 863.588 538.825 856.812 530.404 856.812V859.188ZM517.42 872.014C517.505 864.916 523.285 859.188 530.404 859.188V856.812C521.983 856.812 515.144 863.588 515.044 871.986L517.42 872.014ZM511.23 873.188H516.232V870.812H511.23V873.188ZM497.058 859.188C504.176 859.188 509.957 864.916 510.042 872.014L512.418 871.986C512.317 863.588 505.479 856.812 497.058 856.812V859.188ZM484.074 872.014C484.158 864.916 489.939 859.188 497.058 859.188V856.812C488.637 856.812 481.798 863.588 481.698 871.986L484.074 872.014ZM477.884 873.188H482.886V870.812H477.884V873.188ZM463.712 859.188C470.83 859.188 476.611 864.916 476.696 872.014L479.072 871.986C478.971 863.588 472.133 856.812 463.712 856.812V859.188ZM450.727 872.014C450.812 864.916 456.593 859.188 463.712 859.188V856.812C455.29 856.812 448.452 863.588 448.352 871.986L450.727 872.014ZM444.538 873.188H449.54V870.812H444.538V873.188ZM430.365 859.188C437.484 859.188 443.265 864.916 443.35 872.014L445.725 871.986C445.625 863.588 438.787 856.812 430.365 856.812V859.188ZM417.381 872.014C417.466 864.916 423.247 859.188 430.365 859.188V856.812C421.944 856.812 415.106 863.588 415.006 871.986L417.381 872.014ZM411.191 873.188H416.193V870.812H411.191V873.188ZM397.019 859.188C404.138 859.188 409.919 864.916 410.003 872.014L412.379 871.986C412.279 863.588 405.44 856.812 397.019 856.812V859.188ZM384.035 872.014C384.12 864.916 389.901 859.188 397.019 859.188V856.812C388.598 856.812 381.76 863.588 381.659 871.986L384.035 872.014ZM377.845 873.188H382.847V870.812H377.845V873.188ZM363.673 859.188C370.792 859.188 376.572 864.916 376.657 872.014L379.033 871.986C378.933 863.588 372.094 856.812 363.673 856.812V859.188ZM350.689 872.014C350.774 864.916 356.555 859.188 363.673 859.188V856.812C355.252 856.812 348.414 863.588 348.313 871.986L350.689 872.014ZM344.499 873.188H349.501V870.812H344.499V873.188ZM330.327 859.188C337.445 859.188 343.226 864.916 343.311 872.014L345.687 871.986C345.586 863.588 338.748 856.812 330.327 856.812V859.188ZM317.343 872.014C317.428 864.916 323.208 859.188 330.327 859.188V856.812C321.906 856.812 315.068 863.588 314.967 871.986L317.343 872.014ZM311.153 873.188H316.155V870.812H311.153V873.188ZM296.981 859.188C304.099 859.188 309.88 864.916 309.965 872.014L312.341 871.986C312.24 863.588 305.402 856.812 296.981 856.812V859.188ZM283.997 872.014C284.082 864.916 289.862 859.188 296.981 859.188V856.812C288.56 856.812 281.721 863.588 281.621 871.986L283.997 872.014ZM277.807 873.188H282.809V870.812H277.807V873.188ZM263.635 859.188C270.753 859.188 276.534 864.916 276.619 872.014L278.995 871.986C278.894 863.588 272.056 856.812 263.635 856.812V859.188ZM250.65 872.014C250.735 864.916 256.516 859.188 263.635 859.188V856.812C255.214 856.812 248.375 863.588 248.275 871.986L250.65 872.014ZM244.461 873.188H249.463V870.812H244.461V873.188ZM230.288 859.188C237.407 859.188 243.188 864.916 243.273 872.014L245.648 871.986C245.548 863.588 238.71 856.812 230.288 856.812V859.188ZM217.304 872.014C217.389 864.916 223.17 859.188 230.288 859.188V856.812C221.867 856.812 215.029 863.588 214.929 871.986L217.304 872.014ZM211.114 873.188H216.116V870.812H211.114V873.188ZM196.942 859.188C204.061 859.188 209.842 864.916 209.927 872.014L212.302 871.986C212.202 863.588 205.363 856.812 196.942 856.812V859.188ZM183.958 872.014C184.043 864.916 189.824 859.188 196.942 859.188V856.812C188.521 856.812 181.683 863.588 181.582 871.986L183.958 872.014ZM177.768 873.188H182.77V870.812H177.768V873.188ZM163.596 859.188C170.715 859.188 176.495 864.916 176.58 872.014L178.956 871.986C178.856 863.588 172.017 856.812 163.596 856.812V859.188ZM150.612 872.014C150.697 864.916 156.478 859.188 163.596 859.188V856.812C155.175 856.812 148.337 863.588 148.236 871.986L150.612 872.014ZM144.422 873.188H149.424V870.812H144.422V873.188ZM130.25 859.188C137.368 859.188 143.149 864.916 143.234 872.014L145.61 871.986C145.509 863.588 138.671 856.812 130.25 856.812V859.188ZM117.266 872.014C117.351 864.916 123.132 859.188 130.25 859.188V856.812C121.829 856.812 114.991 863.588 114.89 871.986L117.266 872.014ZM111.076 873.188H116.078V870.812H111.076V873.188ZM96.9039 859.188C104.022 859.188 109.803 864.916 109.888 872.014L112.264 871.986C112.163 863.588 105.325 856.812 96.9039 856.812V859.188ZM83.9197 872.014C84.0046 864.916 89.7854 859.188 96.9039 859.188V856.812C88.4827 856.812 81.6445 863.588 81.544 871.986L83.9197 872.014ZM77.7298 873.188H82.7318V870.812H77.7298V873.188ZM63.5577 859.188C70.6762 859.188 76.4569 864.916 76.5419 872.014L78.9176 871.986C78.8171 863.588 71.9788 856.812 63.5577 856.812V859.188ZM50.5735 872.014C50.6585 864.916 56.4392 859.188 63.5577 859.188V856.812C55.1366 856.812 48.2983 863.588 48.1978 871.986L50.5735 872.014ZM44.3836 873.188H49.3857V870.812H44.3836V873.188ZM30.2115 859.188C37.33 859.188 43.1108 864.916 43.1957 872.014L45.5714 871.986C45.471 863.588 38.6327 856.812 30.2115 856.812V859.188ZM17.2274 872.014C17.3123 864.916 23.0931 859.188 30.2115 859.188V856.812C21.7904 856.812 14.9521 863.588 14.8516 871.986L17.2274 872.014ZM14.3404 873.188H16.0395V870.812H14.3404V873.188ZM0.173563 859.438C7.21517 859.438 12.948 865.043 13.153 872.035L15.5279 871.965C15.2853 863.693 8.50402 857.062 0.173563 857.062V859.438ZM0.0138046 859.439C0.0673889 859.438 0.120625 859.438 0.173563 859.438V857.062C0.110629 857.062 0.0481548 857.062 -0.0138046 857.063L0.0138046 859.439ZM-1.18794 853.095V858.251H1.18794V853.095H-1.18794ZM0.173563 851.908C0.120625 851.908 0.0673889 851.908 0.0138046 851.907L-0.0138046 854.283C0.0481549 854.284 0.110629 854.284 0.173563 854.284V851.908ZM13.1587 838.923C13.1587 846.095 7.34506 851.908 0.173563 851.908V854.284C8.65722 854.284 15.5346 847.407 15.5346 838.923H13.1587ZM0.173565 825.938C7.34505 825.938 13.1587 831.752 13.1587 838.923H15.5346C15.5346 830.44 8.65722 823.562 0.173565 823.562V825.938ZM0.0138045 825.939C0.0673893 825.938 0.120625 825.938 0.173565 825.938V823.562C0.11063 823.562 0.0481554 823.562 -0.0138045 823.563L0.0138045 825.939ZM-1.18794 819.595V824.751H1.18794V819.595H-1.18794ZM0.173565 818.408C0.120626 818.408 0.0673893 818.408 0.0138044 818.407L-0.0138044 820.783C0.0481555 820.784 0.11063 820.784 0.173565 820.784V818.408ZM13.1587 805.423C13.1587 812.595 7.34506 818.408 0.173565 818.408V820.784C8.65722 820.784 15.5346 813.907 15.5346 805.423H13.1587ZM0.173566 792.438C7.34506 792.438 13.1587 798.252 13.1587 805.423H15.5346C15.5346 796.94 8.65723 790.062 0.173566 790.062V792.438ZM0.0138043 792.439C0.0673897 792.438 0.120626 792.438 0.173566 792.438V790.062C0.110631 790.062 0.048156 790.062 -0.0138043 790.063L0.0138043 792.439ZM-1.18794 786.095V791.251H1.18794V786.095H-1.18794ZM0.173566 784.908C0.120627 784.908 0.0673897 784.908 0.0138043 784.907L-0.0138043 787.283C0.0481561 787.284 0.110631 787.284 0.173566 787.284V784.908ZM13.1587 771.923C13.1587 779.095 7.34506 784.908 0.173566 784.908V787.284C8.65722 787.284 15.5346 780.407 15.5346 771.923H13.1587ZM0.173567 758.938C7.34506 758.938 13.1587 764.752 13.1587 771.923H15.5346C15.5346 763.44 8.65723 756.562 0.173567 756.562V758.938ZM0.0138042 758.939C0.0673901 758.938 0.120627 758.938 0.173567 758.938V756.562C0.110632 756.562 0.0481565 756.562 -0.0138042 756.563L0.0138042 758.939ZM-1.18794 752.595V757.751H1.18794V752.595H-1.18794ZM0.173568 751.408C0.120627 751.408 0.0673902 751.408 0.0138042 751.407L-0.0138042 753.783C0.0481566 753.784 0.110632 753.784 0.173568 753.784V751.408ZM13.1587 738.423C13.1587 745.595 7.34506 751.408 0.173568 751.408V753.784C8.65722 753.784 15.5346 746.907 15.5346 738.423H13.1587ZM0.173569 725.438C7.34506 725.438 13.1587 731.252 13.1587 738.423H15.5346C15.5346 729.94 8.65723 723.062 0.173569 723.062V725.438ZM0.0138041 725.439C0.0673905 725.438 0.120628 725.438 0.173569 725.438V723.062C0.110633 723.062 0.0481571 723.062 -0.0138041 723.063L0.0138041 725.439ZM-1.18794 719.095V724.251H1.18794V719.095H-1.18794ZM0.173569 717.908C0.120628 717.908 0.0673906 717.908 0.0138041 717.907L-0.0138041 720.283C0.0481572 720.284 0.110633 720.284 0.173569 720.284V717.908ZM13.1587 704.923C13.1587 712.095 7.34507 717.908 0.173569 717.908V720.284C8.65722 720.284 15.5346 713.407 15.5346 704.923H13.1587ZM0.17357 691.938C7.34506 691.938 13.1587 697.752 13.1587 704.923H15.5346C15.5346 696.44 8.65723 689.562 0.17357 689.562V691.938ZM0.013804 691.939C0.0673909 691.938 0.120629 691.938 0.17357 691.938V689.562C0.110634 689.562 0.0481577 689.562 -0.013804 689.563L0.013804 691.939ZM-1.18794 685.595V690.751H1.18794V685.595H-1.18794ZM0.173571 684.408C0.120629 684.408 0.067391 684.408 0.013804 684.407L-0.013804 686.783C0.0481578 686.784 0.110634 686.784 0.173571 686.784V684.408ZM13.1587 671.423C13.1587 678.595 7.34507 684.408 0.173571 684.408V686.784C8.65722 686.784 15.5346 679.907 15.5346 671.423H13.1587ZM0.173572 658.438C7.34506 658.438 13.1587 664.252 13.1587 671.423H15.5346C15.5346 662.94 8.65723 656.062 0.173572 656.062V658.438ZM0.0138039 658.439C0.0673913 658.438 0.12063 658.438 0.173572 658.438V656.062C0.110635 656.062 0.0481582 656.062 -0.0138039 656.063L0.0138039 658.439ZM-1.18794 652.095V657.251H1.18794V652.095H-1.18794ZM0.173572 650.908C0.12063 650.908 0.0673914 650.908 0.0138039 650.907L-0.0138039 653.283C0.0481583 653.284 0.110635 653.284 0.173572 653.284V650.908ZM13.1587 637.923C13.1587 645.095 7.34507 650.908 0.173572 650.908V653.284C8.65723 653.284 15.5346 646.407 15.5346 637.923H13.1587ZM0.173573 624.938C7.34506 624.938 13.1587 630.752 13.1587 637.923H15.5346C15.5346 629.44 8.65723 622.562 0.173573 622.562V624.938ZM0.0138038 624.939C0.0673917 624.938 0.120631 624.938 0.173573 624.938V622.562C0.110636 622.562 0.0481588 622.562 -0.0138038 622.563L0.0138038 624.939ZM-1.18794 618.595V623.751H1.18794V618.595H-1.18794ZM0.173574 617.408C0.120631 617.408 0.0673918 617.408 0.0138037 617.407L-0.0138037 619.783C0.0481589 619.784 0.110637 619.784 0.173574 619.784V617.408ZM13.1587 604.423C13.1587 611.595 7.34507 617.408 0.173574 617.408V619.784C8.65723 619.784 15.5346 612.907 15.5346 604.423H13.1587ZM0.173575 591.438C7.34507 591.438 13.1587 597.252 13.1587 604.423H15.5346C15.5346 595.94 8.65724 589.062 0.173575 589.062V591.438ZM0.0138036 591.439C0.0673921 591.438 0.120632 591.438 0.173575 591.438V589.062C0.110637 589.062 0.0481594 589.062 -0.0138036 589.063L0.0138036 591.439ZM-1.18794 585.095V590.251H1.18794V585.095H-1.18794ZM0.173575 583.908C0.120632 583.908 0.0673922 583.908 0.0138036 583.907L-0.0138036 586.283C0.0481595 586.284 0.110638 586.284 0.173575 586.284V583.908ZM13.1587 570.923C13.1587 578.095 7.34507 583.908 0.173575 583.908V586.284C8.65723 586.284 15.5346 579.407 15.5346 570.923H13.1587ZM0.173576 557.938C7.34507 557.938 13.1587 563.752 13.1587 570.923H15.5346C15.5346 562.44 8.65724 555.562 0.173576 555.562V557.938ZM0.0138035 557.939C0.0673925 557.938 0.120633 557.938 0.173576 557.938V555.562C0.110638 555.562 0.0481599 555.562 -0.0138035 555.563L0.0138035 557.939ZM-1.18794 551.595V556.751H1.18794V551.595H-1.18794ZM0.173576 550.408C0.120633 550.408 0.0673926 550.408 0.0138035 550.407L-0.0138035 552.783C0.04816 552.784 0.110639 552.784 0.173576 552.784V550.408ZM13.1587 537.423C13.1587 544.595 7.34507 550.408 0.173576 550.408V552.784C8.65723 552.784 15.5346 545.907 15.5346 537.423H13.1587ZM0.173578 524.438C7.34507 524.438 13.1587 530.252 13.1587 537.423H15.5346C15.5346 528.94 8.65724 522.062 0.173578 522.062V524.438ZM0.0138034 524.439C0.0673929 524.438 0.120634 524.438 0.173578 524.438V522.062C0.110639 522.062 0.0481605 522.062 -0.0138034 522.063L0.0138034 524.439ZM-1.18794 518.095V523.251H1.18794V518.095H-1.18794ZM0.173578 516.908C0.120634 516.908 0.067393 516.908 0.0138034 516.907L-0.0138034 519.283C0.0481606 519.284 0.11064 519.284 0.173578 519.284V516.908ZM13.1587 503.923C13.1587 511.095 7.34507 516.908 0.173578 516.908V519.284C8.65724 519.284 15.5346 512.407 15.5346 503.923H13.1587ZM0.173579 490.938C7.34507 490.938 13.1587 496.752 13.1587 503.923H15.5346C15.5346 495.439 8.65724 488.562 0.173579 488.562V490.938ZM0.0144306 490.939C0.0671782 490.938 0.120223 490.938 0.173579 490.938V488.562C0.111052 488.562 0.0483762 488.562 -0.0144306 488.563L0.0144306 490.939ZM-1.18794 484.595V489.751H1.18794V484.595H-1.18794ZM0.173579 483.408C0.120223 483.408 0.0671782 483.408 0.0144306 483.407L-0.0144306 485.783C0.0483763 485.784 0.111052 485.784 0.173579 485.784V483.408ZM13.1587 470.423C13.1587 477.595 7.34507 483.408 0.173579 483.408V485.784C8.65724 485.784 15.5346 478.907 15.5346 470.423H13.1587ZM0.173581 457.438C7.34507 457.438 13.1587 463.252 13.1587 470.423H15.5346C15.5346 461.939 8.65724 455.062 0.173581 455.062V457.438ZM0.0144305 457.439C0.0671786 457.438 0.120224 457.438 0.173581 457.438V455.062C0.111053 455.062 0.0483768 455.062 -0.0144305 455.063L0.0144305 457.439ZM-1.18794 451.095V456.251H1.18794V451.095H-1.18794ZM0.173581 449.908C0.120224 449.908 0.0671787 449.908 0.0144305 449.907L-0.0144305 452.283C0.0483769 452.284 0.111053 452.284 0.173581 452.284V449.908ZM13.1587 436.923C13.1587 444.095 7.34507 449.908 0.173581 449.908V452.284C8.65724 452.284 15.5346 445.407 15.5346 436.923H13.1587ZM0.173582 423.938C7.34508 423.938 13.1587 429.752 13.1587 436.923H15.5346C15.5346 428.439 8.65724 421.562 0.173582 421.562V423.938ZM0.0144304 423.939C0.067179 423.938 0.120225 423.938 0.173582 423.938V421.562C0.111054 421.562 0.0483774 421.562 -0.0144304 421.563L0.0144304 423.939ZM-1.18794 417.595V422.751H1.18794V417.595H-1.18794ZM0.173582 416.408C0.120225 416.408 0.0671791 416.408 0.0144304 416.407L-0.0144304 418.783C0.0483775 418.784 0.111054 418.784 0.173582 418.784V416.408ZM13.1587 403.423C13.1587 410.595 7.34507 416.408 0.173582 416.408V418.784C8.65724 418.784 15.5346 411.907 15.5346 403.423H13.1587ZM0.173584 390.438C7.34508 390.438 13.1587 396.252 13.1587 403.423H15.5346C15.5346 394.939 8.65724 388.062 0.173584 388.062V390.438ZM0.0144303 390.439C0.0671794 390.438 0.120226 390.438 0.173584 390.438V388.062C0.111055 388.062 0.0483779 388.062 -0.0144303 388.063L0.0144303 390.439ZM-1.18794 384.095V389.251H1.18794V384.095H-1.18794ZM0.173584 382.908C0.120226 382.908 0.0671795 382.908 0.0144302 382.907L-0.0144302 385.283C0.048378 385.284 0.111055 385.284 0.173584 385.284V382.908ZM13.1587 369.923C13.1587 377.095 7.34507 382.908 0.173584 382.908V385.284C8.65724 385.284 15.5346 378.407 15.5346 369.923H13.1587ZM0.173585 356.938C7.34508 356.938 13.1587 362.752 13.1587 369.923H15.5346C15.5346 361.439 8.65724 354.562 0.173585 354.562V356.938ZM0.0144301 356.939C0.0671798 356.938 0.120227 356.938 0.173585 356.938V354.562C0.111056 354.562 0.0483785 354.562 -0.0144301 354.563L0.0144301 356.939ZM-1.18794 350.595V355.751H1.18794V350.595H-1.18794ZM0.173585 349.408C0.120227 349.408 0.0671799 349.408 0.0144301 349.407L-0.0144301 351.783C0.0483786 351.784 0.111056 351.784 0.173585 351.784V349.408ZM13.1587 336.423C13.1587 343.595 7.34508 349.408 0.173585 349.408V351.784C8.65725 351.784 15.5346 344.907 15.5346 336.423H13.1587ZM0.173587 323.438C7.34508 323.438 13.1587 329.252 13.1587 336.423H15.5346C15.5346 327.939 8.65724 321.062 0.173587 321.062V323.438ZM0.01443 323.439C0.0671802 323.438 0.120228 323.438 0.173587 323.438V321.062C0.111057 321.062 0.0483791 321.062 -0.01443 321.063L0.01443 323.439ZM-1.18794 317.095V322.251H1.18794V317.095H-1.18794ZM0.173587 315.908C0.120228 315.908 0.0671803 315.908 0.01443 315.907L-0.01443 318.283C0.0483791 318.284 0.111057 318.284 0.173587 318.284V315.908ZM13.1587 302.923C13.1587 310.095 7.34508 315.908 0.173587 315.908V318.284C8.65725 318.284 15.5346 311.407 15.5346 302.923H13.1587ZM0.173588 289.938C7.34508 289.938 13.1587 295.752 13.1587 302.923H15.5346C15.5346 294.439 8.65724 287.562 0.173588 287.562V289.938ZM0.0144299 289.939C0.0671806 289.938 0.120229 289.938 0.173588 289.938V287.562C0.111058 287.562 0.0483796 287.562 -0.0144299 287.563L0.0144299 289.939ZM-1.18794 283.595V288.751H1.18794V283.595H-1.18794ZM0.173588 282.408C0.120229 282.408 0.0671807 282.408 0.0144299 282.407L-0.0144299 284.783C0.0483797 284.784 0.111058 284.784 0.173588 284.784V282.408ZM13.1587 269.423C13.1587 276.595 7.34508 282.408 0.173588 282.408V284.784C8.65725 284.784 15.5346 277.907 15.5346 269.423H13.1587ZM0.173589 256.438C7.34508 256.438 13.1587 262.252 13.1587 269.423H15.5346C15.5346 260.939 8.65725 254.062 0.173589 254.062V256.438ZM0.0141161 256.439C0.0672833 256.438 0.120441 256.438 0.173589 256.438V254.062C0.110848 254.062 0.0482779 254.062 -0.0141161 254.063L0.0141161 256.439ZM-1.18794 250.095V255.251H1.18794V250.095H-1.18794ZM0.17359 248.908C0.120441 248.908 0.0672834 248.908 0.0141161 248.907L-0.0141161 251.283C0.048278 251.284 0.110848 251.284 0.17359 251.284V248.908ZM13.1587 235.923C13.1587 243.095 7.34508 248.908 0.17359 248.908V251.284C8.65725 251.284 15.5346 244.407 15.5346 235.923H13.1587ZM0.173591 222.938C7.34508 222.938 13.1587 228.752 13.1587 235.923H15.5346C15.5346 227.439 8.65725 220.562 0.173591 220.562V222.938ZM0.014116 222.939C0.0672837 222.938 0.120442 222.938 0.173591 222.938V220.562C0.110849 220.562 0.0482785 220.562 -0.014116 220.563L0.014116 222.939ZM-1.18794 216.595V221.751H1.18794V216.595H-1.18794ZM0.173591 215.408C0.120442 215.408 0.0672838 215.408 0.014116 215.407L-0.014116 217.783C0.0482786 217.784 0.110849 217.784 0.173591 217.784V215.408ZM13.1587 202.423C13.1587 209.595 7.34508 215.408 0.173591 215.408V217.784C8.65725 217.784 15.5346 210.907 15.5346 202.423H13.1587ZM0.173592 189.438C7.34508 189.438 13.1587 195.252 13.1587 202.423H15.5346C15.5346 193.939 8.65725 187.062 0.173592 187.062V189.438ZM0.0141159 189.439C0.0672841 189.438 0.120443 189.438 0.173592 189.438V187.062C0.11085 187.062 0.048279 187.062 -0.0141159 187.063L0.0141159 189.439ZM-1.18794 183.095V188.251H1.18794V183.095H-1.18794ZM0.173593 181.908C0.120443 181.908 0.0672842 181.908 0.0141159 181.907L-0.0141159 184.283C0.0482791 184.284 0.11085 184.284 0.173593 184.284V181.908ZM13.1587 168.923C13.1587 176.095 7.34508 181.908 0.173593 181.908V184.284C8.65725 184.284 15.5346 177.407 15.5346 168.923H13.1587ZM0.173594 155.938C7.34509 155.938 13.1587 161.752 13.1587 168.923H15.5346C15.5346 160.439 8.65725 153.562 0.173594 153.562V155.938ZM0.0141158 155.939C0.0672845 155.938 0.120444 155.938 0.173594 155.938V153.562C0.110851 153.562 0.0482796 153.562 -0.0141158 153.563L0.0141158 155.939ZM-1.18794 149.595V154.751H1.18794V149.595H-1.18794ZM0.173594 148.408C0.120444 148.408 0.0672846 148.408 0.0141158 148.407L-0.0141158 150.783C0.0482797 150.784 0.110851 150.784 0.173594 150.784V148.408ZM13.1587 135.423C13.1587 142.595 7.34509 148.408 0.173594 148.408V150.784C8.65725 150.784 15.5346 143.907 15.5346 135.423H13.1587ZM0.173595 122.438C7.34509 122.438 13.1587 128.252 13.1587 135.423H15.5346C15.5346 126.939 8.65725 120.062 0.173595 120.062V122.438ZM0.0142725 122.439C0.0672325 122.438 0.12034 122.438 0.173595 122.438V120.062C0.110956 120.062 0.0483326 120.062 -0.0142725 120.063L0.0142725 122.439ZM-1.18794 116.095V121.251H1.18794V116.095H-1.18794ZM0.173596 114.908C0.12034 114.908 0.0672326 114.908 0.0142725 114.907L-0.0142725 117.283C0.0483327 117.284 0.110957 117.284 0.173596 117.284V114.908ZM13.1587 101.923C13.1587 109.095 7.34509 114.908 0.173596 114.908V117.284C8.65725 117.284 15.5346 110.407 15.5346 101.923H13.1587ZM0.173597 88.938C7.34509 88.938 13.1587 94.7516 13.1587 101.923H15.5346C15.5346 93.4394 8.65726 86.5621 0.173597 86.5621V88.938ZM0.0142723 88.9389C0.0672329 88.9383 0.120341 88.938 0.173597 88.938V86.5621C0.110957 86.5621 0.0483332 86.5624 -0.0142723 86.5632L0.0142723 88.9389ZM-1.18794 82.5951V87.7511H1.18794V82.5951H-1.18794ZM0.173597 81.4082C0.120341 81.4082 0.067233 81.4079 0.0142723 81.4073L-0.0142723 83.783C0.0483333 83.7837 0.110958 83.7841 0.173597 83.7841V81.4082ZM13.1587 68.4231C13.1587 75.5946 7.34509 81.4082 0.173597 81.4082V83.7841C8.65725 83.7841 15.5346 76.9067 15.5346 68.4231H13.1587ZM0.173598 55.438C7.34509 55.438 13.1587 61.2516 13.1587 68.4231H15.5346C15.5346 59.9394 8.65726 53.0621 0.173598 53.0621V55.438ZM0.0142722 55.4389C0.0672853 55.4383 0.120395 55.438 0.173598 55.438V53.0621C0.110906 53.0621 0.0482817 53.0624 -0.0142722 53.0632L0.0142722 55.4389ZM-1.18794 49.0951V54.251H1.18794V49.0951H-1.18794ZM0.173598 47.9082C0.120395 47.9082 0.0672854 47.9079 0.0142722 47.9073L-0.0142722 50.283C0.0482818 50.2837 0.110906 50.2841 0.173598 50.2841V47.9082ZM13.1587 34.9231C13.1587 42.0946 7.34509 47.9082 0.173598 47.9082V50.2841C8.65726 50.2841 15.5346 43.4067 15.5346 34.9231H13.1587ZM0.1736 21.9379C7.34509 21.9379 13.1587 27.7516 13.1587 34.9231H15.5346C15.5346 26.4394 8.65726 19.5621 0.1736 19.5621V21.9379ZM0.0142721 21.9389C0.0672857 21.9383 0.120395 21.9379 0.1736 21.9379V19.5621C0.110907 19.5621 0.0482823 19.5624 -0.0142721 19.5632L0.0142721 21.9389ZM-1.18794 15.5951V20.751H1.18794V15.5951H-1.18794Z" fill="#B4751D" mask="url(#path-1-inside-1_67_1570)"/>
</svg>
