<svg width="900" height="700" viewBox="0 0 900 700" fill="none" xmlns="http://www.w3.org/2000/svg">
<mask id="path-1-inside-1_67_1396" fill="white">
<path fill-rule="evenodd" clip-rule="evenodd" d="M888.5 0L883.346 0C883.346 7.82738 877.001 14.1726 869.173 14.1726C861.346 14.1726 855 7.82738 855 0L849.846 0C849.846 7.82738 843.501 14.1726 835.673 14.1726C827.846 14.1726 821.5 7.82738 821.5 0L816.346 0C816.346 7.82738 810.001 14.1726 802.173 14.1726C794.346 14.1726 788 7.82738 788 0L782.846 0C782.846 7.82738 776.501 14.1726 768.673 14.1726C760.846 14.1726 754.5 7.82738 754.5 0L749.346 0C749.346 7.82738 743.001 14.1726 735.173 14.1726C727.346 14.1726 721 7.82738 721 0L715.846 0C715.846 7.82738 709.501 14.1726 701.673 14.1726C693.846 14.1726 687.5 7.82738 687.5 0L682.346 0C682.346 7.82738 676.001 14.1726 668.173 14.1726C660.346 14.1726 654 7.82738 654 0L648.846 0C648.846 7.82738 642.501 14.1726 634.673 14.1726C626.846 14.1726 620.5 7.82738 620.5 0L615.346 0C615.346 7.82738 609.001 14.1726 601.173 14.1726C593.346 14.1726 587 7.82738 587 0L581.846 0C581.846 7.82738 575.501 14.1726 567.673 14.1726C559.846 14.1726 553.5 7.82738 553.5 0L548.346 0C548.346 7.82738 542.001 14.1726 534.173 14.1726C526.346 14.1726 520 7.82738 520 0L514.846 0C514.846 7.82738 508.501 14.1726 500.673 14.1726C492.846 14.1726 486.5 7.82738 486.5 0L481.346 0C481.346 7.82738 475.001 14.1726 467.173 14.1726C459.346 14.1726 453 7.82738 453 0L447.846 0C447.846 7.82738 441.501 14.1726 433.673 14.1726C425.846 14.1726 419.5 7.82738 419.5 0L414.346 0C414.346 7.82737 408.001 14.1726 400.173 14.1726C392.346 14.1726 386 7.82737 386 0L380.846 0C380.846 7.82738 374.501 14.1726 366.673 14.1726C358.846 14.1726 352.5 7.82738 352.5 0L347.346 0C347.346 7.82738 341.001 14.1726 333.173 14.1726C325.346 14.1726 319 7.82738 319 0L313.847 0C313.846 7.82737 307.501 14.1726 299.674 14.1726C291.846 14.1726 285.501 7.82737 285.5 0L280.346 0C280.346 7.82738 274.001 14.1726 266.173 14.1726C258.346 14.1726 252 7.82738 252 0L246.846 0C246.846 7.82737 240.501 14.1726 232.673 14.1726C224.846 14.1726 218.5 7.82737 218.5 0L213.346 0C213.346 7.82738 207.001 14.1726 199.173 14.1726C191.346 14.1726 185 7.82738 185 0L179.846 0C179.846 7.82731 173.501 14.1725 165.673 14.1725C157.846 14.1725 151.5 7.82731 151.5 0L146.346 0C146.346 7.82738 140.001 14.1726 132.173 14.1726C124.346 14.1726 118 7.82738 118 0L112.846 0C112.846 7.82738 106.501 14.1726 98.6733 14.1726C90.8459 14.1726 84.5004 7.82738 84.5002 0L79.3465 0C79.3462 7.82737 73.0008 14.1726 65.1734 14.1726C57.346 14.1726 51.0006 7.82737 51.0003 0L45.8464 0C45.8461 7.82738 39.5007 14.1726 31.6733 14.1726C23.8459 14.1726 17.5004 7.82738 17.5002 0L12.3463 0C12.346 7.20837 6.96455 13.1598 0 14.056L0 19.3354C0.166913 19.3296 0.334561 19.3267 0.502893 19.3267C8.33047 19.3267 14.676 25.6722 14.676 33.4997C14.676 41.3273 8.33047 47.6728 0.502892 47.6728C0.33456 47.6728 0.166913 47.6699 0 47.6641L0 52.8354C0.166913 52.8296 0.33456 52.8267 0.502892 52.8267C8.33047 52.8267 14.676 59.1722 14.676 66.9998C14.676 74.8273 8.33047 81.1728 0.502891 81.1728C0.334559 81.1728 0.166913 81.1699 0 81.1641L0 86.3354C0.166913 86.3296 0.334559 86.3267 0.502891 86.3267C8.33047 86.3267 14.676 92.6722 14.676 100.5C14.676 108.327 8.33046 114.673 0.502889 114.673C0.334558 114.673 0.166912 114.67 0 114.664L0 119.835C0.166912 119.83 0.334558 119.827 0.502889 119.827C8.33046 119.827 14.676 126.172 14.676 134C14.676 141.827 8.33046 148.173 0.502888 148.173C0.334557 148.173 0.166912 148.17 0 148.164L0 153.335C0.166912 153.33 0.334557 153.327 0.502888 153.327C8.33046 153.327 14.676 159.672 14.676 167.5C14.676 175.327 8.33046 181.673 0.502886 181.673C0.334556 181.673 0.166911 181.67 0 181.664L0 186.835C0.166911 186.83 0.334556 186.827 0.502886 186.827C8.33046 186.827 14.676 193.172 14.676 201C14.676 208.827 8.33046 215.173 0.502885 215.173C0.334555 215.173 0.166911 215.17 0 215.164L0 220.335C0.166911 220.33 0.334555 220.327 0.502885 220.327C8.33046 220.327 14.676 226.672 14.676 234.5C14.676 242.327 8.33046 248.673 0.502883 248.673C0.334554 248.673 0.16691 248.67 0 248.664L0 253.835C0.16691 253.83 0.334554 253.827 0.502883 253.827C8.33046 253.827 14.676 260.172 14.676 268C14.676 275.827 8.33046 282.173 0.502882 282.173C0.334553 282.173 0.16691 282.17 0 282.164L0 287.335C0.16691 287.33 0.334553 287.327 0.502882 287.327C8.33046 287.327 14.676 293.672 14.676 301.5C14.676 309.327 8.33046 315.673 0.50288 315.673C0.334552 315.673 0.166909 315.67 0 315.664L0 320.835C0.166909 320.83 0.334552 320.827 0.50288 320.827C8.33046 320.827 14.676 327.172 14.676 335C14.676 342.827 8.33045 349.173 0.502879 349.173C0.334551 349.173 0.166909 349.17 0 349.164L0 354.335C0.166909 354.33 0.334551 354.327 0.502879 354.327C8.33045 354.327 14.676 360.672 14.676 368.5C14.676 376.327 8.33045 382.673 0.502877 382.673C0.33455 382.673 0.166908 382.67 0 382.664L0 387.835C0.166908 387.83 0.33455 387.827 0.502877 387.827C8.33045 387.827 14.676 394.172 14.676 402C14.676 409.827 8.33045 416.173 0.502876 416.173C0.334549 416.173 0.166908 416.17 0 416.164L0 421.335C0.166908 421.33 0.334549 421.327 0.502876 421.327C8.33045 421.327 14.676 427.672 14.676 435.5C14.676 443.327 8.33045 449.673 0.502874 449.673C0.334548 449.673 0.166907 449.67 0 449.664L0 454.835C0.166907 454.83 0.334548 454.827 0.502874 454.827C8.33045 454.827 14.676 461.172 14.676 469C14.676 476.827 8.33045 483.173 0.502873 483.173C0.334547 483.173 0.166907 483.17 0 483.164L0 488.335C0.166907 488.33 0.334547 488.327 0.502873 488.327C8.33045 488.327 14.676 494.672 14.676 502.5C14.676 510.327 8.33045 516.673 0.502872 516.673C0.334546 516.673 0.166906 516.67 0 516.664L0 521.835C0.166906 521.83 0.334546 521.827 0.502871 521.827C8.33045 521.827 14.676 528.172 14.6759 536C14.6759 543.827 8.33045 550.173 0.50287 550.173C0.334545 550.173 0.166906 550.17 0 550.164L0 555.335C0.166906 555.33 0.334545 555.327 0.50287 555.327C8.33045 555.327 14.6759 561.672 14.6759 569.5C14.6759 577.327 8.33044 583.673 0.502869 583.673C0.334544 583.673 0.166905 583.67 0 583.664L0 588.835C0.166905 588.83 0.334544 588.827 0.502868 588.827C8.33044 588.827 14.6759 595.172 14.6759 603C14.6759 610.827 8.33044 617.173 0.502867 617.173C0.334543 617.173 0.166905 617.17 0 617.164L0 622.335C0.166905 622.33 0.334543 622.327 0.502867 622.327C8.33044 622.327 14.6759 628.672 14.6759 636.5C14.6759 644.327 8.33044 650.673 0.502866 650.673C0.334542 650.673 0.166904 650.67 0 650.664L0 655.835C0.166904 655.83 0.334542 655.827 0.502865 655.827C8.33044 655.827 14.6759 662.172 14.6759 670C14.6759 677.827 8.33044 684.173 0.502864 684.173C0.334541 684.173 0.166904 684.17 0 684.164L0 686.117C4.74934 686.728 8.76252 689.69 10.835 693.798C12.4504 695.518 13.6413 697.641 14.2405 700H17.5012C17.594 692.252 23.9035 686 31.6733 686C39.4431 686 45.7526 692.252 45.8453 700H51.0013C51.0941 692.252 57.4036 686 65.1734 686C72.9432 686 79.2527 692.252 79.3454 700H84.5012C84.594 692.252 90.9035 686 98.6733 686C106.443 686 112.753 692.252 112.845 700H118.001C118.094 692.252 124.403 686 132.173 686C139.943 686 146.253 692.252 146.345 700H151.501C151.594 692.252 157.903 686 165.673 686C173.443 686 179.753 692.252 179.845 700H185.001C185.094 692.252 191.404 686 199.173 686C206.943 686 213.253 692.252 213.345 700H218.501C218.594 692.252 224.904 686 232.673 686C240.443 686 246.753 692.252 246.845 700H252.001C252.094 692.252 258.404 686 266.173 686C273.943 686 280.253 692.252 280.345 700H285.501C285.594 692.252 291.904 686 299.674 686C307.443 686 313.753 692.252 313.846 700H319.001C319.094 692.252 325.404 686 333.173 686C340.943 686 347.253 692.252 347.345 700H352.501C352.594 692.252 358.904 686 366.673 686C374.443 686 380.753 692.252 380.845 700H386.001C386.094 692.252 392.403 686 400.173 686C407.943 686 414.253 692.252 414.345 700H419.501C419.594 692.252 425.904 686 433.673 686C441.443 686 447.753 692.252 447.845 700H453.001C453.094 692.252 459.404 686 467.173 686C474.943 686 481.253 692.252 481.345 700H486.501C486.594 692.252 492.904 686 500.673 686C508.443 686 514.753 692.252 514.845 700H520.001C520.094 692.252 526.404 686 534.173 686C541.943 686 548.253 692.252 548.345 700H553.501C553.594 692.252 559.904 686 567.673 686C575.443 686 581.753 692.252 581.845 700H587.001C587.094 692.252 593.404 686 601.173 686C608.943 686 615.253 692.252 615.345 700H620.501C620.594 692.252 626.904 686 634.673 686C642.443 686 648.753 692.252 648.845 700H654.001C654.094 692.252 660.404 686 668.173 686C675.943 686 682.253 692.252 682.345 700H687.501C687.594 692.252 693.904 686 701.673 686C709.443 686 715.753 692.252 715.845 700H721.001C721.094 692.252 727.404 686 735.173 686C742.943 686 749.253 692.252 749.345 700H754.501C754.594 692.252 760.904 686 768.673 686C776.443 686 782.753 692.252 782.845 700H788.001C788.094 692.252 794.404 686 802.173 686C809.943 686 816.253 692.252 816.345 700H821.501C821.594 692.252 827.904 686 835.673 686C843.443 686 849.753 692.252 849.845 700H855.001C855.094 692.252 861.404 686 869.173 686C876.943 686 883.253 692.252 883.345 700H886.765C887.321 697.811 888.386 695.826 889.827 694.177C891.723 690.123 895.481 687.114 900 686.252V684.164C892.405 683.899 886.33 677.659 886.33 670C886.33 662.341 892.405 656.1 900 655.835V650.664C892.405 650.399 886.33 644.159 886.33 636.5C886.33 628.841 892.405 622.6 900 622.335V617.164C892.405 616.899 886.33 610.659 886.33 603C886.33 595.341 892.405 589.1 900 588.835V583.664C892.405 583.399 886.33 577.159 886.33 569.5C886.33 561.841 892.405 555.6 900 555.335V550.164C892.405 549.899 886.33 543.659 886.33 536C886.33 528.341 892.405 522.1 900 521.835V516.664C892.405 516.399 886.33 510.159 886.33 502.5C886.33 494.841 892.405 488.6 900 488.335V483.164C892.405 482.899 886.33 476.659 886.33 469C886.33 461.341 892.405 455.1 900 454.835V449.664C892.405 449.399 886.33 443.159 886.33 435.5C886.33 427.841 892.405 421.6 900 421.335V416.164C892.405 415.899 886.33 409.659 886.33 402C886.33 394.341 892.405 388.1 900 387.835V382.664C892.405 382.399 886.33 376.159 886.33 368.5C886.33 360.841 892.405 354.6 900 354.335V349.164C892.405 348.899 886.33 342.659 886.33 335C886.33 327.341 892.405 321.1 900 320.835V315.664C892.405 315.399 886.33 309.159 886.33 301.5C886.33 293.841 892.405 287.6 900 287.335V282.164C892.405 281.899 886.33 275.659 886.33 268C886.33 260.341 892.405 254.1 900 253.835V248.664C892.405 248.399 886.33 242.159 886.33 234.5C886.33 226.841 892.405 220.6 900 220.335V215.164C892.405 214.899 886.33 208.659 886.33 201C886.33 193.341 892.405 187.1 900 186.835V181.664C892.405 181.399 886.33 175.159 886.33 167.5C886.33 159.841 892.405 153.6 900 153.335V148.164C892.405 147.899 886.33 141.659 886.33 134C886.33 126.341 892.405 120.1 900 119.835V114.664C892.405 114.399 886.33 108.159 886.33 100.5C886.33 92.8405 892.405 86.6003 900 86.3354V81.1641C892.405 80.8992 886.33 74.659 886.33 66.9997C886.33 59.3405 892.405 53.1003 900 52.8354V47.6641C892.405 47.3992 886.33 41.159 886.33 33.4997C886.33 25.8405 892.405 19.6003 900 19.3354V13.9209C893.451 12.6708 888.5 6.91349 888.5 0Z"/>
</mask>
<path fill-rule="evenodd" clip-rule="evenodd" d="M888.5 0L883.346 0C883.346 7.82738 877.001 14.1726 869.173 14.1726C861.346 14.1726 855 7.82738 855 0L849.846 0C849.846 7.82738 843.501 14.1726 835.673 14.1726C827.846 14.1726 821.5 7.82738 821.5 0L816.346 0C816.346 7.82738 810.001 14.1726 802.173 14.1726C794.346 14.1726 788 7.82738 788 0L782.846 0C782.846 7.82738 776.501 14.1726 768.673 14.1726C760.846 14.1726 754.5 7.82738 754.5 0L749.346 0C749.346 7.82738 743.001 14.1726 735.173 14.1726C727.346 14.1726 721 7.82738 721 0L715.846 0C715.846 7.82738 709.501 14.1726 701.673 14.1726C693.846 14.1726 687.5 7.82738 687.5 0L682.346 0C682.346 7.82738 676.001 14.1726 668.173 14.1726C660.346 14.1726 654 7.82738 654 0L648.846 0C648.846 7.82738 642.501 14.1726 634.673 14.1726C626.846 14.1726 620.5 7.82738 620.5 0L615.346 0C615.346 7.82738 609.001 14.1726 601.173 14.1726C593.346 14.1726 587 7.82738 587 0L581.846 0C581.846 7.82738 575.501 14.1726 567.673 14.1726C559.846 14.1726 553.5 7.82738 553.5 0L548.346 0C548.346 7.82738 542.001 14.1726 534.173 14.1726C526.346 14.1726 520 7.82738 520 0L514.846 0C514.846 7.82738 508.501 14.1726 500.673 14.1726C492.846 14.1726 486.5 7.82738 486.5 0L481.346 0C481.346 7.82738 475.001 14.1726 467.173 14.1726C459.346 14.1726 453 7.82738 453 0L447.846 0C447.846 7.82738 441.501 14.1726 433.673 14.1726C425.846 14.1726 419.5 7.82738 419.5 0L414.346 0C414.346 7.82737 408.001 14.1726 400.173 14.1726C392.346 14.1726 386 7.82737 386 0L380.846 0C380.846 7.82738 374.501 14.1726 366.673 14.1726C358.846 14.1726 352.5 7.82738 352.5 0L347.346 0C347.346 7.82738 341.001 14.1726 333.173 14.1726C325.346 14.1726 319 7.82738 319 0L313.847 0C313.846 7.82737 307.501 14.1726 299.674 14.1726C291.846 14.1726 285.501 7.82737 285.5 0L280.346 0C280.346 7.82738 274.001 14.1726 266.173 14.1726C258.346 14.1726 252 7.82738 252 0L246.846 0C246.846 7.82737 240.501 14.1726 232.673 14.1726C224.846 14.1726 218.5 7.82737 218.5 0L213.346 0C213.346 7.82738 207.001 14.1726 199.173 14.1726C191.346 14.1726 185 7.82738 185 0L179.846 0C179.846 7.82731 173.501 14.1725 165.673 14.1725C157.846 14.1725 151.5 7.82731 151.5 0L146.346 0C146.346 7.82738 140.001 14.1726 132.173 14.1726C124.346 14.1726 118 7.82738 118 0L112.846 0C112.846 7.82738 106.501 14.1726 98.6733 14.1726C90.8459 14.1726 84.5004 7.82738 84.5002 0L79.3465 0C79.3462 7.82737 73.0008 14.1726 65.1734 14.1726C57.346 14.1726 51.0006 7.82737 51.0003 0L45.8464 0C45.8461 7.82738 39.5007 14.1726 31.6733 14.1726C23.8459 14.1726 17.5004 7.82738 17.5002 0L12.3463 0C12.346 7.20837 6.96455 13.1598 0 14.056L0 19.3354C0.166913 19.3296 0.334561 19.3267 0.502893 19.3267C8.33047 19.3267 14.676 25.6722 14.676 33.4997C14.676 41.3273 8.33047 47.6728 0.502892 47.6728C0.33456 47.6728 0.166913 47.6699 0 47.6641L0 52.8354C0.166913 52.8296 0.33456 52.8267 0.502892 52.8267C8.33047 52.8267 14.676 59.1722 14.676 66.9998C14.676 74.8273 8.33047 81.1728 0.502891 81.1728C0.334559 81.1728 0.166913 81.1699 0 81.1641L0 86.3354C0.166913 86.3296 0.334559 86.3267 0.502891 86.3267C8.33047 86.3267 14.676 92.6722 14.676 100.5C14.676 108.327 8.33046 114.673 0.502889 114.673C0.334558 114.673 0.166912 114.67 0 114.664L0 119.835C0.166912 119.83 0.334558 119.827 0.502889 119.827C8.33046 119.827 14.676 126.172 14.676 134C14.676 141.827 8.33046 148.173 0.502888 148.173C0.334557 148.173 0.166912 148.17 0 148.164L0 153.335C0.166912 153.33 0.334557 153.327 0.502888 153.327C8.33046 153.327 14.676 159.672 14.676 167.5C14.676 175.327 8.33046 181.673 0.502886 181.673C0.334556 181.673 0.166911 181.67 0 181.664L0 186.835C0.166911 186.83 0.334556 186.827 0.502886 186.827C8.33046 186.827 14.676 193.172 14.676 201C14.676 208.827 8.33046 215.173 0.502885 215.173C0.334555 215.173 0.166911 215.17 0 215.164L0 220.335C0.166911 220.33 0.334555 220.327 0.502885 220.327C8.33046 220.327 14.676 226.672 14.676 234.5C14.676 242.327 8.33046 248.673 0.502883 248.673C0.334554 248.673 0.16691 248.67 0 248.664L0 253.835C0.16691 253.83 0.334554 253.827 0.502883 253.827C8.33046 253.827 14.676 260.172 14.676 268C14.676 275.827 8.33046 282.173 0.502882 282.173C0.334553 282.173 0.16691 282.17 0 282.164L0 287.335C0.16691 287.33 0.334553 287.327 0.502882 287.327C8.33046 287.327 14.676 293.672 14.676 301.5C14.676 309.327 8.33046 315.673 0.50288 315.673C0.334552 315.673 0.166909 315.67 0 315.664L0 320.835C0.166909 320.83 0.334552 320.827 0.50288 320.827C8.33046 320.827 14.676 327.172 14.676 335C14.676 342.827 8.33045 349.173 0.502879 349.173C0.334551 349.173 0.166909 349.17 0 349.164L0 354.335C0.166909 354.33 0.334551 354.327 0.502879 354.327C8.33045 354.327 14.676 360.672 14.676 368.5C14.676 376.327 8.33045 382.673 0.502877 382.673C0.33455 382.673 0.166908 382.67 0 382.664L0 387.835C0.166908 387.83 0.33455 387.827 0.502877 387.827C8.33045 387.827 14.676 394.172 14.676 402C14.676 409.827 8.33045 416.173 0.502876 416.173C0.334549 416.173 0.166908 416.17 0 416.164L0 421.335C0.166908 421.33 0.334549 421.327 0.502876 421.327C8.33045 421.327 14.676 427.672 14.676 435.5C14.676 443.327 8.33045 449.673 0.502874 449.673C0.334548 449.673 0.166907 449.67 0 449.664L0 454.835C0.166907 454.83 0.334548 454.827 0.502874 454.827C8.33045 454.827 14.676 461.172 14.676 469C14.676 476.827 8.33045 483.173 0.502873 483.173C0.334547 483.173 0.166907 483.17 0 483.164L0 488.335C0.166907 488.33 0.334547 488.327 0.502873 488.327C8.33045 488.327 14.676 494.672 14.676 502.5C14.676 510.327 8.33045 516.673 0.502872 516.673C0.334546 516.673 0.166906 516.67 0 516.664L0 521.835C0.166906 521.83 0.334546 521.827 0.502871 521.827C8.33045 521.827 14.676 528.172 14.6759 536C14.6759 543.827 8.33045 550.173 0.50287 550.173C0.334545 550.173 0.166906 550.17 0 550.164L0 555.335C0.166906 555.33 0.334545 555.327 0.50287 555.327C8.33045 555.327 14.6759 561.672 14.6759 569.5C14.6759 577.327 8.33044 583.673 0.502869 583.673C0.334544 583.673 0.166905 583.67 0 583.664L0 588.835C0.166905 588.83 0.334544 588.827 0.502868 588.827C8.33044 588.827 14.6759 595.172 14.6759 603C14.6759 610.827 8.33044 617.173 0.502867 617.173C0.334543 617.173 0.166905 617.17 0 617.164L0 622.335C0.166905 622.33 0.334543 622.327 0.502867 622.327C8.33044 622.327 14.6759 628.672 14.6759 636.5C14.6759 644.327 8.33044 650.673 0.502866 650.673C0.334542 650.673 0.166904 650.67 0 650.664L0 655.835C0.166904 655.83 0.334542 655.827 0.502865 655.827C8.33044 655.827 14.6759 662.172 14.6759 670C14.6759 677.827 8.33044 684.173 0.502864 684.173C0.334541 684.173 0.166904 684.17 0 684.164L0 686.117C4.74934 686.728 8.76252 689.69 10.835 693.798C12.4504 695.518 13.6413 697.641 14.2405 700H17.5012C17.594 692.252 23.9035 686 31.6733 686C39.4431 686 45.7526 692.252 45.8453 700H51.0013C51.0941 692.252 57.4036 686 65.1734 686C72.9432 686 79.2527 692.252 79.3454 700H84.5012C84.594 692.252 90.9035 686 98.6733 686C106.443 686 112.753 692.252 112.845 700H118.001C118.094 692.252 124.403 686 132.173 686C139.943 686 146.253 692.252 146.345 700H151.501C151.594 692.252 157.903 686 165.673 686C173.443 686 179.753 692.252 179.845 700H185.001C185.094 692.252 191.404 686 199.173 686C206.943 686 213.253 692.252 213.345 700H218.501C218.594 692.252 224.904 686 232.673 686C240.443 686 246.753 692.252 246.845 700H252.001C252.094 692.252 258.404 686 266.173 686C273.943 686 280.253 692.252 280.345 700H285.501C285.594 692.252 291.904 686 299.674 686C307.443 686 313.753 692.252 313.846 700H319.001C319.094 692.252 325.404 686 333.173 686C340.943 686 347.253 692.252 347.345 700H352.501C352.594 692.252 358.904 686 366.673 686C374.443 686 380.753 692.252 380.845 700H386.001C386.094 692.252 392.403 686 400.173 686C407.943 686 414.253 692.252 414.345 700H419.501C419.594 692.252 425.904 686 433.673 686C441.443 686 447.753 692.252 447.845 700H453.001C453.094 692.252 459.404 686 467.173 686C474.943 686 481.253 692.252 481.345 700H486.501C486.594 692.252 492.904 686 500.673 686C508.443 686 514.753 692.252 514.845 700H520.001C520.094 692.252 526.404 686 534.173 686C541.943 686 548.253 692.252 548.345 700H553.501C553.594 692.252 559.904 686 567.673 686C575.443 686 581.753 692.252 581.845 700H587.001C587.094 692.252 593.404 686 601.173 686C608.943 686 615.253 692.252 615.345 700H620.501C620.594 692.252 626.904 686 634.673 686C642.443 686 648.753 692.252 648.845 700H654.001C654.094 692.252 660.404 686 668.173 686C675.943 686 682.253 692.252 682.345 700H687.501C687.594 692.252 693.904 686 701.673 686C709.443 686 715.753 692.252 715.845 700H721.001C721.094 692.252 727.404 686 735.173 686C742.943 686 749.253 692.252 749.345 700H754.501C754.594 692.252 760.904 686 768.673 686C776.443 686 782.753 692.252 782.845 700H788.001C788.094 692.252 794.404 686 802.173 686C809.943 686 816.253 692.252 816.345 700H821.501C821.594 692.252 827.904 686 835.673 686C843.443 686 849.753 692.252 849.845 700H855.001C855.094 692.252 861.404 686 869.173 686C876.943 686 883.253 692.252 883.345 700H886.765C887.321 697.811 888.386 695.826 889.827 694.177C891.723 690.123 895.481 687.114 900 686.252V684.164C892.405 683.899 886.33 677.659 886.33 670C886.33 662.341 892.405 656.1 900 655.835V650.664C892.405 650.399 886.33 644.159 886.33 636.5C886.33 628.841 892.405 622.6 900 622.335V617.164C892.405 616.899 886.33 610.659 886.33 603C886.33 595.341 892.405 589.1 900 588.835V583.664C892.405 583.399 886.33 577.159 886.33 569.5C886.33 561.841 892.405 555.6 900 555.335V550.164C892.405 549.899 886.33 543.659 886.33 536C886.33 528.341 892.405 522.1 900 521.835V516.664C892.405 516.399 886.33 510.159 886.33 502.5C886.33 494.841 892.405 488.6 900 488.335V483.164C892.405 482.899 886.33 476.659 886.33 469C886.33 461.341 892.405 455.1 900 454.835V449.664C892.405 449.399 886.33 443.159 886.33 435.5C886.33 427.841 892.405 421.6 900 421.335V416.164C892.405 415.899 886.33 409.659 886.33 402C886.33 394.341 892.405 388.1 900 387.835V382.664C892.405 382.399 886.33 376.159 886.33 368.5C886.33 360.841 892.405 354.6 900 354.335V349.164C892.405 348.899 886.33 342.659 886.33 335C886.33 327.341 892.405 321.1 900 320.835V315.664C892.405 315.399 886.33 309.159 886.33 301.5C886.33 293.841 892.405 287.6 900 287.335V282.164C892.405 281.899 886.33 275.659 886.33 268C886.33 260.341 892.405 254.1 900 253.835V248.664C892.405 248.399 886.33 242.159 886.33 234.5C886.33 226.841 892.405 220.6 900 220.335V215.164C892.405 214.899 886.33 208.659 886.33 201C886.33 193.341 892.405 187.1 900 186.835V181.664C892.405 181.399 886.33 175.159 886.33 167.5C886.33 159.841 892.405 153.6 900 153.335V148.164C892.405 147.899 886.33 141.659 886.33 134C886.33 126.341 892.405 120.1 900 119.835V114.664C892.405 114.399 886.33 108.159 886.33 100.5C886.33 92.8405 892.405 86.6003 900 86.3354V81.1641C892.405 80.8992 886.33 74.659 886.33 66.9997C886.33 59.3405 892.405 53.1003 900 52.8354V47.6641C892.405 47.3992 886.33 41.159 886.33 33.4997C886.33 25.8405 892.405 19.6003 900 19.3354V13.9209C893.451 12.6708 888.5 6.91349 888.5 0Z" fill="#FFF5E2"/>
<path d="M883.346 0V-1.2H882.146L882.146 -3.74287e-05L883.346 0ZM888.5 0L889.7 -3.17823e-05L889.7 -1.2H888.5V0ZM855 0L856.2 -3.74287e-05L856.2 -1.2H855V0ZM849.846 0V-1.2H848.646L848.646 -3.74287e-05L849.846 0ZM821.5 0L822.7 -3.74287e-05L822.7 -1.2H821.5V0ZM816.346 0V-1.2H815.146L815.146 -3.74287e-05L816.346 0ZM788 0L789.2 -3.74287e-05L789.2 -1.2H788V0ZM782.846 0V-1.2H781.646L781.646 -3.74287e-05L782.846 0ZM754.5 0L755.7 -3.74287e-05L755.7 -1.2H754.5V0ZM749.346 0V-1.2H748.146L748.146 -3.74287e-05L749.346 0ZM721 0L722.2 -3.74287e-05L722.2 -1.2H721V0ZM715.846 0V-1.2H714.646L714.646 -3.74287e-05L715.846 0ZM687.5 0L688.7 -3.74287e-05L688.7 -1.2H687.5V0ZM682.346 0V-1.2H681.146L681.146 -3.74287e-05L682.346 0ZM654 0L655.2 -3.74287e-05L655.2 -1.2H654V0ZM648.846 0V-1.2H647.646L647.646 -3.74287e-05L648.846 0ZM620.5 0L621.7 -3.74287e-05L621.7 -1.2H620.5V0ZM615.346 0V-1.2H614.146L614.146 -3.74287e-05L615.346 0ZM587 0L588.2 -3.74287e-05L588.2 -1.2L587 -1.2V0ZM581.846 0V-1.2H580.646L580.646 -3.74287e-05L581.846 0ZM553.5 0L554.7 -3.74287e-05L554.7 -1.2H553.5V0ZM548.346 0V-1.2L547.146 -1.2L547.146 -3.74287e-05L548.346 0ZM520 0L521.2 -3.74287e-05L521.2 -1.2H520V0ZM514.846 0V-1.2H513.646L513.646 -3.74287e-05L514.846 0ZM486.5 0L487.7 -3.74287e-05L487.7 -1.2H486.5V0ZM481.346 0V-1.2H480.146L480.146 -3.74287e-05L481.346 0ZM453 0L454.2 -3.74287e-05L454.2 -1.2H453V0ZM447.846 0V-1.2H446.646L446.646 -3.74287e-05L447.846 0ZM419.5 0L420.7 -3.74287e-05L420.7 -1.2L419.5 -1.2V0ZM414.346 0V-1.2H413.146L413.146 -3.74288e-05L414.346 0ZM386 0L387.2 -3.74288e-05L387.2 -1.2H386V0ZM380.846 0V-1.2L379.646 -1.2L379.646 -3.74287e-05L380.846 0ZM352.5 0L353.7 -3.74287e-05L353.7 -1.2H352.5V0ZM347.346 0V-1.2H346.146L346.146 -3.74287e-05L347.346 0ZM319 0L320.2 -3.74287e-05L320.2 -1.2H319V0ZM313.847 0V-1.2H312.647L312.647 -3.74288e-05L313.847 0ZM285.5 0L286.7 -3.74288e-05L286.7 -1.2H285.5V0ZM280.346 0V-1.2H279.146L279.146 -3.74287e-05L280.346 0ZM252 0L253.2 -3.50894e-05L253.2 -1.2H252V0ZM246.846 0V-1.2H245.646L245.646 -3.74288e-05L246.846 0ZM218.5 0L219.7 -3.74288e-05L219.7 -1.2H218.5V0ZM213.346 0V-1.2H212.146L212.146 -3.50894e-05L213.346 0ZM185 0L186.2 -3.50894e-05L186.2 -1.2H185V0ZM179.846 0V-1.2H178.646L178.646 -4.91257e-05L179.846 0ZM151.5 0L152.7 -4.91257e-05L152.7 -1.2H151.5V0ZM146.346 0V-1.2H145.146L145.146 -3.50894e-05L146.346 0ZM118 0L119.2 -3.62591e-05L119.2 -1.2H118V0ZM112.846 0V-1.2H111.646L111.646 -3.62591e-05L112.846 0ZM84.5002 0L85.7002 -3.62591e-05L85.7002 -1.2H84.5002V0ZM79.3465 0V-1.2H78.1465L78.1465 -3.74288e-05L79.3465 0ZM51.0003 0L52.2003 -3.74288e-05L52.2003 -1.2L51.0003 -1.2V0ZM45.8464 0V-1.2H44.6464L44.6464 -3.56743e-05L45.8464 0ZM17.5002 0L18.7002 -3.59667e-05L18.7002 -1.2H17.5002V0ZM12.3463 0V-1.2L11.1463 -1.2L11.1463 -3.73089e-05L12.3463 0ZM0 14.056L-0.153156 12.8658L-1.2 13.0005V14.056H0ZM0 19.3354H-1.2L-1.2 20.578L0.0418254 20.5347L0 19.3354ZM14.676 33.4997H13.476H14.676ZM0 47.6641L0.0418255 46.4648L-1.2 46.4215V47.6641H0ZM0 52.8354H-1.2V54.078L0.0418256 54.0347L0 52.8354ZM14.676 66.9998H15.876H14.676ZM0 81.1641L0.0418257 79.9648L-1.2 79.9215V81.1641H0ZM0 86.3354H-1.2V87.578L0.0418257 87.5347L0 86.3354ZM14.676 100.5H13.476H14.676ZM0 114.664L0.0418258 113.465L-1.2 113.421V114.664H0ZM0 119.835H-1.2V121.078L0.0418258 121.035L0 119.835ZM14.676 134H15.876H14.676ZM0 148.164L0.0417712 146.965L-1.2 146.922L-1.2 148.164H0ZM0 153.335H-1.2V154.578L0.0417712 154.535L0 153.335ZM14.676 167.5H13.476H14.676ZM0 181.664L0.0417713 180.465L-1.2 180.422V181.664H0ZM0 186.835H-1.2L-1.2 188.078L0.0417713 188.035L0 186.835ZM14.676 201H15.876H14.676ZM0 215.164L0.0417714 213.965L-1.2 213.922V215.164H0ZM0 220.335H-1.2V221.578L0.0417714 221.535L0 220.335ZM0 248.664L0.0417715 247.465L-1.2 247.422V248.664H0ZM0 253.835H-1.2V255.078L0.0417715 255.035L0 253.835ZM14.676 268H15.876H14.676ZM0 282.164L0.0418811 280.965L-1.2 280.921V282.164H0ZM0 287.335H-1.2V288.578L0.0418812 288.535L0 287.335ZM0 315.664L0.0418813 314.465L-1.2 314.421V315.664H0ZM0 320.835H-1.2V322.078L0.0418813 322.035L0 320.835ZM14.676 335H13.476H14.676ZM0 349.164L0.0418814 347.965L-1.2 347.921L-1.2 349.164H0ZM0 354.335H-1.2V355.578L0.0418814 355.535L0 354.335ZM0 382.664L0.0418815 381.465L-1.2 381.421V382.664H0ZM0 387.835H-1.2L-1.2 389.078L0.0418815 389.035L0 387.835ZM14.676 402H13.476H14.676ZM0 416.164L0.0418816 414.965L-1.2 414.921V416.164H0ZM0 421.335H-1.2V422.578L0.0418817 422.535L0 421.335ZM14.676 435.5H15.876H14.676ZM0 449.664L0.0418818 448.465L-1.2 448.421V449.664H0ZM0 454.835H-1.2V456.078L0.0418818 456.035L0 454.835ZM14.676 469H13.476H14.676ZM0 483.164L0.0418819 481.965L-1.2 481.921V483.164H0ZM0 488.335H-1.2V489.578L0.0418819 489.535L0 488.335ZM14.676 502.5H15.876H14.676ZM0 516.664L0.041663 515.465L-1.2 515.422L-1.2 516.664H0ZM0 521.835H-1.2V523.078L0.041663 523.035L0 521.835ZM14.6759 536H13.4759H14.6759ZM0 550.164L0.0416631 548.965L-1.2 548.922V550.164H0ZM0 555.335H-1.2L-1.2 556.578L0.0416631 556.535L0 555.335ZM14.6759 569.5H15.8759H14.6759ZM0 583.664L0.0416632 582.465L-1.2 582.422V583.664H0ZM0 588.835H-1.2V590.078L0.0416632 590.035L0 588.835ZM0 617.164L0.0416633 615.965L-1.2 615.922V617.164H0ZM0 622.335H-1.2V623.578L0.0416634 623.535L0 622.335ZM14.6759 636.5H15.8759H14.6759ZM0 650.664L0.0416635 649.465L-1.2 649.422V650.664H0ZM0 655.835H-1.2V657.078L0.0416635 657.035L0 655.835ZM0 684.164L0.0416636 682.965L-1.2 682.922L-1.2 684.164H0ZM0 686.117H-1.2V687.172L-0.153153 687.307L0 686.117ZM10.835 693.798L9.76365 694.339L9.84173 694.493L9.96041 694.62L10.835 693.798ZM14.2405 700L13.0775 700.295L13.3072 701.2H14.2405V700ZM17.5012 700V701.2H18.687L18.7012 700.014L17.5012 700ZM45.8453 700L44.6454 700.014L44.6596 701.2H45.8453V700ZM51.0013 700V701.2H52.1871L52.2013 700.014L51.0013 700ZM79.3454 700L78.1455 700.014L78.1597 701.2H79.3454V700ZM84.5012 700V701.2H85.687L85.7012 700.014L84.5012 700ZM112.845 700L111.645 700.014L111.66 701.2H112.845V700ZM118.001 700V701.2H119.187L119.201 700.014L118.001 700ZM146.345 700L145.145 700.014L145.16 701.2H146.345V700ZM151.501 700V701.2H152.687L152.701 700.014L151.501 700ZM179.845 700L178.645 700.014L178.659 701.2H179.845V700ZM185.001 700V701.2H186.187L186.201 700.014L185.001 700ZM213.345 700L212.145 700.014L212.16 701.2H213.345V700ZM218.501 700V701.2H219.687L219.701 700.014L218.501 700ZM246.845 700L245.645 700.014L245.66 701.2H246.845V700ZM252.001 700V701.2H253.187L253.201 700.014L252.001 700ZM280.345 700L279.145 700.014L279.16 701.2H280.345V700ZM285.501 700V701.2H286.687L286.701 700.014L285.501 700ZM313.846 700L312.646 700.014L312.66 701.2H313.846V700ZM319.001 700V701.2H320.187L320.201 700.014L319.001 700ZM347.345 700L346.145 700.014L346.16 701.2H347.345V700ZM352.501 700V701.2H353.687L353.701 700.014L352.501 700ZM380.845 700L379.645 700.014L379.66 701.2H380.845V700ZM386.001 700V701.2H387.187L387.201 700.014L386.001 700ZM414.345 700L413.145 700.014L413.16 701.2H414.345V700ZM419.501 700V701.2H420.687L420.701 700.014L419.501 700ZM447.845 700L446.645 700.014L446.66 701.2H447.845V700ZM453.001 700V701.2H454.187L454.201 700.014L453.001 700ZM481.345 700L480.145 700.014L480.16 701.2H481.345V700ZM486.501 700V701.2H487.687L487.701 700.014L486.501 700ZM514.845 700L513.646 700.014L513.66 701.2H514.845V700ZM520.001 700V701.2H521.187L521.201 700.014L520.001 700ZM548.345 700L547.146 700.014L547.16 701.2H548.345V700ZM553.501 700V701.2H554.687L554.701 700.014L553.501 700ZM581.845 700L580.646 700.014L580.66 701.2H581.845V700ZM587.001 700V701.2H588.187L588.201 700.014L587.001 700ZM615.345 700L614.146 700.014L614.16 701.2H615.345V700ZM620.501 700V701.2H621.687L621.701 700.014L620.501 700ZM648.845 700L647.646 700.014L647.66 701.2H648.845V700ZM654.001 700V701.2H655.187L655.201 700.014L654.001 700ZM682.345 700L681.146 700.014L681.16 701.2H682.345V700ZM687.501 700V701.2H688.687L688.701 700.014L687.501 700ZM715.845 700L714.646 700.014L714.66 701.2H715.845V700ZM721.001 700V701.2H722.187L722.201 700.014L721.001 700ZM749.345 700L748.146 700.014L748.16 701.2H749.345V700ZM754.501 700V701.2H755.687L755.701 700.014L754.501 700ZM782.845 700L781.646 700.014L781.66 701.2H782.845V700ZM788.001 700V701.2H789.187L789.201 700.014L788.001 700ZM816.345 700L815.146 700.014L815.16 701.2H816.345V700ZM821.501 700V701.2H822.687L822.701 700.014L821.501 700ZM849.845 700L848.646 700.014L848.66 701.2H849.845V700ZM855.001 700V701.2H856.187L856.201 700.014L855.001 700ZM883.345 700L882.146 700.014L882.16 701.2H883.345V700ZM886.765 700V701.2H887.699L887.928 700.295L886.765 700ZM889.827 694.177L890.731 694.967L890.843 694.839L890.914 694.685L889.827 694.177ZM900 686.252L900.225 687.43L901.2 687.244V686.252H900ZM900 684.164H901.2V683.005L900.042 682.965L900 684.164ZM900 655.835L900.042 657.035L901.2 656.994V655.835H900ZM900 650.664H901.2V649.505L900.042 649.465L900 650.664ZM900 622.335L900.042 623.535L901.2 623.494V622.335H900ZM900 617.164H901.2V616.005L900.042 615.965L900 617.164ZM900 588.835L900.042 590.035L901.2 589.994V588.835H900ZM900 583.664H901.2V582.505L900.042 582.465L900 583.664ZM900 555.335L900.042 556.535L901.2 556.494V555.335H900ZM900 550.164H901.2V549.005L900.042 548.965L900 550.164ZM900 521.835L900.042 523.035L901.2 522.994V521.835H900ZM900 516.664H901.2V515.505L900.042 515.465L900 516.664ZM900 488.335L900.042 489.535L901.2 489.494V488.335H900ZM900 483.164H901.2V482.005L900.042 481.965L900 483.164ZM900 454.835L900.042 456.035L901.2 455.994V454.835H900ZM900 449.664H901.2V448.505L900.042 448.465L900 449.664ZM900 421.335L900.042 422.535L901.2 422.494V421.335H900ZM900 416.164H901.2V415.005L900.042 414.965L900 416.164ZM900 387.835L900.042 389.035L901.2 388.994V387.835H900ZM900 382.664H901.2V381.505L900.042 381.465L900 382.664ZM900 354.335L900.042 355.535L901.2 355.494V354.335H900ZM900 349.164H901.2V348.005L900.042 347.965L900 349.164ZM900 320.835L900.042 322.035L901.2 321.994V320.835H900ZM900 315.664H901.2V314.505L900.042 314.465L900 315.664ZM900 287.335L900.042 288.535L901.2 288.494V287.335H900ZM900 282.164H901.2V281.005L900.042 280.965L900 282.164ZM900 253.835L900.042 255.035L901.2 254.994V253.835H900ZM900 248.664H901.2V247.505L900.042 247.465L900 248.664ZM900 220.335L900.042 221.535L901.2 221.494V220.335H900ZM900 215.164H901.2V214.005L900.042 213.965L900 215.164ZM900 186.835L900.042 188.035L901.2 187.994V186.835H900ZM900 181.664H901.2V180.505L900.042 180.465L900 181.664ZM900 153.335L900.042 154.535L901.2 154.494V153.335H900ZM900 148.164H901.2V147.005L900.042 146.965L900 148.164ZM900 119.835L900.042 121.035L901.2 120.994V119.835H900ZM900 114.664H901.2V113.505L900.042 113.465L900 114.664ZM900 86.3354L900.042 87.5347L901.2 87.4943V86.3354H900ZM900 81.1641H901.2V80.0052L900.042 79.9648L900 81.1641ZM900 52.8354L900.042 54.0347L901.2 53.9943V52.8354H900ZM900 47.6641H901.2V46.5052L900.042 46.4648L900 47.6641ZM900 19.3354L900.042 20.5347L901.2 20.4943V19.3354H900ZM900 13.9209H901.2V12.9283L900.225 12.7422L900 13.9209ZM883.346 1.2L888.5 1.2V-1.2L883.346 -1.2V1.2ZM869.173 15.3726C877.664 15.3726 884.546 8.49014 884.546 3.74287e-05L882.146 -3.74287e-05C882.146 7.16461 876.338 12.9726 869.173 12.9726V15.3726ZM853.8 3.74287e-05C853.801 8.49014 860.683 15.3726 869.173 15.3726V12.9726C862.009 12.9726 856.2 7.16461 856.2 -3.74287e-05L853.8 3.74287e-05ZM849.846 1.2L855 1.2V-1.2L849.846 -1.2V1.2ZM835.673 15.3726C844.164 15.3726 851.046 8.49014 851.046 3.74287e-05L848.646 -3.74287e-05C848.646 7.16461 842.838 12.9726 835.673 12.9726V15.3726ZM820.3 3.74287e-05C820.301 8.49014 827.183 15.3726 835.673 15.3726V12.9726C828.509 12.9726 822.7 7.16461 822.7 -3.74287e-05L820.3 3.74287e-05ZM816.346 1.2L821.5 1.2V-1.2L816.346 -1.2V1.2ZM802.173 15.3726C810.664 15.3726 817.546 8.49014 817.546 3.74287e-05L815.146 -3.74287e-05C815.146 7.16461 809.338 12.9726 802.173 12.9726V15.3726ZM786.8 3.74287e-05C786.801 8.49014 793.683 15.3726 802.173 15.3726V12.9726C795.009 12.9726 789.2 7.16461 789.2 -3.74287e-05L786.8 3.74287e-05ZM782.846 1.2L788 1.2V-1.2L782.846 -1.2V1.2ZM768.673 15.3726C777.164 15.3726 784.046 8.49014 784.046 3.74287e-05L781.646 -3.74287e-05C781.646 7.16461 775.838 12.9726 768.673 12.9726V15.3726ZM753.3 3.74287e-05C753.301 8.49014 760.183 15.3726 768.673 15.3726V12.9726C761.509 12.9726 755.7 7.16461 755.7 -3.74287e-05L753.3 3.74287e-05ZM749.346 1.2H754.5V-1.2H749.346V1.2ZM735.173 15.3726C743.664 15.3726 750.546 8.49014 750.546 3.74287e-05L748.146 -3.74287e-05C748.146 7.16461 742.338 12.9726 735.173 12.9726V15.3726ZM719.8 3.74287e-05C719.801 8.49014 726.683 15.3726 735.173 15.3726V12.9726C728.009 12.9726 722.2 7.16461 722.2 -3.74287e-05L719.8 3.74287e-05ZM715.846 1.2L721 1.2V-1.2L715.846 -1.2V1.2ZM701.673 15.3726C710.164 15.3726 717.046 8.49014 717.046 3.74287e-05L714.646 -3.74287e-05C714.646 7.16461 708.838 12.9726 701.673 12.9726V15.3726ZM686.3 3.74287e-05C686.301 8.49014 693.183 15.3726 701.673 15.3726V12.9726C694.509 12.9726 688.7 7.16461 688.7 -3.74287e-05L686.3 3.74287e-05ZM682.346 1.2L687.5 1.2V-1.2L682.346 -1.2V1.2ZM668.173 15.3726C676.664 15.3726 683.546 8.49014 683.546 3.74287e-05L681.146 -3.74287e-05C681.146 7.16461 675.338 12.9726 668.173 12.9726V15.3726ZM652.8 3.74287e-05C652.801 8.49014 659.683 15.3726 668.173 15.3726V12.9726C661.009 12.9726 655.2 7.16461 655.2 -3.74287e-05L652.8 3.74287e-05ZM648.846 1.2L654 1.2V-1.2L648.846 -1.2V1.2ZM634.673 15.3726C643.164 15.3726 650.046 8.49014 650.046 3.74287e-05L647.646 -3.74287e-05C647.646 7.16461 641.838 12.9726 634.673 12.9726V15.3726ZM619.3 3.74287e-05C619.301 8.49014 626.183 15.3726 634.673 15.3726V12.9726C627.509 12.9726 621.7 7.16461 621.7 -3.74287e-05L619.3 3.74287e-05ZM615.346 1.2L620.5 1.2V-1.2L615.346 -1.2V1.2ZM601.173 15.3726C609.664 15.3726 616.546 8.49014 616.546 3.74287e-05L614.146 -3.74287e-05C614.146 7.16461 608.338 12.9726 601.173 12.9726V15.3726ZM585.8 3.74287e-05C585.801 8.49014 592.683 15.3726 601.173 15.3726V12.9726C594.009 12.9726 588.2 7.16461 588.2 -3.74287e-05L585.8 3.74287e-05ZM581.846 1.2H587V-1.2H581.846V1.2ZM567.673 15.3726C576.164 15.3726 583.046 8.49014 583.046 3.74287e-05L580.646 -3.74287e-05C580.646 7.16461 574.838 12.9726 567.673 12.9726V15.3726ZM552.3 3.74287e-05C552.301 8.49014 559.183 15.3726 567.673 15.3726V12.9726C560.509 12.9726 554.7 7.16461 554.7 -3.74287e-05L552.3 3.74287e-05ZM548.346 1.2H553.5V-1.2H548.346V1.2ZM534.173 15.3726C542.664 15.3726 549.546 8.49014 549.546 3.74287e-05L547.146 -3.74287e-05C547.146 7.16461 541.338 12.9726 534.173 12.9726V15.3726ZM518.8 3.74287e-05C518.801 8.49014 525.683 15.3726 534.173 15.3726V12.9726C527.009 12.9726 521.2 7.16461 521.2 -3.74287e-05L518.8 3.74287e-05ZM514.846 1.2L520 1.2V-1.2L514.846 -1.2V1.2ZM500.673 15.3726C509.163 15.3726 516.046 8.49014 516.046 3.74287e-05L513.646 -3.74287e-05C513.646 7.16461 507.838 12.9726 500.673 12.9726V15.3726ZM485.3 3.74287e-05C485.301 8.49014 492.183 15.3726 500.673 15.3726V12.9726C493.509 12.9726 487.7 7.16461 487.7 -3.74287e-05L485.3 3.74287e-05ZM481.346 1.2L486.5 1.2V-1.2L481.346 -1.2V1.2ZM467.173 15.3726C475.663 15.3726 482.546 8.49014 482.546 3.74287e-05L480.146 -3.74287e-05C480.146 7.16462 474.338 12.9726 467.173 12.9726V15.3726ZM451.8 3.74287e-05C451.801 8.49014 458.683 15.3726 467.173 15.3726V12.9726C460.009 12.9726 454.2 7.16461 454.2 -3.74287e-05L451.8 3.74287e-05ZM447.846 1.2L453 1.2V-1.2L447.846 -1.2V1.2ZM433.673 15.3726C442.163 15.3726 449.046 8.49014 449.046 3.74287e-05L446.646 -3.74287e-05C446.646 7.16462 440.838 12.9726 433.673 12.9726V15.3726ZM418.3 3.74287e-05C418.3 8.49014 425.183 15.3726 433.673 15.3726V12.9726C426.509 12.9726 420.7 7.16461 420.7 -3.74287e-05L418.3 3.74287e-05ZM414.346 1.2H419.5V-1.2H414.346V1.2ZM400.173 15.3726C408.663 15.3726 415.546 8.49013 415.546 3.74288e-05L413.146 -3.74288e-05C413.146 7.16461 407.338 12.9726 400.173 12.9726V15.3726ZM384.8 3.74288e-05C384.8 8.49013 391.683 15.3726 400.173 15.3726V12.9726C393.009 12.9726 387.2 7.1646 387.2 -3.74288e-05L384.8 3.74288e-05ZM380.846 1.2H386V-1.2H380.846V1.2ZM366.673 15.3726C375.163 15.3726 382.046 8.49014 382.046 3.74287e-05L379.646 -3.74287e-05C379.646 7.16462 373.838 12.9726 366.673 12.9726V15.3726ZM351.3 3.74287e-05C351.3 8.49014 358.183 15.3726 366.673 15.3726V12.9726C359.509 12.9726 353.7 7.16461 353.7 -3.74287e-05L351.3 3.74287e-05ZM347.346 1.2L352.5 1.2V-1.2L347.346 -1.2V1.2ZM333.173 15.3726C341.663 15.3726 348.546 8.49014 348.546 3.74287e-05L346.146 -3.74287e-05C346.146 7.16462 340.338 12.9726 333.173 12.9726V15.3726ZM317.8 3.74287e-05C317.8 8.49014 324.683 15.3726 333.173 15.3726V12.9726C326.009 12.9726 320.2 7.16461 320.2 -3.74287e-05L317.8 3.74287e-05ZM313.847 1.2L319 1.2V-1.2L313.847 -1.2V1.2ZM299.674 15.3726C308.164 15.3726 315.046 8.49013 315.047 3.74288e-05L312.647 -3.74288e-05C312.646 7.16461 306.838 12.9726 299.674 12.9726V15.3726ZM284.3 3.74288e-05C284.301 8.49013 291.183 15.3726 299.674 15.3726V12.9726C292.509 12.9726 286.701 7.1646 286.7 -3.74288e-05L284.3 3.74288e-05ZM280.346 1.2L285.5 1.2V-1.2L280.346 -1.2V1.2ZM266.173 15.3726C274.663 15.3726 281.546 8.49014 281.546 3.74287e-05L279.146 -3.74287e-05C279.146 7.16462 273.338 12.9726 266.173 12.9726V15.3726ZM250.8 3.50894e-05C250.8 8.49014 257.683 15.3726 266.173 15.3726V12.9726C259.009 12.9726 253.2 7.16461 253.2 -3.50894e-05L250.8 3.50894e-05ZM246.846 1.2L252 1.2V-1.2L246.846 -1.2V1.2ZM232.673 15.3726C241.163 15.3726 248.046 8.49013 248.046 3.74288e-05L245.646 -3.74288e-05C245.646 7.16461 239.838 12.9726 232.673 12.9726V15.3726ZM217.3 3.74288e-05C217.301 8.49013 224.183 15.3726 232.673 15.3726V12.9726C225.509 12.9726 219.7 7.16461 219.7 -3.74288e-05L217.3 3.74288e-05ZM213.346 1.2H218.5V-1.2H213.346V1.2ZM199.173 15.3726C207.663 15.3726 214.546 8.49014 214.546 3.50894e-05L212.146 -3.50894e-05C212.146 7.16461 206.338 12.9726 199.173 12.9726V15.3726ZM183.8 3.50894e-05C183.8 8.49014 190.683 15.3726 199.173 15.3726V12.9726C192.009 12.9726 186.2 7.16461 186.2 -3.50894e-05L183.8 3.50894e-05ZM179.846 1.2L185 1.2V-1.2L179.846 -1.2V1.2ZM165.673 15.3725C174.163 15.3725 181.046 8.49008 181.046 4.91257e-05L178.646 -4.91257e-05C178.646 7.16454 172.838 12.9725 165.673 12.9725V15.3725ZM150.3 4.91257e-05C150.3 8.49007 157.183 15.3725 165.673 15.3725V12.9725C158.508 12.9725 152.7 7.16454 152.7 -4.91257e-05L150.3 4.91257e-05ZM146.346 1.2L151.5 1.2V-1.2L146.346 -1.2V1.2ZM132.173 15.3726C140.663 15.3726 147.546 8.49014 147.546 3.50894e-05L145.146 -3.50894e-05C145.146 7.16461 139.338 12.9726 132.173 12.9726V15.3726ZM116.8 3.62591e-05C116.8 8.49014 123.683 15.3726 132.173 15.3726V12.9726C125.009 12.9726 119.2 7.16461 119.2 -3.62591e-05L116.8 3.62591e-05ZM112.846 1.2L118 1.2V-1.2L112.846 -1.2V1.2ZM98.6733 15.3726C107.163 15.3726 114.046 8.49014 114.046 3.62591e-05L111.646 -3.62591e-05C111.646 7.16462 105.838 12.9726 98.6733 12.9726V15.3726ZM83.3002 3.62591e-05C83.3005 8.49014 90.1831 15.3726 98.6733 15.3726V12.9726C91.5086 12.9726 85.7004 7.16461 85.7002 -3.62591e-05L83.3002 3.62591e-05ZM79.3465 1.2L84.5002 1.2V-1.2L79.3465 -1.2V1.2ZM65.1734 15.3726C73.6635 15.3726 80.5462 8.49013 80.5465 3.74288e-05L78.1465 -3.74288e-05C78.1462 7.16461 72.3381 12.9726 65.1734 12.9726V15.3726ZM49.8003 3.74288e-05C49.8006 8.49013 56.6832 15.3726 65.1734 15.3726V12.9726C58.0087 12.9726 52.2005 7.16461 52.2003 -3.74288e-05L49.8003 3.74288e-05ZM45.8464 1.2H51.0003V-1.2H45.8464V1.2ZM31.6733 15.3726C40.1634 15.3726 47.0461 8.49014 47.0464 3.56743e-05L44.6464 -3.56743e-05C44.6461 7.16461 38.838 12.9726 31.6733 12.9726V15.3726ZM16.3002 3.59667e-05C16.3005 8.49014 23.1831 15.3726 31.6733 15.3726V12.9726C24.5086 12.9726 18.7004 7.16461 18.7002 -3.59667e-05L16.3002 3.59667e-05ZM12.3463 1.2H17.5002V-1.2H12.3463V1.2ZM0.153156 15.2462C7.70858 14.2739 13.546 7.81965 13.5463 3.73089e-05L11.1463 -3.73089e-05C11.1461 6.59708 6.22051 12.0456 -0.153156 12.8658L0.153156 15.2462ZM1.2 19.3354V14.056H-1.2V19.3354H1.2ZM0.502893 18.1267C0.320618 18.1267 0.139027 18.1298 -0.0418254 18.1362L0.0418254 20.5347C0.1948 20.5294 0.348503 20.5267 0.502893 20.5267V18.1267ZM15.876 33.4997C15.876 25.0094 8.99321 18.1267 0.502893 18.1267V20.5267C7.66773 20.5267 13.476 26.3349 13.476 33.4997H15.876ZM0.502892 48.8728C8.99321 48.8728 15.876 41.9901 15.876 33.4997H13.476C13.476 40.6646 7.66773 46.4728 0.502892 46.4728V48.8728ZM-0.0418255 48.8633C0.139026 48.8697 0.320617 48.8728 0.502892 48.8728V46.4728C0.348503 46.4728 0.1948 46.4701 0.0418255 46.4648L-0.0418255 48.8633ZM1.2 52.8354L1.2 47.6641H-1.2L-1.2 52.8354H1.2ZM0.502892 51.6267C0.320617 51.6267 0.139026 51.6299 -0.0418256 51.6362L0.0418256 54.0347C0.1948 54.0294 0.348502 54.0267 0.502892 54.0267L0.502892 51.6267ZM15.876 66.9998C15.876 58.5094 8.99321 51.6267 0.502892 51.6267L0.502892 54.0267C7.66773 54.0267 13.476 59.8349 13.476 66.9998H15.876ZM0.502891 82.3728C8.99321 82.3728 15.876 75.4901 15.876 66.9998H13.476C13.476 74.1646 7.66773 79.9728 0.502891 79.9728L0.502891 82.3728ZM-0.0418257 82.3633C0.139008 82.3696 0.320598 82.3728 0.502891 82.3728L0.502891 79.9728C0.34852 79.9728 0.194817 79.9701 0.0418257 79.9648L-0.0418257 82.3633ZM1.2 86.3354L1.2 81.1641H-1.2L-1.2 86.3354H1.2ZM0.502891 85.1267C0.320598 85.1267 0.139008 85.1299 -0.0418257 85.1362L0.0418257 87.5347C0.194817 87.5294 0.34852 87.5267 0.502891 87.5267L0.502891 85.1267ZM15.876 100.5C15.876 92.0094 8.99321 85.1267 0.502891 85.1267L0.502891 87.5267C7.66772 87.5267 13.476 93.3349 13.476 100.5H15.876ZM0.502889 115.873C8.99321 115.873 15.876 108.99 15.876 100.5H13.476C13.476 107.665 7.66772 113.473 0.502889 113.473L0.502889 115.873ZM-0.0418258 115.863C0.139007 115.87 0.320597 115.873 0.502889 115.873L0.502889 113.473C0.348519 113.473 0.194817 113.47 0.0418258 113.465L-0.0418258 115.863ZM1.2 119.835L1.2 114.664H-1.2L-1.2 119.835H1.2ZM0.502889 118.627C0.320597 118.627 0.139007 118.63 -0.0418258 118.636L0.0418258 121.035C0.194817 121.029 0.348519 121.027 0.502889 121.027V118.627ZM15.876 134C15.876 125.509 8.99321 118.627 0.502889 118.627V121.027C7.66772 121.027 13.476 126.835 13.476 134H15.876ZM0.502888 149.373C8.9932 149.373 15.876 142.49 15.876 134H13.476C13.476 141.165 7.66772 146.973 0.502888 146.973V149.373ZM-0.0417712 149.363C0.138988 149.37 0.32056 149.373 0.502888 149.373V146.973C0.348554 146.973 0.194835 146.97 0.0417712 146.965L-0.0417712 149.363ZM1.2 153.335V148.164H-1.2V153.335H1.2ZM0.502888 152.127C0.32056 152.127 0.138988 152.13 -0.0417712 152.136L0.0417712 154.535C0.194835 154.529 0.348554 154.527 0.502888 154.527L0.502888 152.127ZM15.876 167.5C15.876 159.009 8.9932 152.127 0.502888 152.127L0.502888 154.527C7.66772 154.527 13.476 160.335 13.476 167.5H15.876ZM0.502886 182.873C8.9932 182.873 15.876 175.99 15.876 167.5H13.476C13.476 174.665 7.66772 180.473 0.502886 180.473L0.502886 182.873ZM-0.0417713 182.863C0.138988 182.87 0.320559 182.873 0.502886 182.873L0.502886 180.473C0.348553 180.473 0.194834 180.47 0.0417713 180.465L-0.0417713 182.863ZM1.2 186.835V181.664H-1.2V186.835H1.2ZM0.502886 185.627C0.320558 185.627 0.138988 185.63 -0.0417713 185.636L0.0417713 188.035C0.194834 188.029 0.348553 188.027 0.502886 188.027L0.502886 185.627ZM15.876 201C15.876 192.509 8.9932 185.627 0.502886 185.627L0.502886 188.027C7.66772 188.027 13.476 193.835 13.476 201H15.876ZM0.502885 216.373C8.9932 216.373 15.876 209.49 15.876 201H13.476C13.476 208.165 7.66772 213.973 0.502885 213.973L0.502885 216.373ZM-0.0417714 216.363C0.138987 216.37 0.320558 216.373 0.502885 216.373L0.502885 213.973C0.348552 213.973 0.194834 213.97 0.0417714 213.965L-0.0417714 216.363ZM1.2 220.335L1.2 215.164H-1.2L-1.2 220.335H1.2ZM0.502885 219.127C0.320558 219.127 0.138987 219.13 -0.0417714 219.136L0.0417714 221.535C0.194834 221.529 0.348552 221.527 0.502885 221.527V219.127ZM15.876 234.5C15.876 226.009 8.9932 219.127 0.502885 219.127V221.527C7.66772 221.527 13.476 227.335 13.476 234.5H15.876ZM0.502883 249.873C8.9932 249.873 15.876 242.99 15.876 234.5H13.476C13.476 241.665 7.66772 247.473 0.502883 247.473V249.873ZM-0.0417715 249.863C0.138987 249.87 0.320557 249.873 0.502883 249.873V247.473C0.348552 247.473 0.194834 247.47 0.0417715 247.465L-0.0417715 249.863ZM1.2 253.835L1.2 248.664H-1.2L-1.2 253.835H1.2ZM0.502883 252.627C0.320556 252.627 0.138987 252.63 -0.0417715 252.636L0.0417715 255.035C0.194834 255.029 0.348551 255.027 0.502883 255.027L0.502883 252.627ZM15.876 268C15.876 259.509 8.9932 252.627 0.502883 252.627L0.502883 255.027C7.66772 255.027 13.476 260.835 13.476 268H15.876ZM0.502882 283.373C8.9932 283.373 15.876 276.49 15.876 268H13.476C13.476 275.165 7.66771 280.973 0.502882 280.973L0.502882 283.373ZM-0.0418811 283.363C0.139022 283.37 0.320628 283.373 0.502882 283.373L0.502882 280.973C0.348478 280.973 0.194797 280.97 0.0418811 280.965L-0.0418811 283.363ZM1.2 287.335L1.2 282.164H-1.2L-1.2 287.335H1.2ZM0.502882 286.127C0.320628 286.127 0.139022 286.13 -0.0418812 286.136L0.0418812 288.535C0.194797 288.529 0.348478 288.527 0.502882 288.527V286.127ZM15.876 301.5C15.876 293.009 8.9932 286.127 0.502882 286.127V288.527C7.66771 288.527 13.476 294.335 13.476 301.5H15.876ZM0.50288 316.873C8.9932 316.873 15.876 309.99 15.876 301.5H13.476C13.476 308.665 7.66772 314.473 0.50288 314.473V316.873ZM-0.0418813 316.863C0.139022 316.87 0.320627 316.873 0.50288 316.873V314.473C0.348477 314.473 0.194796 314.47 0.0418813 314.465L-0.0418813 316.863ZM1.2 320.835L1.2 315.664H-1.2L-1.2 320.835H1.2ZM0.50288 319.627C0.320627 319.627 0.139022 319.63 -0.0418813 319.636L0.0418813 322.035C0.194796 322.029 0.348477 322.027 0.50288 322.027L0.50288 319.627ZM15.876 335C15.876 326.509 8.9932 319.627 0.50288 319.627L0.50288 322.027C7.66771 322.027 13.476 327.835 13.476 335H15.876ZM0.502879 350.373C8.99319 350.373 15.876 343.49 15.876 335H13.476C13.476 342.165 7.66771 347.973 0.502879 347.973L0.502879 350.373ZM-0.0418814 350.363C0.139021 350.37 0.320626 350.373 0.502879 350.373L0.502879 347.973C0.348476 347.973 0.194796 347.97 0.0418814 347.965L-0.0418814 350.363ZM1.2 354.335V349.164H-1.2V354.335H1.2ZM0.502879 353.127C0.320626 353.127 0.139021 353.13 -0.0418814 353.136L0.0418814 355.535C0.194796 355.529 0.348476 355.527 0.502879 355.527L0.502879 353.127ZM15.876 368.5C15.876 360.009 8.9932 353.127 0.502879 353.127L0.502879 355.527C7.66771 355.527 13.476 361.335 13.476 368.5H15.876ZM0.502877 383.873C8.99319 383.873 15.876 376.99 15.876 368.5H13.476C13.476 375.665 7.66771 381.473 0.502877 381.473L0.502877 383.873ZM-0.0418815 383.863C0.139021 383.87 0.320625 383.873 0.502877 383.873L0.502877 381.473C0.348475 381.473 0.194796 381.47 0.0418815 381.465L-0.0418815 383.863ZM1.2 387.835V382.664H-1.2V387.835H1.2ZM0.502877 386.627C0.320625 386.627 0.139021 386.63 -0.0418815 386.636L0.0418815 389.035C0.194796 389.029 0.348475 389.027 0.502877 389.027V386.627ZM15.876 402C15.876 393.509 8.9932 386.627 0.502877 386.627V389.027C7.66771 389.027 13.476 394.835 13.476 402H15.876ZM0.502876 417.373C8.99319 417.373 15.876 410.49 15.876 402H13.476C13.476 409.165 7.66771 414.973 0.502876 414.973V417.373ZM-0.0418816 417.363C0.13902 417.37 0.320624 417.373 0.502876 417.373V414.973C0.348474 414.973 0.194795 414.97 0.0418816 414.965L-0.0418816 417.363ZM1.2 421.335L1.2 416.164H-1.2L-1.2 421.335H1.2ZM0.502876 420.127C0.320624 420.127 0.13902 420.13 -0.0418817 420.136L0.0418817 422.535C0.194795 422.529 0.348474 422.527 0.502876 422.527L0.502876 420.127ZM15.876 435.5C15.876 427.009 8.99319 420.127 0.502876 420.127L0.502876 422.527C7.66771 422.527 13.476 428.335 13.476 435.5H15.876ZM0.502874 450.873C8.99319 450.873 15.876 443.99 15.876 435.5H13.476C13.476 442.665 7.66771 448.473 0.502874 448.473L0.502874 450.873ZM-0.0418818 450.863C0.13902 450.87 0.320623 450.873 0.502874 450.873L0.502874 448.473C0.348473 448.473 0.194795 448.47 0.0418818 448.465L-0.0418818 450.863ZM1.2 454.835L1.2 449.664H-1.2L-1.2 454.835H1.2ZM0.502874 453.627C0.320623 453.627 0.13902 453.63 -0.0418818 453.636L0.0418818 456.035C0.194795 456.029 0.348473 456.027 0.502874 456.027L0.502874 453.627ZM15.876 469C15.876 460.509 8.99319 453.627 0.502874 453.627L0.502874 456.027C7.66771 456.027 13.476 461.835 13.476 469H15.876ZM0.502873 484.373C8.99319 484.373 15.876 477.49 15.876 469H13.476C13.476 476.165 7.66771 481.973 0.502873 481.973L0.502873 484.373ZM-0.0418819 484.363C0.139019 484.37 0.320622 484.373 0.502873 484.373L0.502873 481.973C0.348472 481.973 0.194794 481.97 0.0418819 481.965L-0.0418819 484.363ZM1.2 488.335L1.2 483.164H-1.2L-1.2 488.335H1.2ZM0.502873 487.127C0.320622 487.127 0.139019 487.13 -0.0418819 487.136L0.0418819 489.535C0.194794 489.529 0.348472 489.527 0.502873 489.527V487.127ZM15.876 502.5C15.876 494.009 8.99319 487.127 0.502873 487.127V489.527C7.6677 489.527 13.476 495.335 13.476 502.5H15.876ZM0.502872 517.873C8.99319 517.873 15.8759 510.99 15.876 502.5H13.476C13.476 509.665 7.66771 515.473 0.502872 515.473V517.873ZM-0.041663 517.863C0.139091 517.87 0.320621 517.873 0.502872 517.873V515.473C0.348471 515.473 0.194721 515.47 0.041663 515.465L-0.041663 517.863ZM1.2 521.835V516.664H-1.2V521.835H1.2ZM0.502871 520.627C0.320621 520.627 0.139091 520.63 -0.041663 520.636L0.041663 523.035C0.194721 523.029 0.348471 523.027 0.502871 523.027L0.502871 520.627ZM15.8759 536C15.8759 527.509 8.99318 520.627 0.502871 520.627L0.502871 523.027C7.66771 523.027 13.476 528.835 13.4759 536H15.8759ZM0.50287 551.373C8.99319 551.373 15.8759 544.49 15.8759 536H13.4759C13.4759 543.165 7.6677 548.973 0.50287 548.973L0.50287 551.373ZM-0.0416631 551.363C0.139091 551.37 0.32062 551.373 0.50287 551.373L0.50287 548.973C0.34847 548.973 0.194721 548.97 0.0416631 548.965L-0.0416631 551.363ZM1.2 555.335V550.164H-1.2V555.335H1.2ZM0.50287 554.127C0.32062 554.127 0.139091 554.13 -0.0416631 554.136L0.0416631 556.535C0.194721 556.529 0.34847 556.527 0.50287 556.527V554.127ZM15.8759 569.5C15.8759 561.01 8.99319 554.127 0.50287 554.127V556.527C7.6677 556.527 13.4759 562.335 13.4759 569.5H15.8759ZM0.502869 584.873C8.99319 584.873 15.8759 577.99 15.8759 569.5H13.4759C13.4759 576.665 7.6677 582.473 0.502869 582.473V584.873ZM-0.0416632 584.863C0.13909 584.87 0.320619 584.873 0.502869 584.873V582.473C0.34847 582.473 0.19472 582.47 0.0416632 582.465L-0.0416632 584.863ZM1.2 588.835L1.2 583.664H-1.2L-1.2 588.835H1.2ZM0.502868 587.627C0.320619 587.627 0.13909 587.63 -0.0416632 587.636L0.0416632 590.035C0.19472 590.029 0.348469 590.027 0.502868 590.027L0.502868 587.627ZM15.8759 603C15.8759 594.51 8.99319 587.627 0.502868 587.627L0.502868 590.027C7.6677 590.027 13.4759 595.835 13.4759 603H15.8759ZM0.502867 618.373C8.99319 618.373 15.8759 611.49 15.8759 603H13.4759C13.4759 610.165 7.6677 615.973 0.502867 615.973L0.502867 618.373ZM-0.0416633 618.363C0.13909 618.37 0.320618 618.373 0.502867 618.373L0.502867 615.973C0.348469 615.973 0.19472 615.97 0.0416633 615.965L-0.0416633 618.363ZM1.2 622.335L1.2 617.164H-1.2L-1.2 622.335H1.2ZM0.502867 621.127C0.320618 621.127 0.13909 621.13 -0.0416634 621.136L0.0416634 623.535C0.19472 623.529 0.348468 623.527 0.502867 623.527L0.502867 621.127ZM15.8759 636.5C15.8759 628.01 8.99319 621.127 0.502867 621.127L0.502867 623.527C7.6677 623.527 13.4759 629.335 13.4759 636.5H15.8759ZM0.502866 651.873C8.99318 651.873 15.8759 644.99 15.8759 636.5H13.4759C13.4759 643.665 7.6677 649.473 0.502866 649.473L0.502866 651.873ZM-0.0416635 651.863C0.139089 651.87 0.320617 651.873 0.502866 651.873L0.502866 649.473C0.348468 649.473 0.19472 649.47 0.0416635 649.465L-0.0416635 651.863ZM1.2 655.835L1.2 650.664H-1.2L-1.2 655.835H1.2ZM0.502865 654.627C0.320617 654.627 0.139089 654.63 -0.0416635 654.636L0.0416635 657.035C0.19472 657.029 0.348467 657.027 0.502865 657.027V654.627ZM15.8759 670C15.8759 661.51 8.99318 654.627 0.502865 654.627V657.027C7.6677 657.027 13.4759 662.835 13.4759 670H15.8759ZM0.502864 685.373C8.99318 685.373 15.8759 678.49 15.8759 670H13.4759C13.4759 677.165 7.6677 682.973 0.502864 682.973V685.373ZM-0.0416636 685.363C0.139088 685.37 0.320616 685.373 0.502864 685.373V682.973C0.348467 682.973 0.194719 682.97 0.0416636 682.965L-0.0416636 685.363ZM1.2 686.117V684.164H-1.2V686.117H1.2ZM11.9064 693.258C9.65962 688.804 5.30838 685.59 0.153153 684.926L-0.153153 687.307C4.1903 687.866 7.86542 690.576 9.76365 694.339L11.9064 693.258ZM15.4036 699.705C14.7532 697.144 13.4608 694.841 11.7097 692.977L9.96041 694.62C11.4401 696.195 12.5295 698.138 13.0775 700.295L15.4036 699.705ZM17.5012 698.8H14.2405V701.2H17.5012V698.8ZM31.6733 684.8C23.2456 684.8 16.4019 691.582 16.3013 699.986L18.7012 700.014C18.786 692.923 24.5614 687.2 31.6733 687.2V684.8ZM47.0452 699.986C46.9447 691.582 40.101 684.8 31.6733 684.8V687.2C38.7851 687.2 44.5605 692.923 44.6454 700.014L47.0452 699.986ZM51.0013 698.8H45.8453V701.2H51.0013V698.8ZM65.1734 684.8C56.7457 684.8 49.902 691.582 49.8014 699.986L52.2013 700.014C52.2861 692.923 58.0615 687.2 65.1734 687.2V684.8ZM80.5453 699.986C80.4448 691.582 73.6011 684.8 65.1734 684.8V687.2C72.2853 687.2 78.0606 692.923 78.1455 700.014L80.5453 699.986ZM84.5012 698.8H79.3454V701.2H84.5012V698.8ZM98.6733 684.8C90.2456 684.8 83.4019 691.582 83.3013 699.986L85.7012 700.014C85.786 692.923 91.5614 687.2 98.6733 687.2V684.8ZM114.045 699.986C113.945 691.582 107.101 684.8 98.6733 684.8V687.2C105.785 687.2 111.561 692.923 111.645 700.014L114.045 699.986ZM118.001 698.8H112.845V701.2H118.001V698.8ZM132.173 684.8C123.746 684.8 116.902 691.582 116.801 699.986L119.201 700.014C119.286 692.923 125.061 687.2 132.173 687.2V684.8ZM147.545 699.986C147.445 691.582 140.601 684.8 132.173 684.8V687.2C139.285 687.2 145.061 692.923 145.145 700.014L147.545 699.986ZM151.501 698.8H146.345V701.2H151.501V698.8ZM165.673 684.8C157.245 684.8 150.402 691.581 150.301 699.986L152.701 700.014C152.786 692.923 158.561 687.2 165.673 687.2V684.8ZM181.045 699.986C180.945 691.581 174.101 684.8 165.673 684.8V687.2C172.785 687.2 178.56 692.923 178.645 700.014L181.045 699.986ZM185.001 698.8H179.845V701.2H185.001V698.8ZM199.173 684.8C190.746 684.8 183.902 691.582 183.801 699.986L186.201 700.014C186.286 692.923 192.061 687.2 199.173 687.2V684.8ZM214.545 699.986C214.445 691.582 207.601 684.8 199.173 684.8V687.2C206.285 687.2 212.061 692.923 212.145 700.014L214.545 699.986ZM218.501 698.8H213.345V701.2H218.501V698.8ZM232.673 684.8C224.246 684.8 217.402 691.582 217.301 699.986L219.701 700.014C219.786 692.923 225.561 687.2 232.673 687.2V684.8ZM248.045 699.986C247.945 691.582 241.101 684.8 232.673 684.8V687.2C239.785 687.2 245.561 692.923 245.645 700.014L248.045 699.986ZM252.001 698.8H246.845V701.2H252.001V698.8ZM266.173 684.8C257.746 684.8 250.902 691.582 250.801 699.986L253.201 700.014C253.286 692.923 259.061 687.2 266.173 687.2V684.8ZM281.545 699.986C281.445 691.582 274.601 684.8 266.173 684.8V687.2C273.285 687.2 279.061 692.923 279.145 700.014L281.545 699.986ZM285.501 698.8H280.345V701.2H285.501V698.8ZM299.674 684.8C291.246 684.8 284.402 691.582 284.302 699.986L286.701 700.014C286.786 692.923 292.562 687.2 299.674 687.2V684.8ZM315.045 699.986C314.945 691.582 308.101 684.8 299.674 684.8V687.2C306.785 687.2 312.561 692.923 312.646 700.014L315.045 699.986ZM319.001 698.8H313.846V701.2H319.001V698.8ZM333.173 684.8C324.746 684.8 317.902 691.582 317.801 699.986L320.201 700.014C320.286 692.923 326.061 687.2 333.173 687.2V684.8ZM348.545 699.986C348.445 691.582 341.601 684.8 333.173 684.8V687.2C340.285 687.2 346.061 692.923 346.145 700.014L348.545 699.986ZM352.501 698.8H347.345V701.2H352.501V698.8ZM366.673 684.8C358.246 684.8 351.402 691.582 351.301 699.986L353.701 700.014C353.786 692.923 359.561 687.2 366.673 687.2V684.8ZM382.045 699.986C381.945 691.582 375.101 684.8 366.673 684.8V687.2C373.785 687.2 379.561 692.923 379.645 700.014L382.045 699.986ZM386.001 698.8H380.845V701.2H386.001V698.8ZM400.173 684.8C391.746 684.8 384.902 691.582 384.801 699.986L387.201 700.014C387.286 692.923 393.061 687.2 400.173 687.2V684.8ZM415.545 699.986C415.445 691.582 408.601 684.8 400.173 684.8V687.2C407.285 687.2 413.061 692.923 413.145 700.014L415.545 699.986ZM419.501 698.8H414.345V701.2H419.501V698.8ZM433.673 684.8C425.246 684.8 418.402 691.582 418.301 699.986L420.701 700.014C420.786 692.923 426.561 687.2 433.673 687.2V684.8ZM449.045 699.986C448.945 691.582 442.101 684.8 433.673 684.8V687.2C440.785 687.2 446.561 692.923 446.645 700.014L449.045 699.986ZM453.001 698.8H447.845V701.2H453.001V698.8ZM467.173 684.8C458.746 684.8 451.902 691.582 451.801 699.986L454.201 700.014C454.286 692.923 460.061 687.2 467.173 687.2V684.8ZM482.545 699.986C482.445 691.582 475.601 684.8 467.173 684.8V687.2C474.285 687.2 480.061 692.923 480.145 700.014L482.545 699.986ZM486.501 698.8H481.345V701.2H486.501V698.8ZM500.673 684.8C492.246 684.8 485.402 691.582 485.301 699.986L487.701 700.014C487.786 692.923 493.561 687.2 500.673 687.2V684.8ZM516.045 699.986C515.945 691.582 509.101 684.8 500.673 684.8V687.2C507.785 687.2 513.561 692.923 513.646 700.014L516.045 699.986ZM520.001 698.8H514.845V701.2H520.001V698.8ZM534.173 684.8C525.746 684.8 518.902 691.582 518.801 699.986L521.201 700.014C521.286 692.923 527.062 687.2 534.173 687.2V684.8ZM549.545 699.986C549.445 691.582 542.601 684.8 534.173 684.8V687.2C541.285 687.2 547.061 692.923 547.146 700.014L549.545 699.986ZM553.501 698.8H548.345V701.2H553.501V698.8ZM567.673 684.8C559.246 684.8 552.402 691.582 552.301 699.986L554.701 700.014C554.786 692.923 560.562 687.2 567.673 687.2V684.8ZM583.045 699.986C582.945 691.582 576.101 684.8 567.673 684.8V687.2C574.785 687.2 580.561 692.923 580.646 700.014L583.045 699.986ZM587.001 698.8H581.845V701.2H587.001V698.8ZM601.173 684.8C592.746 684.8 585.902 691.582 585.801 699.986L588.201 700.014C588.286 692.923 594.062 687.2 601.173 687.2V684.8ZM616.545 699.986C616.445 691.582 609.601 684.8 601.173 684.8V687.2C608.285 687.2 614.061 692.923 614.146 700.014L616.545 699.986ZM620.501 698.8H615.345V701.2H620.501V698.8ZM634.673 684.8C626.246 684.8 619.402 691.582 619.301 699.986L621.701 700.014C621.786 692.923 627.562 687.2 634.673 687.2V684.8ZM650.045 699.986C649.945 691.582 643.101 684.8 634.673 684.8V687.2C641.785 687.2 647.561 692.923 647.646 700.014L650.045 699.986ZM654.001 698.8H648.845V701.2H654.001V698.8ZM668.173 684.8C659.746 684.8 652.902 691.582 652.801 699.986L655.201 700.014C655.286 692.923 661.062 687.2 668.173 687.2V684.8ZM683.545 699.986C683.445 691.582 676.601 684.8 668.173 684.8V687.2C675.285 687.2 681.061 692.923 681.146 700.014L683.545 699.986ZM687.501 698.8H682.345V701.2H687.501V698.8ZM701.673 684.8C693.246 684.8 686.402 691.582 686.301 699.986L688.701 700.014C688.786 692.923 694.562 687.2 701.673 687.2V684.8ZM717.045 699.986C716.945 691.582 710.101 684.8 701.673 684.8V687.2C708.785 687.2 714.561 692.923 714.646 700.014L717.045 699.986ZM721.001 698.8H715.845V701.2H721.001V698.8ZM735.173 684.8C726.746 684.8 719.902 691.582 719.801 699.986L722.201 700.014C722.286 692.923 728.062 687.2 735.173 687.2V684.8ZM750.545 699.986C750.445 691.582 743.601 684.8 735.173 684.8V687.2C742.285 687.2 748.061 692.923 748.146 700.014L750.545 699.986ZM754.501 698.8H749.345V701.2H754.501V698.8ZM768.673 684.8C760.246 684.8 753.402 691.582 753.301 699.986L755.701 700.014C755.786 692.923 761.562 687.2 768.673 687.2V684.8ZM784.045 699.986C783.945 691.582 777.101 684.8 768.673 684.8V687.2C775.785 687.2 781.561 692.923 781.646 700.014L784.045 699.986ZM788.001 698.8H782.845V701.2H788.001V698.8ZM802.173 684.8C793.746 684.8 786.902 691.582 786.801 699.986L789.201 700.014C789.286 692.923 795.062 687.2 802.173 687.2V684.8ZM817.545 699.986C817.445 691.582 810.601 684.8 802.173 684.8V687.2C809.285 687.2 815.061 692.923 815.146 700.014L817.545 699.986ZM821.501 698.8H816.345V701.2H821.501V698.8ZM835.673 684.8C827.246 684.8 820.402 691.582 820.301 699.986L822.701 700.014C822.786 692.923 828.562 687.2 835.673 687.2V684.8ZM851.045 699.986C850.945 691.582 844.101 684.8 835.673 684.8V687.2C842.785 687.2 848.561 692.923 848.646 700.014L851.045 699.986ZM855.001 698.8H849.845V701.2H855.001V698.8ZM869.173 684.8C860.746 684.8 853.902 691.582 853.801 699.986L856.201 700.014C856.286 692.923 862.062 687.2 869.173 687.2V684.8ZM884.545 699.986C884.445 691.582 877.601 684.8 869.173 684.8V687.2C876.285 687.2 882.061 692.923 882.146 700.014L884.545 699.986ZM886.765 698.8H883.345V701.2H886.765V698.8ZM888.924 693.387C887.362 695.175 886.206 697.328 885.602 699.705L887.928 700.295C888.437 698.294 889.411 696.477 890.731 694.967L888.924 693.387ZM899.775 685.073C894.87 686.009 890.796 689.273 888.74 693.669L890.914 694.685C892.65 690.973 896.092 688.219 900.225 687.43L899.775 685.073ZM898.8 684.164V686.252H901.2V684.164H898.8ZM885.13 670C885.13 678.308 891.72 685.076 899.958 685.363L900.042 682.965C893.091 682.723 887.53 677.01 887.53 670H885.13ZM899.958 654.636C891.72 654.923 885.13 661.692 885.13 670H887.53C887.53 662.989 893.091 657.277 900.042 657.035L899.958 654.636ZM898.8 650.664V655.835H901.2V650.664H898.8ZM885.13 636.5C885.13 644.808 891.72 651.576 899.958 651.863L900.042 649.465C893.091 649.223 887.53 643.51 887.53 636.5H885.13ZM899.958 621.136C891.72 621.423 885.13 628.192 885.13 636.5H887.53C887.53 629.489 893.091 623.777 900.042 623.535L899.958 621.136ZM898.8 617.164V622.335H901.2V617.164H898.8ZM885.13 603C885.13 611.308 891.72 618.076 899.958 618.363L900.042 615.965C893.091 615.723 887.53 610.01 887.53 603H885.13ZM899.958 587.636C891.72 587.923 885.13 594.692 885.13 603H887.53C887.53 595.989 893.091 590.277 900.042 590.035L899.958 587.636ZM898.8 583.664V588.835H901.2V583.664H898.8ZM885.13 569.5C885.13 577.808 891.72 584.576 899.958 584.863L900.042 582.465C893.091 582.223 887.53 576.51 887.53 569.5H885.13ZM899.958 554.136C891.72 554.423 885.13 561.192 885.13 569.5H887.53C887.53 562.489 893.091 556.777 900.042 556.535L899.958 554.136ZM898.8 550.164V555.335H901.2V550.164H898.8ZM885.13 536C885.13 544.308 891.72 551.076 899.958 551.363L900.042 548.965C893.091 548.722 887.53 543.01 887.53 536H885.13ZM899.958 520.636C891.72 520.923 885.13 527.692 885.13 536H887.53C887.53 528.989 893.091 523.277 900.042 523.035L899.958 520.636ZM898.8 516.664V521.835H901.2V516.664H898.8ZM885.13 502.5C885.13 510.808 891.72 517.576 899.958 517.863L900.042 515.465C893.091 515.222 887.53 509.51 887.53 502.5H885.13ZM899.958 487.136C891.72 487.423 885.13 494.192 885.13 502.5H887.53C887.53 495.489 893.091 489.777 900.042 489.535L899.958 487.136ZM898.8 483.164V488.335H901.2V483.164H898.8ZM885.13 469C885.13 477.308 891.72 484.076 899.958 484.363L900.042 481.965C893.091 481.722 887.53 476.01 887.53 469H885.13ZM899.958 453.636C891.72 453.923 885.13 460.692 885.13 469H887.53C887.53 461.989 893.091 456.277 900.042 456.035L899.958 453.636ZM898.8 449.664V454.835H901.2V449.664H898.8ZM885.13 435.5C885.13 443.808 891.72 450.576 899.958 450.863L900.042 448.465C893.091 448.222 887.53 442.51 887.53 435.5H885.13ZM899.958 420.136C891.72 420.423 885.13 427.192 885.13 435.5H887.53C887.53 428.489 893.091 422.777 900.042 422.535L899.958 420.136ZM898.8 416.164V421.335H901.2V416.164H898.8ZM885.13 402C885.13 410.308 891.72 417.076 899.958 417.363L900.042 414.965C893.091 414.722 887.53 409.01 887.53 402H885.13ZM899.958 386.636C891.72 386.923 885.13 393.692 885.13 402H887.53C887.53 394.989 893.091 389.277 900.042 389.035L899.958 386.636ZM898.8 382.664V387.835H901.2V382.664H898.8ZM885.13 368.5C885.13 376.808 891.72 383.576 899.958 383.863L900.042 381.465C893.091 381.222 887.53 375.51 887.53 368.5H885.13ZM899.958 353.136C891.72 353.423 885.13 360.192 885.13 368.5H887.53C887.53 361.489 893.091 355.777 900.042 355.535L899.958 353.136ZM898.8 349.164V354.335H901.2V349.164H898.8ZM885.13 335C885.13 343.308 891.72 350.076 899.958 350.363L900.042 347.965C893.091 347.722 887.53 342.01 887.53 335H885.13ZM899.958 319.636C891.72 319.923 885.13 326.692 885.13 335H887.53C887.53 327.989 893.091 322.277 900.042 322.035L899.958 319.636ZM898.8 315.664V320.835H901.2V315.664H898.8ZM885.13 301.5C885.13 309.808 891.72 316.576 899.958 316.863L900.042 314.465C893.091 314.222 887.53 308.51 887.53 301.5H885.13ZM899.958 286.136C891.72 286.423 885.13 293.192 885.13 301.5H887.53C887.53 294.489 893.091 288.777 900.042 288.535L899.958 286.136ZM898.8 282.164V287.335H901.2V282.164H898.8ZM885.13 268C885.13 276.308 891.72 283.076 899.958 283.363L900.042 280.965C893.091 280.722 887.53 275.01 887.53 268H885.13ZM899.958 252.636C891.72 252.923 885.13 259.692 885.13 268H887.53C887.53 260.989 893.091 255.277 900.042 255.035L899.958 252.636ZM898.8 248.664V253.835H901.2V248.664H898.8ZM885.13 234.5C885.13 242.808 891.72 249.576 899.958 249.863L900.042 247.465C893.091 247.222 887.53 241.51 887.53 234.5H885.13ZM899.958 219.136C891.72 219.423 885.13 226.192 885.13 234.5H887.53C887.53 227.489 893.091 221.777 900.042 221.535L899.958 219.136ZM898.8 215.164V220.335H901.2V215.164H898.8ZM885.13 201C885.13 209.308 891.72 216.076 899.958 216.363L900.042 213.965C893.091 213.722 887.53 208.01 887.53 201H885.13ZM899.958 185.636C891.72 185.923 885.13 192.692 885.13 201H887.53C887.53 193.989 893.091 188.277 900.042 188.035L899.958 185.636ZM898.8 181.664V186.835H901.2V181.664H898.8ZM885.13 167.5C885.13 175.808 891.72 182.576 899.958 182.863L900.042 180.465C893.091 180.222 887.53 174.51 887.53 167.5H885.13ZM899.958 152.136C891.72 152.423 885.13 159.192 885.13 167.5H887.53C887.53 160.489 893.091 154.777 900.042 154.535L899.958 152.136ZM898.8 148.164V153.335H901.2V148.164H898.8ZM885.13 134C885.13 142.308 891.72 149.076 899.958 149.363L900.042 146.965C893.091 146.722 887.53 141.01 887.53 134H885.13ZM899.958 118.636C891.72 118.923 885.13 125.692 885.13 134H887.53C887.53 126.989 893.091 121.277 900.042 121.035L899.958 118.636ZM898.8 114.664V119.835H901.2V114.664H898.8ZM885.13 100.5C885.13 108.808 891.72 115.576 899.958 115.863L900.042 113.465C893.091 113.222 887.53 107.51 887.53 100.5H885.13ZM899.958 85.1362C891.72 85.4234 885.13 92.1918 885.13 100.5H887.53C887.53 93.4892 893.091 87.7771 900.042 87.5347L899.958 85.1362ZM898.8 81.1641V86.3354H901.2V81.1641H898.8ZM885.13 66.9997C885.13 75.3077 891.72 82.0761 899.958 82.3633L900.042 79.9648C893.091 79.7224 887.53 74.0103 887.53 66.9997H885.13ZM899.958 51.6362C891.72 51.9234 885.13 58.6918 885.13 66.9997H887.53C887.53 59.9892 893.091 54.2771 900.042 54.0347L899.958 51.6362ZM898.8 47.6641V52.8354H901.2V47.6641H898.8ZM885.13 33.4997C885.13 41.8077 891.72 48.576 899.958 48.8633L900.042 46.4648C893.091 46.2224 887.53 40.5103 887.53 33.4997H885.13ZM899.958 18.1362C891.72 18.4234 885.13 25.1918 885.13 33.4997H887.53C887.53 26.4892 893.091 20.7771 900.042 20.5347L899.958 18.1362ZM898.8 13.9209V19.3354H901.2V13.9209H898.8ZM887.3 3.17823e-05C887.3 7.50021 892.671 13.7435 899.775 15.0996L900.225 12.7422C894.231 11.598 889.7 6.32677 889.7 -3.17823e-05L887.3 3.17823e-05Z" fill="#B4751D" mask="url(#path-1-inside-1_67_1396)"/>
</svg>
