<svg width="435" height="33" viewBox="0 0 435 33" fill="none" xmlns="http://www.w3.org/2000/svg">
<path d="M4.239 20.68C3.887 20.696 3.519 20.696 3.167 20.6C2.815 20.504 2.495 20.344 2.175 20.184C1.887 20.04 1.647 19.816 1.471 19.576C1.183 19.176 0.975 18.744 0.863 18.248C0.719 17.608 0.735 16.984 0.799 16.36C0.831 16.056 0.943 15.768 0.991 15.48C1.039 15.16 1.167 14.888 1.247 14.584L1.359 14.328C1.471 14.104 1.551 13.864 1.679 13.656C1.823 13.416 1.935 13.144 2.111 12.936C2.223 12.808 2.287 12.632 2.383 12.504C2.543 12.28 2.703 12.056 2.879 11.848C3.151 11.56 3.423 11.272 3.679 10.984C3.727 10.952 3.759 10.904 3.807 10.872C4.095 10.632 4.383 10.392 4.671 10.168C4.927 9.96 5.167 9.752 5.439 9.576C5.775 9.352 6.095 9.128 6.447 8.936C6.847 8.728 7.263 8.536 7.679 8.376C7.967 8.248 8.271 8.152 8.575 8.056C8.959 7.944 9.343 7.912 9.743 7.912C9.999 7.928 10.287 7.96 10.543 8.104C10.719 8.184 10.879 8.264 11.023 8.408C11.183 8.568 11.295 8.76 11.311 8.968C11.311 9.144 11.263 9.32 11.215 9.48C11.167 9.608 10.943 9.624 10.831 9.528C10.735 9.432 10.623 9.304 10.655 9.144C10.687 8.968 10.607 8.856 10.463 8.776C10.223 8.616 9.967 8.552 9.679 8.552C9.103 8.552 8.543 8.68 8.015 8.888C7.407 9.144 6.815 9.432 6.255 9.8C5.871 10.04 5.519 10.296 5.151 10.568C4.927 10.728 4.735 10.904 4.527 11.08C4.431 11.16 4.335 11.256 4.255 11.336C3.919 11.688 3.551 11.992 3.279 12.408C3.247 12.456 3.199 12.504 3.151 12.552C3.119 12.584 3.071 12.616 3.039 12.664C2.831 13 2.607 13.336 2.415 13.672C2.239 13.992 2.111 14.312 1.951 14.632C1.679 15.176 1.583 15.784 1.471 16.376C1.423 16.6 1.423 16.824 1.407 17.064H1.391C1.439 17.416 1.439 17.784 1.535 18.136C1.615 18.44 1.727 18.744 1.903 19.016C1.951 19.08 2.015 19.128 2.063 19.176C2.111 19.224 2.175 19.256 2.207 19.32C2.303 19.496 2.495 19.576 2.671 19.672C3.007 19.864 3.375 19.944 3.759 19.976C4.079 19.992 4.383 19.992 4.687 19.976C5.151 19.928 5.599 19.768 6.047 19.656C6.271 19.608 6.495 19.48 6.719 19.384C6.911 19.304 7.103 19.24 7.295 19.144C7.551 19.016 7.807 18.856 8.047 18.712C8.287 18.568 8.527 18.424 8.751 18.28C9.071 18.056 9.391 17.816 9.695 17.576C9.887 17.432 10.095 17.288 10.255 17.128C10.639 16.76 10.991 16.376 11.375 16.008C11.727 15.672 11.983 15.24 12.287 14.872C12.399 14.728 12.463 14.552 12.559 14.408C12.783 14.12 12.927 13.784 13.071 13.464C13.167 13.256 13.263 13.032 13.295 12.808C13.327 12.68 13.391 12.552 13.423 12.424C13.519 11.912 13.519 11.4 13.359 10.888C13.263 10.6 13.087 10.36 12.783 10.248C12.687 10.216 12.623 10.104 12.575 10.024C12.543 9.976 12.543 9.88 12.559 9.816C12.639 9.624 13.023 9.512 13.199 9.624C13.343 9.72 13.487 9.816 13.615 9.912C13.647 9.928 13.663 9.944 13.679 9.976C13.791 10.152 13.919 10.312 13.999 10.504C14.095 10.712 14.159 10.92 14.191 11.144C14.239 11.304 14.239 11.496 14.223 11.672C14.175 12.056 14.175 12.472 14.047 12.856C13.935 13.144 13.855 13.464 13.711 13.736C13.583 13.992 13.471 14.264 13.343 14.52C13.231 14.728 13.071 14.904 12.975 15.112C12.879 15.288 12.735 15.416 12.623 15.576C12.431 15.848 12.239 16.104 12.015 16.344C11.919 16.456 11.807 16.568 11.711 16.664C11.375 17 11.055 17.352 10.703 17.656C10.399 17.928 10.063 18.168 9.743 18.408C9.439 18.648 9.119 18.856 8.799 19.064C8.607 19.192 8.399 19.288 8.207 19.4C8.159 19.432 8.095 19.464 8.063 19.496C7.823 19.688 7.551 19.8 7.263 19.896C7.039 19.992 6.799 20.072 6.575 20.184C6.335 20.312 6.063 20.36 5.807 20.44C5.695 20.488 5.567 20.52 5.439 20.552L5.071 20.6C4.799 20.632 4.527 20.68 4.239 20.68ZM5.903 16.296C5.615 16.28 5.375 16.184 5.167 15.976L5.023 15.784C4.943 15.688 4.927 15.592 4.943 15.464C4.943 15.128 5.071 14.856 5.247 14.584C5.407 14.328 5.551 14.056 5.727 13.816C5.935 13.544 6.159 13.272 6.431 13.048C6.703 12.84 6.927 12.584 7.199 12.392C7.503 12.168 7.855 12.024 8.239 11.96C8.399 11.944 8.543 12.056 8.575 12.2C8.607 12.408 8.591 12.6 8.447 12.76C8.335 12.888 8.255 13.032 8.079 13.096C7.839 13.176 7.791 13.176 7.583 12.984C7.535 13 7.471 13.016 7.439 13.048C7.263 13.192 7.103 13.352 6.943 13.512C6.879 13.56 6.847 13.624 6.783 13.672C6.543 13.864 6.383 14.12 6.191 14.36C6.015 14.6 5.871 14.84 5.727 15.096C5.695 15.16 5.663 15.224 5.663 15.288C5.631 15.448 5.679 15.48 5.823 15.528C5.999 15.592 6.127 15.592 6.287 15.512C6.399 15.48 6.527 15.496 6.639 15.448C7.039 15.32 7.423 15.128 7.791 14.904C7.919 14.824 8.063 14.76 8.223 14.728C8.415 14.68 8.511 14.776 8.527 14.984C8.559 15.272 8.351 15.352 8.175 15.464C7.951 15.608 7.711 15.72 7.487 15.848L7.167 15.992C6.751 16.136 6.351 16.296 5.903 16.296ZM14.9354 20.152C14.7434 20.216 14.5354 20.104 14.4074 19.864C14.3114 19.688 14.3434 19.512 14.5354 19.4C14.7114 19.304 14.9034 19.224 15.0954 19.144L16.0874 18.76C16.4874 18.6 16.8714 18.424 17.2554 18.264C17.4634 18.168 17.6714 18.072 17.8794 17.992C18.1034 17.896 18.3274 17.832 18.5514 17.736L19.4314 17.4C19.4634 17.4 19.4954 17.384 19.5274 17.368C19.7994 17.16 20.1194 17.096 20.4234 16.952L22.6154 15.992C22.9194 15.864 23.2394 15.752 23.5434 15.608L25.2714 14.792L26.4874 14.264C26.6794 14.168 26.8554 14.072 27.0154 13.96C27.5594 13.64 28.1194 13.336 28.6314 12.968C29.2234 12.552 29.8634 12.184 30.3594 11.64C30.4874 11.496 30.5994 11.336 30.7114 11.176C30.8234 10.984 30.9354 10.792 31.0474 10.584C31.1594 10.36 31.1434 10.12 31.0154 9.896C30.8714 9.64 30.6954 9.4 30.4234 9.272C30.2794 9.208 30.1354 9.176 29.9914 9.128C29.3834 8.92 28.7434 8.856 28.1034 8.776C27.4794 8.696 26.8554 8.824 26.2154 8.872C25.9594 8.888 25.7034 8.888 25.4474 8.936C25.1594 8.984 24.8554 9.032 24.5674 9.128C23.9114 9.32 23.2554 9.528 22.5994 9.736C22.5354 9.752 22.4714 9.768 22.4074 9.8C21.7034 10.12 20.9834 10.408 20.3434 10.824C20.0714 10.984 19.8154 11.192 19.6554 11.416C19.6714 11.592 19.7194 11.736 19.7034 11.88C19.6714 12.12 19.4634 12.232 19.2394 12.12C18.8554 11.928 18.6634 11.48 18.9994 11.016C19.2714 10.648 19.6554 10.376 20.0234 10.136C20.3914 9.912 20.7594 9.704 21.1594 9.528C21.5594 9.336 21.9754 9.208 22.3914 9.048C22.4874 9.016 22.5834 8.984 22.6634 8.936C23.1114 8.744 23.5914 8.664 24.0714 8.568C24.2314 8.52 24.4074 8.472 24.5834 8.44C24.9194 8.376 25.2554 8.296 25.5754 8.248C25.7994 8.216 26.0234 8.2 26.2634 8.184L27.2074 8.136C27.6234 8.136 28.0554 8.136 28.4874 8.152C28.9194 8.152 29.3354 8.264 29.7514 8.344C30.1354 8.424 30.5194 8.536 30.8714 8.728C31.2074 8.92 31.4474 9.24 31.6874 9.544C31.7194 9.864 31.8794 10.168 31.7674 10.52C31.6394 10.888 31.5274 11.256 31.3034 11.576C31.2074 11.72 31.0954 11.864 30.9834 12.008C30.8874 12.12 30.7914 12.232 30.6794 12.344C30.4714 12.552 30.2794 12.792 30.0394 12.968C29.4634 13.368 28.9194 13.816 28.2954 14.152C28.1994 14.216 28.1034 14.296 27.9914 14.344C27.9114 14.392 27.8314 14.44 27.7354 14.488L27.6074 14.536C27.0794 14.872 26.5034 15.128 25.9434 15.4C25.5594 15.576 25.1914 15.784 24.8074 15.96C24.4874 16.12 24.1674 16.232 23.8314 16.376C23.7194 16.424 23.6234 16.488 23.5114 16.536C23.1114 16.696 22.7274 16.872 22.3434 17.048C21.9754 17.224 21.5754 17.352 21.1914 17.512L20.4874 17.832C20.2954 17.896 20.1034 17.96 19.8954 18.136L20.5354 18.104C21.0154 18.072 21.4954 18.024 21.9754 17.976L23.2074 17.88C23.5274 17.864 23.8474 17.848 24.1514 17.848H24.2314C24.8874 17.736 25.5754 17.8 26.2314 17.752C26.3594 17.752 26.4714 17.72 26.5994 17.704C26.7274 17.672 26.8714 17.656 26.9994 17.624C27.1914 17.576 27.3834 17.496 27.5754 17.448C27.6714 17.416 27.7834 17.384 27.8794 17.368C28.0874 17.368 28.1994 17.512 28.1674 17.72C28.1354 17.976 27.9914 18.136 27.7514 18.28C27.5434 18.392 27.3194 18.408 27.0954 18.504C27.0154 18.52 26.9194 18.504 26.8394 18.504H26.0394C25.8954 18.504 25.7674 18.488 25.6234 18.488L24.4874 18.504H24.0074C23.8314 18.504 23.6554 18.52 23.4794 18.504C22.7114 18.488 21.9594 18.6 21.2074 18.664C20.6794 18.712 20.1674 18.776 19.6714 18.888C18.9354 19.032 18.2154 19.256 17.4794 19.432C16.9674 19.56 16.4394 19.672 15.9274 19.784C15.8314 19.8 15.7514 19.848 15.6554 19.88L14.9354 20.152ZM33.4316 20.424L33.4156 20.376C33.1756 20.376 32.9196 20.392 32.6796 20.376C32.5196 20.36 32.3916 20.264 32.2476 20.216C31.7036 20.024 31.3676 19.64 31.1596 19.112C30.9836 18.648 30.9996 18.168 31.0316 17.688C31.0796 17.16 31.2716 16.696 31.4316 16.216C31.5756 15.704 31.8156 15.224 32.0556 14.76C32.3116 14.28 32.6156 13.848 32.8876 13.4C33.2716 12.808 33.7036 12.264 34.1516 11.736C34.3916 11.464 34.6476 11.224 34.8876 10.952L35.2076 10.6C35.2396 10.568 35.2716 10.536 35.3036 10.52C35.7196 10.184 36.1196 9.832 36.5516 9.528C37.0316 9.176 37.5436 8.888 38.1196 8.712C38.3116 8.648 38.5036 8.6 38.7116 8.664C38.7436 8.68 38.7916 8.68 38.8236 8.664C38.9516 8.632 39.0476 8.68 39.1436 8.76C39.2556 8.856 39.3836 8.888 39.5436 8.888C39.8316 8.856 40.1356 8.84 40.4396 8.84C40.5676 8.84 40.6956 8.872 40.8236 8.888C40.9356 8.888 41.0636 8.92 41.1756 8.904C41.4636 8.888 41.7196 9.016 41.9756 9.096C42.0716 9.112 42.1516 9.16 42.2316 9.16C42.5676 9.192 42.8556 9.352 43.1116 9.544C43.1916 9.592 43.2556 9.656 43.3356 9.688C43.5596 9.768 43.7196 9.912 43.8796 10.088C44.1516 10.376 44.3756 10.68 44.5036 11.048C44.6636 11.512 44.6156 11.96 44.5196 12.424C44.3916 13 44.1036 13.48 43.7676 13.944C43.5276 14.28 43.3036 14.6 43.0636 14.92C42.9516 15.064 42.8236 15.176 42.7116 15.288L42.1996 15.768C41.9436 16.024 41.6876 16.264 41.4316 16.504C41.1436 16.744 40.8236 16.968 40.5356 17.208C40.2476 17.416 39.9596 17.64 39.6556 17.848C39.4956 17.976 39.3196 18.056 39.1436 18.168L38.1996 18.744L37.8156 18.936L36.6956 19.48C36.5836 19.544 36.4556 19.576 36.3436 19.624L35.6716 19.912C35.4476 19.992 35.2076 20.088 34.9676 20.152C34.8076 20.2 34.6156 20.232 34.4556 20.264L33.4316 20.424ZM33.7676 19.608C34.3596 19.512 34.9516 19.368 35.5116 19.144C36.0076 18.936 36.5036 18.776 36.9676 18.52C37.1916 18.392 37.4476 18.296 37.6716 18.152C37.8956 18.04 38.1036 17.864 38.3436 17.752C38.9516 17.448 39.4796 17.016 40.0236 16.616C40.7756 16.072 41.4796 15.464 42.1196 14.792C42.2156 14.68 42.3276 14.584 42.4236 14.472L43.0156 13.768C43.0156 13.736 43.0316 13.72 43.0476 13.688C43.0956 13.608 43.1276 13.512 43.1916 13.432C43.4636 13.048 43.6876 12.632 43.7676 12.168C43.7996 12.008 43.8316 11.832 43.8156 11.688C43.7516 11.336 43.6236 11.016 43.3836 10.744C43.2396 10.6 43.0476 10.52 42.9036 10.392C42.4396 10.04 41.8956 9.88 41.3356 9.752C41.0476 9.672 40.7276 9.672 40.4076 9.656C40.1196 9.64 39.8476 9.656 39.5436 9.656L39.4956 10.12C39.4956 10.328 39.4636 10.536 39.3196 10.712C39.1916 10.872 38.9676 10.856 38.8716 10.68C38.8076 10.552 38.7596 10.408 38.8076 10.248C38.8396 10.104 38.8236 9.96 38.8396 9.768C38.4716 9.896 38.1676 9.912 38.0396 9.48C37.8156 9.56 37.6396 9.64 37.4796 9.752C37.2396 9.912 36.9676 10.04 36.7276 10.232C36.3276 10.552 35.9596 10.888 35.5756 11.24C35.3036 11.496 35.0316 11.768 34.7916 12.056C34.4076 12.52 34.0236 13.016 33.6716 13.512C33.0956 14.28 32.6156 15.112 32.2636 16.024C32.0716 16.504 31.8636 16.984 31.7836 17.512C31.7196 17.96 31.6716 18.408 31.8476 18.856C32.0236 19.24 32.3116 19.48 32.6956 19.576C33.0476 19.672 33.4156 19.656 33.7676 19.608ZM42.7948 20.152C42.6028 20.216 42.3948 20.104 42.2668 19.864C42.1707 19.688 42.2027 19.512 42.3948 19.4C42.5708 19.304 42.7628 19.224 42.9548 19.144L43.9468 18.76C44.3468 18.6 44.7308 18.424 45.1148 18.264C45.3228 18.168 45.5308 18.072 45.7388 17.992C45.9628 17.896 46.1868 17.832 46.4108 17.736L47.2908 17.4C47.3228 17.4 47.3548 17.384 47.3868 17.368C47.6588 17.16 47.9788 17.096 48.2828 16.952L50.4748 15.992C50.7788 15.864 51.0988 15.752 51.4028 15.608L53.1308 14.792L54.3468 14.264C54.5388 14.168 54.7148 14.072 54.8748 13.96C55.4188 13.64 55.9788 13.336 56.4908 12.968C57.0828 12.552 57.7228 12.184 58.2188 11.64C58.3468 11.496 58.4588 11.336 58.5708 11.176C58.6828 10.984 58.7948 10.792 58.9068 10.584C59.0188 10.36 59.0028 10.12 58.8748 9.896C58.7308 9.64 58.5548 9.4 58.2828 9.272C58.1388 9.208 57.9948 9.176 57.8508 9.128C57.2428 8.92 56.6028 8.856 55.9628 8.776C55.3388 8.696 54.7148 8.824 54.0748 8.872C53.8188 8.888 53.5628 8.888 53.3068 8.936C53.0188 8.984 52.7148 9.032 52.4268 9.128C51.7708 9.32 51.1148 9.528 50.4588 9.736C50.3948 9.752 50.3308 9.768 50.2668 9.8C49.5628 10.12 48.8428 10.408 48.2028 10.824C47.9308 10.984 47.6748 11.192 47.5148 11.416C47.5308 11.592 47.5788 11.736 47.5628 11.88C47.5308 12.12 47.3228 12.232 47.0988 12.12C46.7148 11.928 46.5228 11.48 46.8588 11.016C47.1308 10.648 47.5148 10.376 47.8828 10.136C48.2508 9.912 48.6188 9.704 49.0188 9.528C49.4188 9.336 49.8348 9.208 50.2508 9.048C50.3468 9.016 50.4427 8.984 50.5228 8.936C50.9708 8.744 51.4508 8.664 51.9308 8.568C52.0908 8.52 52.2668 8.472 52.4428 8.44C52.7788 8.376 53.1148 8.296 53.4348 8.248C53.6588 8.216 53.8828 8.2 54.1228 8.184L55.0668 8.136C55.4828 8.136 55.9148 8.136 56.3468 8.152C56.7788 8.152 57.1948 8.264 57.6108 8.344C57.9948 8.424 58.3787 8.536 58.7308 8.728C59.0668 8.92 59.3068 9.24 59.5468 9.544C59.5788 9.864 59.7388 10.168 59.6268 10.52C59.4988 10.888 59.3868 11.256 59.1628 11.576C59.0668 11.72 58.9548 11.864 58.8428 12.008C58.7467 12.12 58.6508 12.232 58.5388 12.344C58.3308 12.552 58.1388 12.792 57.8988 12.968C57.3228 13.368 56.7788 13.816 56.1548 14.152C56.0588 14.216 55.9628 14.296 55.8508 14.344C55.7708 14.392 55.6908 14.44 55.5948 14.488L55.4668 14.536C54.9388 14.872 54.3628 15.128 53.8028 15.4C53.4188 15.576 53.0508 15.784 52.6668 15.96C52.3468 16.12 52.0268 16.232 51.6908 16.376C51.5788 16.424 51.4828 16.488 51.3708 16.536C50.9708 16.696 50.5868 16.872 50.2028 17.048C49.8348 17.224 49.4348 17.352 49.0508 17.512L48.3468 17.832C48.1548 17.896 47.9628 17.96 47.7548 18.136L48.3948 18.104C48.8748 18.072 49.3548 18.024 49.8348 17.976L51.0668 17.88C51.3868 17.864 51.7068 17.848 52.0108 17.848H52.0908C52.7468 17.736 53.4348 17.8 54.0908 17.752C54.2188 17.752 54.3308 17.72 54.4588 17.704C54.5868 17.672 54.7308 17.656 54.8588 17.624C55.0508 17.576 55.2428 17.496 55.4348 17.448C55.5308 17.416 55.6428 17.384 55.7388 17.368C55.9468 17.368 56.0588 17.512 56.0268 17.72C55.9948 17.976 55.8508 18.136 55.6108 18.28C55.4028 18.392 55.1788 18.408 54.9548 18.504C54.8748 18.52 54.7788 18.504 54.6988 18.504H53.8988C53.7548 18.504 53.6268 18.488 53.4828 18.488L52.3468 18.504H51.8668C51.6908 18.504 51.5148 18.52 51.3388 18.504C50.5708 18.488 49.8188 18.6 49.0668 18.664C48.5388 18.712 48.0268 18.776 47.5308 18.888C46.7948 19.032 46.0748 19.256 45.3388 19.432C44.8268 19.56 44.2988 19.672 43.7868 19.784C43.6908 19.8 43.6108 19.848 43.5148 19.88L42.7948 20.152ZM59.595 20.456C59.323 20.504 59.195 20.392 59.099 20.136C59.051 19.992 59.083 19.88 59.211 19.8C59.323 19.72 59.467 19.624 59.595 19.624C59.963 19.624 60.299 19.528 60.651 19.448C61.115 19.368 61.563 19.304 62.027 19.208C62.267 19.16 62.507 19.112 62.731 19.048C63.323 18.872 63.915 18.728 64.491 18.536C65.147 18.312 65.803 18.072 66.443 17.8C66.843 17.624 67.259 17.432 67.675 17.256C67.947 17.144 68.187 16.968 68.443 16.808C68.699 16.664 68.939 16.536 69.179 16.376C69.419 16.232 69.659 16.088 69.867 15.912C70.027 15.784 70.171 15.608 70.283 15.432C70.459 15.176 70.395 14.92 70.139 14.744C70.043 14.68 69.899 14.616 69.771 14.584C69.355 14.456 68.939 14.344 68.507 14.28C67.915 14.184 67.339 14.12 66.747 14.072C66.219 14.008 65.675 14.024 65.147 14.04C64.779 14.056 64.427 14.04 64.059 14.088C63.643 14.152 63.211 14.136 62.779 14.184C62.331 14.248 61.899 14.328 61.451 14.408C61.403 14.408 61.355 14.424 61.307 14.424C60.939 14.44 60.587 14.456 60.235 14.568C60.059 14.616 59.867 14.6 59.675 14.632C59.403 14.664 59.115 14.728 58.843 14.744C58.507 14.76 58.171 14.808 57.883 14.568C57.611 14.328 57.515 14.024 57.611 13.672C57.723 13.288 57.915 12.92 58.123 12.584C58.347 12.216 58.571 11.832 58.811 11.464C59.051 11.112 59.307 10.776 59.563 10.424C59.579 10.408 59.579 10.392 59.595 10.36L59.499 10.184C59.403 9.992 59.451 9.864 59.643 9.784C59.819 9.72 59.995 9.672 60.171 9.64C60.475 9.592 60.795 9.464 61.115 9.512C61.211 9.512 61.307 9.496 61.403 9.48C61.851 9.384 62.283 9.288 62.715 9.208C63.371 9.096 64.027 8.984 64.683 8.904C65.291 8.824 65.915 8.696 66.539 8.712C66.699 8.712 66.859 8.648 67.019 8.632C67.563 8.568 68.107 8.488 68.651 8.424L69.371 8.376C69.643 8.344 69.899 8.28 70.171 8.264C70.363 8.248 70.571 8.248 70.763 8.296C71.019 8.36 71.099 8.584 70.971 8.808C70.907 8.92 70.811 8.952 70.699 8.952C70.443 8.968 70.187 8.968 69.931 8.984C69.579 9.016 69.227 9.032 68.875 9.064C68.539 9.08 68.203 9.112 67.883 9.144L66.811 9.24C66.139 9.32 65.467 9.384 64.795 9.464C64.427 9.512 64.059 9.576 63.691 9.656C63.211 9.736 62.731 9.832 62.267 9.928C61.851 10.008 61.435 10.12 61.035 10.2C60.763 10.248 60.555 10.392 60.379 10.584C60.139 10.84 59.899 11.112 59.691 11.4C59.371 11.864 59.067 12.344 58.779 12.84C58.587 13.16 58.411 13.512 58.347 13.928C58.459 13.96 58.555 13.992 58.667 13.976C58.907 13.96 59.163 13.944 59.403 13.912C59.723 13.864 60.027 13.8 60.347 13.752C60.491 13.72 60.635 13.72 60.779 13.704C61.339 13.624 61.883 13.512 62.459 13.448C62.987 13.4 63.515 13.368 64.043 13.336C64.123 13.336 64.203 13.32 64.283 13.304C64.347 13.304 64.411 13.288 64.475 13.288C64.875 13.288 65.291 13.304 65.691 13.32C66.011 13.32 66.331 13.32 66.651 13.336C66.971 13.336 67.291 13.384 67.595 13.416C67.851 13.432 68.107 13.448 68.363 13.496C68.475 13.496 68.587 13.576 68.699 13.576C68.955 13.56 69.195 13.656 69.451 13.72C69.915 13.864 70.379 14.024 70.763 14.344C70.955 14.52 71.131 14.952 71.099 15.192C71.035 15.576 70.875 15.928 70.603 16.216C70.523 16.312 70.427 16.408 70.331 16.504C70.027 16.808 69.643 16.984 69.291 17.224C69.195 17.304 69.083 17.368 68.971 17.432C68.731 17.56 68.475 17.672 68.235 17.8C68.091 17.88 67.963 17.96 67.803 18.024L67.051 18.312C66.443 18.552 65.851 18.792 65.243 19.016C64.939 19.128 64.619 19.208 64.315 19.304C64.283 19.32 64.251 19.32 64.219 19.336C63.835 19.56 63.387 19.608 62.971 19.72C62.571 19.832 62.171 19.944 61.755 20.04L60.619 20.28C60.283 20.344 59.947 20.424 59.595 20.456ZM88.8506 18.296C88.4346 18.312 88.0026 18.232 87.6346 18.072C87.2826 17.928 86.9626 17.736 86.7546 17.384C86.4986 16.984 86.2906 16.584 86.0666 16.184C85.9866 16.04 85.8426 15.944 85.7146 15.832C85.6186 15.752 85.5066 15.784 85.4266 15.848C85.1546 15.992 84.8826 16.136 84.6266 16.296C84.2106 16.536 83.8266 16.808 83.4106 17.048C82.9946 17.272 82.5466 17.496 82.1146 17.704C81.7946 17.848 81.4586 17.976 81.1226 18.104C80.5786 18.328 80.1306 17.928 79.9226 17.56C79.9066 17.528 79.8906 17.48 79.8906 17.448C79.9386 17.208 79.8906 16.968 80.0186 16.76C80.1946 16.424 80.3706 16.104 80.5626 15.768L80.6426 15.64C80.9946 15.304 81.2826 14.888 81.6666 14.584C81.9386 14.36 82.1626 14.104 82.4346 13.88C82.7066 13.672 82.9946 13.448 83.2986 13.304C83.6026 13.144 83.8906 12.936 84.2586 12.888C84.4666 12.872 84.6746 12.776 84.8826 12.712C85.1866 12.648 85.4746 12.712 85.7466 12.792C86.1306 12.888 86.3386 13.352 86.2426 13.736C86.1786 14.088 85.9866 14.376 85.7786 14.648L85.5386 14.952C85.6346 14.968 85.6826 14.984 85.7466 15C86.1946 15.016 86.4026 15.32 86.5786 15.672C86.7706 16.072 86.9306 16.488 87.1386 16.872C87.3306 17.24 87.6666 17.464 88.0506 17.56C88.4026 17.656 88.7546 17.688 89.1066 17.64C89.4746 17.592 89.8266 17.496 90.1786 17.416C91.0586 17.208 91.8426 16.792 92.6586 16.44C93.0106 16.296 93.3626 16.136 93.7146 15.992C93.7786 15.96 93.8426 15.944 93.8906 15.88C94.0346 15.704 94.2266 15.608 94.4186 15.496L95.6986 14.68C95.8106 14.616 95.9226 14.552 96.0506 14.504C96.2586 14.424 96.4506 14.488 96.5146 14.632C96.5946 14.776 96.4826 15.032 96.3066 15.128C96.0986 15.256 95.8746 15.352 95.6666 15.48C95.3466 15.672 95.0586 15.88 94.7386 16.056C94.4186 16.264 94.0826 16.456 93.7466 16.632C93.3786 16.824 92.9946 17 92.6266 17.176C92.0666 17.416 91.5066 17.656 90.9306 17.88C90.6586 17.976 90.3706 18.008 90.0986 18.104C89.6986 18.232 89.2666 18.264 88.8506 18.296ZM80.8986 17.448C80.9306 17.448 80.9626 17.448 81.0106 17.432C81.4746 17.272 81.9386 17.064 82.3706 16.808C82.6746 16.616 82.9786 16.456 83.2666 16.248C83.5706 16.04 83.9226 15.896 84.0826 15.528C84.1146 15.432 84.2106 15.352 84.2906 15.272C84.5626 14.952 84.8986 14.68 85.1226 14.312C85.1706 14.232 85.2506 14.184 85.2986 14.104C85.3786 13.96 85.4586 13.832 85.5226 13.688C85.5706 13.576 85.5066 13.496 85.4106 13.448C85.3466 13.432 85.2666 13.416 85.1866 13.416C84.8186 13.384 84.4826 13.544 84.1626 13.672C83.4746 13.976 82.8186 14.328 82.2906 14.888C82.1306 15.048 81.9386 15.176 81.7786 15.336C81.4106 15.704 81.1226 16.152 80.8666 16.584C80.7706 16.744 80.6906 16.92 80.6266 17.096C80.5466 17.288 80.6746 17.464 80.8986 17.448ZM94.4631 20.904C94.2711 20.808 94.1271 20.664 94.0471 20.488C93.9191 20.232 93.8231 19.944 93.8871 19.656C93.9351 19.32 94.0151 18.984 94.0951 18.664C94.2551 17.912 94.6391 17.256 94.8951 16.536C95.0391 16.104 95.2951 15.72 95.4871 15.304C95.6791 14.936 95.8711 14.584 96.0471 14.216C96.2391 13.848 96.3991 13.448 96.6231 13.096C96.8311 12.776 96.9751 12.408 97.1671 12.072C97.3111 11.816 97.4711 11.576 97.6151 11.32C97.7431 11.08 97.8551 10.84 97.9831 10.616C98.1271 10.344 98.3191 10.088 98.4791 9.816C98.6711 9.48 98.8471 9.128 99.0391 8.792L99.3431 8.296C99.4871 8.072 99.6471 7.864 99.7911 7.64C99.9511 7.384 100.095 7.112 100.255 6.856C100.287 6.792 100.319 6.728 100.351 6.68C100.623 6.296 100.879 5.896 101.167 5.528C101.503 5.08 101.807 4.6 102.191 4.184C102.383 3.992 102.575 3.912 102.831 3.912C103.199 3.944 103.343 4.104 103.311 4.504C103.327 4.696 103.247 4.872 103.119 5.048C103.039 5.16 102.943 5.224 102.799 5.192C102.479 5.128 102.239 5.304 102.047 5.512C101.807 5.784 101.599 6.072 101.391 6.36C101.247 6.552 101.103 6.76 100.975 6.968C100.783 7.256 100.591 7.544 100.415 7.848L99.2311 9.912C99.0391 10.264 98.8311 10.616 98.6391 10.984C98.5591 11.112 98.5111 11.256 98.4471 11.4C98.2231 11.816 98.0151 12.232 97.7911 12.664C97.6951 12.856 97.5991 13.048 97.5031 13.224C97.2631 13.688 97.0231 14.152 96.7831 14.6C96.5431 15.096 96.2871 15.592 96.0631 16.088C95.9031 16.44 95.7751 16.808 95.5991 17.144C95.3271 17.704 95.1351 18.28 94.9431 18.856C94.8311 19.24 94.7831 19.64 94.7031 20.024C94.6551 20.2 94.7511 20.296 94.8471 20.408C94.9111 20.488 95.0071 20.472 95.0871 20.424C95.3431 20.296 95.5831 20.184 95.8391 20.04C96.3191 19.784 96.8151 19.496 97.2951 19.224C97.4711 19.128 97.6151 19 97.7751 18.888C98.0791 18.68 98.3991 18.488 98.6871 18.28C98.8791 18.152 99.0711 18.024 99.2631 17.88C99.3751 17.8 99.5031 17.704 99.6311 17.624L100.879 16.664C101.135 16.456 101.375 16.232 101.647 16.024C101.871 15.848 102.111 15.688 102.335 15.512C102.511 15.384 102.671 15.256 102.831 15.112C103.007 14.92 103.231 14.856 103.487 14.904C103.711 14.952 103.791 15.128 103.727 15.352C103.615 15.688 103.327 15.864 103.055 16.008C102.511 16.28 101.999 16.584 101.519 16.968C101.055 17.32 100.575 17.656 100.095 18.008L99.2311 18.616C99.1511 18.664 99.0711 18.712 99.0231 18.776C98.5431 19.224 97.9831 19.528 97.4551 19.912C96.9271 20.264 96.3671 20.584 95.7911 20.824C95.3751 21 94.9271 21.144 94.4631 20.904ZM101.916 20.904C101.724 20.808 101.58 20.664 101.5 20.488C101.372 20.232 101.276 19.944 101.34 19.656C101.388 19.32 101.468 18.984 101.548 18.664C101.708 17.912 102.092 17.256 102.348 16.536C102.492 16.104 102.748 15.72 102.94 15.304C103.132 14.936 103.324 14.584 103.5 14.216C103.692 13.848 103.852 13.448 104.076 13.096C104.284 12.776 104.428 12.408 104.62 12.072C104.764 11.816 104.924 11.576 105.068 11.32C105.196 11.08 105.308 10.84 105.436 10.616C105.58 10.344 105.772 10.088 105.932 9.816C106.124 9.48 106.3 9.128 106.492 8.792L106.796 8.296C106.94 8.072 107.1 7.864 107.244 7.64C107.404 7.384 107.548 7.112 107.708 6.856C107.74 6.792 107.772 6.728 107.804 6.68C108.076 6.296 108.332 5.896 108.62 5.528C108.956 5.08 109.26 4.6 109.644 4.184C109.836 3.992 110.028 3.912 110.284 3.912C110.652 3.944 110.796 4.104 110.764 4.504C110.78 4.696 110.7 4.872 110.572 5.048C110.492 5.16 110.396 5.224 110.252 5.192C109.932 5.128 109.692 5.304 109.5 5.512C109.26 5.784 109.052 6.072 108.844 6.36C108.7 6.552 108.556 6.76 108.428 6.968C108.236 7.256 108.044 7.544 107.868 7.848L106.684 9.912C106.492 10.264 106.284 10.616 106.092 10.984C106.012 11.112 105.964 11.256 105.9 11.4C105.676 11.816 105.468 12.232 105.244 12.664C105.148 12.856 105.052 13.048 104.956 13.224C104.716 13.688 104.476 14.152 104.236 14.6C103.996 15.096 103.74 15.592 103.516 16.088C103.356 16.44 103.228 16.808 103.052 17.144C102.78 17.704 102.588 18.28 102.396 18.856C102.284 19.24 102.236 19.64 102.156 20.024C102.108 20.2 102.204 20.296 102.3 20.408C102.364 20.488 102.46 20.472 102.54 20.424C102.796 20.296 103.036 20.184 103.292 20.04C103.772 19.784 104.268 19.496 104.748 19.224C104.924 19.128 105.068 19 105.228 18.888C105.532 18.68 105.852 18.488 106.14 18.28C106.332 18.152 106.524 18.024 106.716 17.88C106.828 17.8 106.956 17.704 107.084 17.624L108.332 16.664C108.588 16.456 108.828 16.232 109.1 16.024C109.324 15.848 109.564 15.688 109.788 15.512C109.964 15.384 110.124 15.256 110.284 15.112C110.46 14.92 110.684 14.856 110.94 14.904C111.164 14.952 111.244 15.128 111.18 15.352C111.068 15.688 110.78 15.864 110.508 16.008C109.964 16.28 109.452 16.584 108.972 16.968C108.508 17.32 108.028 17.656 107.548 18.008L106.684 18.616C106.604 18.664 106.524 18.712 106.476 18.776C105.996 19.224 105.436 19.528 104.908 19.912C104.38 20.264 103.82 20.584 103.244 20.824C102.828 21 102.38 21.144 101.916 20.904ZM123.404 18.648C123.228 18.616 123.052 18.616 122.876 18.488C122.652 18.312 122.492 18.104 122.428 17.832C122.332 17.416 122.348 17 122.46 16.6C122.572 16.2 122.732 15.816 122.828 15.416C122.972 14.872 123.1 14.328 123.18 13.768C123.228 13.448 123.164 13.096 123.132 12.76C123.132 12.728 123.1 12.696 123.068 12.648C122.972 12.776 122.908 12.904 122.812 13.016C122.652 13.24 122.492 13.464 122.316 13.672C122.156 13.864 121.98 14.04 121.804 14.216C121.42 14.584 121.036 14.936 120.636 15.288C120.38 15.512 120.108 15.736 119.82 15.912C119.644 16.04 119.436 16.12 119.212 16.184C119.02 16.232 118.812 16.04 118.812 15.848C118.812 15.72 118.892 15.656 118.988 15.592C119.244 15.464 119.5 15.336 119.756 15.192C119.868 15.144 119.98 15.064 120.076 14.984L120.924 14.216C121.132 14.024 121.356 13.832 121.564 13.608C121.708 13.464 121.836 13.288 121.964 13.112C122.14 12.872 122.316 12.632 122.476 12.376C122.556 12.264 122.588 12.12 122.62 11.992C122.636 11.928 122.588 11.864 122.556 11.816C122.444 11.608 122.316 11.416 122.236 11.208C122.124 10.968 122.156 10.728 122.316 10.52C122.572 10.168 123.148 10.12 123.452 10.424C123.484 10.44 123.5 10.456 123.516 10.488C123.612 10.792 123.708 11.08 123.596 11.4L123.532 11.608C123.5 11.72 123.516 11.816 123.58 11.928C123.788 12.28 123.884 12.664 123.932 13.08C123.996 13.48 123.948 13.896 123.9 14.296C123.868 14.552 123.772 14.792 123.708 15.048C123.708 15.064 123.692 15.08 123.692 15.096C123.5 15.832 123.212 16.52 123.084 17.272L123.036 17.496C123.004 17.816 123.276 18.12 123.612 18.072C123.996 18.024 124.38 17.96 124.732 17.736C124.972 17.576 125.244 17.448 125.5 17.304C125.964 17.016 126.444 16.744 126.892 16.44C127.292 16.168 127.676 15.848 128.028 15.528C128.284 15.304 128.508 15.032 128.748 14.776C128.876 14.632 129.02 14.504 129.148 14.36C129.276 14.232 129.436 14.2 129.58 14.248C129.708 14.312 129.788 14.424 129.74 14.568C129.676 14.792 129.548 14.984 129.356 15.128C129.308 15.16 129.244 15.192 129.212 15.24C128.972 15.592 128.636 15.816 128.332 16.072C128.092 16.28 127.836 16.472 127.596 16.68L126.636 17.4C126.54 17.464 126.428 17.512 126.332 17.576C126.028 17.752 125.708 17.96 125.388 18.136C125.084 18.296 124.764 18.456 124.428 18.552C124.108 18.664 123.756 18.728 123.404 18.648ZM131.872 12.28C131.664 12.376 131.392 12.344 131.248 12.184C131.104 11.992 131.072 11.688 131.216 11.496C131.392 11.272 131.632 11.144 131.92 11.096C132.416 11 132.912 10.888 133.392 10.776C133.712 10.712 134.032 10.664 134.288 10.904C134.384 10.984 134.432 11.096 134.464 11.144C134.448 11.384 134.208 11.672 134 11.736C133.872 11.768 133.744 11.8 133.616 11.816L132.144 12.152C132.048 12.168 131.952 12.232 131.872 12.28ZM129.984 18.52C129.456 18.696 128.736 18.456 128.384 18.008C128.064 17.576 127.952 17.096 128.016 16.552C128.048 16.296 128.144 16.056 128.224 15.816C128.368 15.384 128.608 15.016 128.848 14.648C129.184 14.152 129.6 13.72 130.064 13.336C130.224 13.192 130.432 13.176 130.64 13.16H130.832C131.104 13.192 131.2 13.384 131.072 13.608C131.008 13.704 130.928 13.816 130.848 13.896C130.624 14.104 130.4 14.312 130.112 14.44C130.08 14.456 130.032 14.504 130.032 14.552C129.984 14.776 129.824 14.936 129.68 15.112C129.52 15.32 129.376 15.528 129.264 15.768C129.072 16.168 128.944 16.6 128.832 17.032C128.736 17.352 128.848 17.624 129.104 17.816C129.2 17.896 129.344 17.96 129.456 17.944C129.776 17.928 130.08 17.88 130.4 17.816C130.688 17.768 130.976 17.672 131.248 17.576C131.52 17.496 131.776 17.384 132.048 17.32C132.688 17.144 133.216 16.76 133.776 16.408C134.304 16.088 134.864 15.768 135.376 15.4C135.808 15.112 136.24 14.824 136.688 14.568C136.912 14.44 137.104 14.248 137.296 14.072C137.472 13.944 137.632 13.8 137.792 13.672C137.92 13.576 138.16 13.608 138.288 13.72C138.384 13.832 138.416 14.008 138.32 14.136C138.24 14.248 138.144 14.344 138.032 14.424C137.728 14.664 137.424 14.888 137.104 15.112C136.944 15.224 136.768 15.352 136.592 15.432C136.128 15.608 135.76 15.928 135.376 16.216C134.832 16.616 134.256 17 133.616 17.256C133.136 17.448 132.672 17.688 132.176 17.864C131.568 18.088 130.928 18.248 130.304 18.44C130.208 18.472 130.096 18.488 129.984 18.52ZM137.249 26.968C137.041 26.872 136.897 26.552 136.977 26.344C137.025 26.184 137.105 26.04 137.185 25.896C137.361 25.544 137.553 25.176 137.729 24.808C137.873 24.536 138.001 24.248 138.129 23.96C138.369 23.48 138.593 22.984 138.753 22.456C138.801 22.296 138.865 22.12 138.929 21.96C139.217 21.304 139.409 20.616 139.521 19.912C139.553 19.624 139.633 19.352 139.665 19.08C139.697 18.84 139.729 18.6 139.713 18.344C139.713 18.04 139.729 17.736 139.665 17.432C139.601 17.064 139.425 16.968 139.057 17.016C138.721 17.064 138.385 17.128 138.065 17.256C137.777 17.384 137.457 17.416 137.137 17.512C136.369 17.752 135.889 17.08 135.953 16.552C136.017 15.928 136.289 15.416 136.625 14.92C136.913 14.504 137.201 14.088 137.537 13.72C137.857 13.368 138.225 13.032 138.593 12.744C138.849 12.552 139.185 12.472 139.521 12.472C139.825 12.472 140.017 12.664 140.049 12.984C140.097 13.272 140.065 13.56 139.937 13.832C139.825 14.072 139.521 14.12 139.329 13.912C139.185 13.752 139.153 13.672 139.153 13.4C139.009 13.48 138.881 13.544 138.785 13.64C138.577 13.832 138.369 14.024 138.193 14.232C138.001 14.424 137.841 14.648 137.681 14.856C137.473 15.144 137.265 15.416 137.089 15.72C136.945 15.944 136.849 16.216 136.737 16.456C136.689 16.568 136.705 16.696 136.801 16.792C136.897 16.904 137.009 16.856 137.121 16.824C137.505 16.696 137.889 16.568 138.241 16.376C138.657 16.168 139.121 16.12 139.585 16.152C139.825 16.168 140.033 16.328 140.177 16.52C140.401 16.808 140.529 17.144 140.577 17.544C140.625 18.04 140.561 18.536 140.497 19.032C140.433 19.528 140.305 20.008 140.241 20.504C140.177 21 139.953 21.448 139.825 21.912C139.649 22.52 139.425 23.112 139.217 23.704C139.217 23.72 139.217 23.752 139.201 23.768L139.233 23.8C139.281 23.768 139.313 23.736 139.345 23.704C139.681 23.352 140.033 23.016 140.353 22.648C140.545 22.424 140.801 22.28 140.977 22.056C141.201 21.8 141.473 21.576 141.729 21.336C141.985 21.112 142.257 20.888 142.513 20.648C142.737 20.456 142.945 20.248 143.169 20.056C143.393 19.864 143.633 19.688 143.857 19.496L144.497 19.016C144.801 18.776 145.105 18.52 145.409 18.296C146.913 17.16 147.921 16.488 149.425 15.432C149.745 15.224 150.049 15.016 150.369 14.824C150.625 14.664 150.897 14.504 151.169 14.36C151.329 14.28 151.505 14.216 151.665 14.344C151.825 14.488 151.777 14.664 151.729 14.824C151.681 15.08 151.489 15.192 151.281 15.272C151.057 15.368 150.801 15.432 150.561 15.496C150.321 15.544 150.097 15.624 149.905 15.768C147.697 17.464 146.897 17.928 144.417 19.896L143.233 20.904C142.689 21.384 142.145 21.832 141.617 22.312C141.425 22.504 141.249 22.728 141.057 22.936C140.993 23.032 140.913 23.112 140.833 23.192C140.193 23.784 139.633 24.456 139.105 25.144C138.833 25.48 138.625 25.848 138.321 26.152C138.145 26.344 138.001 26.568 137.841 26.776C137.665 27 137.457 27.064 137.249 26.968ZM150.478 20.6C150.286 20.536 150.142 20.392 150.126 20.168C150.11 20.056 150.11 19.944 150.126 19.848C150.206 19.464 150.318 19.08 150.414 18.712C150.462 18.536 150.494 18.36 150.558 18.2C150.686 17.832 150.814 17.464 150.958 17.096C151.15 16.6 151.342 16.104 151.55 15.608C151.63 15.368 151.742 15.128 151.838 14.888C151.87 14.792 151.918 14.696 151.966 14.568C151.822 14.568 151.806 14.648 151.774 14.712C151.678 14.92 151.55 14.984 151.358 14.952C151.182 14.904 150.99 14.712 150.99 14.536C151.006 14.456 151.038 14.376 151.07 14.328C151.31 13.928 151.55 13.544 151.806 13.16C152.11 12.712 152.414 12.28 152.718 11.848C152.798 11.736 152.83 11.624 152.91 11.512C153.166 11.128 153.454 10.76 153.694 10.36C154.03 9.848 154.318 9.304 154.622 8.776C154.734 8.584 154.846 8.392 154.942 8.2C155.294 7.496 155.646 6.792 156.062 6.136C156.254 5.816 156.414 5.48 156.622 5.16C156.814 4.84 157.038 4.52 157.262 4.184L157.326 4.088C157.55 3.56 157.95 3.176 158.27 2.728C158.43 2.52 158.638 2.376 158.91 2.328C159.166 2.28 159.326 2.408 159.342 2.664C159.342 2.792 159.342 2.92 159.294 3.032C159.166 3.304 159.022 3.56 158.878 3.816C158.558 4.376 158.222 4.92 157.886 5.448C157.566 5.96 157.23 6.44 156.91 6.936L156.382 7.752C156.286 7.912 156.19 8.056 156.078 8.2C155.726 8.728 155.358 9.272 155.022 9.816C154.894 10.008 154.798 10.232 154.686 10.44C154.446 10.92 154.19 11.4 153.95 11.896C153.822 12.136 153.742 12.392 153.63 12.648L153.006 14.168L152.398 15.64L152.158 16.136C152.046 16.36 151.95 16.584 151.854 16.808C151.614 17.368 151.294 17.912 151.15 18.504C151.118 18.68 151.086 18.856 151.038 19.032C151.022 19.128 151.038 19.208 151.134 19.24C151.23 19.288 151.294 19.208 151.358 19.128C151.47 18.968 151.598 18.824 151.726 18.68L151.822 18.6C152.11 18.216 152.51 17.944 152.814 17.576C152.91 17.48 153.022 17.4 153.118 17.304C153.47 16.984 153.806 16.664 154.158 16.328L154.35 16.184C154.414 16.136 154.494 16.104 154.542 16.056C155.022 15.592 155.566 15.208 156.11 14.824C156.398 14.616 156.67 14.392 156.99 14.232C157.262 14.104 157.518 13.928 157.774 13.768C158.014 13.64 158.27 13.576 158.542 13.576C158.91 13.592 159.182 13.848 159.118 14.216C159.038 14.744 158.942 15.272 158.798 15.8C158.702 16.184 158.654 16.552 158.718 16.952C158.734 17.064 158.782 17.16 158.878 17.224C159.07 17.336 159.278 17.384 159.518 17.32C159.886 17.24 160.238 17.112 160.574 16.92C160.894 16.744 161.214 16.6 161.534 16.44C161.582 16.424 161.646 16.408 161.694 16.36C161.966 16.056 162.366 15.944 162.686 15.704C162.75 15.656 162.83 15.608 162.894 15.544C163.054 15.4 163.246 15.288 163.47 15.24C163.742 15.192 163.918 15.336 163.886 15.608C163.87 15.816 163.806 15.976 163.598 16.072C163.214 16.232 162.83 16.408 162.462 16.6C162.046 16.792 161.614 17 161.214 17.224C160.686 17.512 160.174 17.832 159.646 18.12C159.55 18.184 159.422 18.216 159.31 18.232C159.182 18.248 159.054 18.232 158.926 18.216C158.542 18.184 158.286 17.944 158.078 17.656L158.03 17.56C157.79 17.32 157.806 17.016 157.79 16.728C157.79 16.616 157.774 16.504 157.79 16.392C157.806 16.264 157.822 16.12 157.854 15.992C157.87 15.928 157.918 15.864 157.934 15.784C158.03 15.416 158.11 15.064 158.19 14.696V14.552C158.062 14.6 157.966 14.632 157.854 14.664C157.774 14.696 157.662 14.712 157.566 14.744C157.486 14.776 157.406 14.808 157.326 14.856C156.942 15.064 156.606 15.336 156.254 15.592C155.71 15.96 155.23 16.392 154.75 16.808C154.174 17.32 153.598 17.816 153.038 18.344L152.094 19.208C151.886 19.4 151.742 19.656 151.582 19.896C151.454 20.088 151.326 20.248 151.118 20.36C151.07 20.392 151.038 20.44 150.99 20.488C150.846 20.616 150.654 20.68 150.478 20.6ZM156.523 27.656C156.315 27.512 156.251 27.288 156.395 27.032C156.635 26.616 156.875 26.216 157.147 25.8C157.627 25.016 158.123 24.232 158.635 23.448L159.723 21.592C159.931 21.256 160.155 20.936 160.347 20.6C160.779 19.88 161.195 19.128 161.611 18.392C161.979 17.768 162.331 17.144 162.667 16.52C163.371 15.256 164.059 14.008 164.811 12.776C165.163 12.168 165.483 11.544 165.915 11C166.043 10.808 166.091 10.568 166.203 10.376C166.571 9.752 166.955 9.144 167.307 8.52C167.483 8.248 167.627 7.96 167.787 7.688C167.883 7.56 167.963 7.432 168.059 7.24H167.787C167.419 7.288 167.067 7.288 166.715 7.224C166.395 7.176 166.059 7.224 165.755 7.224C165.019 7.272 164.315 7.224 163.595 7.144C163.291 7.128 162.971 7.144 162.667 7.144C162.027 7.144 161.403 7.128 160.763 7.144C160.267 7.176 159.755 7.224 159.259 7.288C158.523 7.368 157.771 7.352 157.019 7.272C156.923 7.24 156.843 7.208 156.747 7.144C156.587 7.032 156.587 6.856 156.731 6.728C156.891 6.552 157.083 6.456 157.339 6.456C157.851 6.488 158.395 6.52 158.939 6.536C158.987 6.536 159.035 6.552 159.067 6.552C159.755 6.536 160.443 6.52 161.115 6.488C161.579 6.472 162.011 6.472 162.475 6.456H162.827C163.259 6.424 163.723 6.392 164.155 6.376C164.875 6.376 165.563 6.376 166.251 6.344C166.395 6.344 166.539 6.328 166.667 6.328C167.259 6.328 167.835 6.312 168.443 6.312C168.587 6.312 168.699 6.248 168.779 6.12C169.291 5.288 169.883 4.472 170.315 3.576C170.523 3.176 170.827 2.84 171.035 2.472C171.163 2.264 171.211 2.008 171.307 1.8C171.275 1.752 171.275 1.736 171.259 1.736C170.939 1.352 170.923 1.208 171.243 0.839998C171.467 0.584 171.691 0.344 172.027 0.279999C172.203 0.231998 172.363 0.247999 172.475 0.391998C172.603 0.551998 172.683 0.712 172.603 0.903999C172.411 1.336 172.267 1.8 172.059 2.216C171.755 2.792 171.403 3.368 171.099 3.944L170.219 5.448C170.107 5.64 169.963 5.832 169.867 6.008C169.803 6.104 169.755 6.2 169.675 6.312H171.787C171.947 6.312 172.123 6.328 172.267 6.328C172.539 6.344 172.811 6.344 173.083 6.344C173.611 6.344 174.187 6.344 174.747 6.376H176.315C176.955 6.392 177.627 6.408 178.267 6.408C179.659 6.424 181.035 6.424 182.379 6.424C182.555 6.424 182.715 6.456 182.859 6.488C183.131 6.584 183.179 6.792 183.035 7.032C182.859 7.336 182.571 7.336 182.299 7.336C181.867 7.352 181.419 7.352 180.987 7.352C180.699 7.352 180.395 7.368 180.139 7.304C179.435 7.176 178.747 7.144 178.059 7.128C177.307 7.096 176.555 7.08 175.803 7.064C175.163 7.064 174.523 7.016 173.883 7.032C172.715 7.032 171.547 7.08 170.379 7.096C170.299 7.096 170.219 7.096 170.107 7.08C169.803 7.032 169.483 7.144 169.195 7.272C169.115 7.288 169.051 7.384 169.003 7.448C168.587 8.136 168.187 8.84 167.771 9.496C167.371 10.168 166.939 10.808 166.507 11.48C166.267 11.832 165.995 12.2 165.755 12.552C165.515 12.904 165.307 13.272 165.099 13.656C164.875 14.056 164.635 14.424 164.411 14.824C164.107 15.384 163.803 15.944 163.467 16.52C163.307 16.808 163.099 17.08 162.939 17.384C162.619 17.96 162.299 18.552 161.995 19.128C161.867 19.352 161.723 19.544 161.595 19.768C161.179 20.472 160.779 21.208 160.363 21.944C160.011 22.552 159.627 23.144 159.275 23.752C159.003 24.232 158.795 24.744 158.523 25.224C158.331 25.592 158.107 25.944 157.899 26.296C157.803 26.52 157.643 26.728 157.531 26.936C157.419 27.144 157.291 27.352 157.163 27.528C157.003 27.784 156.779 27.8 156.523 27.656ZM163.647 25.736C163.055 25.8 162.463 25.848 161.903 25.56C161.567 25.384 161.279 25.16 161.135 24.792C161.023 24.488 160.959 24.184 160.975 23.864C160.975 23.304 161.103 22.792 161.343 22.296C161.503 21.944 161.679 21.576 161.903 21.272C162.223 20.84 162.527 20.408 162.879 20.008C163.167 19.688 163.503 19.4 163.791 19.08C164.079 18.76 164.415 18.504 164.751 18.248C165.167 17.896 165.631 17.608 166.079 17.272C166.607 16.888 167.199 16.616 167.759 16.312L168.095 16.104C168.063 15.896 168.015 15.688 167.983 15.48C167.919 15.144 167.919 14.824 168.015 14.504C168.063 14.344 168.095 14.168 168.159 14.008C168.351 13.528 168.591 13.096 168.943 12.712C169.295 12.328 169.647 11.944 169.999 11.544C170.031 11.512 170.095 11.48 170.127 11.448C170.255 11.352 170.367 11.256 170.495 11.144L170.623 11.048C170.879 10.904 171.135 10.728 171.407 10.616C171.759 10.472 172.127 10.456 172.447 10.744C172.527 10.824 172.575 10.904 172.559 11.016C172.543 11.272 172.495 11.496 172.367 11.72C172.159 12.12 171.871 12.456 171.551 12.76C171.343 12.936 171.167 13.16 170.959 13.352C170.623 13.656 170.255 13.944 169.903 14.232C169.695 14.408 169.503 14.584 169.279 14.744C169.071 14.888 168.847 15.016 168.623 15.16C168.655 15.368 168.703 15.56 168.735 15.8C169.055 15.656 169.343 15.544 169.615 15.416C170.207 15.144 170.799 14.888 171.439 14.68C171.775 14.584 172.111 14.44 172.447 14.312C174.319 13.704 174.543 13.64 174.767 13.576C175.007 13.496 175.231 13.416 175.471 13.368C177.055 12.904 177.231 12.872 177.391 12.888C177.599 12.888 177.727 12.984 177.743 13.128C177.759 13.24 177.615 13.448 177.455 13.48C177.247 13.528 177.055 13.576 175.423 14.04C174.959 14.088 174.527 14.232 172.447 14.904C171.663 15.144 170.943 15.496 170.223 15.848L169.135 16.376L168.991 16.472C169.055 16.648 169.087 16.824 169.167 16.984C169.407 17.448 169.551 17.928 169.679 18.424C169.727 18.6 169.775 18.776 169.807 18.952C169.839 19.224 169.855 19.48 169.871 19.752C169.887 19.848 169.871 19.928 169.871 20.024C169.871 20.072 169.887 20.12 169.871 20.168C169.759 20.584 169.663 21 169.487 21.384C169.343 21.72 169.167 22.04 168.943 22.344C168.607 22.84 168.191 23.256 167.759 23.64C167.423 23.944 167.087 24.2 166.703 24.424C166.431 24.584 166.159 24.792 165.871 24.936C165.567 25.096 165.231 25.208 164.895 25.352C164.847 25.368 164.799 25.4 164.751 25.416C164.591 25.48 164.447 25.528 164.287 25.576C164.063 25.64 163.855 25.704 163.647 25.736ZM168.847 14.248C169.151 14.008 169.439 13.816 169.711 13.592C170.255 13.16 170.751 12.68 171.231 12.184C171.487 11.896 171.727 11.608 171.903 11.176C171.759 11.208 171.663 11.224 171.583 11.256C171.199 11.448 170.847 11.688 170.527 11.976C169.951 12.52 169.407 13.096 169.023 13.784C168.943 13.912 168.847 14.04 168.847 14.248ZM163.071 25.208C163.599 25.176 164.127 25.128 164.607 24.888C164.927 24.744 165.231 24.584 165.535 24.408C165.951 24.184 166.367 23.96 166.767 23.72C166.991 23.592 167.183 23.432 167.359 23.272C167.631 23.016 167.903 22.776 168.095 22.44C168.175 22.312 168.287 22.184 168.383 22.04C168.911 21.304 169.215 20.472 169.151 19.544C169.119 18.904 168.959 18.296 168.687 17.72C168.671 17.688 168.655 17.64 168.655 17.592C168.559 17.32 168.463 17.064 168.367 16.76L168.031 16.856C167.535 17 167.071 17.208 166.687 17.544C166.543 17.656 166.399 17.752 166.255 17.848C165.871 18.12 165.471 18.392 165.103 18.696C164.655 19.064 164.255 19.464 163.823 19.848C163.279 20.328 162.847 20.888 162.431 21.464C162.367 21.576 162.287 21.672 162.239 21.784C162.063 22.184 161.887 22.584 161.727 22.984C161.567 23.448 161.471 23.896 161.599 24.392C161.679 24.696 161.855 24.872 162.095 25.032C162.399 25.224 162.735 25.24 163.071 25.208ZM188.029 18.648C187.853 18.616 187.677 18.616 187.501 18.488C187.277 18.312 187.117 18.104 187.053 17.832C186.957 17.416 186.973 17 187.085 16.6C187.197 16.2 187.357 15.816 187.453 15.416C187.597 14.872 187.725 14.328 187.805 13.768C187.853 13.448 187.789 13.096 187.757 12.76C187.757 12.728 187.725 12.696 187.693 12.648C187.597 12.776 187.533 12.904 187.437 13.016C187.277 13.24 187.117 13.464 186.941 13.672C186.781 13.864 186.605 14.04 186.429 14.216C186.045 14.584 185.661 14.936 185.261 15.288C185.005 15.512 184.733 15.736 184.445 15.912C184.269 16.04 184.061 16.12 183.837 16.184C183.645 16.232 183.437 16.04 183.437 15.848C183.437 15.72 183.517 15.656 183.613 15.592C183.869 15.464 184.125 15.336 184.381 15.192C184.493 15.144 184.605 15.064 184.701 14.984L185.549 14.216C185.757 14.024 185.981 13.832 186.189 13.608C186.333 13.464 186.461 13.288 186.589 13.112C186.765 12.872 186.941 12.632 187.101 12.376C187.181 12.264 187.213 12.12 187.245 11.992C187.261 11.928 187.213 11.864 187.181 11.816C187.069 11.608 186.941 11.416 186.861 11.208C186.749 10.968 186.781 10.728 186.941 10.52C187.197 10.168 187.773 10.12 188.077 10.424C188.109 10.44 188.125 10.456 188.141 10.488C188.237 10.792 188.333 11.08 188.221 11.4L188.157 11.608C188.125 11.72 188.141 11.816 188.205 11.928C188.413 12.28 188.509 12.664 188.557 13.08C188.621 13.48 188.573 13.896 188.525 14.296C188.493 14.552 188.397 14.792 188.333 15.048C188.333 15.064 188.317 15.08 188.317 15.096C188.125 15.832 187.837 16.52 187.709 17.272L187.661 17.496C187.629 17.816 187.901 18.12 188.237 18.072C188.621 18.024 189.005 17.96 189.357 17.736C189.597 17.576 189.869 17.448 190.125 17.304C190.589 17.016 191.069 16.744 191.517 16.44C191.917 16.168 192.301 15.848 192.653 15.528C192.909 15.304 193.133 15.032 193.373 14.776C193.501 14.632 193.645 14.504 193.773 14.36C193.901 14.232 194.061 14.2 194.205 14.248C194.333 14.312 194.413 14.424 194.365 14.568C194.301 14.792 194.173 14.984 193.981 15.128C193.933 15.16 193.869 15.192 193.837 15.24C193.597 15.592 193.261 15.816 192.957 16.072C192.717 16.28 192.461 16.472 192.221 16.68L191.261 17.4C191.165 17.464 191.053 17.512 190.957 17.576C190.653 17.752 190.333 17.96 190.013 18.136C189.709 18.296 189.389 18.456 189.053 18.552C188.733 18.664 188.381 18.728 188.029 18.648ZM193.473 18.376C192.737 18.2 192.273 17.608 192.305 16.824C192.321 16.584 192.385 16.36 192.481 16.12C192.609 15.816 192.753 15.544 192.945 15.288C193.121 15.032 193.329 14.808 193.537 14.584C193.777 14.344 194.033 14.12 194.289 13.912C194.705 13.56 195.121 13.208 195.633 13L195.681 12.968C196.257 12.6 196.881 12.44 197.553 12.408C197.937 12.376 198.273 12.472 198.593 12.648C198.833 12.792 198.961 13.208 198.913 13.48C198.865 13.784 198.705 14.024 198.513 14.248C198.065 14.776 197.505 15.144 196.881 15.384C196.641 15.48 196.401 15.48 196.161 15.432C195.873 15.384 195.729 14.968 195.825 14.776C195.857 14.712 195.937 14.616 196.017 14.6C196.145 14.552 196.289 14.536 196.417 14.568C196.561 14.584 196.673 14.552 196.785 14.504C197.169 14.328 197.521 14.088 197.793 13.752C197.889 13.656 197.953 13.528 198.049 13.368C197.937 13.336 197.857 13.304 197.777 13.288C197.345 13.224 196.945 13.32 196.561 13.464C196.433 13.512 196.337 13.608 196.209 13.672C195.617 13.992 195.057 14.344 194.561 14.808C194.401 14.984 194.241 15.144 194.065 15.32C193.953 15.432 193.873 15.576 193.697 15.624C193.377 16.04 193.009 16.424 193.025 17.016C193.041 17.224 193.121 17.368 193.281 17.48C193.617 17.72 194.017 17.784 194.417 17.736C194.929 17.688 195.377 17.464 195.857 17.32C196.033 17.272 196.209 17.224 196.369 17.16C196.577 17.08 196.769 16.984 196.977 16.904C197.073 16.872 197.169 16.856 197.265 16.824C197.393 16.776 197.521 16.728 197.649 16.664C197.809 16.6 197.953 16.552 198.113 16.472C198.305 16.376 198.497 16.264 198.705 16.184L199.681 15.752L200.449 15.352C201.025 15.032 201.601 14.712 202.193 14.392C202.737 14.104 203.265 13.784 203.793 13.48C204.209 13.256 204.609 13.016 205.025 12.808C205.153 12.744 205.313 12.728 205.473 12.744C205.665 12.76 205.777 12.936 205.697 13.128C205.601 13.384 205.473 13.592 205.201 13.704C204.913 13.816 204.641 13.992 204.369 14.152C204.273 14.2 204.193 14.264 204.065 14.216C203.985 14.2 203.873 14.248 203.793 14.28C203.617 14.392 203.441 14.52 203.265 14.648C203.009 14.84 202.737 14.984 202.433 15.128C201.809 15.4 201.201 15.736 200.593 16.04C200.401 16.136 200.209 16.232 200.017 16.312C199.409 16.568 198.801 16.808 198.209 17.064C197.857 17.224 197.537 17.432 197.201 17.608C196.849 17.784 196.497 17.96 196.113 18.056C195.793 18.136 195.489 18.28 195.169 18.36C194.609 18.488 194.033 18.504 193.473 18.376ZM199.928 25.736C199.336 25.8 198.744 25.848 198.184 25.56C197.848 25.384 197.56 25.16 197.416 24.792C197.304 24.488 197.24 24.184 197.256 23.864C197.256 23.304 197.384 22.792 197.624 22.296C197.784 21.944 197.96 21.576 198.184 21.272C198.504 20.84 198.808 20.408 199.16 20.008C199.448 19.688 199.784 19.4 200.072 19.08C200.36 18.76 200.696 18.504 201.032 18.248C201.448 17.896 201.912 17.608 202.36 17.272C202.888 16.888 203.48 16.616 204.04 16.312L204.376 16.104C204.344 15.896 204.296 15.688 204.264 15.48C204.2 15.144 204.2 14.824 204.296 14.504C204.344 14.344 204.376 14.168 204.44 14.008C204.632 13.528 204.872 13.096 205.224 12.712C205.576 12.328 205.928 11.944 206.28 11.544C206.312 11.512 206.376 11.48 206.408 11.448C206.536 11.352 206.648 11.256 206.776 11.144L206.904 11.048C207.16 10.904 207.416 10.728 207.688 10.616C208.04 10.472 208.408 10.456 208.728 10.744C208.808 10.824 208.856 10.904 208.84 11.016C208.824 11.272 208.776 11.496 208.648 11.72C208.44 12.12 208.152 12.456 207.832 12.76C207.624 12.936 207.448 13.16 207.24 13.352C206.904 13.656 206.536 13.944 206.184 14.232C205.976 14.408 205.784 14.584 205.56 14.744C205.352 14.888 205.128 15.016 204.904 15.16C204.936 15.368 204.984 15.56 205.016 15.8C205.336 15.656 205.624 15.544 205.896 15.416C206.488 15.144 207.08 14.888 207.72 14.68C208.056 14.584 208.392 14.44 208.728 14.312C210.6 13.704 210.824 13.64 211.048 13.576C211.288 13.496 211.512 13.416 211.752 13.368C213.336 12.904 213.512 12.872 213.672 12.888C213.88 12.888 214.008 12.984 214.024 13.128C214.04 13.24 213.896 13.448 213.736 13.48C213.528 13.528 213.336 13.576 211.704 14.04C211.24 14.088 210.808 14.232 208.728 14.904C207.944 15.144 207.224 15.496 206.504 15.848L205.416 16.376L205.272 16.472C205.336 16.648 205.368 16.824 205.448 16.984C205.688 17.448 205.832 17.928 205.96 18.424C206.008 18.6 206.056 18.776 206.088 18.952C206.12 19.224 206.136 19.48 206.152 19.752C206.168 19.848 206.152 19.928 206.152 20.024C206.152 20.072 206.168 20.12 206.152 20.168C206.04 20.584 205.944 21 205.768 21.384C205.624 21.72 205.448 22.04 205.224 22.344C204.888 22.84 204.472 23.256 204.04 23.64C203.704 23.944 203.368 24.2 202.984 24.424C202.712 24.584 202.44 24.792 202.152 24.936C201.848 25.096 201.512 25.208 201.176 25.352C201.128 25.368 201.08 25.4 201.032 25.416C200.872 25.48 200.728 25.528 200.568 25.576C200.344 25.64 200.136 25.704 199.928 25.736ZM205.128 14.248C205.432 14.008 205.72 13.816 205.992 13.592C206.536 13.16 207.032 12.68 207.512 12.184C207.768 11.896 208.008 11.608 208.184 11.176C208.04 11.208 207.944 11.224 207.864 11.256C207.48 11.448 207.128 11.688 206.808 11.976C206.232 12.52 205.688 13.096 205.304 13.784C205.224 13.912 205.128 14.04 205.128 14.248ZM199.352 25.208C199.88 25.176 200.408 25.128 200.888 24.888C201.208 24.744 201.512 24.584 201.816 24.408C202.232 24.184 202.648 23.96 203.048 23.72C203.272 23.592 203.464 23.432 203.64 23.272C203.912 23.016 204.184 22.776 204.376 22.44C204.456 22.312 204.568 22.184 204.664 22.04C205.192 21.304 205.496 20.472 205.432 19.544C205.4 18.904 205.24 18.296 204.968 17.72C204.952 17.688 204.936 17.64 204.936 17.592C204.84 17.32 204.744 17.064 204.648 16.76L204.312 16.856C203.816 17 203.352 17.208 202.968 17.544C202.824 17.656 202.68 17.752 202.536 17.848C202.152 18.12 201.752 18.392 201.384 18.696C200.936 19.064 200.536 19.464 200.104 19.848C199.56 20.328 199.128 20.888 198.712 21.464C198.648 21.576 198.568 21.672 198.52 21.784C198.344 22.184 198.168 22.584 198.008 22.984C197.848 23.448 197.752 23.896 197.88 24.392C197.96 24.696 198.136 24.872 198.376 25.032C198.68 25.224 199.016 25.24 199.352 25.208ZM223.9 18.248C223.74 18.2 223.564 18.2 223.404 18.072C223.196 17.912 223.052 17.704 222.988 17.448C222.892 17.048 222.924 16.648 223.036 16.264C223.148 15.88 223.308 15.496 223.404 15.112C223.548 14.6 223.676 14.072 223.772 13.528C223.804 13.336 223.788 13.112 223.772 12.888C223.708 12.952 223.628 13 223.532 13.032C223.26 13.128 223.004 13.304 222.732 13.464C222.652 13.496 222.572 13.56 222.444 13.512C222.364 13.496 222.252 13.544 222.188 13.576C222.012 13.688 221.852 13.816 221.676 13.928C221.436 14.12 221.164 14.264 220.876 14.392C220.268 14.664 219.692 14.984 219.1 15.272C218.924 15.368 218.732 15.464 218.556 15.528C217.964 15.784 217.388 16.008 216.812 16.264C216.476 16.408 216.172 16.616 215.836 16.776C215.5 16.952 215.164 17.128 214.796 17.208C214.492 17.288 214.188 17.432 213.884 17.512C213.34 17.624 212.796 17.64 212.252 17.528C211.548 17.352 211.1 16.776 211.132 16.024C211.148 15.8 211.212 15.576 211.308 15.352C211.42 15.064 211.564 14.792 211.74 14.552C211.916 14.296 212.108 14.088 212.316 13.88C212.54 13.64 212.796 13.432 213.036 13.224C213.436 12.888 213.836 12.552 214.332 12.344L214.38 12.312C214.94 11.96 215.532 11.816 216.172 11.784C216.556 11.752 216.876 11.848 217.18 12.008C217.404 12.152 217.532 12.552 217.484 12.808C217.436 13.096 217.292 13.336 217.1 13.544C216.668 14.056 216.14 14.408 215.532 14.648C215.308 14.728 215.068 14.728 214.844 14.696C214.556 14.648 214.428 14.248 214.524 14.056C214.54 13.992 214.62 13.896 214.7 13.88C214.828 13.848 214.956 13.832 215.084 13.864C215.228 13.88 215.34 13.848 215.436 13.8C215.804 13.624 216.156 13.4 216.412 13.064C216.508 12.984 216.572 12.856 216.652 12.696C216.556 12.664 216.476 12.648 216.396 12.632C215.98 12.568 215.596 12.664 215.228 12.792C215.1 12.84 215.004 12.936 214.892 13C214.316 13.304 213.772 13.64 213.308 14.088C213.148 14.264 212.988 14.408 212.828 14.584C212.716 14.696 212.636 14.824 212.476 14.872C212.156 15.272 211.804 15.64 211.82 16.216C211.836 16.408 211.916 16.552 212.076 16.664C212.396 16.888 212.78 16.952 213.164 16.904C213.66 16.856 214.092 16.648 214.54 16.504C214.716 16.456 214.892 16.408 215.036 16.344C215.244 16.28 215.42 16.184 215.628 16.104L215.9 16.024L216.268 15.88C216.428 15.816 216.572 15.768 216.716 15.688C216.908 15.592 217.084 15.496 217.292 15.416C217.596 15.272 217.916 15.128 218.22 15C218.476 14.872 218.716 14.728 218.972 14.616C219.516 14.296 220.076 13.992 220.636 13.688C221.164 13.416 221.676 13.096 222.188 12.808L222.988 12.376C223.036 12.312 223.068 12.248 223.1 12.2C223.18 12.088 223.212 11.944 223.26 11.832C223.276 11.768 223.228 11.704 223.196 11.656C223.084 11.448 222.972 11.272 222.892 11.048C222.796 10.824 222.828 10.6 222.988 10.408C223.228 10.072 223.788 10.024 224.076 10.328C224.108 10.344 224.124 10.36 224.14 10.392C224.236 10.68 224.3 10.968 224.204 11.272C224.188 11.336 224.156 11.416 224.14 11.464C224.108 11.576 224.124 11.672 224.188 11.784C224.364 12.12 224.46 12.488 224.508 12.888C224.556 13.272 224.508 13.672 224.444 14.056C224.412 14.296 224.316 14.536 224.268 14.776C224.268 14.792 224.252 14.808 224.252 14.824C224.044 15.528 223.756 16.184 223.628 16.904C223.596 16.968 223.58 17.048 223.564 17.128C223.532 17.432 223.804 17.72 224.124 17.688C224.492 17.64 224.86 17.576 225.196 17.384C225.436 17.224 225.692 17.112 225.932 16.984C226.396 16.712 226.86 16.44 227.292 16.168C227.692 15.912 228.06 15.608 228.396 15.304C228.652 15.096 228.876 14.824 229.116 14.6C229.228 14.456 229.372 14.328 229.5 14.2C229.612 14.072 229.772 14.04 229.916 14.088C230.028 14.168 230.108 14.28 230.06 14.408C229.996 14.632 229.884 14.792 229.692 14.936C229.644 14.968 229.564 15 229.548 15.048C229.308 15.384 228.988 15.592 228.7 15.832C228.444 16.024 228.204 16.216 227.964 16.408L227.036 17.096C226.94 17.144 226.828 17.176 226.732 17.24C226.444 17.416 226.14 17.608 225.836 17.768C225.532 17.928 225.212 18.072 224.892 18.168C224.588 18.264 224.252 18.328 223.9 18.248ZM229.42 18.888C229.148 18.936 228.844 18.792 228.7 18.552C228.556 18.296 228.476 18.04 228.476 17.72C228.476 17.176 228.604 16.664 228.716 16.152C228.78 15.88 228.908 15.608 228.972 15.352C229.084 14.872 229.308 14.44 229.468 13.976C229.532 13.752 229.66 13.544 229.756 13.32C229.836 13.16 229.98 13.128 230.124 13.128C230.284 13.112 230.444 13.16 230.508 13.32C230.556 13.384 230.54 13.496 230.524 13.592C230.476 13.768 230.428 13.928 230.348 14.088C230.3 14.216 230.252 14.36 230.156 14.472C229.948 14.728 229.836 15.032 229.772 15.352C229.756 15.416 229.756 15.48 229.74 15.544C229.5 16.056 229.372 16.6 229.308 17.144C229.292 17.32 229.244 17.496 229.228 17.672C229.212 17.752 229.212 17.832 229.228 17.912C229.276 18.2 229.468 18.28 229.708 18.104C230.012 17.88 230.332 17.688 230.636 17.448C231.116 17.064 231.564 16.664 232.028 16.264C232.268 16.056 232.476 15.848 232.7 15.64C233.132 15.24 233.58 14.856 233.948 14.376C234.06 14.248 234.204 14.136 234.348 14.024C234.444 13.944 234.508 13.864 234.46 13.736C234.332 13.304 234.556 13.016 234.876 12.792C235.052 12.664 235.212 12.52 235.388 12.392C235.628 12.216 235.884 12.104 236.204 12.136C236.524 12.168 236.668 12.408 236.556 12.712C236.476 12.952 236.3 13.096 236.156 13.272C236.092 13.336 236.044 13.4 235.964 13.512C236.508 13.56 237.148 13.592 237.644 13.544C237.932 13.528 238.204 13.544 238.492 13.544C238.876 13.544 240.476 13.544 240.86 13.528C241.132 13.528 241.388 13.528 241.66 13.512H241.772C241.932 13.544 242.06 13.656 242.076 13.8C242.108 13.928 242.028 14.088 241.884 14.136C241.756 14.184 241.612 14.232 241.468 14.2C241.132 14.136 240.78 14.056 239.228 14.056C238.748 14.04 238.284 13.992 237.82 14.008C237.068 14.024 236.172 14.088 235.42 14.136C235.356 14.136 235.276 14.152 235.228 14.184C234.86 14.408 234.556 14.68 234.268 14.984C233.836 15.4 233.388 15.816 232.94 16.216C232.588 16.536 232.236 16.856 231.868 17.176C231.436 17.56 231.004 17.96 230.54 18.312C230.22 18.584 229.852 18.808 229.42 18.888ZM240.536 18.376C239.8 18.2 239.335 17.608 239.367 16.824C239.383 16.584 239.447 16.36 239.543 16.12C239.671 15.816 239.816 15.544 240.008 15.288C240.184 15.032 240.392 14.808 240.6 14.584C240.84 14.344 241.096 14.12 241.352 13.912C241.768 13.56 242.184 13.208 242.696 13L242.744 12.968C243.32 12.6 243.944 12.44 244.616 12.408C245 12.376 245.336 12.472 245.656 12.648C245.896 12.792 246.024 13.208 245.976 13.48C245.928 13.784 245.768 14.024 245.576 14.248C245.128 14.776 244.568 15.144 243.944 15.384C243.704 15.48 243.464 15.48 243.224 15.432C242.936 15.384 242.792 14.968 242.888 14.776C242.92 14.712 243 14.616 243.08 14.6C243.208 14.552 243.352 14.536 243.48 14.568C243.624 14.584 243.736 14.552 243.848 14.504C244.232 14.328 244.584 14.088 244.856 13.752C244.952 13.656 245.016 13.528 245.112 13.368C245 13.336 244.92 13.304 244.84 13.288C244.408 13.224 244.008 13.32 243.624 13.464C243.496 13.512 243.4 13.608 243.272 13.672C242.68 13.992 242.12 14.344 241.624 14.808C241.464 14.984 241.304 15.144 241.128 15.32C241.016 15.432 240.936 15.576 240.76 15.624C240.44 16.04 240.072 16.424 240.088 17.016C240.104 17.224 240.184 17.368 240.344 17.48C240.68 17.72 241.08 17.784 241.48 17.736C241.992 17.688 242.44 17.464 242.92 17.32C243.096 17.272 243.272 17.224 243.432 17.16C243.64 17.08 243.832 16.984 244.04 16.904C244.136 16.872 244.232 16.856 244.328 16.824C244.456 16.776 244.584 16.728 244.712 16.664C244.872 16.6 245.016 16.552 245.176 16.472C245.368 16.376 245.56 16.264 245.768 16.184L246.744 15.752L247.512 15.352C248.088 15.032 248.664 14.712 249.256 14.392C249.8 14.104 250.328 13.784 250.856 13.48C251.272 13.256 251.672 13.016 252.088 12.808C252.216 12.744 252.376 12.728 252.536 12.744C252.728 12.76 252.84 12.936 252.76 13.128C252.664 13.384 252.536 13.592 252.264 13.704C251.976 13.816 251.704 13.992 251.432 14.152C251.336 14.2 251.256 14.264 251.128 14.216C251.048 14.2 250.936 14.248 250.856 14.28C250.68 14.392 250.504 14.52 250.328 14.648C250.072 14.84 249.8 14.984 249.496 15.128C248.872 15.4 248.264 15.736 247.656 16.04C247.464 16.136 247.272 16.232 247.08 16.312C246.472 16.568 245.864 16.808 245.272 17.064C244.92 17.224 244.6 17.432 244.264 17.608C243.911 17.784 243.56 17.96 243.176 18.056C242.856 18.136 242.552 18.28 242.232 18.36C241.672 18.488 241.096 18.504 240.536 18.376ZM252.844 21.864C252.556 21.96 252.236 21.688 252.3 21.384C252.348 21.08 252.396 20.792 252.476 20.504C252.556 20.152 252.684 19.816 252.796 19.464L252.892 19.192L253.228 18.2C253.324 17.944 253.388 17.688 253.484 17.448C253.676 16.952 253.884 16.456 254.076 15.96C254.188 15.672 254.3 15.4 254.396 15.128C254.412 15.064 254.412 15 254.428 14.904C254.364 14.936 254.332 14.936 254.3 14.952C254.06 15.176 253.804 15.4 253.5 15.576C253.196 15.752 252.924 15.976 252.62 16.168C252.268 16.392 251.9 16.584 251.532 16.776C251.388 16.856 251.196 16.872 251.052 16.936C250.668 17.128 250.252 17.224 249.836 17.272C249.772 17.272 249.708 17.288 249.66 17.272C248.908 17.096 248.62 16.28 249.052 15.736L249.164 15.592C249.26 15.32 249.468 15.112 249.644 14.888C249.82 14.632 250.06 14.44 250.268 14.216C250.412 14.072 250.556 13.928 250.716 13.8C250.908 13.64 251.1 13.496 251.292 13.352C251.58 13.16 251.852 12.952 252.14 12.792C252.46 12.616 252.796 12.456 253.132 12.312C253.564 12.136 254.012 12.024 254.476 11.96C254.604 11.944 254.716 11.944 254.828 11.976C254.94 11.992 255.02 11.992 255.116 11.896C255.196 11.816 255.324 11.784 255.452 11.736C255.564 11.704 255.692 11.704 255.82 11.672C256.028 11.256 256.22 10.84 256.428 10.44C256.572 10.12 256.748 9.8 256.892 9.48C256.956 9.352 256.988 9.192 257.068 9.048C257.244 8.68 257.436 8.312 257.628 7.944L258.348 6.6C258.364 6.536 258.396 6.44 258.364 6.376C258.268 6.152 258.332 5.96 258.444 5.784C258.716 5.32 258.988 4.856 259.276 4.408C259.564 3.96 259.868 3.528 260.172 3.08L260.94 1.912C261.084 1.672 261.244 1.432 261.404 1.208C261.532 1.016 261.74 0.952 261.964 0.967999C262.172 0.967999 262.3 1.16 262.236 1.368C262.172 1.576 262.076 1.736 261.932 1.864C261.596 2.168 261.356 2.536 261.116 2.904C260.94 3.176 260.764 3.432 260.604 3.704C260.396 4.072 260.188 4.456 259.98 4.84C259.804 5.224 259.612 5.592 259.436 5.976L258.908 7.16C258.844 7.304 258.78 7.448 258.7 7.592C258.284 8.392 257.868 9.192 257.468 9.992C257.196 10.52 256.988 11.064 256.732 11.592C256.428 12.264 256.108 12.92 255.804 13.576C255.548 14.152 255.308 14.712 255.068 15.288C254.636 16.36 254.204 17.432 253.788 18.504C253.5 19.256 253.276 20.008 253.228 20.808C253.196 21.032 253.164 21.256 253.116 21.48C253.084 21.64 253.036 21.8 252.844 21.864ZM249.852 16.6C250.044 16.552 250.236 16.488 250.396 16.408C250.716 16.248 250.988 16.04 251.308 15.896C251.836 15.624 252.284 15.256 252.78 14.936C252.924 14.856 253.068 14.76 253.196 14.648C253.58 14.36 253.964 14.072 254.316 13.752C254.46 13.608 254.62 13.496 254.764 13.352C254.876 13.256 254.956 13.144 255.068 13.032L255.036 12.952C254.62 12.92 254.204 12.92 253.788 13.048C253.532 13.144 253.26 13.24 253.02 13.384C252.604 13.624 252.188 13.896 251.788 14.168C251.548 14.328 251.356 14.504 251.132 14.664C250.62 15.032 250.172 15.448 249.772 15.912C249.66 16.04 249.612 16.2 249.58 16.344C249.532 16.536 249.66 16.648 249.852 16.6ZM266.025 18.904C265.801 18.76 265.625 18.568 265.657 18.28C265.673 18.136 265.721 17.992 265.753 17.864C265.769 17.832 265.785 17.816 265.785 17.8C265.849 17.4 266.089 17.08 266.249 16.728C266.553 16.072 266.873 15.432 267.209 14.792C267.481 14.264 267.785 13.752 268.057 13.224C268.249 12.872 268.425 12.504 268.617 12.152C268.953 11.528 269.305 10.92 269.657 10.296C269.897 9.88 270.121 9.464 270.345 9.032C270.761 8.232 271.177 7.4 271.609 6.6C271.881 6.104 272.153 5.608 272.441 5.112C272.441 5.096 272.457 5.08 272.457 5.064C272.649 4.76 272.825 4.456 273.001 4.152C273.145 3.896 273.289 3.64 273.433 3.4C273.529 3.224 273.657 3.08 273.769 2.92C273.961 2.6 274.153 2.264 274.361 1.944C274.457 1.784 274.585 1.64 274.697 1.496C274.809 1.352 275.065 1.304 275.289 1.368C275.481 1.448 275.593 1.624 275.593 1.832C275.577 1.944 275.577 2.056 275.577 2.184C275.561 2.44 275.305 2.664 275.033 2.632C275.017 2.616 274.985 2.632 274.969 2.632C274.713 2.952 274.473 3.272 274.233 3.592C274.105 3.784 274.009 4.008 273.801 4.136C273.769 4.152 273.737 4.2 273.705 4.248C273.465 4.712 273.209 5.16 272.969 5.608C272.889 5.752 272.809 5.896 272.745 6.04C272.457 6.568 272.185 7.096 271.897 7.608C271.801 7.8 271.689 7.976 271.561 8.168C271.193 8.744 270.889 9.368 270.585 10.008C270.361 10.472 270.121 10.92 269.865 11.384C269.609 11.864 269.353 12.328 269.065 12.808C268.729 13.384 268.441 13.992 268.169 14.6L267.353 16.472L266.969 17.24L266.921 17.352C266.937 17.368 266.937 17.384 266.953 17.384C267.097 17.272 267.257 17.16 267.401 17.064C267.961 16.68 268.505 16.28 269.081 15.912C269.369 15.72 269.673 15.576 269.977 15.432C270.425 15.208 270.873 14.984 271.337 14.792C271.657 14.664 271.993 14.584 272.329 14.488C272.457 14.44 272.585 14.44 272.713 14.408C273.081 14.296 273.449 14.344 273.817 14.408C274.009 14.44 274.217 14.584 274.361 14.744C274.537 14.92 274.505 15.176 274.441 15.4C274.361 15.688 274.217 15.944 273.977 16.168C273.769 16.376 273.577 16.584 273.289 16.696C273.065 16.792 272.873 16.952 272.633 17.032C272.249 17.16 271.849 17.288 271.433 17.336C270.953 17.384 270.473 17.496 269.993 17.384C269.737 17.304 269.481 17.224 269.225 17.112C269.081 17.032 268.953 17.032 268.825 17.112C268.233 17.48 267.625 17.8 267.145 18.296C266.985 18.472 266.825 18.632 266.665 18.792C266.473 18.952 266.233 19.016 266.025 18.904ZM271.049 16.552C271.465 16.504 271.881 16.44 272.249 16.264C272.665 16.072 273.081 15.848 273.481 15.624C273.593 15.544 273.705 15.416 273.785 15.288C273.865 15.176 273.817 15.048 273.673 15.032C273.529 15 273.353 14.984 273.225 15.032C272.665 15.224 272.105 15.432 271.545 15.656C271.129 15.832 270.713 16.056 270.297 16.264L270.153 16.344C270.281 16.408 270.345 16.456 270.409 16.456C270.617 16.488 270.841 16.424 271.049 16.552ZM272.151 32.536C271.959 32.328 271.815 32.12 272.055 31.864C272.231 31.672 272.375 31.432 272.519 31.192C272.727 30.936 272.951 30.68 273.127 30.392C273.367 30.056 273.687 29.752 273.815 29.352C273.831 29.32 273.831 29.304 273.879 29.288C274.167 28.856 274.487 28.424 274.791 28.024C275.079 27.608 275.367 27.208 275.639 26.776C275.991 26.248 276.359 25.704 276.727 25.176C276.839 25.032 276.919 24.888 277.015 24.744C277.527 23.96 278.055 23.176 278.551 22.424C278.807 21.992 279.031 21.576 279.271 21.192C279.591 20.696 279.911 20.184 280.199 19.704C280.407 19.336 280.599 18.968 280.775 18.616C280.967 18.28 281.143 17.976 281.287 17.672C281.543 17.176 281.831 16.728 282.007 16.2C282.023 16.12 282.055 16.072 282.119 16.008C282.407 15.496 282.583 14.936 282.743 14.36L282.695 14.312L282.247 14.616L282.135 14.728L280.743 15.656C280.215 16.008 279.703 16.328 279.223 16.696C278.679 17.096 278.103 17.432 277.511 17.688C277.175 17.848 276.839 17.864 276.487 17.832C276.247 17.8 276.087 17.656 275.959 17.464C275.847 17.24 275.751 17 275.799 16.696C275.927 16.056 276.151 15.464 276.503 14.904C276.679 14.664 276.775 14.344 276.919 14.088C277.255 13.512 277.623 12.968 278.039 12.472C278.183 12.28 278.503 12.216 278.695 12.296C278.871 12.376 278.935 12.488 278.887 12.648C278.775 12.984 278.631 13.368 278.295 13.592C278.151 13.672 278.071 13.864 277.991 13.992C277.687 14.488 277.431 15.032 277.111 15.496C276.855 15.832 276.711 16.2 276.567 16.568C276.535 16.696 276.439 16.888 276.583 17.032C276.759 17.176 276.919 17.128 277.111 17.08C277.719 16.824 278.247 16.472 278.791 16.088C279.255 15.752 279.703 15.432 280.183 15.112C280.247 15.064 280.279 15.032 280.343 15C280.663 14.728 280.999 14.52 281.319 14.264C281.415 14.216 281.479 14.12 281.575 14.04C281.911 13.768 282.183 13.496 282.599 13.368C282.807 13.304 282.999 13.256 283.223 13.208C283.623 13.176 283.895 13.496 283.863 13.88C283.815 14.296 283.671 14.68 283.511 15.048C283.127 15.816 282.759 16.568 282.375 17.304C281.959 18.04 281.479 18.744 281.063 19.464C280.775 19.944 280.439 20.392 280.263 20.936C280.087 21.368 279.815 21.736 279.575 22.136C279.223 22.712 278.871 23.288 278.503 23.848C278.247 24.232 277.959 24.6 277.703 25C277.591 25.176 277.479 25.368 277.367 25.576C276.951 26.2 276.567 26.856 276.151 27.48C275.879 27.944 275.543 28.392 275.223 28.84C274.727 29.544 274.215 30.248 273.751 30.952C273.527 31.288 273.303 31.64 273.111 31.976C272.999 32.2 272.855 32.344 272.727 32.488C272.535 32.68 272.279 32.68 272.151 32.536ZM298.578 21.864C298.29 21.96 297.97 21.688 298.034 21.384C298.082 21.08 298.13 20.792 298.21 20.504C298.29 20.152 298.418 19.816 298.53 19.464L298.626 19.192L298.962 18.2C299.058 17.944 299.122 17.688 299.218 17.448C299.41 16.952 299.618 16.456 299.81 15.96C299.922 15.672 300.034 15.4 300.13 15.128C300.146 15.064 300.146 15 300.162 14.904C300.098 14.936 300.066 14.936 300.034 14.952C299.794 15.176 299.538 15.4 299.234 15.576C298.93 15.752 298.658 15.976 298.354 16.168C298.002 16.392 297.634 16.584 297.266 16.776C297.122 16.856 296.93 16.872 296.786 16.936C296.402 17.128 295.986 17.224 295.57 17.272C295.506 17.272 295.442 17.288 295.394 17.272C294.642 17.096 294.354 16.28 294.786 15.736L294.898 15.592C294.994 15.32 295.202 15.112 295.378 14.888C295.554 14.632 295.794 14.44 296.002 14.216C296.146 14.072 296.29 13.928 296.45 13.8C296.642 13.64 296.834 13.496 297.026 13.352C297.314 13.16 297.586 12.952 297.874 12.792C298.194 12.616 298.53 12.456 298.866 12.312C299.298 12.136 299.746 12.024 300.21 11.96C300.338 11.944 300.45 11.944 300.562 11.976C300.674 11.992 300.754 11.992 300.85 11.896C300.93 11.816 301.058 11.784 301.186 11.736C301.298 11.704 301.426 11.704 301.554 11.672C301.762 11.256 301.954 10.84 302.162 10.44C302.306 10.12 302.482 9.8 302.626 9.48C302.69 9.352 302.722 9.192 302.802 9.048C302.978 8.68 303.17 8.312 303.362 7.944L304.082 6.6C304.098 6.536 304.13 6.44 304.098 6.376C304.002 6.152 304.066 5.96 304.178 5.784C304.45 5.32 304.722 4.856 305.01 4.408C305.298 3.96 305.602 3.528 305.906 3.08L306.674 1.912C306.818 1.672 306.978 1.432 307.138 1.208C307.266 1.016 307.474 0.952 307.698 0.967999C307.906 0.967999 308.034 1.16 307.97 1.368C307.906 1.576 307.81 1.736 307.666 1.864C307.33 2.168 307.09 2.536 306.85 2.904C306.674 3.176 306.498 3.432 306.338 3.704C306.13 4.072 305.922 4.456 305.714 4.84C305.538 5.224 305.346 5.592 305.17 5.976L304.642 7.16C304.578 7.304 304.514 7.448 304.434 7.592C304.018 8.392 303.602 9.192 303.202 9.992C302.93 10.52 302.722 11.064 302.466 11.592C302.162 12.264 301.842 12.92 301.538 13.576C301.282 14.152 301.042 14.712 300.802 15.288C300.37 16.36 299.938 17.432 299.522 18.504C299.234 19.256 299.01 20.008 298.962 20.808C298.93 21.032 298.898 21.256 298.85 21.48C298.818 21.64 298.77 21.8 298.578 21.864ZM295.586 16.6C295.778 16.552 295.97 16.488 296.13 16.408C296.45 16.248 296.722 16.04 297.042 15.896C297.57 15.624 298.018 15.256 298.514 14.936C298.658 14.856 298.802 14.76 298.93 14.648C299.314 14.36 299.698 14.072 300.05 13.752C300.194 13.608 300.354 13.496 300.498 13.352C300.61 13.256 300.69 13.144 300.802 13.032L300.77 12.952C300.354 12.92 299.938 12.92 299.522 13.048C299.266 13.144 298.994 13.24 298.754 13.384C298.338 13.624 297.922 13.896 297.522 14.168C297.282 14.328 297.09 14.504 296.866 14.664C296.354 15.032 295.906 15.448 295.506 15.912C295.394 16.04 295.346 16.2 295.314 16.344C295.266 16.536 295.394 16.648 295.586 16.6ZM306.31 12.28C306.102 12.376 305.83 12.344 305.686 12.184C305.542 11.992 305.51 11.688 305.654 11.496C305.83 11.272 306.07 11.144 306.358 11.096C306.854 11 307.35 10.888 307.83 10.776C308.15 10.712 308.47 10.664 308.726 10.904C308.822 10.984 308.87 11.096 308.902 11.144C308.886 11.384 308.646 11.672 308.438 11.736C308.31 11.768 308.182 11.8 308.054 11.816L306.582 12.152C306.486 12.168 306.39 12.232 306.31 12.28ZM304.422 18.52C303.894 18.696 303.174 18.456 302.822 18.008C302.502 17.576 302.389 17.096 302.454 16.552C302.486 16.296 302.582 16.056 302.662 15.816C302.806 15.384 303.046 15.016 303.286 14.648C303.622 14.152 304.038 13.72 304.502 13.336C304.662 13.192 304.87 13.176 305.078 13.16H305.27C305.542 13.192 305.638 13.384 305.51 13.608C305.446 13.704 305.366 13.816 305.286 13.896C305.062 14.104 304.838 14.312 304.549 14.44C304.518 14.456 304.47 14.504 304.47 14.552C304.422 14.776 304.262 14.936 304.118 15.112C303.958 15.32 303.814 15.528 303.702 15.768C303.51 16.168 303.382 16.6 303.27 17.032C303.174 17.352 303.286 17.624 303.542 17.816C303.638 17.896 303.782 17.96 303.894 17.944C304.214 17.928 304.518 17.88 304.838 17.816C305.126 17.768 305.414 17.672 305.686 17.576C305.958 17.496 306.214 17.384 306.486 17.32C307.126 17.144 307.654 16.76 308.214 16.408C308.742 16.088 309.302 15.768 309.814 15.4C310.246 15.112 310.678 14.824 311.126 14.568C311.35 14.44 311.542 14.248 311.734 14.072C311.91 13.944 312.07 13.8 312.23 13.672C312.358 13.576 312.598 13.608 312.726 13.72C312.822 13.832 312.854 14.008 312.758 14.136C312.678 14.248 312.582 14.344 312.47 14.424C312.166 14.664 311.862 14.888 311.542 15.112C311.382 15.224 311.206 15.352 311.03 15.432C310.566 15.608 310.198 15.928 309.814 16.216C309.27 16.616 308.694 17 308.054 17.256C307.574 17.448 307.11 17.688 306.614 17.864C306.006 18.088 305.366 18.248 304.742 18.44C304.646 18.472 304.534 18.488 304.422 18.52ZM310.151 20.904C309.959 20.808 309.815 20.664 309.735 20.488C309.607 20.232 309.511 19.944 309.575 19.656C309.623 19.32 309.703 18.984 309.783 18.664C309.943 17.912 310.327 17.256 310.583 16.536C310.727 16.104 310.983 15.72 311.175 15.304C311.367 14.936 311.559 14.584 311.735 14.216C311.927 13.848 312.087 13.448 312.311 13.096C312.519 12.776 312.663 12.408 312.855 12.072C312.999 11.816 313.159 11.576 313.303 11.32C313.431 11.08 313.543 10.84 313.671 10.616C313.815 10.344 314.007 10.088 314.167 9.816C314.359 9.48 314.535 9.128 314.727 8.792L315.031 8.296C315.175 8.072 315.335 7.864 315.479 7.64C315.639 7.384 315.783 7.112 315.943 6.856C315.975 6.792 316.007 6.728 316.039 6.68C316.311 6.296 316.567 5.896 316.855 5.528C317.191 5.08 317.495 4.6 317.879 4.184C318.071 3.992 318.263 3.912 318.519 3.912C318.887 3.944 319.031 4.104 318.999 4.504C319.015 4.696 318.935 4.872 318.807 5.048C318.727 5.16 318.631 5.224 318.487 5.192C318.167 5.128 317.927 5.304 317.735 5.512C317.495 5.784 317.287 6.072 317.079 6.36C316.935 6.552 316.791 6.76 316.663 6.968C316.471 7.256 316.279 7.544 316.103 7.848L314.919 9.912C314.727 10.264 314.519 10.616 314.327 10.984C314.247 11.112 314.199 11.256 314.135 11.4C313.911 11.816 313.703 12.232 313.479 12.664C313.383 12.856 313.287 13.048 313.191 13.224C312.951 13.688 312.711 14.152 312.471 14.6C312.231 15.096 311.975 15.592 311.751 16.088C311.591 16.44 311.463 16.808 311.287 17.144C311.015 17.704 310.823 18.28 310.631 18.856C310.519 19.24 310.471 19.64 310.391 20.024C310.343 20.2 310.439 20.296 310.535 20.408C310.599 20.488 310.695 20.472 310.775 20.424C311.031 20.296 311.271 20.184 311.527 20.04C312.007 19.784 312.503 19.496 312.983 19.224C313.159 19.128 313.303 19 313.463 18.888C313.767 18.68 314.087 18.488 314.375 18.28C314.567 18.152 314.759 18.024 314.951 17.88C315.063 17.8 315.191 17.704 315.319 17.624L316.567 16.664C316.823 16.456 317.063 16.232 317.335 16.024C317.559 15.848 317.799 15.688 318.023 15.512C318.199 15.384 318.359 15.256 318.519 15.112C318.695 14.92 318.919 14.856 319.175 14.904C319.399 14.952 319.479 15.128 319.415 15.352C319.303 15.688 319.015 15.864 318.743 16.008C318.199 16.28 317.687 16.584 317.207 16.968C316.743 17.32 316.263 17.656 315.783 18.008L314.919 18.616C314.839 18.664 314.759 18.712 314.711 18.776C314.231 19.224 313.671 19.528 313.143 19.912C312.615 20.264 312.055 20.584 311.479 20.824C311.063 21 310.615 21.144 310.151 20.904ZM317.604 20.904C317.412 20.808 317.268 20.664 317.188 20.488C317.06 20.232 316.964 19.944 317.028 19.656C317.076 19.32 317.156 18.984 317.236 18.664C317.396 17.912 317.78 17.256 318.036 16.536C318.18 16.104 318.436 15.72 318.628 15.304C318.82 14.936 319.012 14.584 319.188 14.216C319.38 13.848 319.54 13.448 319.764 13.096C319.972 12.776 320.116 12.408 320.308 12.072C320.452 11.816 320.612 11.576 320.756 11.32C320.884 11.08 320.996 10.84 321.124 10.616C321.268 10.344 321.46 10.088 321.62 9.816C321.812 9.48 321.988 9.128 322.18 8.792L322.484 8.296C322.628 8.072 322.788 7.864 322.932 7.64C323.092 7.384 323.236 7.112 323.396 6.856C323.428 6.792 323.46 6.728 323.492 6.68C323.764 6.296 324.02 5.896 324.308 5.528C324.644 5.08 324.948 4.6 325.332 4.184C325.524 3.992 325.716 3.912 325.972 3.912C326.34 3.944 326.484 4.104 326.452 4.504C326.468 4.696 326.388 4.872 326.26 5.048C326.18 5.16 326.084 5.224 325.94 5.192C325.62 5.128 325.38 5.304 325.188 5.512C324.948 5.784 324.74 6.072 324.532 6.36C324.388 6.552 324.244 6.76 324.116 6.968C323.924 7.256 323.732 7.544 323.556 7.848L322.372 9.912C322.18 10.264 321.972 10.616 321.78 10.984C321.7 11.112 321.652 11.256 321.588 11.4C321.364 11.816 321.156 12.232 320.932 12.664C320.836 12.856 320.74 13.048 320.644 13.224C320.404 13.688 320.164 14.152 319.924 14.6C319.684 15.096 319.428 15.592 319.204 16.088C319.044 16.44 318.916 16.808 318.74 17.144C318.468 17.704 318.276 18.28 318.084 18.856C317.972 19.24 317.924 19.64 317.844 20.024C317.796 20.2 317.892 20.296 317.988 20.408C318.052 20.488 318.148 20.472 318.228 20.424C318.484 20.296 318.724 20.184 318.98 20.04C319.46 19.784 319.956 19.496 320.436 19.224C320.612 19.128 320.756 19 320.916 18.888C321.22 18.68 321.54 18.488 321.828 18.28C322.02 18.152 322.212 18.024 322.404 17.88C322.516 17.8 322.644 17.704 322.772 17.624L324.02 16.664C324.276 16.456 324.516 16.232 324.788 16.024C325.012 15.848 325.252 15.688 325.476 15.512C325.652 15.384 325.812 15.256 325.972 15.112C326.148 14.92 326.372 14.856 326.628 14.904C326.852 14.952 326.932 15.128 326.868 15.352C326.756 15.688 326.468 15.864 326.196 16.008C325.652 16.28 325.14 16.584 324.66 16.968C324.196 17.32 323.716 17.656 323.236 18.008L322.372 18.616C322.292 18.664 322.212 18.712 322.164 18.776C321.684 19.224 321.124 19.528 320.596 19.912C320.068 20.264 319.508 20.584 318.932 20.824C318.516 21 318.068 21.144 317.604 20.904ZM329.481 12.28C329.273 12.376 329.001 12.344 328.857 12.184C328.713 11.992 328.681 11.688 328.825 11.496C329.001 11.272 329.241 11.144 329.529 11.096C330.025 11 330.521 10.888 331.001 10.776C331.321 10.712 331.641 10.664 331.897 10.904C331.993 10.984 332.041 11.096 332.073 11.144C332.057 11.384 331.817 11.672 331.609 11.736C331.481 11.768 331.353 11.8 331.225 11.816L329.753 12.152C329.657 12.168 329.561 12.232 329.481 12.28ZM327.593 18.52C327.065 18.696 326.345 18.456 325.993 18.008C325.673 17.576 325.561 17.096 325.625 16.552C325.657 16.296 325.753 16.056 325.833 15.816C325.977 15.384 326.217 15.016 326.457 14.648C326.793 14.152 327.209 13.72 327.673 13.336C327.833 13.192 328.041 13.176 328.249 13.16H328.441C328.713 13.192 328.809 13.384 328.681 13.608C328.617 13.704 328.537 13.816 328.457 13.896C328.233 14.104 328.009 14.312 327.721 14.44C327.689 14.456 327.641 14.504 327.641 14.552C327.593 14.776 327.433 14.936 327.289 15.112C327.129 15.32 326.985 15.528 326.873 15.768C326.681 16.168 326.553 16.6 326.441 17.032C326.345 17.352 326.457 17.624 326.713 17.816C326.809 17.896 326.953 17.96 327.065 17.944C327.385 17.928 327.689 17.88 328.009 17.816C328.297 17.768 328.585 17.672 328.857 17.576C329.129 17.496 329.385 17.384 329.657 17.32C330.297 17.144 330.825 16.76 331.385 16.408C331.913 16.088 332.473 15.768 332.985 15.4C333.417 15.112 333.849 14.824 334.297 14.568C334.521 14.44 334.713 14.248 334.905 14.072C335.081 13.944 335.241 13.8 335.401 13.672C335.529 13.576 335.769 13.608 335.897 13.72C335.993 13.832 336.025 14.008 335.929 14.136C335.849 14.248 335.753 14.344 335.641 14.424C335.337 14.664 335.033 14.888 334.713 15.112C334.553 15.224 334.377 15.352 334.201 15.432C333.737 15.608 333.369 15.928 332.985 16.216C332.441 16.616 331.865 17 331.225 17.256C330.745 17.448 330.281 17.688 329.785 17.864C329.177 18.088 328.537 18.248 327.913 18.44C327.817 18.472 327.705 18.488 327.593 18.52ZM336.043 16.216C335.899 16.216 335.755 16.2 335.627 16.184C335.467 16.168 335.387 16.024 335.355 15.848C335.355 15.704 335.435 15.576 335.595 15.56C335.755 15.528 335.914 15.544 336.075 15.528V15.56C336.171 15.56 336.283 15.56 336.395 15.544C336.971 15.512 337.547 15.464 338.171 15.432C338.715 15.368 339.275 15.352 339.819 15.32C340.219 15.288 340.619 15.256 341.003 15.24C341.419 15.208 341.786 15.192 342.187 15.176L343.083 15.128C343.195 15.112 343.307 15.128 343.403 15.144C343.562 15.176 343.627 15.336 343.562 15.496C343.499 15.64 343.419 15.768 343.227 15.768L342.155 15.864L341.035 15.912C340.539 15.928 340.043 15.976 339.547 15.992C338.971 16.024 338.363 16.056 337.755 16.104C337.371 16.12 337.003 16.152 336.603 16.184C336.411 16.184 336.219 16.216 336.043 16.216ZM349.062 21.864C348.775 21.96 348.455 21.688 348.519 21.384C348.567 21.08 348.615 20.792 348.695 20.504C348.775 20.152 348.903 19.816 349.015 19.464L349.111 19.192L349.447 18.2C349.543 17.944 349.607 17.688 349.703 17.448C349.895 16.952 350.103 16.456 350.295 15.96C350.407 15.672 350.519 15.4 350.615 15.128C350.631 15.064 350.631 15 350.647 14.904C350.583 14.936 350.551 14.936 350.519 14.952C350.279 15.176 350.023 15.4 349.719 15.576C349.415 15.752 349.143 15.976 348.839 16.168C348.487 16.392 348.119 16.584 347.751 16.776C347.607 16.856 347.414 16.872 347.271 16.936C346.887 17.128 346.471 17.224 346.055 17.272C345.991 17.272 345.927 17.288 345.879 17.272C345.127 17.096 344.838 16.28 345.271 15.736L345.383 15.592C345.479 15.32 345.687 15.112 345.863 14.888C346.039 14.632 346.279 14.44 346.487 14.216C346.631 14.072 346.775 13.928 346.935 13.8C347.127 13.64 347.319 13.496 347.511 13.352C347.799 13.16 348.071 12.952 348.359 12.792C348.679 12.616 349.015 12.456 349.351 12.312C349.783 12.136 350.231 12.024 350.695 11.96C350.823 11.944 350.935 11.944 351.047 11.976C351.159 11.992 351.239 11.992 351.335 11.896C351.415 11.816 351.543 11.784 351.671 11.736C351.783 11.704 351.911 11.704 352.039 11.672C352.247 11.256 352.439 10.84 352.647 10.44C352.791 10.12 352.967 9.8 353.111 9.48C353.175 9.352 353.207 9.192 353.286 9.048C353.463 8.68 353.655 8.312 353.847 7.944L354.567 6.6C354.583 6.536 354.615 6.44 354.583 6.376C354.487 6.152 354.551 5.96 354.663 5.784C354.935 5.32 355.207 4.856 355.495 4.408C355.783 3.96 356.087 3.528 356.391 3.08L357.159 1.912C357.303 1.672 357.463 1.432 357.623 1.208C357.751 1.016 357.959 0.952 358.183 0.967999C358.391 0.967999 358.519 1.16 358.455 1.368C358.391 1.576 358.295 1.736 358.151 1.864C357.815 2.168 357.575 2.536 357.335 2.904C357.159 3.176 356.983 3.432 356.823 3.704C356.615 4.072 356.407 4.456 356.199 4.84C356.023 5.224 355.831 5.592 355.655 5.976L355.127 7.16C355.062 7.304 354.999 7.448 354.919 7.592C354.503 8.392 354.087 9.192 353.687 9.992C353.415 10.52 353.207 11.064 352.951 11.592C352.647 12.264 352.327 12.92 352.023 13.576C351.767 14.152 351.527 14.712 351.287 15.288C350.855 16.36 350.423 17.432 350.007 18.504C349.719 19.256 349.495 20.008 349.447 20.808C349.415 21.032 349.383 21.256 349.335 21.48C349.303 21.64 349.255 21.8 349.062 21.864ZM346.071 16.6C346.263 16.552 346.455 16.488 346.615 16.408C346.935 16.248 347.207 16.04 347.527 15.896C348.055 15.624 348.503 15.256 348.999 14.936C349.143 14.856 349.286 14.76 349.415 14.648C349.799 14.36 350.183 14.072 350.535 13.752C350.679 13.608 350.839 13.496 350.983 13.352C351.095 13.256 351.175 13.144 351.287 13.032L351.255 12.952C350.839 12.92 350.423 12.92 350.007 13.048C349.751 13.144 349.479 13.24 349.239 13.384C348.823 13.624 348.407 13.896 348.007 14.168C347.767 14.328 347.575 14.504 347.351 14.664C346.839 15.032 346.391 15.448 345.991 15.912C345.879 16.04 345.831 16.2 345.799 16.344C345.751 16.536 345.879 16.648 346.071 16.6ZM356.794 12.28C356.586 12.376 356.314 12.344 356.17 12.184C356.026 11.992 355.994 11.688 356.138 11.496C356.314 11.272 356.554 11.144 356.842 11.096C357.338 11 357.834 10.888 358.314 10.776C358.634 10.712 358.954 10.664 359.21 10.904C359.306 10.984 359.354 11.096 359.386 11.144C359.37 11.384 359.13 11.672 358.922 11.736C358.794 11.768 358.666 11.8 358.538 11.816L357.066 12.152C356.97 12.168 356.874 12.232 356.794 12.28ZM354.906 18.52C354.378 18.696 353.658 18.456 353.306 18.008C352.986 17.576 352.874 17.096 352.938 16.552C352.97 16.296 353.066 16.056 353.146 15.816C353.29 15.384 353.53 15.016 353.77 14.648C354.106 14.152 354.522 13.72 354.986 13.336C355.146 13.192 355.354 13.176 355.562 13.16H355.754C356.026 13.192 356.122 13.384 355.994 13.608C355.93 13.704 355.85 13.816 355.77 13.896C355.546 14.104 355.322 14.312 355.034 14.44C355.002 14.456 354.954 14.504 354.954 14.552C354.906 14.776 354.746 14.936 354.602 15.112C354.442 15.32 354.298 15.528 354.186 15.768C353.994 16.168 353.866 16.6 353.754 17.032C353.658 17.352 353.77 17.624 354.026 17.816C354.122 17.896 354.266 17.96 354.378 17.944C354.698 17.928 355.002 17.88 355.322 17.816C355.61 17.768 355.898 17.672 356.17 17.576C356.442 17.496 356.698 17.384 356.97 17.32C357.61 17.144 358.138 16.76 358.698 16.408C359.226 16.088 359.786 15.768 360.298 15.4C360.73 15.112 361.162 14.824 361.61 14.568C361.834 14.44 362.026 14.248 362.218 14.072C362.394 13.944 362.554 13.8 362.714 13.672C362.842 13.576 363.082 13.608 363.21 13.72C363.306 13.832 363.338 14.008 363.242 14.136C363.162 14.248 363.066 14.344 362.954 14.424C362.65 14.664 362.346 14.888 362.026 15.112C361.866 15.224 361.69 15.352 361.514 15.432C361.05 15.608 360.682 15.928 360.298 16.216C359.754 16.616 359.178 17 358.538 17.256C358.058 17.448 357.594 17.688 357.098 17.864C356.49 18.088 355.85 18.248 355.226 18.44C355.13 18.472 355.018 18.488 354.906 18.52ZM360.635 20.904C360.443 20.808 360.299 20.664 360.219 20.488C360.091 20.232 359.995 19.944 360.059 19.656C360.107 19.32 360.187 18.984 360.267 18.664C360.427 17.912 360.811 17.256 361.067 16.536C361.211 16.104 361.467 15.72 361.659 15.304C361.851 14.936 362.043 14.584 362.219 14.216C362.411 13.848 362.571 13.448 362.795 13.096C363.003 12.776 363.147 12.408 363.339 12.072C363.483 11.816 363.643 11.576 363.787 11.32C363.915 11.08 364.027 10.84 364.155 10.616C364.299 10.344 364.491 10.088 364.651 9.816C364.843 9.48 365.019 9.128 365.211 8.792L365.515 8.296C365.659 8.072 365.819 7.864 365.963 7.64C366.123 7.384 366.267 7.112 366.427 6.856C366.459 6.792 366.491 6.728 366.523 6.68C366.795 6.296 367.051 5.896 367.339 5.528C367.675 5.08 367.979 4.6 368.363 4.184C368.555 3.992 368.747 3.912 369.003 3.912C369.371 3.944 369.515 4.104 369.483 4.504C369.499 4.696 369.419 4.872 369.291 5.048C369.211 5.16 369.115 5.224 368.971 5.192C368.651 5.128 368.411 5.304 368.219 5.512C367.979 5.784 367.771 6.072 367.563 6.36C367.419 6.552 367.275 6.76 367.147 6.968C366.955 7.256 366.763 7.544 366.587 7.848L365.403 9.912C365.211 10.264 365.003 10.616 364.811 10.984C364.731 11.112 364.683 11.256 364.619 11.4C364.395 11.816 364.187 12.232 363.963 12.664C363.867 12.856 363.771 13.048 363.675 13.224C363.435 13.688 363.195 14.152 362.955 14.6C362.715 15.096 362.459 15.592 362.235 16.088C362.075 16.44 361.947 16.808 361.771 17.144C361.499 17.704 361.307 18.28 361.115 18.856C361.003 19.24 360.955 19.64 360.875 20.024C360.827 20.2 360.923 20.296 361.019 20.408C361.083 20.488 361.179 20.472 361.259 20.424C361.515 20.296 361.755 20.184 362.011 20.04C362.491 19.784 362.987 19.496 363.467 19.224C363.643 19.128 363.787 19 363.947 18.888C364.251 18.68 364.571 18.488 364.859 18.28C365.051 18.152 365.243 18.024 365.435 17.88C365.547 17.8 365.675 17.704 365.803 17.624L367.051 16.664C367.307 16.456 367.547 16.232 367.819 16.024C368.043 15.848 368.283 15.688 368.507 15.512C368.683 15.384 368.843 15.256 369.003 15.112C369.179 14.92 369.403 14.856 369.659 14.904C369.883 14.952 369.963 15.128 369.899 15.352C369.787 15.688 369.499 15.864 369.227 16.008C368.683 16.28 368.171 16.584 367.691 16.968C367.227 17.32 366.747 17.656 366.267 18.008L365.403 18.616C365.323 18.664 365.243 18.712 365.195 18.776C364.715 19.224 364.155 19.528 363.627 19.912C363.099 20.264 362.539 20.584 361.963 20.824C361.547 21 361.099 21.144 360.635 20.904ZM368.088 20.904C367.896 20.808 367.752 20.664 367.672 20.488C367.544 20.232 367.448 19.944 367.512 19.656C367.56 19.32 367.64 18.984 367.72 18.664C367.88 17.912 368.264 17.256 368.52 16.536C368.664 16.104 368.92 15.72 369.112 15.304C369.304 14.936 369.496 14.584 369.672 14.216C369.864 13.848 370.024 13.448 370.248 13.096C370.456 12.776 370.6 12.408 370.792 12.072C370.936 11.816 371.096 11.576 371.24 11.32C371.368 11.08 371.48 10.84 371.608 10.616C371.752 10.344 371.944 10.088 372.104 9.816C372.296 9.48 372.472 9.128 372.664 8.792L372.968 8.296C373.112 8.072 373.272 7.864 373.416 7.64C373.576 7.384 373.72 7.112 373.88 6.856C373.912 6.792 373.944 6.728 373.976 6.68C374.248 6.296 374.504 5.896 374.792 5.528C375.128 5.08 375.432 4.6 375.816 4.184C376.008 3.992 376.2 3.912 376.456 3.912C376.824 3.944 376.968 4.104 376.936 4.504C376.952 4.696 376.872 4.872 376.744 5.048C376.664 5.16 376.568 5.224 376.424 5.192C376.104 5.128 375.864 5.304 375.672 5.512C375.432 5.784 375.224 6.072 375.016 6.36C374.872 6.552 374.728 6.76 374.6 6.968C374.408 7.256 374.216 7.544 374.04 7.848L372.856 9.912C372.664 10.264 372.456 10.616 372.264 10.984C372.184 11.112 372.136 11.256 372.072 11.4C371.848 11.816 371.64 12.232 371.416 12.664C371.32 12.856 371.224 13.048 371.128 13.224C370.888 13.688 370.648 14.152 370.408 14.6C370.168 15.096 369.912 15.592 369.688 16.088C369.528 16.44 369.4 16.808 369.224 17.144C368.952 17.704 368.76 18.28 368.568 18.856C368.456 19.24 368.408 19.64 368.328 20.024C368.28 20.2 368.376 20.296 368.472 20.408C368.536 20.488 368.632 20.472 368.712 20.424C368.968 20.296 369.208 20.184 369.464 20.04C369.944 19.784 370.44 19.496 370.92 19.224C371.096 19.128 371.24 19 371.4 18.888C371.704 18.68 372.024 18.488 372.312 18.28C372.504 18.152 372.696 18.024 372.888 17.88C373 17.8 373.128 17.704 373.256 17.624L374.504 16.664C374.76 16.456 375 16.232 375.272 16.024C375.496 15.848 375.736 15.688 375.96 15.512C376.136 15.384 376.296 15.256 376.456 15.112C376.632 14.92 376.856 14.856 377.112 14.904C377.336 14.952 377.416 15.128 377.352 15.352C377.24 15.688 376.952 15.864 376.68 16.008C376.136 16.28 375.624 16.584 375.144 16.968C374.68 17.32 374.2 17.656 373.72 18.008L372.856 18.616C372.776 18.664 372.696 18.712 372.648 18.776C372.168 19.224 371.608 19.528 371.08 19.912C370.552 20.264 369.992 20.584 369.416 20.824C369 21 368.552 21.144 368.088 20.904ZM379.966 12.28C379.758 12.376 379.486 12.344 379.342 12.184C379.198 11.992 379.166 11.688 379.31 11.496C379.486 11.272 379.726 11.144 380.014 11.096C380.51 11 381.006 10.888 381.486 10.776C381.806 10.712 382.126 10.664 382.382 10.904C382.478 10.984 382.526 11.096 382.558 11.144C382.542 11.384 382.302 11.672 382.094 11.736C381.966 11.768 381.838 11.8 381.71 11.816L380.238 12.152C380.142 12.168 380.046 12.232 379.966 12.28ZM378.078 18.52C377.55 18.696 376.83 18.456 376.478 18.008C376.158 17.576 376.046 17.096 376.11 16.552C376.142 16.296 376.238 16.056 376.318 15.816C376.462 15.384 376.702 15.016 376.942 14.648C377.278 14.152 377.694 13.72 378.158 13.336C378.318 13.192 378.526 13.176 378.734 13.16H378.926C379.198 13.192 379.294 13.384 379.166 13.608C379.102 13.704 379.022 13.816 378.942 13.896C378.718 14.104 378.494 14.312 378.206 14.44C378.174 14.456 378.126 14.504 378.126 14.552C378.078 14.776 377.918 14.936 377.774 15.112C377.614 15.32 377.47 15.528 377.358 15.768C377.166 16.168 377.038 16.6 376.926 17.032C376.83 17.352 376.942 17.624 377.198 17.816C377.294 17.896 377.438 17.96 377.55 17.944C377.87 17.928 378.174 17.88 378.494 17.816C378.782 17.768 379.07 17.672 379.342 17.576C379.614 17.496 379.87 17.384 380.142 17.32C380.782 17.144 381.31 16.76 381.87 16.408C382.398 16.088 382.958 15.768 383.47 15.4C383.902 15.112 384.334 14.824 384.782 14.568C385.006 14.44 385.198 14.248 385.39 14.072C385.566 13.944 385.726 13.8 385.886 13.672C386.014 13.576 386.254 13.608 386.382 13.72C386.478 13.832 386.51 14.008 386.414 14.136C386.334 14.248 386.238 14.344 386.126 14.424C385.822 14.664 385.518 14.888 385.198 15.112C385.038 15.224 384.862 15.352 384.686 15.432C384.222 15.608 383.854 15.928 383.47 16.216C382.926 16.616 382.35 17 381.71 17.256C381.23 17.448 380.766 17.688 380.27 17.864C379.662 18.088 379.022 18.248 378.398 18.44C378.302 18.472 378.19 18.488 378.078 18.52ZM385.871 17.752C385.567 17.752 385.343 17.496 385.375 17.224C385.407 17.032 385.519 16.904 385.631 16.792C385.679 16.728 385.727 16.664 385.743 16.584C385.775 16.344 386.095 16.216 386.271 16.376C386.367 16.472 386.495 16.6 386.559 16.728C386.591 16.808 386.559 16.936 386.527 17.048C386.495 17.176 386.415 17.288 386.351 17.432C386.255 17.64 386.063 17.72 385.871 17.752ZM390.877 18.952C390.477 19.016 390.077 18.968 389.693 18.904C389.261 18.84 388.845 18.712 388.525 18.424C388.205 18.12 387.965 17.752 387.981 17.256C388.013 16.648 388.189 16.088 388.525 15.592C388.749 15.256 388.989 14.92 389.261 14.616C389.725 14.104 390.205 13.624 390.781 13.224C391.037 13.048 391.293 12.824 391.549 12.632C391.693 12.52 391.837 12.44 391.981 12.36C392.605 12.024 393.245 11.72 393.949 11.56C394.189 11.512 394.445 11.528 394.701 11.624C395.005 11.736 395.133 11.992 395.053 12.312C395.005 12.568 394.909 12.824 394.733 13.032C394.557 13.272 394.381 13.544 394.189 13.784C393.997 14.008 393.773 14.184 393.565 14.376C393.485 14.456 393.389 14.536 393.309 14.6C393.133 14.76 392.829 14.744 392.701 14.568C392.541 14.36 392.557 14.072 392.765 13.944C393.261 13.608 393.645 13.16 393.981 12.68C394.029 12.616 394.077 12.536 394.109 12.456L394.077 12.408L393.341 12.648C393.229 12.696 393.101 12.712 393.005 12.76C392.685 12.952 392.333 13.096 392.061 13.352C391.997 13.416 391.901 13.448 391.821 13.512L391.085 14.056C390.877 14.2 390.685 14.376 390.477 14.536L390.333 14.68C390.173 14.84 390.045 15.048 389.821 15.128C389.757 15.144 389.709 15.208 389.677 15.272C389.341 15.704 389.005 16.152 388.781 16.664C388.717 16.824 388.669 17.016 388.637 17.192C388.589 17.48 388.717 17.704 388.925 17.896L389.213 18.184C389.293 18.296 389.421 18.328 389.549 18.344C390.061 18.44 390.573 18.392 391.085 18.344C391.741 18.28 392.349 18.088 392.989 17.96C393.373 17.896 393.757 17.816 394.125 17.72C394.589 17.592 395.053 17.464 395.501 17.32C396.077 17.128 396.669 16.952 397.245 16.744C397.773 16.536 398.285 16.28 398.797 16.056C399.197 15.88 399.597 15.752 399.965 15.56C400.493 15.288 401.069 15.096 401.549 14.728L402.077 14.392C402.349 14.216 402.621 14.04 402.813 13.768C402.941 13.592 403.149 13.56 403.373 13.592C403.501 13.624 403.565 13.704 403.597 13.848C403.629 14.008 403.565 14.152 403.437 14.248C403.245 14.392 403.053 14.536 402.861 14.664C402.397 14.984 401.917 15.304 401.453 15.608C401.229 15.752 401.005 15.864 400.765 15.976C400.061 16.28 399.341 16.568 398.637 16.872C398.349 16.984 398.061 17.128 397.773 17.256C397.309 17.496 396.829 17.688 396.333 17.816C396.013 17.912 395.709 18.04 395.389 18.136C395.005 18.248 394.605 18.328 394.205 18.424C393.885 18.504 393.565 18.616 393.245 18.664C392.909 18.728 392.589 18.856 392.253 18.84C392.125 18.84 392.013 18.888 391.901 18.888C391.549 18.92 391.213 18.904 390.877 18.952ZM402.217 18.392C401.369 18.392 400.937 17.784 400.921 17.08C400.905 16.52 401.081 16.008 401.401 15.528C401.545 15.288 401.705 15.032 401.865 14.792C401.961 14.68 402.073 14.568 402.169 14.472C402.329 14.328 402.473 14.168 402.649 14.04C402.841 13.896 403.033 13.752 403.241 13.656C403.513 13.528 403.785 13.448 404.089 13.336C404.089 13.272 404.089 13.192 404.105 13.128C404.121 12.856 404.265 12.712 404.537 12.712C404.937 12.728 405.337 12.744 405.721 12.776C406.073 12.808 406.393 12.92 406.713 12.92C407.497 12.936 408.281 12.92 409.065 12.92C409.449 12.92 411.993 12.936 412.393 12.92C412.889 12.904 413.385 12.888 413.897 12.856C414.121 12.84 414.361 12.84 414.601 12.84C414.681 12.84 414.761 12.872 414.825 12.888C414.985 12.968 415.049 13.08 415.033 13.24C415.017 13.384 414.873 13.528 414.713 13.528C414.425 13.512 414.153 13.608 413.849 13.496C413.737 13.448 413.593 13.464 413.449 13.48C413.033 13.496 412.601 13.512 410.041 13.528H410.009C409.577 13.608 409.129 13.592 408.665 13.576C408.409 13.592 408.153 13.608 407.881 13.56C407.801 13.56 407.705 13.608 407.593 13.624L407.689 14.12C407.753 14.328 407.721 14.536 407.641 14.728C407.561 14.92 407.529 15.112 407.369 15.256C407.337 15.288 407.305 15.352 407.289 15.4C407.241 15.576 407.129 15.736 406.985 15.848C406.841 15.992 406.713 16.184 406.553 16.312C406.185 16.632 405.833 16.968 405.449 17.224C404.857 17.608 404.249 17.992 403.561 18.184C403.113 18.328 402.681 18.408 402.217 18.392ZM402.105 17.736C402.585 17.8 403.017 17.608 403.417 17.4C403.849 17.192 404.265 16.984 404.681 16.744C404.953 16.568 405.257 16.392 405.497 16.168C405.817 15.864 406.089 15.544 406.377 15.24C406.585 14.968 406.777 14.696 406.857 14.344C406.905 14.136 406.857 14.008 406.681 13.896C406.617 13.848 406.553 13.816 406.489 13.8C406.281 13.736 406.073 13.704 405.865 13.656C405.753 13.624 405.609 13.656 405.481 13.608C405.209 13.56 404.985 13.624 404.793 13.848C404.761 13.896 404.713 13.928 404.681 13.96C404.521 14.104 404.377 14.216 404.153 14.216C403.929 14.216 403.705 14.248 403.513 14.392C403.241 14.6 402.969 14.792 402.697 15.032C402.345 15.32 402.105 15.72 401.929 16.152C401.785 16.424 401.673 16.744 401.593 17.048C401.497 17.448 401.689 17.72 402.105 17.736ZM412.361 18.504C411.96 18.44 411.72 18.168 411.736 17.768C411.752 17.64 411.768 17.512 411.816 17.384C411.896 17.128 411.976 16.856 412.088 16.6C412.2 16.36 412.345 16.136 412.489 15.912L412.681 15.56L412.793 15.4C412.889 15.272 412.985 15.16 413.081 15.048C413.225 14.856 413.353 14.664 413.497 14.456C413.593 14.328 413.673 14.168 413.753 14.024C413.785 14.008 413.785 13.96 413.801 13.944L414.377 13.192C414.441 13.096 414.505 13 414.553 12.888C414.601 12.808 414.617 12.712 414.681 12.648C414.889 12.408 414.905 12.12 414.953 11.832C415.033 11.272 415.561 11 416.025 11.16C416.297 11.256 416.377 11.448 416.249 11.704C416.105 12.024 415.945 12.328 415.737 12.616C415.305 13.192 414.889 13.8 414.489 14.408C414.153 14.904 413.849 15.4 413.545 15.912C413.289 16.36 413.033 16.792 412.793 17.24C412.777 17.256 412.793 17.272 412.793 17.32L412.905 17.272C413.241 16.984 413.641 16.776 413.929 16.44C414.073 16.28 414.249 16.152 414.409 16.024L415.417 15.16C415.689 14.936 415.977 14.728 416.249 14.504L416.633 14.168C416.825 14.04 417.033 13.912 417.225 13.768C417.369 13.672 417.513 13.544 417.673 13.432C418.057 13.176 418.457 12.904 418.873 12.68C419.161 12.536 419.481 12.408 419.833 12.376C420.105 12.36 420.361 12.344 420.601 12.472C420.729 12.52 420.825 12.6 420.889 12.712C421.049 13.048 421.161 13.384 421.177 13.752C421.193 14.184 421.241 14.6 421.305 15.016C421.337 15.192 421.417 15.368 421.513 15.528C421.593 15.704 421.817 15.784 421.993 15.688C422.312 15.512 422.633 15.32 422.937 15.128C423.289 14.92 423.625 14.696 423.961 14.472C424.521 14.12 425.065 13.752 425.609 13.4C425.929 13.208 426.249 13.032 426.569 12.872C426.921 12.712 427.273 12.744 427.609 12.888C427.737 12.936 427.849 13.032 427.929 13.144C428.089 13.352 428.217 13.576 428.249 13.848C428.281 14.184 428.345 14.504 428.409 14.824C428.472 15.112 428.521 15.416 428.617 15.688C428.713 15.912 428.825 16.168 429.128 16.216C429.257 16.232 429.401 16.232 429.529 16.2C430.089 16.072 430.617 15.848 431.128 15.56C431.161 15.544 431.193 15.528 431.209 15.512C431.929 15.24 432.553 14.824 433.241 14.504C433.369 14.44 433.497 14.328 433.625 14.248C433.769 14.168 433.897 14.088 434.041 14.024C434.105 13.992 434.185 13.992 434.249 13.992C434.441 13.976 434.585 14.072 434.633 14.216C434.665 14.376 434.569 14.536 434.393 14.616L434.265 14.664C433.545 14.888 432.905 15.256 432.249 15.624C431.753 15.896 431.273 16.184 430.729 16.36C430.409 16.456 430.105 16.616 429.785 16.744C429.593 16.824 429.385 16.872 429.177 16.904C428.969 16.952 428.777 16.904 428.601 16.776C428.521 16.696 428.425 16.648 428.329 16.568C428.281 16.536 428.217 16.488 428.185 16.44C428.025 16.024 427.753 15.656 427.721 15.176C427.673 14.648 427.513 14.136 427.385 13.624C427.337 13.448 427.113 13.368 426.889 13.432C426.585 13.512 426.345 13.704 426.105 13.88C425.545 14.28 425.001 14.712 424.425 15.08C423.945 15.384 423.497 15.736 423.049 16.072C422.729 16.312 422.393 16.52 421.993 16.568C421.593 16.632 421.209 16.568 420.921 16.232C420.536 15.8 420.441 15.272 420.361 14.744C420.281 14.328 420.249 13.912 420.201 13.48C420.201 13.432 420.217 13.368 420.217 13.304C420.249 13.064 420.121 12.936 419.897 13C419.689 13.048 419.481 13.144 419.289 13.256C418.729 13.608 418.185 13.96 417.641 14.312C416.953 14.76 416.312 15.272 415.689 15.8C415.369 16.056 415.081 16.328 414.777 16.6C414.745 16.632 414.697 16.664 414.681 16.696C414.617 16.92 414.424 17.032 414.265 17.176C414.073 17.352 413.897 17.512 413.705 17.656C413.321 17.944 412.937 18.2 412.553 18.472C412.505 18.504 412.425 18.504 412.361 18.504Z" fill="#FFF5E2"/>
</svg>
