<svg width="1440" height="28" viewBox="0 0 1440 28" fill="none" xmlns="http://www.w3.org/2000/svg">
<circle cx="10.5" cy="14" r="14" fill="#FFF5E2"/>
<circle cx="43.5" cy="14" r="14" fill="#FFF5E2"/>
<circle cx="76.5" cy="14" r="14" fill="#FFF5E2"/>
<circle cx="109.5" cy="14" r="14" fill="#FFF5E2"/>
<circle cx="142.5" cy="14" r="14" fill="#FFF5E2"/>
<circle cx="175.5" cy="14" r="14" fill="#FFF5E2"/>
<circle cx="208.5" cy="14" r="14" fill="#FFF5E2"/>
<circle cx="241.5" cy="14" r="14" fill="#FFF5E2"/>
<circle cx="274.5" cy="14" r="14" fill="#FFF5E2"/>
<circle cx="307.5" cy="14" r="14" fill="#FFF5E2"/>
<circle cx="340.5" cy="14" r="14" fill="#FFF5E2"/>
<circle cx="373.5" cy="14" r="14" fill="#FFF5E2"/>
<circle cx="406.5" cy="14" r="14" fill="#FFF5E2"/>
<circle cx="439.5" cy="14" r="14" fill="#FFF5E2"/>
<circle cx="472.5" cy="14" r="14" fill="#FFF5E2"/>
<circle cx="505.5" cy="14" r="14" fill="#FFF5E2"/>
<circle cx="538.5" cy="14" r="14" fill="#FFF5E2"/>
<circle cx="571.5" cy="14" r="14" fill="#FFF5E2"/>
<circle cx="604.5" cy="14" r="14" fill="#FFF5E2"/>
<circle cx="637.5" cy="14" r="14" fill="#FFF5E2"/>
<circle cx="670.5" cy="14" r="14" fill="#FFF5E2"/>
<circle cx="703.5" cy="14" r="14" fill="#FFF5E2"/>
<circle cx="736.5" cy="14" r="14" fill="#FFF5E2"/>
<circle cx="769.5" cy="14" r="14" fill="#FFF5E2"/>
<circle cx="802.5" cy="14" r="14" fill="#FFF5E2"/>
<circle cx="835.5" cy="14" r="14" fill="#FFF5E2"/>
<circle cx="868.5" cy="14" r="14" fill="#FFF5E2"/>
<circle cx="901.5" cy="14" r="14" fill="#FFF5E2"/>
<circle cx="934.5" cy="14" r="14" fill="#FFF5E2"/>
<circle cx="967.5" cy="14" r="14" fill="#FFF5E2"/>
<circle cx="1000.5" cy="14" r="14" fill="#FFF5E2"/>
<circle cx="1033.5" cy="14" r="14" fill="#FFF5E2"/>
<circle cx="1066.5" cy="14" r="14" fill="#FFF5E2"/>
<circle cx="1099.5" cy="14" r="14" fill="#FFF5E2"/>
<circle cx="1132.5" cy="14" r="14" fill="#FFF5E2"/>
<circle cx="1165.5" cy="14" r="14" fill="#FFF5E2"/>
<circle cx="1198.5" cy="14" r="14" fill="#FFF5E2"/>
<circle cx="1231.5" cy="14" r="14" fill="#FFF5E2"/>
<circle cx="1264.5" cy="14" r="14" fill="#FFF5E2"/>
<circle cx="1297.5" cy="14" r="14" fill="#FFF5E2"/>
<circle cx="1330.5" cy="14" r="14" fill="#FFF5E2"/>
<circle cx="1363.5" cy="14" r="14" fill="#FFF5E2"/>
<circle cx="1396.5" cy="14" r="14" fill="#FFF5E2"/>
<circle cx="1429.5" cy="14" r="14" fill="#FFF5E2"/>
</svg>
