<svg width="1312" height="324" viewBox="0 0 1312 324" fill="none" xmlns="http://www.w3.org/2000/svg">
<path d="M856.979 45.368C846.901 36.9926 836.78 28.6171 826.701 20.2417C828.607 23.4565 830.851 27.3904 832.969 31.7051C842.158 39.3191 851.305 46.8908 860.452 54.5049C859.52 51.2478 858.334 48.1598 857.022 45.3257" fill="#F6C164"/>
<path d="M853.718 39.3196C841.565 19.5231 821.704 12.0782 821.619 12.2474C821.619 12.2474 821.916 12.6704 822.339 13.2626C832.841 21.9342 843.301 30.6057 853.761 39.2773" fill="#F6C164"/>
<path d="M123.74 34.5812C123.74 33.3122 123.74 32.5508 123.74 31.1549C130.261 36.9078 142.753 48.8787 148.089 53.5317C146.056 48.6672 143.473 44.0988 140.467 39.8688C138.011 37.7115 135.385 35.4272 132.167 32.5508C132.167 31.6202 115.016 22.1027 115.016 21.4259C108.791 15.4615 107.097 14.7001 103.667 14.5732C110.866 18.6341 119.166 25.106 123.697 34.5812" fill="#F6C164"/>
<path d="M1098.06 286.984C1098.06 284.573 1098.06 282.458 1098.06 280.427C1089.38 271.629 1085.06 267.314 1076.38 258.685C1076.38 257.247 1076.38 256.528 1076.38 255.089C1085.06 263.676 1089.38 267.991 1098.06 276.789C1098.06 274.378 1098.06 272.094 1098.06 269.81C1089.38 261.054 1085.06 256.739 1076.38 248.152C1076.38 246.714 1076.38 245.995 1076.38 244.557C1085.06 253.101 1089.38 257.416 1098.06 266.13C1098.06 263.972 1098.06 261.688 1098.06 259.15C1089.38 250.436 1085.06 246.122 1076.38 237.619C1076.38 236.181 1076.38 235.462 1076.38 234.024C1085.06 242.526 1089.38 246.841 1098.06 255.512C1098.06 253.567 1098.06 252.594 1098.06 250.69C1089.38 242.019 1085.06 237.704 1076.38 229.202C1074.98 229.921 1073.71 230.555 1072.49 231.232V264.522H1019.72V282.838C1044.11 285.419 1068.46 288.084 1092.81 291.045C1094.97 291.298 1096.07 291.468 1098.23 291.721C1098.23 289.776 1098.23 288.803 1098.23 286.857" fill="#F6C164"/>
<path d="M1231.37 309.404C1231.37 306.824 1231.37 304.54 1231.37 302.34C1222.69 292.865 1218.37 288.169 1209.69 278.906C1209.69 277.341 1209.69 276.579 1209.69 275.014C1218.37 284.278 1222.69 288.973 1231.37 298.406C1231.37 295.826 1231.37 293.33 1231.37 290.877C1222.69 281.444 1218.37 276.748 1209.69 267.527C1209.69 265.962 1209.69 265.2 1209.69 263.678C1218.37 272.899 1222.69 277.552 1231.37 286.985C1231.37 284.658 1231.37 282.163 1231.37 279.456C1222.69 270.065 1218.37 265.412 1209.69 256.19C1209.69 254.625 1209.69 253.864 1209.69 252.341C1218.37 261.52 1222.69 266.173 1231.37 275.564C1231.37 273.491 1231.37 272.434 1231.37 270.319C1222.69 260.97 1218.37 256.317 1209.69 247.138C1208.29 247.9 1207.02 248.619 1205.79 249.296V285.208H1153.03V305.005C1177.42 307.754 1201.77 310.673 1226.12 313.888C1228.28 314.184 1229.38 314.311 1231.54 314.607C1231.54 312.534 1231.54 311.477 1231.54 309.362" fill="#F6C164"/>
<path d="M266.957 269.263C275.553 275.946 279.873 279.288 288.512 285.887C322.771 282.333 357.072 279.203 391.415 276.454C382.776 269.855 378.457 266.513 369.818 259.872C335.517 262.622 301.216 265.752 266.957 269.263Z" fill="#F6C164"/>
<path d="M400.223 259.872C408.819 266.301 413.139 269.516 421.777 275.903C456.036 272.477 490.337 269.431 524.681 266.809C516.042 260.421 511.723 257.207 503.084 250.819C468.74 253.484 434.481 256.488 400.223 259.872Z" fill="#F6C164"/>
<path d="M175.656 281.065C184.253 287.875 188.572 291.217 197.169 297.9C213.642 295.701 230.115 293.628 246.63 291.682C237.991 285.041 233.714 281.699 225.075 274.974C208.602 276.877 192.087 278.908 175.656 281.065Z" fill="#F6C164"/>
<path d="M197.168 294.812C197.168 295.784 197.168 296.63 197.168 297.857C199.328 297.561 200.429 297.434 202.588 297.138C209.787 296.207 215.335 295.488 220.755 294.812H197.21H197.168Z" fill="#F6C164"/>
<path d="M884.378 257.079C893.101 264.777 897.421 267.442 906.144 275.268C922.702 276.41 935.745 277.467 952.26 278.863C943.579 270.784 942.732 268.246 934.051 260.336C917.493 259.109 900.936 258.052 884.378 257.079Z" fill="#F6C164"/>
<path d="M885.055 256.317C893.778 264.016 898.098 267.907 906.821 275.775C923.379 276.917 935.744 277.467 952.26 278.863C943.578 270.784 941.419 268.246 932.738 260.335C916.18 259.109 901.612 257.29 885.055 256.317Z" fill="#F6C164"/>
<path d="M708.722 246.673C717.403 253.821 721.765 257.417 730.488 264.608C760.639 265.327 790.79 266.342 820.984 267.696C812.26 260.166 807.899 256.444 799.217 248.999C769.066 247.942 738.915 247.138 708.764 246.63" fill="#F6C164"/>
<path d="M859.561 246.674C860.366 245.066 861.043 243.332 861.594 241.555C854.353 235.253 847.069 228.95 839.828 222.689C839.277 224.466 838.6 226.2 837.795 227.808C845.079 234.111 852.32 240.371 859.561 246.716" fill="#F6C164"/>
<path d="M855.16 253.104C856.303 251.793 857.32 250.397 858.251 248.874C851.01 242.571 843.769 236.269 836.485 229.966C835.553 231.446 834.537 232.842 833.394 234.154C840.677 240.414 847.919 246.759 855.16 253.062" fill="#F6C164"/>
<path d="M849.4 258.306C850.84 257.291 852.152 256.149 853.423 254.922C846.181 248.62 838.94 242.275 831.699 236.014C830.471 237.241 829.116 238.383 827.676 239.44C834.959 245.701 842.159 252.004 849.4 258.349" fill="#F6C164"/>
<path d="M842.368 262.409C844.062 261.648 845.713 260.759 847.238 259.786C839.997 253.484 832.755 247.181 825.514 240.92C823.947 241.893 822.338 242.782 820.602 243.585C827.885 249.846 835.127 256.106 842.368 262.409Z" fill="#F6C164"/>
<path d="M809.167 247.224C803.662 248.324 797.818 248.62 792.059 248.07C771.436 247.308 750.813 246.758 730.232 246.335C730.232 251.623 730.232 254.246 730.232 259.491V263.89C732.434 263.932 733.493 263.975 735.695 264.017C761.739 264.694 787.782 265.582 813.826 266.64C819.627 267.232 825.429 266.978 830.976 265.963C823.735 259.66 816.451 253.442 809.167 247.224Z" fill="#F6C164"/>
<path d="M839.826 263.508C832.584 257.205 825.343 250.945 818.059 244.685C816.196 245.404 814.248 246.038 812.258 246.546C819.542 252.806 826.825 259.024 834.024 265.327C836.015 264.819 837.962 264.227 839.826 263.508Z" fill="#F6C164"/>
<path d="M1243.05 295.277C1251.78 304.16 1256.1 307.206 1264.82 316.216C1281.38 317.527 1294.42 318.754 1310.94 320.361C1302.21 311.055 1301.41 308.137 1292.73 299.042C1276.17 297.646 1259.61 296.377 1243.05 295.277Z" fill="#F6C164"/>
<path d="M1243.73 294.429C1252.46 303.312 1256.78 307.796 1265.5 316.806C1282.06 318.117 1294.42 318.751 1310.94 320.359C1302.22 311.053 1300.1 308.134 1291.42 299.039C1274.86 297.644 1260.29 295.529 1243.73 294.429Z" fill="#F6C164"/>
<path d="M973.602 259.914C982.283 268.036 986.644 272.139 995.326 280.387C1029.63 283.771 1063.84 287.578 1098.06 291.808C1089.38 282.968 1085.06 278.611 1076.38 269.982C1042.16 266.259 1007.9 262.875 973.602 259.914Z" fill="#F6C164"/>
<path d="M1106.91 280.218C1115.59 288.974 1119.95 293.373 1128.64 302.341C1162.94 306.021 1197.15 310.124 1231.37 314.65C1222.69 305.133 1218.37 300.395 1209.69 291.089C1175.47 287.07 1141.21 283.433 1106.91 280.218Z" fill="#F6C164"/>
<path d="M536.201 252.468C544.797 258.686 549.116 264.651 557.713 270.742C574.186 268.712 590.659 269.642 607.174 267.866C598.578 261.817 588.626 252.299 579.987 246.166C566.563 246.631 553.521 247.054 541.452 247.35C538.233 247.435 539.334 252.088 536.158 252.468" fill="#F6C164"/>
<path d="M400.944 257.503C409.583 264.186 413.903 267.485 422.541 274.127C456.885 271.885 491.271 270.066 525.657 268.627C516.975 261.902 512.656 258.518 504.017 251.792C469.631 253.315 435.288 255.218 400.944 257.503Z" fill="#F6C164"/>
<path d="M450.744 218.673C450.744 217.319 450.744 216.642 450.744 215.331C453.285 217.319 455.444 219.011 457.477 220.576L465.269 220.195C460.611 216.558 456.672 213.512 450.744 208.859C450.744 207.505 450.744 206.829 450.744 205.517C458.282 211.439 462.601 214.781 469.292 220.026L472.383 219.857C472.383 218.546 472.383 217.277 472.383 215.965C463.744 209.197 459.425 205.813 450.744 199.003C450.744 197.649 450.744 196.973 450.744 195.619C459.383 202.429 463.702 205.813 472.383 212.581C472.383 210.424 472.383 208.267 472.383 206.152C463.744 199.341 459.425 195.957 450.744 189.147C450.744 187.794 450.744 187.117 450.744 185.805C459.383 192.616 463.702 196.042 472.383 202.81C472.383 200.653 472.383 198.495 472.383 196.38C463.744 189.57 459.425 186.186 450.786 179.333C450.786 177.98 450.786 177.303 450.786 175.949C459.425 182.802 463.744 186.186 472.383 192.996C472.383 190.839 472.383 188.682 472.383 186.567C463.744 179.756 459.425 176.33 450.786 169.478C450.786 168.124 450.786 167.447 450.786 166.136C459.425 172.988 463.744 176.415 472.383 183.225C472.383 181.068 472.383 178.91 472.383 176.795C463.744 169.943 459.425 166.517 450.786 159.664C450.786 158.31 450.786 157.633 450.786 156.322C459.425 163.175 463.744 166.643 472.383 173.454V167.024C463.744 160.171 459.425 156.745 450.786 149.85C450.786 148.497 450.786 147.82 450.786 146.509C459.425 153.403 463.744 156.83 472.383 163.682C472.383 161.525 472.383 159.41 472.383 157.253C463.744 150.4 459.425 146.932 450.786 140.037C450.786 138.683 450.786 138.006 450.786 136.695C459.425 143.59 463.744 147.058 472.383 153.911C472.383 151.754 472.383 149.596 472.383 147.481C463.744 140.587 459.425 137.118 450.786 130.223C450.786 128.869 450.786 128.193 450.786 126.881C459.425 133.818 463.744 137.287 472.383 144.182C472.383 142.067 472.383 139.952 472.383 137.837C463.744 130.942 459.425 127.473 450.786 120.536C450.786 119.183 450.786 118.506 450.786 117.194C459.425 124.132 463.744 127.6 472.383 134.538C472.383 132.38 472.383 130.223 472.383 128.108C463.744 121.171 459.425 117.702 450.786 110.765C450.786 109.411 450.786 108.734 450.786 107.423C459.425 114.403 463.744 117.871 472.383 124.766C472.383 122.609 472.383 120.494 472.383 118.337C463.744 111.399 459.425 107.931 450.786 100.909C450.786 99.5553 450.786 98.8785 450.786 97.5672C459.425 104.547 463.744 108.058 472.383 114.995C472.383 112.838 472.383 110.68 472.383 108.565C463.744 101.628 459.425 98.1171 450.786 91.1376C450.786 89.784 450.786 89.1072 450.786 87.7959C459.425 94.8177 463.744 98.2863 472.383 105.266C472.383 103.109 472.383 100.951 472.383 98.8362C463.744 91.8567 459.425 88.3457 450.786 81.3239C450.786 79.9703 450.786 79.2935 450.786 77.9822C459.425 85.004 463.744 88.515 472.383 95.4945C472.383 93.3372 472.383 91.1799 472.383 89.0649C463.744 82.0853 459.425 78.5744 450.786 71.5103C450.786 70.1567 450.786 69.4799 450.786 68.1686C459.425 75.2327 463.744 78.7436 472.383 85.7231C472.383 83.5658 472.383 81.4085 472.383 79.2935C463.744 72.2717 459.425 68.7608 450.786 61.6966C450.786 60.343 450.786 59.6662 450.786 58.3549C459.425 65.419 463.744 68.93 472.383 75.9518C472.383 73.7945 472.383 71.6372 472.383 69.5222C463.744 62.5003 459.425 58.9894 450.786 51.883C450.786 50.5294 450.786 49.8526 450.786 48.5413C459.425 55.6054 463.744 59.1586 472.383 66.1804C472.383 64.0231 472.383 61.8658 472.383 59.7085C463.744 52.6867 459.425 49.1335 450.786 42.027C450.786 40.6734 450.786 39.9966 450.786 38.6853C459.425 45.7917 463.744 49.345 472.383 56.3668C472.383 54.2095 472.383 52.0522 472.383 49.9372C463.744 42.873 459.425 39.3198 450.786 32.2134C450.786 30.8598 450.786 30.183 450.786 28.8717C459.425 35.9781 463.744 39.5313 472.383 46.5955C472.383 44.4381 472.383 42.2808 472.383 40.1658C463.744 33.1017 459.425 29.5485 450.786 22.3997C450.786 21.0461 450.786 20.3693 450.786 19.058C459.425 26.2068 463.744 29.76 472.383 36.8241C472.383 34.6668 472.383 32.5518 472.383 30.3945C463.744 23.288 459.425 19.7348 450.829 12.5861C450.829 11.2325 450.829 10.5557 450.829 9.24437C459.467 16.3931 463.787 19.9886 472.383 27.0528C472.383 25.9529 472.383 25.1069 472.383 23.711C463.744 16.6046 459.425 13.0091 450.829 5.86035C447.907 8.18686 445.493 10.1327 443.206 11.9516V221.676L452.819 221.211C451.972 220.534 451.083 219.857 450.151 219.096" fill="#F6C164"/>
<path d="M443.839 221.678H443.967L443.839 221.25V221.678Z" fill="#F6C164"/>
<path d="M1019.55 228.656H1024.8C1024.21 228.106 1023.65 227.599 1023.06 227.006C1023.06 225.61 1023.06 224.891 1023.06 223.495C1025.09 225.399 1026.87 227.091 1028.52 228.698H1035.64C1031.74 224.976 1028.14 221.55 1023.02 216.727C1023.02 215.331 1023.02 214.612 1023.02 213.216C1029.71 219.519 1033.82 223.453 1039.32 228.698H1044.7C1044.7 228.148 1044.7 227.599 1044.7 227.049C1036.02 218.715 1031.66 214.612 1022.98 206.406C1022.98 205.01 1022.98 204.291 1022.98 202.895C1031.66 211.059 1036.02 215.162 1044.7 223.495C1044.7 221.211 1044.7 218.927 1044.7 216.643C1036.02 208.352 1031.66 204.249 1022.98 196.127C1022.98 194.731 1022.98 194.012 1022.98 192.616C1031.66 200.738 1036.02 204.841 1044.7 213.132C1044.7 210.848 1044.7 208.563 1044.7 206.279C1036.02 198.031 1031.66 193.928 1022.98 185.848C1022.98 184.452 1022.98 183.733 1022.98 182.337C1031.66 190.417 1036.02 194.52 1044.7 202.768C1044.7 200.484 1044.7 198.2 1044.7 195.916C1036.02 187.667 1031.66 183.606 1022.98 175.527C1022.98 174.131 1022.98 173.412 1022.98 172.016C1031.66 180.053 1036.02 184.156 1044.7 192.362C1044.7 190.078 1044.7 187.794 1044.7 185.51C1036.02 177.304 1031.66 173.243 1022.98 165.206C1022.98 163.81 1022.98 163.091 1022.98 161.695C1031.66 169.732 1036.02 173.75 1044.7 181.914C1044.7 179.63 1044.7 177.346 1044.7 175.062C1036.02 166.898 1031.66 162.879 1022.98 154.884C1022.98 153.489 1022.98 152.769 1022.98 151.374C1031.66 159.368 1036.02 163.387 1044.7 171.551C1044.7 169.267 1044.7 166.982 1044.7 164.698C1036.02 156.577 1031.66 152.558 1022.98 144.606C1022.98 143.21 1022.98 142.491 1022.98 141.095C1031.66 149.047 1036.02 153.066 1044.7 161.187C1044.7 158.903 1044.7 156.619 1044.7 154.335C1036.02 146.255 1031.66 142.237 1022.98 134.327C1022.98 132.931 1022.98 132.212 1022.98 130.816C1031.66 138.726 1036.02 142.744 1044.7 150.781C1044.7 148.539 1044.7 146.298 1044.7 144.056C1036.02 136.019 1031.66 132 1022.98 124.132C1022.98 122.736 1022.98 122.017 1022.98 120.621C1031.66 128.489 1036.02 132.508 1044.7 140.502C1044.7 138.218 1044.7 135.934 1044.7 133.65C1036.02 125.655 1031.66 121.679 1022.98 113.811C1022.98 112.415 1022.98 111.696 1022.98 110.3C1031.66 118.168 1036.02 122.102 1044.7 130.097C1044.7 127.812 1044.7 125.528 1044.7 123.244C1036.02 115.291 1031.66 111.315 1022.98 103.49C1022.98 102.094 1022.98 101.375 1022.98 99.9788C1031.66 107.804 1036.02 111.738 1044.7 119.691C1044.7 117.407 1044.7 115.122 1044.7 112.838C1036.02 104.886 1031.7 100.952 1022.98 93.1685C1022.98 91.7726 1022.98 91.0535 1022.98 89.6576C1031.66 97.4408 1036.02 101.375 1044.7 109.285C1044.7 107.001 1044.7 104.716 1044.7 102.432C1036.02 94.5221 1031.66 90.5882 1022.98 82.8472C1022.98 81.4513 1022.98 80.7322 1022.98 79.3363C1031.66 87.0773 1036.02 91.0112 1044.7 98.879C1044.7 96.5948 1044.7 94.3106 1044.7 92.0264C1036.02 84.1586 1031.66 80.2669 1022.98 72.526C1022.98 71.1301 1022.98 70.411 1022.98 69.0151C1031.66 76.7137 1036.02 80.6476 1044.7 88.4732C1044.7 86.189 1044.7 83.9048 1044.7 81.6205C1036.02 73.795 1031.66 69.9034 1022.98 62.2047C1022.98 60.8088 1022.98 60.0897 1022.98 58.6938C1031.66 66.3925 1036.02 70.2418 1044.7 78.0673C1044.7 75.7831 1044.7 73.4989 1044.7 71.2147C1036.02 63.4314 1031.66 59.5398 1022.98 51.8835C1022.98 50.4876 1022.98 49.7685 1022.98 48.3726C1031.66 56.0289 1036.02 59.8782 1044.7 67.6615C1044.7 65.3773 1044.7 63.093 1044.7 60.8088C1036.02 53.0256 1031.66 49.1763 1022.98 41.5622C1022.98 40.1663 1022.98 39.4472 1022.98 38.0513C1031.66 45.6654 1036.02 49.5147 1044.7 57.2556C1044.7 54.9714 1044.7 52.6872 1044.7 50.403C1036.02 42.662 1031.66 38.855 1022.98 31.241C1022.98 29.8451 1022.98 29.126 1022.98 27.7301C1031.66 35.3018 1036.02 39.1511 1044.7 46.8498C1044.7 44.5656 1044.7 42.2813 1044.7 39.9971C1036.02 32.2985 1031.7 28.4915 1022.98 20.9197C1022.98 19.5238 1022.98 18.8047 1022.98 17.4088C1031.66 24.9806 1036.02 28.7876 1044.7 36.4439C1044.7 34.1597 1044.7 31.8755 1044.7 29.5913C1036.02 21.9349 1031.66 18.1279 1022.98 10.5985C1022.98 9.20259 1022.98 8.48348 1022.98 7.08758C1031.66 14.617 1036.02 18.424 1044.7 26.0381C1044.7 24.8537 1044.7 23.9654 1044.7 22.5272C1036.02 14.8708 1031.66 11.1061 1022.98 3.57666C1020.94 5.26867 1019.12 6.79148 1017.43 8.18738H1020.39V228.487L1019.55 228.656Z" fill="#F6C164"/>
<path d="M1167.76 196.972C1170.77 200.018 1173.82 203.148 1177.84 207.209C1177.84 204.755 1177.84 202.302 1177.84 199.849C1169.16 191.008 1164.84 186.651 1156.12 177.979C1156.12 176.457 1156.12 175.695 1156.12 174.172C1164.8 182.844 1169.16 187.201 1177.84 195.999C1177.84 193.546 1177.84 191.092 1177.84 188.639C1169.16 179.841 1164.8 175.484 1156.12 166.854C1156.12 165.332 1156.12 164.57 1156.12 163.09C1164.8 171.719 1169.16 176.076 1177.84 184.832C1177.84 182.379 1177.84 179.925 1177.84 177.472C1169.16 168.716 1164.8 164.359 1156.12 155.772C1156.12 154.249 1156.12 153.488 1156.12 152.007C1164.8 160.594 1169.16 164.909 1177.84 173.665C1177.84 171.211 1177.84 168.758 1177.84 166.304C1169.16 157.591 1164.84 153.276 1156.12 144.689C1156.12 143.166 1156.12 142.405 1156.12 140.882C1164.8 149.427 1169.16 153.741 1177.84 162.455C1177.84 160.044 1177.84 157.633 1177.84 155.222C1169.16 146.55 1164.8 142.236 1156.12 133.691C1156.12 132.168 1156.12 131.407 1156.12 129.884C1164.8 138.386 1169.16 142.701 1177.84 151.372C1177.84 148.919 1177.84 146.466 1177.84 144.012C1169.16 135.383 1164.84 131.068 1156.12 122.608C1156.12 121.086 1156.12 120.324 1156.12 118.801C1164.8 127.261 1169.16 131.576 1177.84 140.163C1177.84 137.71 1177.84 135.256 1177.84 132.803C1169.16 124.216 1164.8 119.943 1156.16 111.483C1156.16 109.961 1156.16 109.199 1156.16 107.676C1164.84 116.136 1169.2 120.366 1177.88 128.953C1177.88 126.5 1177.88 124.047 1177.88 121.593C1169.2 113.006 1164.84 108.776 1156.16 100.358C1156.16 98.8356 1156.16 98.0742 1156.16 96.5514C1164.84 104.969 1169.2 109.199 1177.88 117.744C1177.88 115.29 1177.88 112.837 1177.88 110.384C1169.2 101.839 1164.84 97.6089 1156.16 89.2335C1156.16 87.7107 1156.16 86.9493 1156.16 85.4265C1164.84 93.8019 1169.2 98.0319 1177.88 106.534C1177.88 104.081 1177.88 101.627 1177.88 99.174C1169.2 90.6717 1164.84 86.484 1156.16 78.1085C1156.16 76.5857 1156.16 75.8243 1156.16 74.3015C1164.84 82.6346 1169.2 86.8224 1177.88 95.3247C1177.88 92.8713 1177.88 90.4179 1177.88 87.9645C1169.2 79.5044 1164.84 75.3167 1156.16 66.9836C1156.16 65.4608 1156.16 64.6994 1156.16 63.1766C1164.84 71.4674 1169.2 75.6551 1177.88 84.0729C1177.88 81.6194 1177.88 79.166 1177.88 76.7126C1169.2 68.2949 1164.84 64.1072 1156.16 55.8586C1156.16 54.3358 1156.16 53.5744 1156.16 52.0516C1164.84 60.3001 1169.2 64.4879 1177.88 72.8633C1177.88 70.4099 1177.88 67.9565 1177.88 65.4608C1169.2 57.0853 1164.84 52.9399 1156.16 44.6914C1156.16 43.1686 1156.16 42.4072 1156.16 40.8843C1164.84 49.1329 1169.2 53.2783 1177.88 61.6114C1177.88 59.158 1177.88 56.7046 1177.88 54.2089C1169.2 45.8758 1164.84 41.7303 1156.16 33.5241C1156.16 32.0013 1156.16 31.2399 1156.16 29.7171C1164.84 37.9233 1169.2 42.0264 1177.88 50.3596C1177.88 47.9062 1177.88 45.4528 1177.88 42.9994C1169.2 34.7085 1164.84 30.5631 1156.16 22.3991C1156.16 20.8763 1156.16 20.1149 1156.16 18.5921C1164.84 26.7561 1169.2 30.8592 1177.88 39.15C1177.88 36.6966 1177.88 34.2432 1177.88 31.7898C1169.2 23.5413 1164.84 19.4381 1156.16 11.2742C1156.16 9.75139 1156.16 8.98998 1156.16 7.46718C1164.84 15.5888 1169.2 19.6919 1177.88 27.9405C1177.88 26.6715 1177.88 25.6986 1177.88 24.1335C1169.2 15.8849 1164.88 11.7818 1156.16 3.66016C1154.13 5.52137 1152.31 7.12877 1150.65 8.65158H1153.62V246.421H1158.87C1158.28 245.829 1157.73 245.237 1157.13 244.602C1157.13 243.079 1157.13 242.318 1157.13 240.795C1159.17 242.868 1160.94 244.687 1162.6 246.379H1169.71C1165.81 242.36 1162.22 238.68 1157.09 233.477C1157.09 231.954 1157.09 231.193 1157.09 229.67C1163.78 236.481 1167.89 240.711 1173.39 246.379H1178.77C1178.77 245.787 1178.77 245.194 1178.77 244.602C1170.09 235.635 1165.77 231.151 1157.05 222.352C1157.05 220.829 1157.05 220.068 1157.05 218.545C1165.73 227.344 1170.09 231.785 1178.77 240.753C1178.77 238.299 1178.77 235.846 1178.77 233.393C1170.09 224.425 1165.73 220.026 1157.05 211.227C1157.05 209.704 1157.05 208.943 1157.05 207.42C1165.73 216.176 1170.09 220.618 1178.77 229.543C1178.77 227.09 1178.77 224.636 1178.77 222.183C1170.09 213.258 1165.77 208.858 1157.05 200.102C1157.05 198.58 1157.05 197.818 1157.05 196.295C1165.73 205.009 1170.09 209.451 1178.77 218.334C1178.77 215.88 1178.77 213.427 1178.77 210.973C1170.09 202.09 1165.73 197.691 1157.05 188.977C1157.05 187.455 1157.05 186.693 1157.05 185.17C1161.75 189.866 1165.18 193.292 1168.69 196.888" fill="#F6C164"/>
<path d="M364.398 255.727C333.696 258.18 303.037 260.93 272.42 263.976C272.759 179.46 273.14 94.9017 273.521 10.3859C289.02 10.3859 296.727 10.3436 312.226 10.3013C311.93 83.5229 311.591 156.745 311.294 229.924C329.038 228.486 346.781 227.174 364.567 225.948C364.525 237.834 364.482 243.798 364.44 255.685M364.525 221.379C348.56 222.437 332.637 223.579 316.673 224.848C316.969 153.318 317.308 81.8309 317.604 10.3013C317.604 8.44007 317.604 7.50947 317.604 5.60596C315.444 5.60596 314.343 5.60596 312.184 5.60596C296.685 5.60596 288.978 5.60596 273.478 5.60596C271.319 5.60596 270.218 5.60596 268.058 5.60596C268.058 7.50947 268.058 8.48237 268.058 10.3859C267.719 95.1132 267.338 179.798 266.957 264.526C266.957 266.429 266.957 267.402 266.957 269.263C269.117 269.052 270.218 268.925 272.377 268.713C303.037 265.625 333.654 262.833 364.355 260.295C366.515 260.126 367.616 260.042 369.776 259.872C369.776 258.054 369.776 257.123 369.776 255.304C369.818 243.418 369.861 237.496 369.903 225.609C369.903 223.79 369.903 222.86 369.903 221.041C367.743 221.168 366.642 221.252 364.482 221.379" fill="#F6C164"/>
<path d="M369.859 249.126C369.859 247.772 369.859 247.053 369.859 245.7C378.498 252.383 382.817 255.725 391.456 262.366C391.456 260.124 391.456 257.967 391.456 255.809C382.817 249.168 378.498 245.826 369.859 239.101C369.859 237.747 369.859 237.028 369.859 235.674C378.498 242.4 382.817 245.742 391.456 252.425C391.456 250.395 391.456 248.238 391.456 245.869C382.817 239.185 378.498 235.801 369.859 229.076C369.859 227.722 369.859 227.003 369.859 225.649C378.498 232.417 382.817 235.759 391.456 242.442C391.456 240.624 391.456 239.693 391.456 237.874C382.817 231.148 378.498 227.807 369.859 221.039C366.895 222.942 364.312 224.592 361.898 226.157L364.396 225.988L364.269 255.725L311.124 260.039V263.973H288.51C288.51 269.726 288.468 275.437 288.426 281.189C288.426 283.093 288.426 284.024 288.426 285.927C290.585 285.716 291.687 285.589 293.846 285.335C324.506 282.205 355.165 279.413 385.866 276.917C388.026 276.748 389.127 276.663 391.329 276.494C391.329 274.675 391.329 273.745 391.329 271.926C391.329 269.684 391.329 267.696 391.329 265.792C382.69 259.151 378.371 255.809 369.732 249.126" fill="#F6C164"/>
<path d="M339.963 30.9428C331.324 23.6248 327.047 19.987 318.408 12.5845C318.408 11.1886 318.408 10.5118 318.408 9.07355C327.047 16.4761 331.367 20.1562 340.005 27.4741C340.005 28.87 340.005 29.5468 340.005 30.9428M318.493 5.60493C316.079 7.59304 314.047 9.28505 312.099 10.8925V229.585L319.848 229.077C319.086 228.485 318.366 227.893 317.561 227.258C317.561 225.862 317.561 225.185 317.561 223.789C319.975 225.693 322.008 227.3 323.956 228.823L331.875 228.273C327.301 224.72 323.448 221.632 317.604 217.064C317.604 215.668 317.604 214.991 317.604 213.553C325.099 219.475 329.334 222.816 335.94 227.977L339.158 227.766C339.158 226.454 339.158 225.143 339.158 223.832C330.52 217.064 326.2 213.68 317.604 206.827C317.604 205.431 317.604 204.712 317.604 203.316C326.243 210.169 330.562 213.553 339.158 220.321C339.158 218.079 339.158 215.879 339.158 213.637C330.52 206.827 326.2 203.443 317.604 196.548C317.604 195.152 317.604 194.433 317.604 193.037C326.243 199.932 330.52 203.316 339.158 210.126C339.158 207.885 339.158 205.685 339.158 203.443C330.52 196.633 326.243 193.206 317.604 186.269C317.604 184.873 317.604 184.154 317.604 182.758C326.243 189.653 330.562 193.122 339.158 199.932C339.158 197.69 339.158 195.491 339.158 193.249C330.52 186.396 326.2 182.97 317.604 176.032C317.604 174.637 317.604 173.917 317.604 172.522C326.243 179.459 330.562 182.927 339.158 189.78C339.158 187.538 339.158 185.339 339.158 183.097C330.52 176.202 326.2 172.733 317.604 165.796C317.604 164.4 317.604 163.723 317.604 162.327C326.243 169.307 330.562 172.775 339.158 179.67C339.158 177.428 339.158 175.229 339.158 172.987C330.52 166.05 326.2 162.581 317.604 155.601C317.604 154.206 317.604 153.486 317.604 152.133C326.243 159.112 330.52 162.623 339.158 169.518C339.158 167.276 339.158 165.077 339.158 162.835C330.52 155.898 326.243 152.387 317.604 145.365C317.604 143.969 317.604 143.292 317.604 141.896C326.243 148.918 330.562 152.429 339.158 159.366C339.158 157.124 339.158 154.925 339.158 152.683C330.52 145.703 326.2 142.192 317.604 135.128C317.604 133.732 317.604 133.055 317.604 131.66C326.243 138.724 330.52 142.235 339.158 149.214C339.158 147.015 339.158 144.815 339.158 142.658C330.52 135.678 326.2 132.125 317.604 125.061C317.604 123.665 317.604 122.988 317.604 121.55C326.243 128.656 330.562 132.167 339.158 139.189C339.158 136.947 339.158 134.747 339.158 132.506C330.562 125.484 326.243 121.93 317.604 114.824C317.604 113.428 317.604 112.709 317.604 111.313C326.243 118.42 330.562 121.973 339.158 128.995C339.158 126.753 339.158 124.553 339.158 122.311C330.52 115.247 326.243 111.694 317.604 104.545C317.604 103.149 317.604 102.43 317.604 101.034C326.2 108.183 330.52 111.736 339.158 118.8C339.158 116.558 339.158 114.359 339.158 112.117C330.52 105.053 326.243 101.457 317.604 94.2662C317.604 92.8703 317.604 92.1935 317.604 90.7975C326.243 97.9886 330.52 101.542 339.158 108.648C339.158 106.406 339.158 104.207 339.158 101.965C330.562 94.8584 326.243 91.2629 317.604 84.0718C317.604 82.6759 317.604 81.9991 317.604 80.5609C326.243 87.7942 330.562 91.3475 339.158 98.4962C339.158 96.2543 339.158 94.0547 339.158 91.8128C330.52 84.664 326.243 81.0685 317.604 73.8352C317.604 72.4393 317.604 71.7202 317.604 70.3242C326.243 77.5576 330.562 81.1954 339.158 88.3441C339.158 86.1022 339.158 83.9026 339.158 81.6607C330.52 74.4697 326.243 70.8742 317.604 63.5985C317.604 62.2026 317.604 61.5258 317.604 60.1299C326.243 67.4055 330.52 71.0434 339.158 78.1921C339.158 75.9502 339.158 73.7506 339.158 71.5087C330.52 64.3176 326.243 60.6798 317.604 53.3619C317.604 51.966 317.604 51.2892 317.604 49.8932C326.243 57.2112 330.52 60.849 339.158 68.04C339.158 65.7981 339.158 63.5985 339.158 61.3566C330.562 54.1233 326.243 50.4855 317.604 43.1252C317.604 41.7293 317.604 41.0525 317.604 39.6566C326.243 47.0168 330.562 50.6547 339.158 57.888C339.158 55.6461 339.158 53.4465 339.158 51.2046C330.562 43.9289 326.243 40.2911 317.604 32.9309C317.604 31.535 317.604 30.8582 317.604 29.4622C326.243 36.8225 330.562 40.5026 339.158 47.7782C339.158 45.5363 339.158 43.3367 339.158 41.0948C330.562 33.8192 326.243 30.139 317.604 22.7365C317.604 21.3406 317.604 20.6215 317.604 19.2256C326.243 26.6281 330.562 30.3083 339.158 37.6262C339.158 34.6229 339.158 31.6619 339.158 28.6585C339.158 26.7973 339.158 25.8667 339.158 24.0055C330.52 16.6453 326.243 12.9652 317.604 5.47803" fill="#F6C164"/>
<path d="M497.663 246.802C466.962 249.171 436.302 251.836 405.685 254.755C406.067 173.242 406.405 91.7295 406.786 10.1747C422.286 10.1747 429.993 10.1324 445.492 10.0901C445.195 80.6891 444.857 151.33 444.56 221.93C462.304 220.534 480.047 219.265 497.833 218.08C497.79 229.544 497.748 235.296 497.706 246.76M497.79 213.681C481.826 214.696 465.903 215.838 449.938 217.023C450.235 148.031 450.573 79.0817 450.87 10.0901C450.87 8.27118 450.87 7.38287 450.87 5.56396C448.71 5.56396 447.609 5.56396 445.449 5.56396C429.95 5.56396 422.243 5.56396 406.744 5.56396C404.584 5.56396 403.483 5.56396 401.324 5.56396C401.324 7.42517 401.324 8.31348 401.324 10.1747C400.943 91.8564 400.604 173.58 400.223 255.262C400.223 257.081 400.223 258.012 400.223 259.873C402.382 259.661 403.483 259.534 405.643 259.323C436.302 256.32 466.919 253.612 497.621 251.201C499.781 251.032 500.882 250.947 503.041 250.778C503.041 249.002 503.041 248.113 503.041 246.337C503.084 234.873 503.126 229.163 503.169 217.7C503.169 215.923 503.169 215.035 503.169 213.258C501.009 213.385 499.908 213.469 497.748 213.596" fill="#F6C164"/>
<path d="M503.084 240.454C503.084 239.143 503.084 238.466 503.084 237.155C511.723 243.627 516.042 246.842 524.681 253.229C524.681 251.072 524.681 248.957 524.681 246.884C516.042 240.454 511.723 237.239 503.084 230.768C503.084 229.456 503.084 228.779 503.084 227.468C511.723 233.94 516.042 237.155 524.681 243.627C524.681 241.681 524.681 239.566 524.681 237.282C516.042 230.852 511.723 227.595 503.084 221.081C503.084 219.769 503.084 219.093 503.084 217.781C511.723 224.296 516.042 227.51 524.681 233.982C524.681 232.206 524.681 231.36 524.681 229.583C516.042 223.111 511.723 219.854 503.084 213.34C500.12 215.159 497.537 216.766 495.123 218.289L497.621 218.12L497.494 246.799L444.349 250.945V254.752H421.693C421.693 260.293 421.651 265.834 421.608 271.376C421.608 273.195 421.608 274.125 421.608 275.944C423.768 275.733 424.869 275.606 427.029 275.394C457.688 272.391 488.347 269.684 519.049 267.273C521.209 267.103 522.31 267.019 524.512 266.85C524.512 265.073 524.512 264.227 524.512 262.45C524.512 260.293 524.512 258.347 524.512 256.528C515.873 250.099 511.554 246.926 502.915 240.454" fill="#F6C164"/>
<path d="M473.23 30.0555C464.591 23.0336 460.271 19.4804 451.675 12.3317C451.675 10.9781 451.675 10.3013 451.675 8.94767C460.314 16.0964 464.633 19.6496 473.23 26.6715C473.23 28.0251 473.23 28.6596 473.23 30.0132M451.76 5.60596C449.346 7.50947 447.313 9.15917 445.365 10.7243V221.633L453.115 221.126C452.353 220.576 451.633 219.983 450.828 219.391C450.828 218.038 450.828 217.361 450.828 216.007C453.242 217.826 455.274 219.391 457.222 220.872L465.141 220.364C460.568 216.938 456.714 213.977 450.87 209.535C450.87 208.182 450.87 207.505 450.87 206.151C458.366 211.862 462.6 215.077 469.207 220.068L472.425 219.857C472.425 218.588 472.425 217.319 472.425 216.049C463.786 209.535 459.467 206.236 450.87 199.637C450.87 198.283 450.87 197.607 450.87 196.253C459.509 202.852 463.829 206.151 472.425 212.665C472.425 210.508 472.425 208.393 472.425 206.236C463.786 199.679 459.467 196.38 450.87 189.739C450.87 188.385 450.87 187.708 450.87 186.355C459.509 192.996 463.829 196.295 472.425 202.852C472.425 200.695 472.425 198.58 472.425 196.422C463.786 189.823 459.509 186.524 450.87 179.883C450.87 178.529 450.87 177.852 450.87 176.499C459.509 183.182 463.829 186.482 472.425 193.08C472.425 190.923 472.425 188.766 472.425 186.651C463.786 180.052 459.467 176.71 450.87 170.027C450.87 168.673 450.87 167.996 450.87 166.643C459.509 173.326 463.829 176.668 472.425 183.267C472.425 181.11 472.425 178.952 472.425 176.837C463.786 170.196 459.467 166.854 450.87 160.129C450.87 158.775 450.87 158.098 450.87 156.787C459.509 163.513 463.829 166.854 472.425 173.495C472.425 171.338 472.425 169.181 472.425 167.066C463.786 160.382 459.509 157.041 450.87 150.315C450.87 148.961 450.87 148.285 450.87 146.931C459.509 153.699 463.786 157.041 472.425 163.724C472.425 161.567 472.425 159.452 472.425 157.295C463.786 150.611 459.509 147.227 450.87 140.459C450.87 139.105 450.87 138.429 450.87 137.117C459.509 143.885 463.829 147.269 472.425 153.995C472.425 151.838 472.425 149.68 472.425 147.565C463.786 140.84 459.467 137.456 450.87 130.645C450.87 129.292 450.87 128.615 450.87 127.304C459.509 134.114 463.829 137.498 472.425 144.224C472.425 142.109 472.425 139.994 472.425 137.879C463.786 131.111 459.467 127.727 450.87 120.916C450.87 119.563 450.87 118.886 450.87 117.532C459.509 124.385 463.829 127.769 472.425 134.537C472.425 132.38 472.425 130.265 472.425 128.107C463.786 121.339 459.509 117.913 450.87 111.06C450.87 109.707 450.87 109.03 450.87 107.676C459.509 114.529 463.829 117.955 472.425 124.766C472.425 122.608 472.425 120.493 472.425 118.336C463.786 111.526 459.509 108.099 450.87 101.204C450.87 99.8508 450.87 99.174 450.87 97.8204C459.509 104.715 463.829 108.142 472.425 114.952C472.425 112.795 472.425 110.68 472.425 108.522C463.786 101.67 459.509 98.2434 450.87 91.3062C450.87 89.9526 450.87 89.2758 450.87 87.9222C459.509 94.8594 463.786 98.2857 472.425 105.138C472.425 102.981 472.425 100.866 472.425 98.7087C463.829 91.8561 459.509 88.3875 450.87 81.4502C450.87 80.0966 450.87 79.4198 450.87 78.0662C459.509 85.0458 463.829 88.4721 472.425 95.367C472.425 93.2097 472.425 91.0524 472.425 88.9374C463.829 82.0424 459.509 78.5738 450.87 71.5943C450.87 70.2407 450.87 69.5639 450.87 68.2103C459.509 75.1898 463.829 78.6584 472.425 85.5534C472.425 83.396 472.425 81.2387 472.425 79.1237C463.786 72.1865 459.509 68.7179 450.87 61.696C450.87 60.3424 450.87 59.6656 450.87 58.3543C459.467 65.3762 463.786 68.8448 472.425 75.782C472.425 73.6247 472.425 71.4674 472.425 69.3524C463.786 62.4151 459.509 58.9042 450.87 51.8401C450.87 50.4865 450.87 49.8097 450.87 48.4984C459.509 55.5625 463.786 59.0311 472.425 66.0107C472.425 63.8533 472.425 61.696 472.425 59.581C463.829 52.6015 459.509 49.0906 450.87 42.0264C450.87 40.6728 450.87 39.996 450.87 38.6424C459.509 45.7489 463.829 49.2598 472.425 56.2393C472.425 54.082 472.425 51.9247 472.425 49.8097C463.786 42.8301 459.509 39.2769 450.87 32.1705C450.87 30.8169 450.87 30.1401 450.87 28.7865C459.509 35.8929 463.829 39.4461 472.425 46.4257C472.425 44.2684 472.425 42.111 472.425 39.996C463.829 32.9742 459.509 29.421 450.87 22.3145C450.87 20.9609 450.87 20.2841 450.87 18.9305C459.509 26.0793 463.829 29.6325 472.425 36.6543C472.425 33.7779 472.425 30.9015 472.425 28.0251C472.425 26.2485 472.425 25.3602 472.425 23.5412C463.786 16.4348 459.509 12.8816 450.87 5.69056" fill="#F6C164"/>
<path d="M219.697 270.743C204.241 272.519 196.533 273.45 181.077 275.396C181.415 187.454 181.712 99.5539 182.051 11.6117C197.507 11.6117 205.257 11.5694 220.756 11.5271C220.417 97.9464 220.078 184.323 219.697 270.743ZM220.756 6.7049C205.257 6.7049 197.507 6.7049 182.051 6.7049H176.63C176.63 8.69301 176.63 9.66591 176.63 11.654C176.291 99.8077 175.995 187.961 175.656 276.115C175.656 278.103 175.656 279.076 175.656 281.064C177.816 280.768 178.875 280.641 181.077 280.345C196.533 278.357 204.241 277.426 219.697 275.607C221.857 275.354 222.958 275.227 225.118 274.973C225.118 273.027 225.118 272.054 225.118 270.108C225.456 183.9 225.838 97.6926 226.176 11.5271C226.176 9.58131 226.176 8.60841 226.176 6.6626H220.756" fill="#F6C164"/>
<path d="M247.733 29.4201C247.733 28.2357 247.733 27.3051 247.733 25.8246C239.094 18.2106 234.817 14.4035 226.178 6.6626C224.061 8.43921 222.24 10.0466 220.504 11.5271H220.716V294.812C226.898 294.05 232.954 293.289 241.169 292.316C243.329 292.062 244.43 291.935 246.59 291.681C246.59 289.778 246.59 288.805 246.59 286.859C246.59 286.352 246.59 285.844 246.59 285.336C237.993 278.695 233.674 275.311 225.077 268.585C225.077 267.147 225.077 266.428 225.077 264.99C233.674 271.758 237.993 275.1 246.59 281.783C246.59 279.372 246.59 276.961 246.59 274.55C237.993 267.866 233.674 264.482 225.077 257.672C225.077 256.234 225.077 255.515 225.077 254.077C233.674 260.887 237.993 264.271 246.59 270.954C246.59 268.628 246.59 266.344 246.59 264.017C237.993 257.291 233.674 253.907 225.077 247.055C225.077 245.616 225.077 244.897 225.077 243.417C233.674 250.269 237.993 253.653 246.59 260.379C246.59 258.095 246.59 255.768 246.59 253.484C237.993 246.716 233.674 243.29 225.077 236.437C225.077 234.999 225.077 234.28 225.077 232.799C233.674 239.694 237.993 243.078 246.59 249.889C246.59 247.605 246.59 245.278 246.59 242.952C237.993 236.141 233.674 232.715 225.077 225.82C225.077 224.382 225.077 223.663 225.077 222.182C233.674 229.119 237.993 232.546 246.59 239.356C246.59 237.072 246.59 234.745 246.59 232.461C237.951 225.608 233.674 222.182 225.035 215.203C225.035 213.764 225.035 213.045 225.035 211.565C233.632 218.544 237.951 221.971 246.547 228.823C246.547 226.539 246.547 224.213 246.547 221.928C237.951 215.033 233.632 211.565 224.993 204.585C224.993 203.147 224.993 202.428 224.993 200.947C233.589 207.969 237.909 211.438 246.547 218.333C246.547 216.006 246.547 213.722 246.547 211.396C237.951 204.458 233.632 200.99 224.993 193.968C224.993 192.53 224.993 191.811 224.993 190.33C233.589 197.352 237.909 200.863 246.505 207.8C246.505 205.516 246.505 203.189 246.505 200.905C237.866 193.926 233.589 190.415 224.95 183.351C224.95 181.912 224.95 181.193 224.95 179.713C233.547 186.777 237.866 190.33 246.505 197.267C246.505 194.941 246.505 192.657 246.505 190.33C237.909 183.351 233.589 179.797 224.95 172.691C224.95 171.253 224.95 170.534 224.95 169.095C233.547 176.202 237.866 179.755 246.505 186.777C246.505 184.45 246.505 182.166 246.505 179.84C237.909 172.818 233.589 169.265 224.95 162.116C224.95 160.678 224.95 159.959 224.95 158.52C233.547 165.669 237.866 169.222 246.505 176.286C246.505 173.96 246.505 171.676 246.505 169.391C237.866 162.327 233.589 158.732 224.95 151.541C224.95 150.103 224.95 149.383 224.95 147.945C233.589 155.136 237.866 158.732 246.505 165.796C246.505 163.469 246.505 161.185 246.505 158.859C237.866 151.752 233.589 148.157 224.95 140.923C224.95 139.485 224.95 138.766 224.95 137.328C233.547 144.561 237.866 148.157 246.505 155.263C246.505 152.979 246.505 150.737 246.505 148.453C237.866 141.304 233.589 137.709 224.95 130.433C224.95 128.995 224.95 128.276 224.95 126.795C233.589 134.071 237.866 137.666 246.505 144.857C246.505 142.531 246.505 140.247 246.505 137.92C237.909 130.729 233.589 127.091 224.95 119.816C224.95 118.377 224.95 117.658 224.95 116.178C233.589 123.496 237.866 127.134 246.505 134.325C246.505 131.998 246.505 129.714 246.505 127.387C237.909 120.154 233.589 116.516 224.95 109.156C224.95 107.718 224.95 106.999 224.95 105.518C233.589 112.878 237.866 116.516 246.505 123.75C246.505 121.465 246.505 119.139 246.505 116.812C237.866 109.537 233.589 105.899 224.95 98.4963C224.95 97.0581 224.95 96.339 224.95 94.8585C233.589 102.261 237.866 105.941 246.505 113.217C246.505 110.933 246.505 108.606 246.505 106.322C237.866 99.0039 233.589 95.3238 224.95 87.9213C224.95 86.4831 224.95 85.764 224.95 84.2835C233.589 91.7283 237.866 95.4084 246.505 102.726C246.505 100.4 246.505 98.1156 246.505 95.7891C237.909 88.4289 233.589 84.7488 224.95 77.2616C224.95 75.8234 224.95 75.1043 224.95 73.6238C233.589 81.111 237.866 84.7911 246.505 92.1513C246.505 89.8248 246.505 87.5406 246.505 85.2141C237.866 77.8538 233.589 74.1314 224.95 66.602C224.95 65.1638 224.95 64.4447 224.95 63.0065C233.547 70.5359 237.866 74.2583 246.505 81.6186C246.505 79.3344 246.505 77.0078 246.505 74.7236C237.866 67.3211 233.589 63.5564 224.95 56.0269C224.95 54.5887 224.95 53.8696 224.95 52.4314C233.589 60.0032 237.866 63.7256 246.505 71.1704C246.505 68.8439 246.505 66.5597 246.505 64.2332C237.866 56.7883 233.589 53.0236 224.95 45.4519C224.95 44.0137 224.95 43.2946 224.95 41.8564C233.589 49.4704 237.866 53.2351 246.505 60.68C246.505 58.3535 246.505 56.0692 246.505 53.7427C237.866 46.2556 233.589 42.4909 224.95 34.8768C224.95 33.4386 224.95 32.7195 224.95 31.239C233.589 38.8954 237.866 42.6601 246.505 50.1472C246.505 47.8207 246.505 45.5365 246.505 43.21C237.866 35.6805 233.589 31.8735 224.95 24.2172C224.95 22.779 224.95 22.0599 224.95 20.5794C233.589 28.278 237.909 32.0427 246.505 39.6145C246.505 37.2879 246.505 35.0037 246.505 32.6772C237.866 25.1055 233.589 21.2985 224.95 13.5998C224.95 12.1616 224.95 11.4425 224.95 9.96201C233.589 17.6607 237.909 21.51 246.505 29.0817" fill="#F6C164"/>
<path d="M889.799 252.893C889.503 172.565 889.248 92.2365 888.952 11.9084C904.451 11.9084 912.158 11.9084 927.657 11.9507C927.954 93.0825 928.292 174.257 928.589 255.388C913.09 254.289 905.34 253.823 889.799 252.893ZM934.009 255.769C933.671 174.51 933.374 93.2517 933.035 11.9507C933.035 10.1318 933.035 9.20123 933.035 7.38232H927.615C912.116 7.38232 904.409 7.38232 888.91 7.38232H883.489C883.489 9.20123 883.489 10.0895 883.489 11.9084C883.786 92.1519 884.04 172.353 884.336 252.597C884.336 254.416 884.336 255.304 884.336 257.123C886.496 257.25 887.597 257.334 889.757 257.461C905.298 258.392 913.048 258.899 928.547 259.999C930.706 260.168 931.807 260.211 933.967 260.38C933.967 258.561 933.967 257.63 933.967 255.811" fill="#F6C164"/>
<path d="M931.805 258.729C931.805 257.375 931.805 256.699 931.805 255.345C940.062 262.79 944.424 266.808 952.258 273.999C952.258 271.8 952.258 269.6 952.258 267.358C944.424 260.167 940.062 256.191 931.805 248.746C931.805 247.393 931.805 246.716 931.805 245.32C940.062 252.765 944.424 256.741 952.258 263.932C952.258 261.732 952.258 259.533 952.258 257.291C944.424 250.1 940.062 246.166 931.805 238.721C931.805 237.367 931.805 236.691 931.805 235.295C940.062 242.697 944.424 246.673 952.258 253.822C952.258 251.623 952.258 249.423 952.258 247.181C944.424 240.032 940.062 236.056 931.805 228.696C931.805 227.342 931.805 226.665 931.805 225.27C940.062 232.672 944.424 236.606 952.258 243.755C952.258 241.555 952.258 239.356 952.258 237.156C944.424 230.049 940.062 226.073 931.805 218.713C931.805 217.359 931.805 216.683 931.805 215.287C940.062 222.647 944.424 226.581 952.258 233.687C952.258 231.488 952.258 229.288 952.258 227.046C944.424 219.94 940.062 216.006 931.805 208.646C931.805 207.292 931.805 206.615 931.805 205.219C940.062 212.537 944.424 216.471 952.258 223.578C952.258 221.378 952.258 219.178 952.258 216.979C944.424 209.915 940.062 205.981 931.805 198.663C931.805 197.309 931.805 196.632 931.805 195.236C940.062 202.554 944.424 206.488 952.258 213.552C952.258 211.353 952.258 209.153 952.258 206.911C944.424 199.847 940.062 195.956 931.805 188.638C931.805 187.284 931.805 186.565 931.805 185.211C940.062 192.487 944.424 196.421 952.258 203.443C952.258 201.243 952.258 199.043 952.258 196.801C944.424 189.78 940.062 185.888 931.805 178.612C931.805 177.259 931.805 176.582 931.805 175.186C940.062 182.462 944.424 186.353 952.258 193.375C952.258 191.176 952.258 188.976 952.258 186.734C944.424 179.755 940.062 175.863 931.805 168.587C931.805 167.234 931.805 166.557 931.805 165.203C940.062 172.437 944.424 176.328 952.258 183.308C952.258 181.108 952.258 178.909 952.258 176.667C944.424 169.687 940.062 165.795 931.805 158.604C931.805 157.251 931.805 156.574 931.805 155.22C940.062 162.454 944.424 166.303 952.258 173.283C952.258 171.083 952.258 168.883 952.258 166.641C944.424 159.704 940.062 155.813 931.805 148.622C931.805 147.268 931.805 146.591 931.805 145.195C940.062 152.386 944.424 156.236 952.258 163.215C952.258 161.058 952.258 158.901 952.258 156.701C944.424 149.764 940.062 145.914 931.805 138.766C931.805 137.412 931.805 136.735 931.805 135.339C940.062 142.53 944.424 146.337 952.258 153.275C952.258 151.075 952.258 148.875 952.258 146.633C944.424 139.739 940.062 135.889 931.805 128.74C931.805 127.387 931.805 126.71 931.805 125.314C940.062 132.463 944.424 136.312 952.258 143.207C952.258 141.008 952.258 138.808 952.258 136.566C944.424 129.671 940.062 125.864 931.805 118.715C931.805 117.362 931.805 116.685 931.805 115.289C940.02 122.395 944.424 126.245 952.258 133.097C952.258 130.898 952.258 128.698 952.258 126.499C944.424 119.646 940.062 115.839 931.805 108.732C931.805 107.379 931.805 106.702 931.805 105.306C940.02 112.413 944.424 116.22 952.258 123.072C952.258 120.873 952.258 118.673 952.258 116.431C944.424 109.621 940.062 105.814 931.805 98.7073C931.805 97.3537 931.805 96.6346 931.805 95.281C940.02 102.345 944.424 106.152 952.258 112.963C952.258 110.763 952.258 108.563 952.258 106.321C944.424 99.511 940.062 95.7463 931.847 88.6822C931.847 87.3286 931.847 86.6518 931.847 85.2559C940.062 92.32 944.467 96.0847 952.301 102.895C952.301 100.695 952.301 98.4958 952.301 96.2539C944.467 89.4859 940.105 85.7212 931.889 78.657C931.889 77.3034 931.889 76.6266 931.889 75.2307C940.105 82.2526 944.509 86.0173 952.301 92.7853C952.301 90.5857 952.301 88.3861 952.301 86.1442C944.467 79.3761 940.105 75.6114 931.847 68.6319C931.847 67.2783 931.847 66.6015 931.847 65.2056C940.062 72.2274 944.466 75.9498 952.258 82.7179C952.258 80.5182 952.258 78.3186 952.258 76.0767C944.424 69.351 940.062 65.5863 931.847 58.6067C931.847 57.2531 931.847 56.5763 931.847 55.2227C940.062 62.2023 944.466 65.967 952.258 72.6504C952.258 70.4508 952.258 68.2512 952.258 66.0093C944.424 59.2835 940.062 55.5611 931.847 48.5816C931.847 47.228 931.847 46.5512 931.847 45.1553C940.062 52.1348 944.466 55.8572 952.258 62.5407C952.258 60.341 952.258 58.1414 952.258 55.8995C944.424 49.2161 940.062 45.4937 931.847 38.5564C931.847 37.2028 931.847 36.526 931.847 35.1301C940.062 42.0674 944.466 45.7898 952.258 52.4732C952.258 50.2736 952.258 48.074 952.258 45.8321C944.424 39.1486 940.062 35.4685 931.847 28.5313C931.847 27.1777 931.847 26.5009 931.847 25.105C940.062 32.0422 944.466 35.7223 952.258 42.3635C952.258 39.8678 952.258 37.3297 952.258 34.834C946.499 29.5042 942.264 25.6549 935.362 19.3944C935.362 18.0408 935.362 17.364 935.362 16.0104C942.264 22.2709 946.457 26.0779 952.216 31.4077C952.216 30.4348 952.216 29.4619 952.216 28.489C952.216 26.6701 952.216 25.7395 952.216 23.8783C943.535 16.4757 942.73 14.2761 934.049 7.00049C931.974 8.6925 929.984 10.0884 927.993 11.3151V264.693H903.602C903.602 266.512 903.602 268.289 903.602 270.108C903.602 271.927 912.452 263.763 912.452 265.582C914.612 265.751 906.905 274.888 909.064 275.015C922.742 275.987 930.407 276.58 942.688 277.553C939.766 274.888 936.759 272.138 932.863 268.627C932.863 267.274 932.863 266.597 932.863 265.201C938.538 270.362 942.392 273.83 946.796 277.891C947.177 277.891 947.515 277.933 947.897 277.976C950.056 278.145 951.157 278.229 953.317 278.441C953.317 277.891 953.317 277.426 953.317 277.003C945.483 269.769 941.121 265.793 932.863 258.306" fill="#F6C164"/>
<path d="M765.467 207.25C772.623 207.42 777.07 207.546 785.031 207.8C789.478 207.927 790.663 207.123 790.917 206.87C791.087 206.7 791.256 206.362 791.256 205.093L790.917 53.4468C790.917 44.4791 787.445 43.8023 782.617 43.76L765.17 43.6754L765.467 207.293V207.25ZM785.963 214.018C785.624 214.018 785.243 214.018 784.862 214.018C775.842 213.765 771.311 213.638 762.291 213.426L759.284 213.342L758.988 37.415L782.702 37.5419C788.927 37.5419 797.142 39.2762 797.185 53.4045L797.523 205.051C797.523 206.954 797.269 209.365 795.321 211.311C793.416 213.13 790.452 214.018 786.005 214.018M717.996 243.671C748.951 244.263 773.343 244.898 792.442 245.532C806.628 247.139 821.153 242.994 829.665 234.999C836.059 228.993 839.066 221.252 838.6 211.946L838.134 53.5314C838.346 39.953 834.281 28.8704 826.023 20.6641C816.326 11.0197 801.377 5.90136 784.184 6.28206H717.953V7.59337L718.165 236.099L718.038 243.755L717.996 243.671ZM798.794 252.131C796.507 252.131 794.22 252.004 791.934 251.75C772.496 251.073 747.173 250.439 714.735 249.847H711.644L711.898 235.972L711.728 0.0216286H784.142C803.029 -0.401374 819.586 5.39376 830.47 16.2226C839.828 25.571 844.656 38.4725 844.402 53.5314L844.868 211.734C845.418 222.648 841.649 232.292 833.984 239.483C825.43 247.478 812.43 252.046 798.879 252.046" fill="#F6C164"/>
<path d="M763.562 202.216V198.917C769.364 203.739 773.26 206.996 777.791 210.803C778.595 210.803 779.4 210.846 780.289 210.888C780.289 209.45 780.289 208.012 780.289 206.573C774.572 201.793 770.422 198.283 763.562 192.572C763.562 191.261 763.562 190.584 763.562 189.273C770.422 194.983 774.572 198.452 780.289 203.232C780.289 201.117 780.289 198.959 780.289 196.844C774.572 192.064 770.422 188.596 763.562 182.885C763.562 181.574 763.562 180.897 763.562 179.586C770.422 185.296 774.572 188.765 780.289 193.545C780.289 191.43 780.289 189.273 780.289 187.158C774.572 182.378 770.422 178.909 763.562 173.198C763.562 171.887 763.562 171.21 763.562 169.899C770.422 175.567 774.572 179.078 780.289 183.816C780.289 181.701 780.289 179.544 780.289 177.428C774.615 172.649 770.422 169.18 763.562 163.512C763.562 162.2 763.562 161.524 763.562 160.212C770.422 165.881 774.572 169.349 780.289 174.129C780.289 172.014 780.289 169.857 780.289 167.742C774.572 163.004 770.422 159.493 763.562 153.825V150.526C770.38 156.194 774.572 159.662 780.247 164.442C780.247 162.327 780.247 160.212 780.247 158.055C774.53 153.317 770.38 149.849 763.52 144.181V140.881C770.338 146.549 774.53 150.018 780.204 154.756C780.204 152.641 780.204 150.483 780.204 148.368C774.53 143.631 770.338 140.162 763.477 134.494C763.477 133.182 763.477 132.506 763.477 131.194C770.338 136.863 774.488 140.289 780.162 145.069C780.162 142.954 780.162 140.839 780.162 138.682C774.488 133.944 770.295 130.475 763.477 124.849C763.477 123.538 763.477 122.861 763.477 121.55C770.295 127.176 774.488 130.644 780.162 135.382C780.162 133.267 780.162 131.11 780.162 128.995C774.488 124.257 770.295 120.831 763.477 115.163C763.477 113.851 763.477 113.175 763.477 111.863C770.295 117.489 774.488 120.958 780.162 125.695C780.162 123.58 780.162 121.423 780.162 119.308C774.488 114.57 770.295 111.144 763.477 105.518V102.219C770.295 107.845 774.488 111.313 780.162 116.009C780.162 113.894 780.162 111.736 780.162 109.621C774.488 104.884 770.295 101.457 763.477 95.8314V92.532C770.295 98.1579 774.488 101.584 780.162 106.322C780.162 104.207 780.162 102.05 780.162 99.9345C774.488 95.2392 770.295 91.7706 763.477 86.1447V82.8453C770.295 88.4712 774.488 91.8975 780.162 96.5928C780.162 94.4778 780.162 92.3205 780.162 90.2055C774.488 85.5102 770.295 82.0838 763.477 76.4579V73.1585C770.295 78.7844 774.488 82.2108 780.162 86.9061C780.162 84.7911 780.162 82.6338 780.162 80.5187C774.488 75.8234 770.295 72.3971 763.477 66.8135C763.477 65.5022 763.477 64.8254 763.477 63.5141C770.295 69.14 774.488 72.5663 780.162 77.2193C780.162 75.1043 780.162 72.947 780.162 70.832C774.488 66.1367 770.295 62.7104 763.477 57.1267C763.477 55.8154 763.477 55.1386 763.477 53.8273C770.295 59.4109 774.488 62.8373 780.162 67.5326C780.162 64.4447 780.162 61.3144 780.162 58.2265C784.947 58.2265 788.42 58.2688 792.062 58.3111C792.062 56.6614 792.062 54.9694 792.062 53.3197C792.062 42.1525 786.302 40.5873 780.077 40.545C771.439 40.5027 767.119 40.5027 758.48 40.4604C758.565 97.0581 758.692 153.613 758.777 210.211C764.96 210.338 769.152 210.465 773.895 210.592C770.846 208.054 767.797 205.474 763.731 202.132" fill="#F6C164"/>
<path d="M862.356 238.849C862.78 237.03 862.991 235.084 863.118 233.054C854.48 225.482 850.118 221.718 841.437 214.188C841.437 213.173 841.437 212.538 841.437 211.692C841.437 214.611 841.183 217.403 840.59 219.983C847.874 226.244 855.115 232.504 862.356 238.849Z" fill="#F6C164"/>
<path d="M862.653 67.1099C862.653 67.829 862.653 68.4212 862.653 69.3518C853.972 62.0338 849.61 58.396 840.929 51.205C840.929 49.8514 840.929 49.2169 840.929 47.8633C849.567 55.0543 853.929 58.6921 862.568 65.9255C862.314 63.4297 861.933 61.0609 861.425 58.7767C852.786 51.5434 844.147 44.3946 835.466 37.2036C838.43 44.0562 840.759 51.2473 841.013 57.4654C849.652 64.6565 854.014 68.2943 862.653 75.6122C862.653 76.9658 862.653 77.6426 862.653 78.9539C853.972 71.636 849.61 67.9982 840.971 60.8071C840.971 62.8798 840.971 64.9526 840.971 67.0253C849.61 74.2586 853.972 77.8964 862.653 85.2143C862.653 86.568 862.653 87.2448 862.653 88.5561C853.972 81.2381 849.652 77.558 840.971 70.367C840.971 72.4397 840.971 74.5124 840.971 76.5851C849.61 83.8184 853.972 87.4986 862.653 94.8165C862.653 96.1701 862.653 96.8469 862.653 98.2005C853.972 90.8403 849.652 87.2025 840.971 79.9268C840.971 81.9995 840.971 84.0723 840.971 86.145C849.61 93.4206 853.972 97.0584 862.653 104.419C862.653 105.772 862.653 106.449 862.653 107.76C853.972 100.4 849.61 96.72 840.971 89.4444C840.971 91.5171 840.971 93.5898 840.971 95.6625C849.61 102.938 853.972 106.618 862.653 113.979C862.653 115.332 862.653 116.009 862.653 117.32C853.972 109.96 849.61 106.28 840.971 99.0042C840.971 101.077 840.971 103.15 840.971 105.222C849.61 112.498 853.972 116.178 862.653 123.581C862.653 124.934 862.653 125.611 862.653 126.922C853.972 119.52 849.61 115.84 840.971 108.522C840.971 110.594 840.971 112.667 840.971 114.74C849.652 122.058 853.972 125.738 862.653 133.14C862.653 134.494 862.653 135.171 862.653 136.482C853.972 129.08 849.61 125.357 840.971 118.039C840.971 120.112 840.971 122.185 840.971 124.257C849.652 131.575 853.972 135.298 862.653 142.7C862.653 144.054 862.653 144.731 862.653 146.042C853.972 138.597 849.61 134.917 840.971 127.557C840.971 129.63 840.971 131.702 840.971 133.775C849.652 141.135 853.972 144.815 862.653 152.26C862.653 153.614 862.653 154.291 862.653 155.602C853.972 148.157 849.61 144.435 840.971 137.074C840.971 139.147 840.971 141.22 840.971 143.293C849.652 150.653 853.972 154.375 862.653 161.82C862.653 163.174 862.653 163.85 862.653 165.162C853.972 157.675 849.61 153.952 840.971 146.592C840.971 148.665 840.971 150.737 840.971 152.81C849.652 160.17 853.972 163.893 862.653 171.38C862.653 172.733 862.653 173.41 862.653 174.722C853.972 167.234 849.61 163.512 840.971 156.11C840.971 158.182 840.971 160.255 840.971 162.328C849.652 169.73 854.014 173.453 862.653 180.94C862.653 182.293 862.653 182.97 862.653 184.281C853.972 176.794 849.61 173.03 840.971 165.627C840.971 167.7 840.971 169.772 840.971 171.845C849.652 179.248 854.014 183.012 862.695 190.542C862.695 191.895 862.695 192.572 862.695 193.884C854.014 186.354 849.652 182.589 841.013 175.187C841.013 177.26 841.013 179.332 841.013 181.405C849.694 188.85 854.014 192.572 862.737 200.144C862.737 201.498 862.737 202.174 862.737 203.486C854.056 195.956 849.694 192.192 841.013 184.747C841.013 186.819 841.013 188.892 841.013 190.965C849.694 198.41 854.056 202.174 862.737 209.746C862.737 211.1 862.737 211.777 862.737 213.088C854.056 205.516 849.694 201.751 841.013 194.307C841.013 196.464 841.013 198.579 841.013 200.736C849.694 208.181 854.056 211.946 862.737 219.56C862.737 220.913 862.737 221.59 862.737 222.902C854.056 215.33 849.694 211.565 841.013 204.078C841.013 205.981 841.013 207.843 841.013 209.746C841.013 210 841.013 210.254 841.013 210.508C849.694 217.995 854.056 221.759 862.737 229.373V230.135C862.737 229.627 862.78 229.162 862.737 228.654C862.568 178.486 862.399 128.361 862.229 78.1925C862.526 74.174 862.441 70.367 862.145 66.7292" fill="#F6C164"/>
<path d="M1248.48 290.455C1248.18 197.902 1247.93 105.392 1247.63 12.8387C1263.13 12.8387 1270.84 12.8387 1286.34 12.881C1286.63 106.364 1286.97 199.848 1287.27 293.289C1271.77 292.062 1264.02 291.47 1248.48 290.413M1292.69 293.754C1292.35 200.144 1292.05 106.534 1291.72 12.881C1291.72 10.766 1291.72 9.70845 1291.72 7.63574C1289.56 7.63574 1288.45 7.63574 1286.29 7.63574C1270.8 7.63574 1263.09 7.63574 1247.59 7.63574H1242.17C1242.17 9.70845 1242.17 10.766 1242.17 12.8387C1242.47 105.265 1242.72 197.648 1243.02 290.074C1243.02 292.147 1243.02 293.204 1243.02 295.277C1245.18 295.446 1246.28 295.489 1248.44 295.658C1263.98 296.758 1271.73 297.308 1287.23 298.577C1289.39 298.746 1290.49 298.83 1292.65 299.042C1292.65 296.927 1292.65 295.869 1292.65 293.797" fill="#F6C164"/>
<path d="M1290.49 297.14C1290.49 295.574 1290.49 294.771 1290.49 293.206C1298.75 301.793 1303.11 306.403 1310.94 314.694C1310.94 312.156 1310.94 309.618 1310.94 307.08C1303.11 298.789 1298.75 294.221 1290.49 285.634C1290.49 284.069 1290.49 283.265 1290.49 281.7C1298.75 290.245 1303.11 294.855 1310.94 303.146C1310.94 300.608 1310.94 298.07 1310.94 295.532C1303.11 287.284 1298.75 282.673 1290.49 274.171C1290.49 272.605 1290.49 271.802 1290.49 270.237C1298.75 278.781 1303.11 283.35 1310.94 291.598C1310.94 289.06 1310.94 286.522 1310.94 283.984C1303.11 275.736 1298.75 271.21 1290.49 262.665C1290.49 261.1 1290.49 260.296 1290.49 258.731C1298.75 267.233 1303.11 271.802 1310.94 280.008C1310.94 277.47 1310.94 274.932 1310.94 272.394C1303.11 264.188 1298.75 259.662 1290.49 251.159C1290.49 249.594 1290.49 248.79 1290.49 247.225C1298.75 255.728 1303.11 260.254 1310.94 268.46C1310.94 265.922 1310.94 263.384 1310.94 260.846C1303.11 252.682 1298.75 248.114 1290.49 239.654C1290.49 238.089 1290.49 237.285 1290.49 235.72C1298.75 244.18 1303.11 248.706 1310.94 256.87C1310.94 254.332 1310.94 251.794 1310.94 249.256C1303.11 241.092 1298.75 236.608 1290.49 228.148C1290.49 226.583 1290.49 225.779 1290.49 224.214C1298.75 232.632 1303.11 237.158 1310.94 245.28C1310.94 242.742 1310.94 240.204 1310.94 237.665C1303.11 229.544 1298.75 225.018 1290.49 216.642C1290.49 215.077 1290.49 214.273 1290.49 212.708C1298.75 221.126 1303.11 225.61 1310.94 233.732C1310.94 231.194 1310.94 228.656 1310.94 226.118C1303.11 218.038 1298.75 213.512 1290.49 205.137C1290.49 203.572 1290.49 202.768 1290.49 201.203C1298.75 209.578 1303.11 214.062 1310.94 222.141C1310.94 219.603 1310.94 217.065 1310.94 214.527C1303.11 206.448 1298.75 202.006 1290.49 193.631C1290.49 192.066 1290.49 191.262 1290.49 189.697C1298.75 198.03 1303.11 202.514 1310.94 210.551C1310.94 208.013 1310.94 205.475 1310.94 202.937C1303.11 194.9 1298.75 190.458 1290.49 182.125C1290.49 180.56 1290.49 179.757 1290.49 178.191C1298.75 186.525 1303.11 190.966 1310.94 199.003C1310.94 196.465 1310.94 193.927 1310.94 191.389C1303.11 183.394 1298.75 178.953 1290.49 170.62C1290.49 169.055 1290.49 168.251 1290.49 166.686C1298.75 174.977 1303.11 179.418 1310.94 187.413C1310.94 184.917 1310.94 182.421 1310.94 179.926C1303.11 171.931 1298.75 167.532 1290.49 159.241C1290.49 157.676 1290.49 156.872 1290.49 155.307C1298.7 163.556 1303.11 167.997 1310.94 175.949C1310.94 173.411 1310.94 170.873 1310.94 168.335C1303.11 160.383 1298.75 155.984 1290.49 147.735C1290.49 146.17 1290.49 145.366 1290.49 143.801C1298.75 152.05 1303.11 156.449 1310.94 164.402C1310.94 161.864 1310.94 159.326 1310.94 156.787C1303.11 148.877 1298.75 144.478 1290.49 136.23C1290.49 134.664 1290.49 133.861 1290.49 132.296C1298.7 140.502 1303.11 144.901 1310.94 152.811C1310.94 150.273 1310.94 147.735 1310.94 145.197C1303.11 137.287 1298.75 132.93 1290.49 124.724C1290.49 123.159 1290.49 122.355 1290.49 120.79C1298.7 128.954 1303.11 133.353 1310.94 141.221C1310.94 138.683 1310.94 136.145 1310.94 133.607C1303.11 125.739 1298.75 121.382 1290.49 113.176C1290.49 111.611 1290.49 110.807 1290.49 109.242C1298.7 117.406 1303.11 121.763 1310.94 129.631C1310.94 127.093 1310.94 124.555 1310.94 122.017C1303.11 114.191 1298.75 109.834 1290.53 101.67C1290.53 100.105 1290.53 99.3015 1290.53 97.7364C1298.75 105.858 1303.15 110.215 1310.98 118.04C1310.98 115.502 1310.98 112.964 1310.98 110.426C1303.15 102.601 1298.79 98.2863 1290.57 90.1647C1290.57 88.5995 1290.57 87.7958 1290.57 86.2307C1298.79 94.3524 1303.19 98.667 1310.98 106.45C1310.98 103.912 1310.98 101.374 1310.98 98.8362C1303.15 91.053 1298.79 86.7383 1290.53 78.6167C1290.53 77.0516 1290.53 76.2479 1290.53 74.6828C1298.75 82.7621 1303.15 87.0767 1310.94 94.86C1310.94 92.322 1310.94 89.784 1310.94 87.2459C1303.11 79.4627 1298.75 75.1904 1290.53 67.111C1290.53 65.5459 1290.53 64.7422 1290.53 63.1771C1298.75 71.2142 1303.15 75.5288 1310.94 83.2697C1310.94 80.7317 1310.94 78.1937 1310.94 75.6557C1303.11 67.9147 1298.75 63.6424 1290.53 55.6054C1290.53 54.0403 1290.53 53.2366 1290.53 51.6715C1298.75 59.7085 1303.15 63.9808 1310.94 71.7218C1310.94 69.1838 1310.94 66.6457 1310.94 64.1077C1303.11 56.4091 1298.75 52.1368 1290.53 44.0997C1290.53 42.5346 1290.53 41.7309 1290.53 40.1658C1298.75 48.1605 1303.15 52.4329 1310.94 60.1315C1310.94 57.5935 1310.94 55.0555 1310.94 52.5175C1303.11 44.8188 1298.75 40.5888 1290.53 32.5941C1290.53 31.029 1290.53 30.2253 1290.53 28.6602C1298.75 36.6126 1303.15 40.8849 1310.94 48.5413C1310.94 45.6225 1310.94 42.7461 1310.94 39.8274C1305.18 33.6939 1300.95 29.2947 1294.05 22.0613C1294.05 20.4962 1294.05 19.6925 1294.05 18.1274C1300.95 25.3607 1305.14 29.76 1310.9 35.8935C1310.9 34.7937 1310.9 33.6516 1310.9 32.5518C1310.9 30.4368 1310.9 29.3793 1310.9 27.2642C1302.22 18.7619 1301.41 16.2239 1292.73 7.80615C1290.66 9.75196 1288.67 11.3594 1286.68 12.7976V304.669H1262.29C1262.29 306.742 1262.29 308.814 1262.29 310.929C1262.29 313.002 1271.14 303.612 1271.14 305.684C1273.3 305.853 1265.59 316.386 1267.75 316.555C1281.43 317.698 1289.09 318.332 1301.37 319.516C1298.45 316.428 1295.44 313.256 1291.55 309.195C1291.55 307.63 1291.55 306.826 1291.55 305.261C1297.22 311.183 1301.08 315.244 1305.48 319.897C1305.86 319.897 1306.2 319.982 1306.58 319.982C1308.74 320.193 1309.84 320.278 1312 320.489C1312 319.855 1312 319.305 1312 318.797C1304.17 310.464 1299.8 305.853 1291.55 297.266" fill="#F6C164"/>
<path d="M979.022 255.768C978.683 173.283 978.344 90.8398 977.963 8.35438C993.462 8.35438 1001.17 8.39668 1016.67 8.43898C1016.96 81.9144 1017.3 155.348 1017.6 228.823C1035.34 230.304 1053.09 231.869 1070.79 233.561C1070.83 245.955 1070.87 252.173 1070.91 264.567C1040.3 261.352 1009.64 258.391 978.979 255.726M1076.38 265.159C1076.34 252.723 1076.29 246.505 1076.25 234.068C1076.25 232.165 1076.25 231.192 1076.25 229.246C1074.09 229.035 1072.99 228.95 1070.83 228.738C1054.91 227.258 1038.99 225.862 1023.06 224.551C1022.77 152.513 1022.43 80.4762 1022.13 8.43898C1022.13 6.53547 1022.13 5.60486 1022.13 3.74365C1019.97 3.74365 1018.87 3.74365 1016.71 3.74365C1001.25 3.74365 993.504 3.74365 978.005 3.74365H972.585C972.585 5.60486 972.585 6.53547 972.585 8.39668L973.601 255.345C973.601 257.207 973.601 258.137 973.601 259.956C975.761 260.125 976.862 260.252 979.022 260.421C1009.68 263.129 1040.34 266.132 1070.96 269.431C1073.12 269.685 1074.22 269.812 1076.38 270.023C1076.38 268.12 1076.38 267.147 1076.38 265.201" fill="#F6C164"/>
<path d="M1112.33 275.692C1111.99 186.692 1111.65 97.6924 1111.31 8.69278C1126.81 8.69278 1134.52 8.73508 1150.02 8.77738C1150.32 88.048 1150.65 167.319 1150.95 246.631C1168.69 248.197 1186.44 249.931 1204.14 251.75C1204.18 265.159 1204.22 271.842 1204.27 285.209C1173.65 281.698 1142.99 278.526 1112.33 275.692ZM1209.69 285.886C1209.64 272.477 1209.6 265.751 1209.56 252.342C1209.56 250.269 1209.56 249.212 1209.56 247.139C1207.4 246.928 1206.3 246.801 1204.14 246.589C1188.22 244.982 1172.29 243.459 1156.37 242.063C1156.07 164.315 1155.74 86.5675 1155.44 8.81968C1155.44 6.78927 1155.44 5.77406 1155.44 3.74365C1153.28 3.74365 1152.18 3.74365 1150.02 3.74365C1134.56 3.74365 1126.81 3.74365 1111.31 3.74365H1105.89C1105.89 5.73176 1105.89 6.74697 1105.89 8.73508C1106.23 97.5655 1106.57 186.396 1106.91 275.269C1106.91 277.257 1106.91 278.272 1106.91 280.26C1109.07 280.472 1110.17 280.556 1112.33 280.768C1142.99 283.686 1173.65 286.901 1204.27 290.454C1206.43 290.708 1207.53 290.835 1209.69 291.089C1209.69 289.016 1209.69 287.959 1209.69 285.886Z" fill="#F6C164"/>
<path d="M580.156 248.746C564.488 250.396 556.653 251.242 541.027 253.019C541.366 172.564 541.662 92.0662 542.001 11.5689C557.712 11.5689 565.546 11.5266 581.215 11.4843C580.876 90.5857 580.495 169.645 580.156 248.746ZM581.257 7.04279C565.546 7.04279 557.712 7.04279 542.044 7.04279C539.842 7.04279 538.74 7.04279 536.538 7.04279C536.538 8.8617 536.538 9.75 536.538 11.5689C536.2 92.2354 535.903 167.234 535.564 247.9C535.564 249.719 535.564 250.607 535.564 252.426C537.767 252.172 538.867 252.046 541.027 251.792C556.653 249.973 564.488 254.795 580.156 253.145C582.358 252.934 583.459 252.807 585.661 252.553C585.661 250.777 585.661 249.888 585.661 248.112C586 169.222 586.381 90.3319 586.72 11.442C586.72 9.6654 586.72 8.7771 586.72 7.00049H581.215" fill="#F6C164"/>
<path d="M607.934 27.8148C607.934 26.715 607.934 25.869 607.934 24.5577C599.295 17.6205 595.018 14.1095 586.38 7.04541C584.262 8.69512 582.441 10.1333 580.705 11.4869H580.917V269.18C587.099 268.461 593.24 268.757 601.497 268.292C603.615 268.165 604.631 268.292 606.791 268.038C606.791 266.261 606.791 264.738 606.791 263.004C606.791 262.539 606.791 262.073 606.791 261.608C598.194 255.517 593.875 252.471 585.279 246.295C585.279 244.984 585.279 244.307 585.279 242.996C593.875 249.172 598.194 252.217 606.791 258.309C606.791 256.109 606.791 253.909 606.791 251.668C598.194 245.534 593.875 242.488 585.279 236.27C585.279 234.959 585.279 234.282 585.279 232.971C593.875 239.189 598.194 242.277 606.791 248.41C606.791 246.295 606.791 244.18 606.791 242.065C598.194 235.932 593.875 232.844 585.236 226.584C585.236 225.272 585.236 224.595 585.236 223.284C593.833 229.545 598.152 232.632 606.749 238.808C606.749 236.693 606.749 234.621 606.749 232.506C598.152 226.33 593.833 223.199 585.194 216.939C585.194 215.628 585.194 214.951 585.194 213.64C593.79 219.942 598.11 223.03 606.706 229.248C606.706 227.133 606.706 225.018 606.706 222.946C598.11 216.728 593.79 213.597 585.194 207.295C585.194 205.983 585.194 205.307 585.194 203.995C593.79 210.34 598.11 213.47 606.706 219.689C606.706 217.574 606.706 215.459 606.706 213.386C598.067 207.125 593.79 203.995 585.151 197.65C585.151 196.339 585.151 195.662 585.151 194.351C593.748 200.696 598.067 203.868 606.664 210.129C606.664 208.014 606.664 205.941 606.664 203.826C598.067 197.523 593.748 194.351 585.109 188.006C585.109 186.694 585.109 186.018 585.109 184.706C593.706 191.094 598.025 194.266 606.664 200.569C606.664 198.454 606.664 196.339 606.664 194.266C598.025 187.963 593.748 184.749 585.109 178.319C585.109 177.008 585.109 176.331 585.109 175.02C593.706 181.449 598.025 184.622 606.621 190.967C606.621 188.852 606.621 186.737 606.621 184.664C597.983 178.319 593.706 175.104 585.067 168.632C585.067 167.321 585.067 166.644 585.067 165.333C593.663 171.805 597.983 175.02 606.621 181.365C606.621 179.25 606.621 177.135 606.621 175.062C598.025 168.675 593.706 165.46 585.067 158.945C585.067 157.634 585.067 156.957 585.067 155.646C593.663 162.16 597.983 165.375 606.621 171.762C606.621 169.647 606.621 167.532 606.621 165.46C597.983 159.03 593.706 155.773 585.067 149.259C585.067 147.947 585.067 147.271 585.067 145.959C593.663 152.516 597.983 155.731 606.621 162.203C606.621 160.088 606.621 158.015 606.621 155.9C598.025 149.428 593.706 146.171 585.067 139.614C585.067 138.303 585.067 137.626 585.067 136.315C593.706 142.914 597.983 146.171 606.621 152.643C606.621 150.528 606.621 148.413 606.621 146.298C597.983 139.783 593.706 136.526 585.067 129.928C585.067 128.616 585.067 127.939 585.067 126.628C593.706 133.227 597.983 136.526 606.621 143.041C606.621 140.968 606.621 138.895 606.621 136.822C597.983 130.308 593.706 127.009 585.067 120.368C585.067 119.056 585.067 118.38 585.067 117.068C593.663 123.709 597.983 127.009 606.621 133.565C606.621 131.45 606.621 129.378 606.621 127.263C598.025 120.706 593.706 117.407 585.067 110.723C585.067 109.412 585.067 108.735 585.067 107.424C593.706 114.107 597.983 117.407 606.621 124.005C606.621 121.89 606.621 119.818 606.621 117.703C597.983 111.104 593.706 107.762 585.067 101.079C585.067 99.7675 585.067 99.0907 585.067 97.7794C593.706 104.505 597.983 107.847 606.621 114.446C606.621 112.331 606.621 110.216 606.621 108.143C598.025 101.502 593.706 98.1601 585.067 91.4343C585.067 90.123 585.067 89.4462 585.067 88.1349C593.706 94.9029 597.983 98.2447 606.621 104.886C606.621 102.771 606.621 100.656 606.621 98.5831C597.983 91.8996 593.706 88.5579 585.067 81.7476C585.067 80.4363 585.067 79.7595 585.067 78.4482C593.663 85.2585 597.983 88.6002 606.621 95.2837C606.621 93.1686 606.621 91.0959 606.621 88.9809C597.983 82.2975 593.706 78.9135 585.067 72.0608C585.067 70.7495 585.067 70.0727 585.067 68.7614C593.706 75.5718 597.983 78.9981 606.621 85.6815C606.621 83.5665 606.621 81.4515 606.621 79.3788C597.983 72.653 593.706 69.2267 585.067 62.3741C585.067 61.0628 585.067 60.386 585.067 59.0747C593.706 65.9273 597.983 69.3536 606.621 76.0794C606.621 73.9643 606.621 71.8493 606.621 69.7766C597.983 63.0086 593.706 59.5823 585.067 52.6873C585.067 51.376 585.067 50.6992 585.067 49.3879C593.706 56.2829 597.983 59.7092 606.621 66.4772C606.621 64.3622 606.621 62.2472 606.621 60.1745C597.983 53.3641 593.706 49.9378 585.067 43.0006C585.067 41.6893 585.067 41.0125 585.067 39.7012C593.706 46.6384 597.983 50.0647 606.621 56.9174C606.621 54.8023 606.621 52.6873 606.621 50.6146C597.983 43.762 593.706 40.3357 585.067 33.3561C585.067 32.0448 585.067 31.368 585.067 30.0567C593.706 37.0363 597.983 40.5049 606.621 47.3575C606.621 45.2425 606.621 43.1275 606.621 41.0548C597.983 34.2021 593.706 30.6912 585.067 23.7117C585.067 22.4004 585.067 21.7236 585.067 20.4123C593.706 27.4341 597.983 30.9027 606.621 37.7977C606.621 35.6827 606.621 33.5676 606.621 31.4949C597.983 24.6 593.706 21.0891 585.067 14.0672C585.067 12.7559 585.067 12.0791 585.067 10.7678C593.706 17.832 598.025 21.3006 606.621 28.2378" fill="#F6C164"/>
<path d="M58.2703 255.894H53.5697C52.2146 254.752 50.8172 253.568 49.208 252.214C49.208 250.649 49.208 249.846 49.208 248.28C52.7228 251.284 55.5601 253.61 58.2279 255.894M47.1753 50.7384L44.084 259.617L70.3815 255.894H67.3326C60.8534 250.522 56.6611 246.969 49.2927 240.709C49.2927 239.144 49.2927 238.34 49.2927 236.775C57.8468 244.05 62.1662 247.688 70.7203 254.795C70.7203 252.299 70.7203 249.803 70.7203 247.307C62.1662 240.159 57.8891 236.521 49.2927 229.161C49.2927 227.596 49.2927 226.792 49.2927 225.227C57.8468 232.587 62.1662 236.225 70.7203 243.416C70.7203 240.92 70.7203 238.424 70.7203 235.929C62.1662 228.738 57.8891 225.058 49.2927 217.655C49.2927 216.09 49.2927 215.286 49.2927 213.721C57.8891 221.124 62.1662 224.804 70.7203 232.037C70.7203 229.541 70.7203 227.046 70.7203 224.55C62.1662 217.274 57.8891 213.594 49.2927 206.149C49.2927 204.584 49.2927 203.781 49.2927 202.215C57.8891 209.66 62.1662 213.383 70.7203 220.658C70.7203 218.163 70.7203 215.667 70.7203 213.171C62.1662 205.853 57.8468 202.131 49.2927 194.644C49.2927 193.079 49.2927 192.275 49.2927 190.71C57.8891 198.239 62.1662 201.962 70.7203 209.28C70.7203 206.784 70.7203 204.288 70.7203 201.792C62.1662 194.432 57.8468 190.668 49.2927 183.138C49.2927 181.573 49.2927 180.769 49.2927 179.204C57.8891 186.776 62.1662 190.541 70.7203 197.901C70.7203 195.405 70.7203 192.909 70.7203 190.414C62.1662 183.011 57.8468 179.204 49.2503 171.59C49.2503 170.025 49.2503 169.221 49.2503 167.656C57.8468 175.27 62.1662 179.077 70.7203 186.522C70.7203 184.026 70.7203 181.531 70.7203 179.035C62.1662 171.548 57.8468 167.741 49.2503 160.084C49.2503 158.519 49.2503 157.716 49.2503 156.151C57.8468 163.849 62.1662 167.656 70.7203 175.143C70.7203 172.648 70.7203 170.152 70.7203 167.656C62.1662 160.127 57.8468 156.32 49.2503 148.579C49.2503 147.014 49.2503 146.21 49.2503 144.645C57.8468 152.386 62.1662 156.235 70.7203 163.765C70.7203 161.269 70.7203 158.773 70.7203 156.277C62.1662 148.706 57.8468 144.856 49.2503 137.073C49.2503 135.508 49.2503 134.704 49.2503 133.139C57.8468 140.922 62.1662 144.814 70.7203 152.386C70.7203 149.89 70.7203 147.394 70.7203 144.899C62.1662 137.242 57.8468 133.393 49.2503 125.568C49.2503 124.002 49.2503 123.199 49.2503 121.634C57.8468 129.501 62.1662 133.351 70.7203 141.007C70.7203 138.511 70.7203 136.016 70.7203 133.52C62.1662 125.821 57.8468 121.93 49.2503 114.062C49.2503 112.497 49.2503 111.693 49.2503 110.128C57.8468 118.038 62.1662 121.93 70.7203 129.671C70.7203 127.175 70.7203 124.679 70.7203 122.183C62.1662 114.443 57.8468 110.509 49.208 102.556C49.208 100.991 49.208 100.187 49.208 98.6223C57.8045 106.575 62.1239 110.509 70.678 118.292C70.678 115.796 70.678 113.3 70.678 110.805C62.0815 103.021 57.8045 99.0453 49.1656 91.0505C49.1656 89.4854 49.1656 88.6817 49.1656 87.1166C57.7621 95.1114 62.0815 99.0876 70.678 106.913C70.678 104.417 70.678 101.922 70.678 99.426C62.1239 91.6004 57.8045 87.5819 49.1656 79.5449C49.1656 77.9798 49.1656 77.1761 49.1656 75.611C57.7621 83.6903 62.0815 87.6665 70.678 95.5344V88.0472C62.1239 80.1371 57.8045 76.1186 49.1656 68.0392C49.1656 66.4741 49.1656 65.6704 49.1656 64.1053C57.7621 72.2269 62.0815 76.2455 70.678 84.1556C70.678 80.0948 70.678 76.0763 70.678 72.0154C84.0597 71.5078 75.929 72.1846 85.7959 71.4655L81.5612 48.3696L46.8365 50.9499L47.1753 50.7384Z" fill="#F6C164"/>
<path d="M131.784 173.199C131.784 171.676 131.784 170.915 131.784 169.434C140.381 176.456 144.7 179.967 153.297 186.862C153.297 188.343 153.297 189.104 153.297 190.584C144.7 183.69 140.381 180.221 131.784 173.199ZM131.827 158.394C140.423 165.458 144.742 168.969 153.339 175.949C153.339 177.429 153.339 178.191 153.339 179.671C144.742 172.734 140.423 169.223 131.827 162.159C131.827 160.636 131.827 159.875 131.827 158.394ZM131.869 147.354C140.465 154.502 144.785 158.013 153.381 165.035C153.381 166.516 153.381 167.277 153.381 168.758C144.785 161.778 140.465 158.267 131.869 151.118C131.869 149.596 131.869 148.834 131.869 147.354ZM131.869 136.609C140.465 143.8 144.785 147.354 153.381 154.376C153.381 155.856 153.381 156.617 153.381 158.098C144.785 151.076 140.465 147.523 131.869 140.374C131.869 138.851 131.869 138.132 131.869 136.609ZM131.911 125.823C140.508 133.056 144.827 136.609 153.424 143.716C153.424 145.196 153.424 145.958 153.424 147.438C144.827 140.374 140.508 136.779 131.911 129.588C131.911 128.065 131.911 127.303 131.911 125.823ZM131.954 115.036C140.55 122.312 144.869 125.907 153.466 133.014C153.466 134.494 153.466 135.256 153.466 136.736C144.869 129.63 140.55 126.034 131.954 118.759C131.954 117.236 131.954 116.517 131.954 114.994M131.996 104.25C140.592 111.568 144.912 115.206 153.508 122.354C153.508 123.835 153.508 124.596 153.508 126.077C144.912 118.928 140.592 115.29 131.996 108.014C131.996 106.492 131.996 105.773 131.996 104.25ZM132.038 93.4632C140.635 100.823 144.954 104.461 153.551 111.695C153.551 113.175 153.551 113.937 153.551 115.417C144.954 108.226 140.635 104.588 132.038 97.2279C132.038 95.7051 132.038 94.986 132.038 93.4632ZM132.038 82.719C140.677 90.1215 144.954 93.8016 153.593 101.077C153.593 102.558 153.593 103.319 153.593 104.8C144.997 97.5663 140.677 93.8862 132.081 86.4837C132.081 84.9609 132.081 84.2418 132.081 82.719M132.081 71.9324C140.677 79.3772 144.997 83.0997 153.635 90.3753C153.635 91.8558 153.635 92.6172 153.635 94.0977C145.039 86.7798 140.719 83.0997 132.081 75.6971C132.081 74.1743 132.081 73.4129 132.081 71.9324ZM132.123 61.1458C140.719 68.633 145.039 72.3554 153.678 79.7156C153.678 81.1962 153.678 81.9576 153.678 83.4381C145.081 76.0778 140.762 72.3977 132.123 64.9106C132.123 63.3878 132.123 62.6687 132.123 61.1458ZM110.738 308.56C118.445 306.572 125.686 303.441 131.954 299.254C131.361 298.577 111.288 278.527 110.738 277.85C110.526 277.596 114.972 277.385 114.972 277.004C112.728 277.004 133.986 296.673 134.452 297.096C135.934 296.039 136.315 296.081 137.67 294.854C135.934 293.416 118.784 276.539 116.666 274.72C116.666 273.197 116.666 272.478 116.666 270.955C119.631 273.493 137.459 290.878 139.745 292.824C141.016 291.555 142.202 290.244 143.345 288.848C139.915 285.971 126.491 273.028 121.96 269.178C121.96 267.655 121.96 266.936 121.96 265.414C127.253 269.94 141.016 283.137 145.081 286.564C146.14 285.083 147.072 283.56 147.918 281.995C142.625 277.511 133.647 269.136 127.126 263.552C127.126 262.03 127.126 261.31 127.126 259.788C134.156 265.837 143.26 274.339 149.231 279.373C149.993 277.681 150.671 275.904 151.222 274.085C144.15 268.078 137.67 262.199 129.879 255.515C129.879 253.993 129.879 253.231 129.879 251.751C137.925 258.73 144.446 264.61 151.984 271.039C152.45 269.094 152.831 267.063 153.042 264.991C144.827 257.969 140.508 254.246 132.081 246.928C132.081 245.406 132.081 244.686 132.081 243.164C140.55 250.524 144.869 254.246 153.212 261.395C153.212 260.591 153.297 259.83 153.297 259.026C153.297 257.546 153.297 256.023 153.297 254.542C144.912 247.351 140.592 243.587 132.081 236.184C132.081 234.661 132.081 233.9 132.081 232.419C140.592 239.864 144.912 243.629 153.297 250.82C153.297 248.493 153.297 246.209 153.297 243.883C144.912 236.649 140.592 232.885 132.081 225.398C132.081 223.875 132.081 223.113 132.081 221.633C140.592 229.12 144.912 232.885 153.297 240.16C153.297 237.834 153.297 235.55 153.297 233.223C144.912 225.947 140.592 222.14 132.081 214.611C132.081 213.088 132.081 212.369 132.081 210.846C140.592 218.376 144.912 222.183 153.297 229.501C153.297 227.174 153.297 224.89 153.297 222.563C144.912 215.246 140.592 211.438 132.081 203.867C132.081 202.344 132.081 201.583 132.081 200.102C140.592 207.674 144.912 211.523 153.297 218.841C153.297 216.515 153.297 214.23 153.297 211.904C144.912 204.544 140.592 200.694 132.081 193.08C132.081 191.557 132.081 190.838 132.081 189.315C140.592 196.93 144.912 200.779 153.339 208.181C153.339 205.855 153.339 203.571 153.339 201.244C144.954 193.842 140.592 189.95 132.081 182.294C132.081 180.771 132.081 180.009 132.081 178.529C140.592 186.228 144.912 190.077 153.339 197.522C153.466 159.198 153.593 120.874 153.72 82.5498C153.72 79.1657 153.508 75.7817 153.085 72.4823C144.742 65.3336 140.423 61.5689 131.954 54.1663C131.954 52.6435 131.954 51.8821 131.954 50.4016C140.169 57.5926 144.488 61.3574 152.365 68.0831C151.772 65.0375 150.967 62.0342 149.993 59.1154C143.641 53.6164 131.234 41.7301 123.823 35.2158C126.364 40.8417 130.683 47.4406 129.497 55.2661C129.328 109.114 129.074 187.666 128.905 241.514C129.328 269.221 106.799 289.017 82.4498 291.851C69.5763 294.135 56.7451 296.504 43.8716 298.873V299.254H41.7966C32.692 300.946 23.545 302.68 14.4404 304.457C12.5347 304.837 11.6031 305.007 9.69749 305.387V304.71C6.47911 305.26 3.26073 305.768 0 306.36C8.46942 313.424 12.7888 316.935 21.1312 323.746V323.999C21.1312 323.999 21.3006 323.999 21.3853 323.957C21.3853 323.957 21.3853 323.957 21.4276 323.999" fill="#F6C164"/>
<path d="M82.8316 242.191C82.8316 245.829 82.0693 249.424 72.9647 250.609C63.5637 251.835 58.8631 252.47 49.4621 253.781C49.5468 186.27 49.6315 118.801 49.7585 51.2901C58.3973 51.0786 62.7167 50.9517 71.3132 50.7825C77.4959 50.6133 83.2127 52.3053 83.2127 65.3338C83.0857 124.3 82.9586 183.224 82.8316 242.191ZM71.3132 45.5796C60.5147 45.7911 55.1366 45.918 44.3381 46.1718C44.2534 117.405 44.1687 188.597 44.084 259.83C55.6024 258.18 61.404 257.419 72.9647 255.854C83.128 254.5 88.2097 249.763 88.252 241.556C88.3791 182.759 88.5061 123.962 88.6755 65.2069C88.6755 51.9246 82.9163 45.3681 71.3979 45.6219" fill="#F6C164"/>
<path d="M126.745 242.528C127.253 269.177 105.402 285.801 80.5017 288.297C55.5169 292.146 30.5744 296.165 5.63199 300.353C5.63199 204.289 5.63199 108.183 5.67434 12.119C28.1183 12.0344 50.5623 11.9921 73.0063 11.9075C105.486 11.1461 128.142 30.3504 127.253 63.6407C127.084 123.284 126.872 182.885 126.702 242.528M73.0063 6.70459H0.253906V12.119C0.253906 108.479 0.253906 204.881 0.253906 301.241V306.655C2.41361 306.275 3.47229 306.105 5.63199 305.725C30.5744 301.452 55.4745 297.349 80.4594 293.458C108.535 289.778 132.546 271.885 132.123 241.894C132.292 182.42 132.504 122.946 132.673 63.5138C133.563 27.4317 108.07 6.07009 73.0063 6.74689" fill="#F6C164"/>
<path d="M498.593 247.562C467.849 248.958 437.105 250.608 406.403 252.596C406.699 171.718 407.038 90.8402 407.334 9.96216C422.834 9.96216 430.541 9.96216 446.04 9.91986C445.786 80.3074 445.532 150.695 445.32 221.082C463.106 220.194 480.891 219.39 498.677 218.756C498.677 230.262 498.635 236.057 498.593 247.562ZM498.677 214.314C482.712 214.907 466.705 215.583 450.74 216.345C450.994 147.522 451.206 78.7423 451.46 9.91986C451.46 8.10095 451.46 7.21264 451.46 5.43604H446.04C430.541 5.43604 422.834 5.43604 407.334 5.43604C405.175 5.43604 404.074 5.43604 401.914 5.43604C401.914 7.25494 401.914 8.18555 401.914 10.0045C401.618 91.0093 401.279 172.014 400.982 252.977C400.982 254.796 400.982 255.726 400.982 257.545C403.142 257.376 404.243 257.334 406.403 257.165C437.147 255.176 467.849 253.442 498.593 252.046C500.752 251.962 501.853 251.919 504.055 251.835C504.055 250.058 504.055 249.17 504.055 247.393C504.055 235.888 504.098 230.135 504.14 218.629C504.14 216.852 504.14 215.964 504.14 214.188C501.98 214.272 500.879 214.314 498.677 214.399" fill="#F6C164"/>
<path d="M504.1 214.102C501.135 215.878 498.51 217.443 496.054 218.881L498.637 218.755L498.552 247.561L443.797 250.395V251.157H422.624C422.624 257.332 422.624 263.466 422.539 269.642C422.539 271.461 422.539 272.349 422.539 274.168C424.699 273.999 425.8 273.956 427.959 273.787C458.703 271.841 489.447 270.192 520.192 268.88C522.394 268.796 523.452 268.753 525.654 268.669C525.654 266.892 525.654 266.004 525.654 264.227C525.654 262.028 525.654 260.124 525.654 258.263C516.973 251.495 512.654 248.111 503.973 241.385C503.973 240.074 503.973 239.397 503.973 238.043C512.654 244.812 516.973 248.196 525.654 254.921C525.654 252.722 525.654 250.607 525.654 248.534C516.973 241.766 512.654 238.424 503.973 231.656C503.973 230.345 503.973 229.668 503.973 228.357C512.654 235.125 516.973 238.509 525.654 245.277C525.654 243.289 525.654 241.216 525.654 238.889C516.973 232.121 512.654 228.737 503.973 221.927C503.973 220.616 503.973 219.939 503.973 218.585C512.654 225.396 516.973 228.78 525.654 235.548C525.654 233.771 525.654 232.883 525.654 231.106C516.973 224.296 512.654 220.912 503.973 214.144" fill="#F6C164"/>
</svg>
