<svg xmlns="http://www.w3.org/2000/svg" fill="none" viewBox="0 0 214.81 53">
<path d="M140.311 7.42124C138.661 6.05118 137.004 4.68112 135.354 3.31106C135.666 3.83694 136.033 4.48045 136.38 5.18624C137.884 6.43175 139.382 7.67034 140.879 8.91585C140.727 8.38305 140.533 7.87793 140.318 7.41432" fill="#B4751D"/>
<path d="M139.777 6.43176C137.787 3.19343 134.535 1.9756 134.521 2.00328C134.521 2.00328 134.57 2.07247 134.639 2.16934C136.359 3.58784 138.071 5.00634 139.784 6.42484" fill="#B4751D"/>
<path d="M20.2591 5.65677C20.2591 5.44918 20.2591 5.32463 20.2591 5.09629C21.3268 6.03734 23.3722 7.99556 24.2458 8.7567C23.913 7.96096 23.49 7.21365 22.9978 6.5217C22.5956 6.16881 22.1658 5.79516 21.6388 5.32463C21.6388 5.1724 18.8308 3.61551 18.8308 3.5048C17.8116 2.52915 17.5343 2.4046 16.9727 2.38384C18.1513 3.04811 19.5103 4.1068 20.2521 5.65677" fill="#B4751D"/>
<path d="M179.783 46.9454C179.783 46.551 179.783 46.2051 179.783 45.8729C178.361 44.4337 177.654 43.7279 176.233 42.3163C176.233 42.081 176.233 41.9634 176.233 41.7281C177.654 43.1328 178.361 43.8386 179.783 45.2778C179.783 44.8834 179.783 44.5098 179.783 44.1361C178.361 42.7038 177.654 41.998 176.233 40.5933C176.233 40.3581 176.233 40.2405 176.233 40.0052C177.654 41.4029 178.361 42.1087 179.783 43.5341C179.783 43.1812 179.783 42.8076 179.783 42.3924C178.361 40.967 177.654 40.2612 176.233 38.8704C176.233 38.6351 176.233 38.5175 176.233 38.2822C177.654 39.6731 178.361 40.3788 179.783 41.7973C179.783 41.479 179.783 41.3199 179.783 41.0085C178.361 39.59 177.654 38.8842 176.233 37.4934C176.004 37.611 175.796 37.7148 175.595 37.8255V43.2712H166.956V46.2673C170.949 46.6894 174.936 47.1254 178.923 47.6097C179.276 47.6512 179.457 47.6789 179.81 47.7204C179.81 47.4021 179.81 47.243 179.81 46.9247" fill="#B4751D"/>
<path d="M201.609 50.6128C201.609 50.1907 201.609 49.817 201.609 49.4572C200.188 47.9073 199.48 47.1392 198.059 45.6238C198.059 45.3678 198.059 45.2433 198.059 44.9872C199.48 46.5026 200.188 47.2707 201.609 48.8137C201.609 48.3916 201.609 47.9834 201.609 47.582C200.188 46.039 199.48 45.2709 198.059 43.7625C198.059 43.5065 198.059 43.3819 198.059 43.1328C199.48 44.6413 200.188 45.4024 201.609 46.9454C201.609 46.5649 201.609 46.1566 201.609 45.7138C200.188 44.1776 199.48 43.4165 198.059 41.9081C198.059 41.652 198.059 41.5275 198.059 41.2784C199.48 42.7799 200.188 43.5411 201.609 45.0772C201.609 44.7381 201.609 44.5651 201.609 44.2192C200.188 42.69 199.48 41.9288 198.059 40.4273C197.83 40.5518 197.622 40.6695 197.421 40.7802V46.6548H188.782V49.8932C192.776 50.3429 196.763 50.8204 200.749 51.3463C201.103 51.3947 201.283 51.4155 201.637 51.4639C201.637 51.1248 201.637 50.9518 201.637 50.6059" fill="#B4751D"/>
<path d="M43.7079 44.0462C45.1154 45.1395 45.8226 45.6861 47.237 46.7655C52.8461 46.1843 58.4622 45.6723 64.0851 45.2225C62.6707 44.143 61.9635 43.5964 60.5491 42.51C54.9331 42.9598 49.3171 43.4719 43.7079 44.0462Z" fill="#B4751D"/>
<path d="M65.5276 42.51C66.9351 43.5618 67.6423 44.0877 69.0567 45.1325C74.6658 44.5721 80.2818 44.0738 85.9048 43.6448C84.4904 42.6 83.7832 42.0741 82.3688 41.0293C76.7458 41.4652 71.1367 41.9565 65.5276 42.51Z" fill="#B4751D"/>
<path d="M28.7596 45.9767C30.1671 47.0907 30.8743 47.6374 32.2817 48.7307C34.9788 48.3708 37.6759 48.0318 40.3799 47.7135C38.9655 46.6271 38.2652 46.0805 36.8508 44.9803C34.1538 45.2917 31.4497 45.6238 28.7596 45.9767Z" fill="#B4751D"/>
<path d="M32.2822 48.2256C32.2822 48.3847 32.2822 48.5231 32.2822 48.7238C32.6358 48.6753 32.8161 48.6546 33.1697 48.6061C34.3484 48.4539 35.2566 48.3363 36.1441 48.2256H32.2892H32.2822Z" fill="#B4751D"/>
<path d="M144.797 42.0534C146.225 43.3127 146.932 43.7486 148.361 45.0287C151.072 45.2156 153.207 45.3886 155.911 45.6169C154.49 44.2953 154.351 43.8801 152.93 42.5862C150.219 42.3855 147.508 42.2125 144.797 42.0534Z" fill="#B4751D"/>
<path d="M144.907 41.9288C146.336 43.1882 147.043 43.8247 148.471 45.1118C151.182 45.2986 153.206 45.3886 155.91 45.6169C154.489 44.2953 154.136 43.8801 152.714 42.5862C150.003 42.3855 147.618 42.088 144.907 41.9288Z" fill="#B4751D"/>
<path d="M116.037 40.3512C117.458 41.5205 118.173 42.1087 119.601 43.285C124.537 43.4027 129.474 43.5687 134.417 43.7901C132.989 42.5585 132.275 41.9496 130.854 40.7317C125.917 40.5587 120.981 40.4273 116.044 40.3442" fill="#B4751D"/>
<path d="M140.734 40.3512C140.865 40.0882 140.976 39.8045 141.066 39.5139C139.881 38.4829 138.688 37.4519 137.503 36.4278C137.413 36.7184 137.302 37.0021 137.17 37.2651C138.362 38.2961 139.548 39.3201 140.734 40.3581" fill="#B4751D"/>
<path d="M140.013 41.4029C140.2 41.1884 140.366 40.9601 140.519 40.711C139.333 39.68 138.148 38.649 136.955 37.618C136.803 37.8601 136.636 38.0885 136.449 38.303C137.642 39.3271 138.827 40.365 140.013 41.396" fill="#B4751D"/>
<path d="M139.07 42.254C139.305 42.0879 139.52 41.9011 139.728 41.7005C138.543 40.6694 137.357 39.6315 136.171 38.6074C135.97 38.8081 135.748 38.9949 135.513 39.1679C136.705 40.192 137.884 41.223 139.07 42.2609" fill="#B4751D"/>
<path d="M137.918 42.9252C138.196 42.8007 138.466 42.6553 138.716 42.4962C137.53 41.4652 136.344 40.4342 135.159 39.4101C134.902 39.5693 134.639 39.7146 134.354 39.846C135.547 40.8701 136.733 41.8942 137.918 42.9252Z" fill="#B4751D"/>
<path d="M132.482 40.4411C131.581 40.621 130.624 40.6695 129.681 40.5795C126.305 40.4549 122.928 40.365 119.559 40.2958C119.559 41.1607 119.559 41.5897 119.559 42.4478V43.1674C119.919 43.1743 120.092 43.1812 120.453 43.1882C124.717 43.2989 128.981 43.4442 133.245 43.6172C134.195 43.714 135.145 43.6725 136.053 43.5064C134.867 42.4754 133.675 41.4583 132.482 40.4411Z" fill="#B4751D"/>
<path d="M137.503 43.1051C136.317 42.0741 135.132 41.05 133.939 40.0259C133.634 40.1436 133.315 40.2474 132.989 40.3304C134.182 41.3545 135.374 42.3717 136.553 43.4027C136.879 43.3196 137.198 43.2228 137.503 43.1051Z" fill="#B4751D"/>
<path d="M203.522 48.3017C204.951 49.7548 205.658 50.253 207.086 51.7268C209.797 51.9413 211.933 52.142 214.637 52.4049C213.208 50.8826 213.077 50.4052 211.655 48.9175C208.944 48.6892 206.233 48.4816 203.522 48.3017Z" fill="#B4751D"/>
<path d="M203.634 48.1633C205.062 49.6164 205.769 50.3498 207.198 51.8237C209.908 52.0382 211.933 52.142 214.637 52.4049C213.209 50.8826 212.862 50.4052 211.441 48.9175C208.73 48.6892 206.345 48.3432 203.634 48.1633Z" fill="#B4751D"/>
<path d="M159.405 42.517C160.827 43.8455 161.541 44.5167 162.962 45.866C168.578 46.4196 174.18 47.0423 179.783 47.7343C178.361 46.2881 177.654 45.5754 176.233 44.1638C170.631 43.5549 165.021 43.0013 159.405 42.517Z" fill="#B4751D"/>
<path d="M181.232 45.8383C182.653 47.2707 183.367 47.9903 184.788 49.4572C190.404 50.0592 196.007 50.7304 201.609 51.4708C200.187 49.9139 199.48 49.1389 198.059 47.6166C192.457 46.9593 186.848 46.3642 181.232 45.8383Z" fill="#B4751D"/>
<path d="M87.7901 41.2991C89.1976 42.3163 89.9048 43.2919 91.3123 44.2883C94.0094 43.9562 96.7065 44.1084 99.4105 43.8178C98.003 42.8283 96.3737 41.2714 94.9592 40.2681C92.7614 40.3442 90.6259 40.4134 88.6499 40.4619C88.1229 40.4757 88.3032 41.2368 87.7832 41.2991" fill="#B4751D"/>
<path d="M65.6454 42.1225C67.0599 43.2158 67.7671 43.7556 69.1815 44.8419C74.8044 44.4752 80.4343 44.1776 86.0642 43.9424C84.6429 42.8422 83.9357 42.2886 82.5213 41.1884C76.8914 41.4375 71.2684 41.7489 65.6454 42.1225Z" fill="#B4751D"/>
<path d="M73.7986 35.7704C73.7986 35.549 73.7986 35.4383 73.7986 35.2238C74.2146 35.549 74.5682 35.8258 74.901 36.0818L76.1767 36.0195C75.4141 35.4245 74.7693 34.9263 73.7986 34.1651C73.7986 33.9437 73.7986 33.833 73.7986 33.6185C75.0327 34.5872 75.7399 35.1338 76.8354 35.9919L77.3416 35.9642C77.3416 35.7497 77.3416 35.5421 77.3416 35.3276C75.9271 34.2205 75.2199 33.6669 73.7986 32.5529C73.7986 32.3314 73.7986 32.2207 73.7986 31.9993C75.213 33.1134 75.9202 33.6669 77.3416 34.774C77.3416 34.4211 77.3416 34.0682 77.3416 33.7223C75.9271 32.6082 75.2199 32.0547 73.7986 30.9406C73.7986 30.7192 73.7986 30.6085 73.7986 30.394C75.213 31.508 75.9202 32.0685 77.3416 33.1756C77.3416 32.8227 77.3416 32.4698 77.3416 32.1239C75.9271 31.0098 75.2199 30.4563 73.8055 29.3353C73.8055 29.1139 73.8055 29.0032 73.8055 28.7817C75.2199 29.9027 75.9271 30.4563 77.3416 31.5703C77.3416 31.2174 77.3416 30.8645 77.3416 30.5185C75.9271 29.4045 75.2199 28.844 73.8055 27.7231C73.8055 27.5016 73.8055 27.3909 73.8055 27.1764C75.2199 28.2974 75.9271 28.8579 77.3416 29.9719C77.3416 29.619 77.3416 29.2661 77.3416 28.9201C75.9271 27.7992 75.2199 27.2387 73.8055 26.1177C73.8055 25.8963 73.8055 25.7856 73.8055 25.5711C75.2199 26.6921 75.9271 27.2595 77.3416 28.3735V27.3217C75.9271 26.2008 75.2199 25.6403 73.8055 24.5124C73.8055 24.291 73.8055 24.1803 73.8055 23.9658C75.2199 25.0937 75.9271 25.6541 77.3416 26.7751C77.3416 26.4222 77.3416 26.0762 77.3416 25.7233C75.9271 24.6024 75.2199 24.035 73.8055 22.9071C73.8055 22.6857 73.8055 22.575 73.8055 22.3604C75.2199 23.4883 75.9271 24.0557 77.3416 25.1767C77.3416 24.8238 77.3416 24.4709 77.3416 24.1249C75.9271 22.997 75.2199 22.4296 73.8055 21.3018C73.8055 21.0803 73.8055 20.9696 73.8055 20.7551C75.2199 21.8899 75.9271 22.4573 77.3416 23.5852C77.3416 23.2392 77.3416 22.8933 77.3416 22.5473C75.9271 21.4194 75.2199 20.852 73.8055 19.7172C73.8055 19.4958 73.8055 19.3851 73.8055 19.1706C75.2199 20.3054 75.9271 20.8728 77.3416 22.0076C77.3416 21.6547 77.3416 21.3018 77.3416 20.9558C75.9271 19.821 75.2199 19.2536 73.8055 18.1188C73.8055 17.8974 73.8055 17.7867 73.8055 17.5722C75.2199 18.7139 75.9271 19.2813 77.3416 20.4091C77.3416 20.0563 77.3416 19.7103 77.3416 19.3574C75.9271 18.2226 75.2199 17.6552 73.8055 16.5065C73.8055 16.2851 73.8055 16.1744 73.8055 15.9599C75.2199 17.1016 75.9271 17.6759 77.3416 18.8107C77.3416 18.4578 77.3416 18.105 77.3416 17.759C75.9271 16.6242 75.2199 16.0499 73.8055 14.9081C73.8055 14.6867 73.8055 14.576 73.8055 14.3615C75.2199 15.5101 75.9271 16.0775 77.3416 17.2193C77.3416 16.8664 77.3416 16.5135 77.3416 16.1675C75.9271 15.0258 75.2199 14.4515 73.8055 13.3028C73.8055 13.0814 73.8055 12.9707 73.8055 12.7562C75.2199 13.9048 75.9271 14.4791 77.3416 15.6209C77.3416 15.268 77.3416 14.9151 77.3416 14.5691C75.9271 13.4274 75.2199 12.8531 73.8055 11.6975C73.8055 11.4761 73.8055 11.3654 73.8055 11.1509C75.2199 12.3064 75.9271 12.8807 77.3416 14.0224C77.3416 13.6696 77.3416 13.3167 77.3416 12.9707C75.9271 11.822 75.2199 11.2477 73.8055 10.0922C73.8055 9.87075 73.8055 9.76003 73.8055 9.54553C75.2199 10.7011 75.9271 11.2754 77.3416 12.424C77.3416 12.0711 77.3416 11.7183 77.3416 11.3723C75.9271 10.2236 75.2199 9.64932 73.8055 8.48685C73.8055 8.26542 73.8055 8.15471 73.8055 7.94021C75.2199 9.09576 75.9271 9.677 77.3416 10.8256C77.3416 10.4727 77.3416 10.1198 77.3416 9.76695C75.9271 8.61832 75.2199 8.03708 73.8055 6.8746C73.8055 6.65318 73.8055 6.54247 73.8055 6.32796C75.2199 7.49044 75.9271 8.07168 77.3416 9.22031C77.3416 8.86742 77.3416 8.51452 77.3416 8.16855C75.9271 7.01299 75.2199 6.43175 73.8055 5.26928C73.8055 5.04785 73.8055 4.93714 73.8055 4.72264C75.2199 5.88511 75.9271 6.46635 77.3416 7.62191C77.3416 7.26901 77.3416 6.91612 77.3416 6.57014C75.9271 5.41459 75.2199 4.83335 73.8055 3.66395C73.8055 3.44253 73.8055 3.33182 73.8055 3.11731C75.2199 4.28671 75.9271 4.86795 77.3416 6.0235C77.3416 5.67061 77.3416 5.32463 77.3416 4.97174C75.9271 3.80926 75.2199 3.22802 73.8125 2.05863C73.8125 1.8372 73.8125 1.72649 73.8125 1.51199C75.2269 2.68138 75.9341 3.26954 77.3416 4.4251C77.3416 4.24519 77.3416 4.1068 77.3416 3.87846C75.9271 2.71598 75.2199 2.12782 73.8125 0.958427C73.3341 1.339 72.9389 1.6573 72.5645 1.95484V36.2617L74.1383 36.1856C73.9997 36.0749 73.8541 35.9642 73.7015 35.8396" fill="#B4751D"/>
<path d="M72.6689 36.2626H72.6899L72.6689 36.1925V36.2626Z" fill="#B4751D"/>
<path d="M166.928 37.4034H167.788C167.691 37.3135 167.6 37.2305 167.503 37.1336C167.503 36.9052 167.503 36.7876 167.503 36.5593C167.836 36.8706 168.127 37.1474 168.398 37.4104H169.563C168.925 36.8015 168.335 36.241 167.496 35.4521C167.496 35.2238 167.496 35.1062 167.496 34.8778C168.592 35.9088 169.264 36.5523 170.166 37.4104H171.046C171.046 37.3204 171.046 37.2305 171.046 37.1405C169.625 35.7774 168.911 35.1062 167.489 33.7638C167.489 33.5354 167.489 33.4178 167.489 33.1895C168.911 34.5249 169.625 35.1961 171.046 36.5593C171.046 36.1856 171.046 35.812 171.046 35.4383C169.625 34.0821 168.911 33.4109 167.489 32.0824C167.489 31.854 167.489 31.7364 167.489 31.508C168.911 32.8366 169.625 33.5078 171.046 34.864C171.046 34.4903 171.046 34.1167 171.046 33.743C169.625 32.3937 168.911 31.7225 167.489 30.4009C167.489 30.1726 167.489 30.0549 167.489 29.8266C168.911 31.1482 169.625 31.8194 171.046 33.1687C171.046 32.7951 171.046 32.4214 171.046 32.0478C169.625 30.6985 168.911 30.0342 167.489 28.7126C167.489 28.4842 167.489 28.3666 167.489 28.1382C168.911 29.4529 169.625 30.1241 171.046 31.4665C171.046 31.0929 171.046 30.7192 171.046 30.3456C169.625 29.0032 168.911 28.3389 167.489 27.0242C167.489 26.7959 167.489 26.6782 167.489 26.4499C168.911 27.7646 169.625 28.4219 171.046 29.7574C171.046 29.3837 171.046 29.0101 171.046 28.6364C169.625 27.301 168.911 26.6436 167.489 25.3358C167.489 25.1075 167.489 24.9899 167.489 24.7615C168.911 26.0693 169.625 26.7267 171.046 28.0621C171.046 27.6885 171.046 27.3148 171.046 26.9412C169.625 25.6126 168.911 24.9553 167.489 23.6544C167.489 23.4261 167.489 23.3084 167.489 23.0801C168.911 24.3809 169.625 25.0383 171.046 26.3668C171.046 25.9932 171.046 25.6195 171.046 25.2459C169.625 23.9243 168.911 23.2669 167.489 21.973C167.489 21.7446 167.489 21.627 167.489 21.3986C168.911 22.6926 169.625 23.3499 171.046 24.6646C171.046 24.2979 171.046 23.9312 171.046 23.5644C169.625 22.2497 168.911 21.5924 167.489 20.3054C167.489 20.077 167.489 19.9594 167.489 19.731C168.911 21.0181 169.625 21.6754 171.046 22.9832C171.046 22.6096 171.046 22.2359 171.046 21.8622C169.625 20.5545 168.911 19.904 167.489 18.617C167.489 18.3887 167.489 18.271 167.489 18.0427C168.911 19.3297 169.625 19.9732 171.046 21.281C171.046 20.9074 171.046 20.5337 171.046 20.16C169.625 18.8592 168.911 18.2087 167.489 16.9286C167.489 16.7003 167.489 16.5827 167.489 16.3543C168.911 17.6344 169.625 18.2779 171.046 19.5788C171.046 19.2052 171.046 18.8315 171.046 18.4579C169.625 17.157 168.918 16.5135 167.489 15.2403C167.489 15.0119 167.489 14.8943 167.489 14.666C168.911 15.9392 169.625 16.5827 171.046 17.8766C171.046 17.503 171.046 17.1293 171.046 16.7557C169.625 15.4617 168.911 14.8182 167.489 13.5519C167.489 13.3236 167.489 13.2059 167.489 12.9776C168.911 14.2439 169.625 14.8874 171.046 16.1744C171.046 15.8008 171.046 15.4271 171.046 15.0535C169.625 13.7664 168.911 13.1298 167.489 11.8636C167.489 11.6352 167.489 11.5176 167.489 11.2892C168.911 12.5486 169.625 13.1921 171.046 14.4722C171.046 14.0986 171.046 13.7249 171.046 13.3513C169.625 12.0712 168.911 11.4346 167.489 10.1752C167.489 9.94686 167.489 9.82923 167.489 9.60089C168.911 10.8602 169.625 11.4899 171.046 12.77C171.046 12.3964 171.046 12.0227 171.046 11.6491C169.625 10.3759 168.911 9.73928 167.489 8.48685C167.489 8.25851 167.489 8.14087 167.489 7.91253C168.911 9.16496 169.625 9.79463 171.046 11.0678C171.046 10.6942 171.046 10.3205 171.046 9.94686C169.625 8.67368 168.911 8.044 167.489 6.79849C167.489 6.57015 167.489 6.45252 167.489 6.22417C168.911 7.46968 169.625 8.09936 171.046 9.36563C171.046 8.99197 171.046 8.61832 171.046 8.24467C169.625 6.9784 168.911 6.35564 167.489 5.11013C167.489 4.88179 167.489 4.76416 167.489 4.53581C168.911 5.7744 169.625 6.40408 171.046 7.66343C171.046 7.28977 171.046 6.91612 171.046 6.54247C169.625 5.28312 168.918 4.66036 167.489 3.42177C167.489 3.19343 167.489 3.0758 167.489 2.84746C168.911 4.08605 169.625 4.7088 171.046 5.96123C171.046 5.58758 171.046 5.21392 171.046 4.84027C169.625 3.58784 168.911 2.96509 167.489 1.73342C167.489 1.50507 167.489 1.38744 167.489 1.1591C168.911 2.39077 169.625 3.01352 171.046 4.25903C171.046 4.06529 171.046 3.91998 171.046 3.68471C169.625 2.43228 168.911 1.81645 167.489 0.584778C167.157 0.861558 166.859 1.11066 166.581 1.339H167.067V37.3758L166.928 37.4034Z" fill="#B4751D"/>
<path d="M191.195 32.2207C191.687 32.7189 192.186 33.231 192.845 33.8953C192.845 33.4939 192.845 33.0926 192.845 32.6913C191.424 31.2451 190.716 30.5324 189.288 29.1139C189.288 28.8648 189.288 28.7402 189.288 28.4911C190.709 29.9096 191.424 30.6223 192.845 32.0616C192.845 31.6603 192.845 31.2589 192.845 30.8576C191.424 29.4183 190.709 28.7056 189.288 27.2941C189.288 27.045 189.288 26.9204 189.288 26.6782C190.709 28.0898 191.424 28.8025 192.845 30.2348C192.845 29.8335 192.845 29.4322 192.845 29.0308C191.424 27.5985 190.709 26.8858 189.288 25.4811C189.288 25.232 189.288 25.1075 189.288 24.8653C190.709 26.27 191.424 26.9758 192.845 28.4081C192.845 28.0068 192.845 27.6054 192.845 27.2041C191.424 25.7787 190.716 25.0729 189.288 23.6682C189.288 23.4191 189.288 23.2946 189.288 23.0455C190.709 24.4432 191.424 25.149 192.845 26.5744C192.845 26.18 192.845 25.7856 192.845 25.3912C191.424 23.9727 190.709 23.2669 189.288 21.8692C189.288 21.6201 189.288 21.4955 189.288 21.2464C190.709 22.6372 191.424 23.343 192.845 24.7615C192.845 24.3602 192.845 23.9589 192.845 23.5575C191.424 22.1459 190.716 21.4402 189.288 20.0563C189.288 19.8072 189.288 19.6826 189.288 19.4335C190.709 20.8174 191.424 21.5232 192.845 22.9278C192.845 22.5265 192.845 22.1252 192.845 21.7239C191.424 20.3192 190.709 19.6203 189.295 18.2364C189.295 17.9873 189.295 17.8628 189.295 17.6137C190.716 18.9976 191.431 19.6895 192.852 21.0942C192.852 20.6928 192.852 20.2915 192.852 19.8902C191.431 18.4855 190.716 17.7936 189.295 16.4166C189.295 16.1675 189.295 16.0429 189.295 15.7938C190.716 17.1708 191.431 17.8628 192.852 19.2605C192.852 18.8592 192.852 18.4578 192.852 18.0565C191.431 16.6588 190.716 15.9668 189.295 14.5968C189.295 14.3477 189.295 14.2231 189.295 13.974C190.716 15.3441 191.431 16.036 192.852 17.4268C192.852 17.0255 192.852 16.6242 192.852 16.2229C191.431 14.832 190.716 14.147 189.295 12.7769C189.295 12.5278 189.295 12.4033 189.295 12.1542C190.716 13.5173 191.431 14.2024 192.852 15.5932C192.852 15.1918 192.852 14.7905 192.852 14.3892C191.431 13.0053 190.716 12.3203 189.295 10.9571C189.295 10.708 189.295 10.5835 189.295 10.3344C190.716 11.6906 191.431 12.3756 192.852 13.7526C192.852 13.3513 192.852 12.9499 192.852 12.5486C191.431 11.1716 190.716 10.4866 189.295 9.13728C189.295 8.88818 189.295 8.76363 189.295 8.51452C190.716 9.86383 191.431 10.5489 192.852 11.9189C192.852 11.5176 192.852 11.1163 192.852 10.708C191.431 9.33795 190.716 8.65983 189.295 7.31053C189.295 7.06143 189.295 6.93688 189.295 6.68778C190.716 8.03708 191.431 8.71519 192.852 10.0783C192.852 9.677 192.852 9.27567 192.852 8.86742C191.431 7.50428 190.716 6.82617 189.295 5.48378C189.295 5.23468 189.295 5.11013 189.295 4.86103C190.716 6.20341 191.431 6.8746 192.852 8.23774C192.852 7.83641 192.852 7.43508 192.852 7.03375C191.431 5.67753 190.716 4.99942 189.295 3.66395C189.295 3.41485 189.295 3.2903 189.295 3.0412C190.716 4.37666 191.431 5.04785 192.852 6.40408C192.852 6.00275 192.852 5.60141 192.852 5.20008C191.431 3.85078 190.716 3.17959 189.295 1.84412C189.295 1.59502 189.295 1.47047 189.295 1.22137C190.716 2.54991 191.431 3.22111 192.852 4.57041C192.852 4.36282 192.852 4.20367 192.852 3.94765C191.431 2.59835 190.723 1.92716 189.295 0.598614C188.962 0.903072 188.664 1.16601 188.394 1.41511H188.879V40.3096H189.739C189.642 40.2128 189.552 40.1159 189.455 40.0121C189.455 39.763 189.455 39.6384 189.455 39.3893C189.787 39.7284 190.079 40.0259 190.349 40.3027H191.514C190.876 39.6454 190.287 39.0434 189.448 38.1923C189.448 37.9432 189.448 37.8186 189.448 37.5695C190.543 38.6836 191.216 39.3755 192.117 40.3027H192.997C192.997 40.2058 192.997 40.109 192.997 40.0121C191.576 38.5452 190.869 37.8117 189.441 36.3724C189.441 36.1233 189.441 35.9988 189.441 35.7497C190.862 37.1889 191.576 37.9155 192.997 39.3824C192.997 38.9811 192.997 38.5798 192.997 38.1784C191.576 36.7115 190.862 35.9919 189.441 34.5526C189.441 34.3035 189.441 34.179 189.441 33.9299C190.862 35.3622 191.576 36.0887 192.997 37.5488C192.997 37.1474 192.997 36.7461 192.997 36.3448C191.576 34.8848 190.869 34.1651 189.441 32.7328C189.441 32.4837 189.441 32.3591 189.441 32.11C190.862 33.5354 191.576 34.262 192.997 35.7151C192.997 35.3138 192.997 34.9124 192.997 34.5111C191.576 33.058 190.862 32.3384 189.441 30.913C189.441 30.6639 189.441 30.5393 189.441 30.2902C190.21 31.0583 190.772 31.6187 191.347 32.2069" fill="#B4751D"/>
<path d="M59.6617 41.8319C54.635 42.2333 49.6152 42.683 44.6024 43.1812C44.6578 29.3561 44.7202 15.524 44.7826 1.69882C47.3202 1.69882 48.5821 1.6919 51.1197 1.68498C51.0712 13.6626 51.0157 25.6403 50.9672 37.611C53.8723 37.3758 56.7774 37.1613 59.6894 36.9606C59.6825 38.905 59.6755 39.8806 59.6686 41.825M59.6825 36.2133C57.0686 36.3863 54.4616 36.5731 51.8477 36.7807C51.8963 25.0798 51.9517 13.3859 52.0003 1.68498C52.0003 1.38052 52.0003 1.22829 52.0003 0.916916C51.6467 0.916916 51.4664 0.916916 51.1128 0.916916C48.5752 0.916916 47.3133 0.916916 44.7757 0.916916C44.4221 0.916916 44.2418 0.916916 43.8882 0.916916C43.8882 1.22829 43.8882 1.38744 43.8882 1.69882C43.8327 15.5586 43.7703 29.4114 43.7079 43.2712C43.7079 43.5826 43.7079 43.7417 43.7079 44.0462C44.0615 44.0116 44.2418 43.9908 44.5954 43.9562C49.6152 43.4511 54.628 42.9944 59.6547 42.5792C60.0083 42.5516 60.1886 42.5377 60.5422 42.51C60.5422 42.2125 60.5422 42.0603 60.5422 41.7627C60.5491 39.8184 60.5561 38.8496 60.563 36.9052C60.563 36.6077 60.563 36.4555 60.563 36.1579C60.2094 36.1787 60.0291 36.1925 59.6755 36.2133" fill="#B4751D"/>
<path d="M60.5565 40.7525C60.5565 40.5311 60.5565 40.4134 60.5565 40.192C61.9709 41.2853 62.6781 41.8319 64.0925 42.9183C64.0925 42.5516 64.0925 42.1987 64.0925 41.8458C62.6781 40.7594 61.9709 40.2128 60.5565 39.1126C60.5565 38.8911 60.5565 38.7735 60.5565 38.5521C61.9709 39.6523 62.6781 40.1989 64.0925 41.2922C64.0925 40.9601 64.0925 40.6072 64.0925 40.2197C62.6781 39.1264 61.9709 38.5728 60.5565 37.4726C60.5565 37.2512 60.5565 37.1336 60.5565 36.9122C61.9709 38.0193 62.6781 38.5659 64.0925 39.6592C64.0925 39.3617 64.0925 39.2094 64.0925 38.9119C62.6781 37.8117 61.9709 37.2651 60.5565 36.1579C60.0712 36.4693 59.6482 36.7392 59.253 36.9952L59.6621 36.9675L59.6413 41.8319L50.9399 42.5377V43.1812H47.2375C47.2375 44.1223 47.2306 45.0564 47.2236 45.9975C47.2236 46.3088 47.2236 46.4611 47.2236 46.7724C47.5772 46.7379 47.7575 46.7171 48.1111 46.6756C53.1309 46.1635 58.1506 45.7068 63.1773 45.2986C63.5309 45.2709 63.7112 45.2571 64.0717 45.2294C64.0717 44.9319 64.0717 44.7796 64.0717 44.4821C64.0717 44.1154 64.0717 43.7901 64.0717 43.4788C62.6573 42.3924 61.9501 41.8458 60.5357 40.7525" fill="#B4751D"/>
<path d="M55.6608 5.0617C54.2464 3.86462 53.5461 3.26955 52.1317 2.05863C52.1317 1.83029 52.1317 1.71958 52.1317 1.48431C53.5461 2.69523 54.2533 3.29722 55.6677 4.4943C55.6677 4.72264 55.6677 4.83335 55.6677 5.0617M52.1456 0.916915C51.7504 1.24213 51.4176 1.51891 51.0986 1.78185V37.5557L52.3674 37.4726C52.2426 37.3758 52.1248 37.2789 51.993 37.1751C51.993 36.9468 51.993 36.8361 51.993 36.6077C52.3882 36.9191 52.721 37.182 53.04 37.4311L54.3365 37.3412C53.5877 36.7599 52.9568 36.2548 52 35.5075C52 35.2792 52 35.1685 52 34.9332C53.2272 35.9019 53.9205 36.4486 55.0021 37.2927L55.5291 37.2581C55.5291 37.0436 55.5291 36.8291 55.5291 36.6146C54.1147 35.5075 53.4074 34.9539 52 33.833C52 33.6046 52 33.487 52 33.2587C53.4144 34.3796 54.1216 34.9332 55.5291 36.0403C55.5291 35.6736 55.5291 35.3138 55.5291 34.947C54.1147 33.833 53.4074 33.2794 52 32.1515C52 31.9232 52 31.8056 52 31.5772C53.4144 32.7051 54.1147 33.2587 55.5291 34.3727C55.5291 34.006 55.5291 33.6462 55.5291 33.2794C54.1147 32.1654 53.4144 31.6049 52 30.4701C52 30.2418 52 30.1241 52 29.8958C53.4144 31.0237 54.1216 31.5911 55.5291 32.7051C55.5291 32.3384 55.5291 31.9786 55.5291 31.6118C54.1147 30.4909 53.4074 29.9304 52 28.7956C52 28.5672 52 28.4496 52 28.2213C53.4144 29.3561 54.1216 29.9235 55.5291 31.0444C55.5291 30.6777 55.5291 30.3179 55.5291 29.9511C54.1147 28.8233 53.4074 28.2559 52 27.1211C52 26.8927 52 26.782 52 26.5537C53.4144 27.6954 54.1216 28.2628 55.5291 29.3907C55.5291 29.0239 55.5291 28.6641 55.5291 28.2974C54.1147 27.1626 53.4074 26.5952 52 25.4535C52 25.2251 52 25.1075 52 24.8861C53.4144 26.0278 54.1147 26.6021 55.5291 27.73C55.5291 27.3633 55.5291 27.0034 55.5291 26.6367C54.1147 25.5019 53.4144 24.9276 52 23.779C52 23.5506 52 23.4399 52 23.2116C53.4144 24.3602 54.1216 24.9345 55.5291 26.0693C55.5291 25.7026 55.5291 25.3428 55.5291 24.976C54.1147 23.8343 53.4074 23.26 52 22.1044C52 21.8761 52 21.7654 52 21.537C53.4144 22.6926 54.1147 23.2669 55.5291 24.4086C55.5291 24.0488 55.5291 23.689 55.5291 23.3361C54.1147 22.1944 53.4074 21.6131 52 20.4576C52 20.2292 52 20.1185 52 19.8833C53.4144 21.0457 54.1216 21.6201 55.5291 22.7687C55.5291 22.402 55.5291 22.0422 55.5291 21.6754C54.1216 20.5268 53.4144 19.9455 52 18.7831C52 18.5547 52 18.4371 52 18.2088C53.4144 19.3712 54.1216 19.9525 55.5291 21.1011C55.5291 20.7344 55.5291 20.3746 55.5291 20.0078C54.1147 18.8523 53.4144 18.271 52 17.1016C52 16.8733 52 16.7557 52 16.5273C53.4074 17.6967 54.1147 18.2779 55.5291 19.4335C55.5291 19.0668 55.5291 18.707 55.5291 18.3402C54.1147 17.1847 53.4144 16.5965 52 15.4202C52 15.1918 52 15.0811 52 14.8528C53.4144 16.0291 54.1147 16.6103 55.5291 17.7728C55.5291 17.4061 55.5291 17.0463 55.5291 16.6795C54.1216 15.5171 53.4144 14.9289 52 13.7526C52 13.5243 52 13.4135 52 13.1783C53.4144 14.3615 54.1216 14.9427 55.5291 16.1121C55.5291 15.7454 55.5291 15.3856 55.5291 15.0189C54.1147 13.8495 53.4144 13.2613 52 12.0781C52 11.8497 52 11.7321 52 11.5038C53.4144 12.687 54.1216 13.2821 55.5291 14.4515C55.5291 14.0847 55.5291 13.7249 55.5291 13.3582C54.1147 12.1819 53.4144 11.5937 52 10.4036C52 10.1752 52 10.0645 52 9.83615C53.4144 11.0263 54.1147 11.6214 55.5291 12.7908C55.5291 12.424 55.5291 12.0642 55.5291 11.6975C54.1147 10.5212 53.4144 9.92611 52 8.72903C52 8.50069 52 8.38998 52 8.16163C53.4144 9.35871 54.1147 9.95378 55.5291 11.1301C55.5291 10.7634 55.5291 10.4036 55.5291 10.0368C54.1216 8.85358 53.4144 8.25851 52 7.05451C52 6.82617 52 6.71546 52 6.48711C53.4144 7.69111 54.1216 8.28619 55.5291 9.46942C55.5291 9.10269 55.5291 8.74287 55.5291 8.37614C54.1216 7.18598 53.4144 6.59091 52 5.38691C52 5.15857 52 5.04786 52 4.81951C53.4144 6.02351 54.1216 6.6255 55.5291 7.81566C55.5291 7.44893 55.5291 7.08911 55.5291 6.72238C54.1216 5.53222 53.4144 4.93023 52 3.71931C52 3.49097 52 3.37334 52 3.14499C53.4144 4.35591 54.1216 4.9579 55.5291 6.15498C55.5291 5.66369 55.5291 5.17933 55.5291 4.68804C55.5291 4.38359 55.5291 4.23136 55.5291 3.9269C54.1147 2.72291 53.4144 2.12091 52 0.896156" fill="#B4751D"/>
<path d="M81.4813 40.3719C76.4546 40.7594 71.4348 41.1953 66.422 41.6728C66.4844 28.3389 66.5399 15.005 66.6023 1.66422C69.1399 1.66422 70.4018 1.6573 72.9394 1.65038C72.8908 13.199 72.8354 24.7546 72.7868 36.3032C75.6919 36.0749 78.597 35.8673 81.509 35.6736C81.5021 37.5488 81.4952 38.4898 81.4882 40.365M81.5021 34.9539C78.8882 35.12 76.2813 35.3068 73.6674 35.5006C73.7159 24.2149 73.7714 12.9361 73.8199 1.65038C73.8199 1.35284 73.8199 1.20753 73.8199 0.909992C73.4663 0.909992 73.286 0.909992 72.9324 0.909992C70.3948 0.909992 69.1329 0.909992 66.5953 0.909992C66.2417 0.909992 66.0615 0.909992 65.7079 0.909992C65.7079 1.21445 65.7079 1.35976 65.7079 1.66422C65.6455 15.0258 65.59 28.3943 65.5276 41.7558C65.5276 42.0534 65.5276 42.2056 65.5276 42.51C65.8812 42.4754 66.0615 42.4547 66.4151 42.4201C71.4348 41.9288 76.4477 41.486 81.4744 41.0915C81.828 41.0639 82.0082 41.05 82.3618 41.0223C82.3618 40.7317 82.3618 40.5864 82.3618 40.2958C82.3688 38.4206 82.3757 37.4865 82.3826 35.6113C82.3826 35.3207 82.3826 35.1754 82.3826 34.8848C82.029 34.9055 81.8488 34.9193 81.4952 34.9401" fill="#B4751D"/>
<path d="M82.3691 39.334C82.3691 39.1195 82.3691 39.0088 82.3691 38.7943C83.7835 39.8529 84.4907 40.3788 85.9051 41.4237C85.9051 41.0708 85.9051 40.7248 85.9051 40.3857C84.4907 39.334 83.7835 38.8081 82.3691 37.7494C82.3691 37.5349 82.3691 37.4242 82.3691 37.2097C83.7835 38.2684 84.4907 38.7943 85.9051 39.8529C85.9051 39.5346 85.9051 39.1887 85.9051 38.815C84.4907 37.7633 83.7835 37.2305 82.3691 36.1648C82.3691 35.9503 82.3691 35.8396 82.3691 35.6251C83.7835 36.6907 84.4907 37.2166 85.9051 38.2753C85.9051 37.9847 85.9051 37.8463 85.9051 37.5557C84.4907 36.497 83.7835 35.9642 82.3691 34.8986C81.8838 35.1961 81.4608 35.4591 81.0656 35.7082L81.4747 35.6805L81.4539 40.3719L72.7525 41.05V41.6728H69.0432C69.0432 42.5792 69.0362 43.4857 69.0293 44.3921C69.0293 44.6897 69.0293 44.8419 69.0293 45.1394C69.3829 45.1048 69.5632 45.0841 69.9168 45.0495C74.9365 44.5582 79.9563 44.1154 84.983 43.7209C85.3366 43.6933 85.5169 43.6794 85.8774 43.6518C85.8774 43.3611 85.8774 43.2227 85.8774 42.9321C85.8774 42.5792 85.8774 42.2609 85.8774 41.9634C84.463 40.9116 83.7558 40.3927 82.3414 39.334" fill="#B4751D"/>
<path d="M77.4811 4.91639C76.0667 3.76775 75.3595 3.18651 73.952 2.01712C73.952 1.79569 73.952 1.68498 73.952 1.46356C75.3664 2.63295 76.0736 3.21419 77.4811 4.36283C77.4811 4.58425 77.4811 4.68804 77.4811 4.90947M73.9659 0.916916C73.5707 1.22829 73.2379 1.49815 72.9189 1.75418V36.2548L74.1878 36.1718C74.063 36.0818 73.9451 35.985 73.8134 35.8881C73.8134 35.6667 73.8134 35.5559 73.8134 35.3345C74.2086 35.6321 74.5414 35.8881 74.8603 36.1303L76.1568 36.0472C75.408 35.4868 74.7771 35.0024 73.8203 34.2758C73.8203 34.0544 73.8203 33.9437 73.8203 33.7223C75.0475 34.6564 75.7408 35.1823 76.8224 35.9988L77.3494 35.9642C77.3494 35.7566 77.3494 35.549 77.3494 35.3414C75.935 34.2758 75.2278 33.7361 73.8203 32.6567C73.8203 32.4352 73.8203 32.3245 73.8203 32.1031C75.2347 33.1826 75.9419 33.7223 77.3494 34.7879C77.3494 34.435 77.3494 34.089 77.3494 33.7361C75.935 32.6636 75.2278 32.1239 73.8203 31.0375C73.8203 30.8161 73.8203 30.7054 73.8203 30.4839C75.2347 31.5703 75.9419 32.11 77.3494 33.1826C77.3494 32.8297 77.3494 32.4837 77.3494 32.1308C75.935 31.0513 75.2347 30.5116 73.8203 29.4253C73.8203 29.2038 73.8203 29.0931 73.8203 28.8717C75.2347 29.965 75.9419 30.5047 77.3494 31.5842C77.3494 31.2313 77.3494 30.8784 77.3494 30.5324C75.935 29.4529 75.2278 28.9063 73.8203 27.813C73.8203 27.5916 73.8203 27.4809 73.8203 27.2595C75.2347 28.3527 75.9419 28.8994 77.3494 29.9788C77.3494 29.6259 77.3494 29.273 77.3494 28.9271C75.935 27.8407 75.2278 27.2941 73.8203 26.1939C73.8203 25.9724 73.8203 25.8617 73.8203 25.6472C75.2347 26.7474 75.9419 27.2941 77.3494 28.3804C77.3494 28.0275 77.3494 27.6746 77.3494 27.3287C75.935 26.2354 75.2347 25.6887 73.8203 24.5885C73.8203 24.3671 73.8203 24.2564 73.8203 24.035C75.2347 25.1421 75.935 25.6887 77.3494 26.782C77.3494 26.4291 77.3494 26.0831 77.3494 25.7303C75.935 24.637 75.2347 24.0834 73.8203 22.9763C73.8203 22.7549 73.8203 22.6442 73.8203 22.4296C75.2347 23.5368 75.9419 24.0903 77.3494 25.1905C77.3494 24.8376 77.3494 24.4847 77.3494 24.1388C75.935 23.0386 75.2278 22.485 73.8203 21.371C73.8203 21.1495 73.8203 21.0388 73.8203 20.8243C75.2347 21.9384 75.9419 22.4919 77.3494 23.5921C77.3494 23.2462 77.3494 22.9002 77.3494 22.5542C75.935 21.4471 75.2278 20.8935 73.8203 19.7795C73.8203 19.5581 73.8203 19.4473 73.8203 19.2259C75.2347 20.3469 75.9419 20.9004 77.3494 22.0076C77.3494 21.6547 77.3494 21.3087 77.3494 20.9558C75.935 19.8487 75.2347 19.2882 73.8203 18.1672C73.8203 17.9458 73.8203 17.8351 73.8203 17.6137C75.2347 18.7346 75.9419 19.2951 77.3494 20.4092C77.3494 20.0563 77.3494 19.7103 77.3494 19.3574C75.935 18.2434 75.2347 17.6829 73.8203 16.555C73.8203 16.3336 73.8203 16.2229 73.8203 16.0014C75.2347 17.1293 75.9419 17.6898 77.3494 18.8038C77.3494 18.4509 77.3494 18.105 77.3494 17.7521C75.935 16.6311 75.2347 16.0706 73.8203 14.9358C73.8203 14.7144 73.8203 14.6037 73.8203 14.3823C75.2347 15.5171 75.935 16.0775 77.3494 17.1985C77.3494 16.8456 77.3494 16.4996 77.3494 16.1467C75.9419 15.0258 75.2347 14.4584 73.8203 13.3236C73.8203 13.1022 73.8203 12.9914 73.8203 12.77C75.2347 13.9117 75.9419 14.4722 77.3494 15.6001C77.3494 15.2472 77.3494 14.8943 77.3494 14.5483C75.9419 13.4205 75.2347 12.8531 73.8203 11.7113C73.8203 11.4899 73.8203 11.3792 73.8203 11.1578C75.2347 12.2995 75.9419 12.8669 77.3494 13.9948C77.3494 13.6419 77.3494 13.289 77.3494 12.943C75.935 11.8082 75.2347 11.2408 73.8203 10.0922C73.8203 9.87075 73.8203 9.76004 73.8203 9.54554C75.2278 10.6942 75.935 11.2616 77.3494 12.3964C77.3494 12.0435 77.3494 11.6906 77.3494 11.3446C75.935 10.2098 75.2347 9.63549 73.8203 8.47993C73.8203 8.25851 73.8203 8.1478 73.8203 7.93329C75.2347 9.08885 75.935 9.65625 77.3494 10.798C77.3494 10.4451 77.3494 10.0922 77.3494 9.7462C75.9419 8.60448 75.2347 8.03017 73.8203 6.87461C73.8203 6.65318 73.8203 6.54247 73.8203 6.32105C75.2347 7.48352 75.9419 8.05784 77.3494 9.19956C77.3494 8.84667 77.3494 8.49377 77.3494 8.1478C75.935 7.00608 75.2347 6.42484 73.8203 5.26236C73.8203 5.04094 73.8203 4.93023 73.8203 4.7088C75.2347 5.87128 75.9419 6.45252 77.3494 7.59424C77.3494 7.24134 77.3494 6.88845 77.3494 6.54247C75.9419 5.39383 75.2347 4.8126 73.8203 3.65012C73.8203 3.4287 73.8203 3.31798 73.8203 3.09656C75.2347 4.26595 75.9419 4.84719 77.3494 5.99583C77.3494 5.5253 77.3494 5.05478 77.3494 4.58425C77.3494 4.29363 77.3494 4.14832 77.3494 3.85078C75.935 2.68831 75.2347 2.10707 73.8203 0.930755" fill="#B4751D"/>
<path d="M35.9703 44.2883C33.4396 44.579 32.1777 44.7312 29.6471 45.0495C29.7025 30.6638 29.7511 16.2851 29.8065 1.89948C32.3372 1.89948 33.606 1.89256 36.1436 1.88564C36.0882 16.0222 36.0327 30.1518 35.9703 44.2883ZM36.1436 1.09682C33.606 1.09682 32.3372 1.09682 29.8065 1.09682H28.9191C28.9191 1.42203 28.9191 1.58118 28.9191 1.9064C28.8636 16.3266 28.815 30.7469 28.7596 45.1671C28.7596 45.4923 28.7596 45.6515 28.7596 45.9767C29.1132 45.9283 29.2865 45.9075 29.6471 45.8591C32.1777 45.5339 33.4396 45.3816 35.9703 45.0841C36.3239 45.0426 36.5042 45.0218 36.8578 44.9803C36.8578 44.662 36.8578 44.5029 36.8578 44.1846C36.9132 30.0826 36.9756 15.9807 37.0311 1.88564C37.0311 1.56734 37.0311 1.40819 37.0311 1.0899H36.1436" fill="#B4751D"/>
<path d="M40.5605 4.81259C40.5605 4.61884 40.5605 4.46661 40.5605 4.22443C39.146 2.97892 38.4458 2.35617 37.0314 1.0899C36.6847 1.38052 36.3866 1.64346 36.1023 1.88564H36.137V48.2255C37.1492 48.101 38.1407 47.9764 39.4858 47.8173C39.8394 47.7758 40.0197 47.755 40.3733 47.7135C40.3733 47.4021 40.3733 47.243 40.3733 46.9247C40.3733 46.8416 40.3733 46.7586 40.3733 46.6756C38.9658 45.5892 38.2586 45.0357 36.8511 43.9355C36.8511 43.7002 36.8511 43.5826 36.8511 43.3473C38.2586 44.4544 38.9658 45.0011 40.3733 46.0943C40.3733 45.6999 40.3733 45.3055 40.3733 44.9111C38.9658 43.8178 38.2586 43.2643 36.8511 42.1502C36.8511 41.915 36.8511 41.7973 36.8511 41.5621C38.2586 42.6761 38.9658 43.2297 40.3733 44.3229C40.3733 43.9424 40.3733 43.5687 40.3733 43.1881C38.9658 42.0879 38.2586 41.5344 36.8511 40.4134C36.8511 40.1782 36.8511 40.0605 36.8511 39.8184C38.2586 40.9393 38.9658 41.4929 40.3733 42.5931C40.3733 42.2194 40.3733 41.8388 40.3733 41.4652C38.9658 40.3581 38.2586 39.7976 36.8511 38.6766C36.8511 38.4414 36.8511 38.3237 36.8511 38.0816C38.2586 39.2094 38.9658 39.763 40.3733 40.877C40.3733 40.5034 40.3733 40.1228 40.3733 39.7422C38.9658 38.6282 38.2586 38.0677 36.8511 36.9398C36.8511 36.7046 36.8511 36.5869 36.8511 36.3448C38.2586 37.4796 38.9658 38.04 40.3733 39.1541C40.3733 38.7804 40.3733 38.3999 40.3733 38.0262C38.9588 36.9052 38.2586 36.3448 36.8442 35.203C36.8442 34.9678 36.8442 34.8501 36.8442 34.608C38.2516 35.7497 38.9588 36.3102 40.3663 37.4311C40.3663 37.0575 40.3663 36.6769 40.3663 36.3032C38.9588 35.1754 38.2516 34.608 36.8372 33.4662C36.8372 33.231 36.8372 33.1134 36.8372 32.8712C38.2447 34.0198 38.9519 34.5872 40.3663 35.7151C40.3663 35.3345 40.3663 34.9609 40.3663 34.5803C38.9588 33.4455 38.2516 32.8781 36.8372 31.7295C36.8372 31.4942 36.8372 31.3766 36.8372 31.1344C38.2447 32.283 38.9519 32.8573 40.3594 33.9921C40.3594 33.6185 40.3594 33.2379 40.3594 32.8643C38.945 31.7225 38.2447 31.1482 36.8303 29.9927C36.8303 29.7574 36.8303 29.6398 36.8303 29.3976C38.2378 30.5531 38.945 31.1344 40.3594 32.2692C40.3594 31.8886 40.3594 31.5149 40.3594 31.1344C38.9519 29.9927 38.2447 29.4114 36.8303 28.2489C36.8303 28.0137 36.8303 27.896 36.8303 27.6608C38.2378 28.8233 38.945 29.4045 40.3594 30.5531C40.3594 30.1726 40.3594 29.7989 40.3594 29.4183C38.9519 28.2697 38.2447 27.6885 36.8303 26.5191C36.8303 26.2838 36.8303 26.1662 36.8303 25.9309C38.2378 27.1003 38.945 27.6815 40.3594 28.8371C40.3594 28.4565 40.3594 28.0829 40.3594 27.7092C38.945 26.5537 38.2447 25.9655 36.8303 24.7892C36.8303 24.5539 36.8303 24.4363 36.8303 24.201C38.2447 25.3773 38.945 25.9655 40.3594 27.1211C40.3594 26.7405 40.3594 26.3668 40.3594 25.9863C38.945 24.8238 38.2447 24.2356 36.8303 23.0524C36.8303 22.8171 36.8303 22.6995 36.8303 22.4642C38.2378 23.6475 38.945 24.2356 40.3594 25.3981C40.3594 25.0245 40.3594 24.6577 40.3594 24.2841C38.945 23.1147 38.2447 22.5265 36.8303 21.3364C36.8303 21.1011 36.8303 20.9835 36.8303 20.7413C38.2447 21.9314 38.945 22.5196 40.3594 23.6959C40.3594 23.3153 40.3594 22.9417 40.3594 22.5611C38.9519 21.3848 38.2447 20.7897 36.8303 19.5996C36.8303 19.3643 36.8303 19.2467 36.8303 19.0045C38.2447 20.2016 38.945 20.7966 40.3594 21.973C40.3594 21.5924 40.3594 21.2187 40.3594 20.8382C38.9519 19.6549 38.2447 19.0598 36.8303 17.8559C36.8303 17.6206 36.8303 17.503 36.8303 17.2608C38.2447 18.4648 38.945 19.0598 40.3594 20.2431C40.3594 19.8694 40.3594 19.4889 40.3594 19.1083C38.945 17.9181 38.2447 17.323 36.8303 16.1121C36.8303 15.8769 36.8303 15.7592 36.8303 15.5171C38.2447 16.728 38.945 17.33 40.3594 18.5201C40.3594 18.1465 40.3594 17.7659 40.3594 17.3922C38.945 16.1952 38.2447 15.5932 36.8303 14.3823C36.8303 14.147 36.8303 14.0294 36.8303 13.7872C38.2447 15.005 38.945 15.607 40.3594 16.8041C40.3594 16.4235 40.3594 16.0499 40.3594 15.6693C38.9519 14.4653 38.2447 13.8633 36.8303 12.6385C36.8303 12.4033 36.8303 12.2857 36.8303 12.0435C38.2447 13.2682 38.945 13.8702 40.3594 15.0742C40.3594 14.6936 40.3594 14.32 40.3594 13.9394C38.945 12.7354 38.2447 12.1265 36.8303 10.8948C36.8303 10.6596 36.8303 10.5419 36.8303 10.3067C38.2378 11.5383 38.945 12.1473 40.3594 13.3513C40.3594 12.9776 40.3594 12.597 40.3594 12.2234C38.945 11.0125 38.2447 10.3966 36.8303 9.16496C36.8303 8.92969 36.8303 8.81206 36.8303 8.5768C38.2447 9.81539 38.945 10.4243 40.3594 11.6421C40.3594 11.2616 40.3594 10.8879 40.3594 10.5073C38.945 9.28951 38.2447 8.67367 36.8303 7.43508C36.8303 7.19982 36.8303 7.08219 36.8303 6.84692C38.2447 8.09243 38.945 8.70827 40.3594 9.9261C40.3594 9.54553 40.3594 9.17188 40.3594 8.7913C38.945 7.56655 38.2447 6.95072 36.8303 5.7052C36.8303 5.46994 36.8303 5.35231 36.8303 5.11013C38.2447 6.36256 38.945 6.97839 40.3594 8.20315C40.3594 7.82257 40.3594 7.44892 40.3594 7.06835C38.945 5.83668 38.2447 5.21392 36.8303 3.96149C36.8303 3.72623 36.8303 3.6086 36.8303 3.36641C38.2447 4.62576 38.9519 5.2416 40.3594 6.48019C40.3594 6.09962 40.3594 5.72596 40.3594 5.34539C38.945 4.1068 38.2447 3.48404 36.8303 2.2247C36.8303 1.98943 36.8303 1.8718 36.8303 1.62962C38.2447 2.88897 38.9519 3.51864 40.3594 4.75723" fill="#B4751D"/>
<path d="M145.684 41.3683C145.636 28.2282 145.594 15.0881 145.546 1.94792C148.083 1.94792 149.345 1.94792 151.883 1.95484C151.931 15.2264 151.987 28.505 152.035 41.7766C149.498 41.5967 148.229 41.5205 145.684 41.3683ZM152.923 41.8388C152.867 28.5465 152.819 15.2541 152.763 1.95484C152.763 1.6573 152.763 1.50507 152.763 1.20753H151.876C149.338 1.20753 148.076 1.20753 145.539 1.20753H144.651C144.651 1.50507 144.651 1.65038 144.651 1.94792C144.7 15.0742 144.741 28.1936 144.79 41.3199C144.79 41.6174 144.79 41.7627 144.79 42.0603C145.143 42.081 145.324 42.0949 145.677 42.1156C148.222 42.2679 149.491 42.3509 152.028 42.5308C152.382 42.5585 152.562 42.5654 152.916 42.5931C152.916 42.2955 152.916 42.1433 152.916 41.8458" fill="#B4751D"/>
<path d="M152.562 42.3232C152.562 42.1018 152.562 41.9911 152.562 41.7697C153.914 42.9875 154.628 43.6448 155.911 44.8211C155.911 44.4613 155.911 44.1015 155.911 43.7348C154.628 42.5585 153.914 41.908 152.562 40.6902C152.562 40.4688 152.562 40.3581 152.562 40.1297C153.914 41.3476 154.628 41.998 155.911 43.1743C155.911 42.8145 155.911 42.4547 155.911 42.0879C154.628 40.9116 153.914 40.2681 152.562 39.0503C152.562 38.8289 152.562 38.7182 152.562 38.4898C153.914 39.7007 154.628 40.3512 155.911 41.5205C155.911 41.1607 155.911 40.8009 155.911 40.4342C154.628 39.2648 153.914 38.6144 152.562 37.4104C152.562 37.1889 152.562 37.0782 152.562 36.8499C153.914 38.0608 154.628 38.7043 155.911 39.8737C155.911 39.5139 155.911 39.1541 155.911 38.7943C154.628 37.6318 153.914 36.9814 152.562 35.7774C152.562 35.5559 152.562 35.4452 152.562 35.2169C153.914 36.4209 154.628 37.0644 155.911 38.2269C155.911 37.8671 155.911 37.5072 155.911 37.1405C154.628 35.978 153.914 35.3345 152.562 34.1305C152.562 33.9091 152.562 33.7984 152.562 33.57C153.914 34.7671 154.628 35.4106 155.911 36.5731C155.911 36.2133 155.911 35.8535 155.911 35.4937C154.628 34.3381 153.914 33.6946 152.562 32.4975C152.562 32.2761 152.562 32.1654 152.562 31.937C153.914 33.1341 154.628 33.7776 155.911 34.9332C155.911 34.5734 155.911 34.2136 155.911 33.8468C154.628 32.6913 153.914 32.0547 152.562 30.8576C152.562 30.6362 152.562 30.5185 152.562 30.2971C153.914 31.4873 154.628 32.1308 155.911 33.2794C155.911 32.9196 155.911 32.5598 155.911 32.1931C154.628 31.0444 153.914 30.4078 152.562 29.2177C152.562 28.9963 152.562 28.8855 152.562 28.6572C153.914 29.8473 154.628 30.4839 155.911 31.6326C155.911 31.2728 155.911 30.913 155.911 30.5462C154.628 29.4045 153.914 28.7679 152.562 27.5778C152.562 27.3563 152.562 27.2456 152.562 27.0242C153.914 28.2074 154.628 28.844 155.911 29.9857C155.911 29.6259 155.911 29.2661 155.911 28.8994C154.628 27.7577 153.914 27.1211 152.562 25.9448C152.562 25.7233 152.562 25.6126 152.562 25.3912C153.914 26.5744 154.628 27.2041 155.911 28.3458C155.911 27.986 155.911 27.6262 155.911 27.2595C154.628 26.1247 153.914 25.4881 152.562 24.3117C152.562 24.0903 152.562 23.9796 152.562 23.7513C153.914 24.9276 154.628 25.5573 155.911 26.699C155.911 26.3461 155.911 25.9932 155.911 25.6334C154.628 24.4986 153.914 23.8689 152.562 22.6995C152.562 22.4781 152.562 22.3674 152.562 22.139C153.914 23.3153 154.628 23.9381 155.911 25.0729C155.911 24.7131 155.911 24.3533 155.911 23.9865C154.628 22.8587 153.914 22.229 152.562 21.0596C152.562 20.8382 152.562 20.7274 152.562 20.4991C153.914 21.6685 154.628 22.2982 155.911 23.4261C155.911 23.0662 155.911 22.7064 155.911 22.3397C154.628 21.2118 153.914 20.5891 152.562 19.4197C152.562 19.1982 152.562 19.0875 152.562 18.8592C153.907 20.0217 154.628 20.6513 155.911 21.7723C155.911 21.4125 155.911 21.0527 155.911 20.6929C154.628 19.5719 153.914 18.9491 152.562 17.7867C152.562 17.5652 152.562 17.4545 152.562 17.2262C153.907 18.3887 154.628 19.0114 155.911 20.1324C155.911 19.7726 155.911 19.4127 155.911 19.046C154.628 17.932 153.914 17.3092 152.562 16.1467C152.562 15.9253 152.562 15.8077 152.562 15.5863C153.907 16.7418 154.628 17.3646 155.911 18.4786C155.911 18.1188 155.911 17.759 155.911 17.3922C154.628 16.2782 153.914 15.6624 152.569 14.5068C152.569 14.2854 152.569 14.1747 152.569 13.9463C153.914 15.1019 154.635 15.7177 155.918 16.8318C155.918 16.472 155.918 16.1121 155.918 15.7454C154.635 14.6383 153.921 14.0224 152.576 12.8669C152.576 12.6455 152.576 12.5348 152.576 12.3064C153.921 13.4551 154.642 14.0709 155.918 15.178C155.918 14.8182 155.918 14.4584 155.918 14.0916C154.635 12.9845 153.921 12.3687 152.569 11.227C152.569 11.0055 152.569 10.8948 152.569 10.6665C153.914 11.8151 154.635 12.424 155.911 13.5312C155.911 13.1714 155.911 12.8115 155.911 12.4448C154.628 11.3446 153.914 10.7288 152.569 9.58705C152.569 9.36563 152.569 9.25491 152.569 9.03349C153.914 10.1752 154.635 10.791 155.911 11.8843C155.911 11.5245 155.911 11.1647 155.911 10.798C154.628 9.69776 153.914 9.08884 152.569 7.94713C152.569 7.7257 152.569 7.61499 152.569 7.38665C153.914 8.52837 154.635 9.13728 155.911 10.2306C155.911 9.87075 155.911 9.51093 155.911 9.1442C154.628 8.05092 153.914 7.442 152.569 6.3072C152.569 6.08578 152.569 5.97507 152.569 5.74673C153.914 6.88152 154.635 7.49044 155.911 8.58372C155.911 8.22391 155.911 7.86409 155.911 7.49736C154.628 6.40408 153.914 5.80208 152.569 4.66728C152.569 4.44586 152.569 4.33515 152.569 4.1068C153.914 5.2416 154.635 5.8436 155.911 6.92996C155.911 6.52171 155.911 6.10654 155.911 5.69829C154.968 4.82643 154.275 4.19676 153.144 3.17267C153.144 2.95125 153.144 2.84053 153.144 2.61911C154.275 3.6432 154.961 4.26595 155.904 5.13781C155.904 4.97866 155.904 4.81951 155.904 4.66036C155.904 4.36282 155.904 4.2106 155.904 3.90614C154.483 2.69522 154.351 2.33541 152.929 1.14526C152.59 1.42204 152.264 1.65038 151.938 1.85105V43.2989H147.944C147.944 43.5964 147.944 43.887 147.944 44.1846C147.944 44.4821 149.393 43.1466 149.393 43.4442C149.747 43.4718 148.485 44.9665 148.839 44.9872C151.078 45.1464 152.333 45.2432 154.344 45.4024C153.865 44.9665 153.373 44.5167 152.735 43.9424C152.735 43.721 152.735 43.6102 152.735 43.3819C153.664 44.2261 154.295 44.7935 155.016 45.4577C155.079 45.4577 155.134 45.4647 155.197 45.4716C155.55 45.4993 155.731 45.5131 156.084 45.5477C156.084 45.4577 156.084 45.3816 156.084 45.3124C154.801 44.1292 154.087 43.4788 152.735 42.254" fill="#B4751D"/>
<path d="M125.328 33.9022C126.5 33.9299 127.228 33.9506 128.531 33.9921C129.259 34.0129 129.453 33.8814 129.495 33.8399C129.523 33.8122 129.55 33.7569 129.55 33.5493L129.495 8.74287C129.495 7.27594 128.926 7.16522 128.136 7.1583L125.279 7.14446L125.328 33.9091V33.9022ZM128.684 35.0093C128.628 35.0093 128.566 35.0093 128.503 35.0093C127.027 34.9678 126.285 34.947 124.808 34.9124L124.316 34.8986L124.267 6.12038L128.15 6.14114C129.169 6.14114 130.514 6.42484 130.521 8.73595L130.576 33.5424C130.576 33.8537 130.535 34.2482 130.216 34.5665C129.904 34.864 129.419 35.0093 128.691 35.0093M117.556 39.8599C122.624 39.9567 126.617 40.0605 129.744 40.1643C132.067 40.4273 134.445 39.7492 135.839 38.4414C136.886 37.4588 137.378 36.1925 137.302 34.6702L137.226 8.75671C137.26 6.53555 136.595 4.72264 135.243 3.38026C133.655 1.80261 131.207 0.965349 128.392 1.02762H117.549V1.24213L117.583 38.6213L117.563 39.8737L117.556 39.8599ZM130.784 41.2438C130.41 41.2438 130.036 41.223 129.661 41.1815C126.479 41.0708 122.333 40.967 117.022 40.8701H116.516L116.557 38.6005L116.529 0.00353802H128.386C131.478 -0.065657 134.189 0.882315 135.971 2.65371C137.503 4.18292 138.293 6.29337 138.252 8.75671L138.328 34.6356C138.418 36.4209 137.801 37.9985 136.546 39.1748C135.146 40.4826 133.017 41.2299 130.798 41.2299" fill="#B4751D"/>
<path d="M125.016 33.0788V32.539C125.965 33.3279 126.603 33.8607 127.345 34.4834C127.477 34.4834 127.609 34.4903 127.754 34.4973C127.754 34.262 127.754 34.0267 127.754 33.7915C126.818 33.0096 126.139 32.4352 125.016 31.5011C125.016 31.2866 125.016 31.1759 125.016 30.9614C126.139 31.8955 126.818 32.4629 127.754 33.2448C127.754 32.8989 127.754 32.546 127.754 32.2C126.818 31.4181 126.139 30.8507 125.016 29.9165C125.016 29.702 125.016 29.5913 125.016 29.3768C126.139 30.311 126.818 30.8784 127.754 31.6603C127.754 31.3143 127.754 30.9614 127.754 30.6154C126.818 29.8335 126.139 29.2661 125.016 28.332C125.016 28.1175 125.016 28.0068 125.016 27.7923C126.139 28.7195 126.818 29.2938 127.754 30.0688C127.754 29.7228 127.754 29.3699 127.754 29.0239C126.825 28.242 126.139 27.6746 125.016 26.7474C125.016 26.5329 125.016 26.4222 125.016 26.2077C126.139 27.1349 126.818 27.7023 127.754 28.4842C127.754 28.1382 127.754 27.7853 127.754 27.4394C126.818 26.6644 126.139 26.0901 125.016 25.1628V24.6231C126.132 25.5503 126.818 26.1177 127.747 26.8996C127.747 26.5537 127.747 26.2077 127.747 25.8548C126.811 25.0798 126.132 24.5124 125.009 23.5852V23.0455C126.125 23.9727 126.811 24.5401 127.74 25.3151C127.74 24.9691 127.74 24.6162 127.74 24.2702C126.811 23.4952 126.125 22.9278 125.002 22.0006C125.002 21.7861 125.002 21.6754 125.002 21.4609C126.125 22.3881 126.804 22.9486 127.733 23.7305C127.733 23.3845 127.733 23.0386 127.733 22.6857C126.804 21.9107 126.118 21.3433 125.002 20.423C125.002 20.2085 125.002 20.0978 125.002 19.8833C126.118 20.8036 126.804 21.371 127.733 22.1459C127.733 21.8 127.733 21.4471 127.733 21.1011C126.804 20.3261 126.118 19.7656 125.002 18.8384C125.002 18.6239 125.002 18.5132 125.002 18.2987C126.118 19.219 126.804 19.7864 127.733 20.5614C127.733 20.2154 127.733 19.8625 127.733 19.5165C126.804 18.7416 126.118 18.1811 125.002 17.2608V16.7211C126.118 17.6413 126.804 18.2087 127.733 18.9768C127.733 18.6308 127.733 18.2779 127.733 17.932C126.804 17.157 126.118 16.5965 125.002 15.6762V15.1365C126.118 16.0568 126.804 16.6173 127.733 17.3922C127.733 17.0463 127.733 16.6934 127.733 16.3474C126.804 15.5793 126.118 15.0119 125.002 14.0916V13.5519C126.118 14.4722 126.804 15.0327 127.733 15.8008C127.733 15.4548 127.733 15.1019 127.733 14.7559C126.804 13.9879 126.118 13.4274 125.002 12.5071V11.9674C126.118 12.8877 126.804 13.4481 127.733 14.2162C127.733 13.8702 127.733 13.5173 127.733 13.1714C126.804 12.4033 126.118 11.8428 125.002 10.9294C125.002 10.7149 125.002 10.6042 125.002 10.3897C126.118 11.31 126.804 11.8705 127.733 12.6316C127.733 12.2857 127.733 11.9328 127.733 11.5868C126.804 10.8187 126.118 10.2582 125.002 9.34487C125.002 9.13036 125.002 9.01965 125.002 8.80515C126.118 9.71852 126.804 10.279 127.733 11.0471C127.733 10.5419 127.733 10.0299 127.733 9.52477C128.517 9.52477 129.085 9.53169 129.682 9.53861C129.682 9.26875 129.682 8.99197 129.682 8.72211C129.682 6.89536 128.739 6.63934 127.72 6.63242C126.305 6.6255 125.598 6.6255 124.184 6.61858C124.197 15.8769 124.218 25.1283 124.232 34.3865C125.244 34.4073 125.931 34.4281 126.707 34.4488C126.208 34.0336 125.709 33.6116 125.043 33.0649" fill="#B4751D"/>
<path d="M141.191 39.071C141.26 38.7735 141.295 38.4552 141.316 38.1231C139.901 36.8845 139.187 36.2686 137.766 35.037C137.766 34.8709 137.766 34.7671 137.766 34.6287C137.766 35.1062 137.724 35.5629 137.627 35.9849C138.819 37.009 140.005 38.0331 141.191 39.071Z" fill="#B4751D"/>
<path d="M141.24 10.9779C141.24 11.0955 141.24 11.1924 141.24 11.3446C139.819 10.1475 139.105 9.55246 137.683 8.37614C137.683 8.15472 137.683 8.05092 137.683 7.8295C139.098 9.00582 139.812 9.60089 141.226 10.7841C141.185 10.3759 141.122 9.98838 141.039 9.61473C139.625 8.4315 138.21 7.2621 136.789 6.08578C137.274 7.20674 137.656 8.38306 137.697 9.40023C139.112 10.5765 139.826 11.1716 141.24 12.3687C141.24 12.5901 141.24 12.7008 141.24 12.9153C139.819 11.7183 139.105 11.1232 137.69 9.94687C137.69 10.2859 137.69 10.625 137.69 10.964C139.105 12.1473 139.819 12.7423 141.24 13.9394C141.24 14.1608 141.24 14.2716 141.24 14.4861C139.819 13.289 139.112 12.687 137.69 11.5107C137.69 11.8497 137.69 12.1888 137.69 12.5278C139.105 13.7111 139.819 14.3131 141.24 15.5101C141.24 15.7316 141.24 15.8423 141.24 16.0637C139.819 14.8597 139.112 14.2646 137.69 13.0745C137.69 13.4135 137.69 13.7526 137.69 14.0917C139.105 15.2818 139.819 15.8769 141.24 17.0809C141.24 17.3023 141.24 17.413 141.24 17.6275C139.819 16.4235 139.105 15.8215 137.69 14.6314C137.69 14.9704 137.69 15.3095 137.69 15.6485C139.105 16.8387 139.819 17.4407 141.24 18.6447C141.24 18.8661 141.24 18.9768 141.24 19.1913C139.819 17.9873 139.105 17.3853 137.69 16.1952C137.69 16.5342 137.69 16.8733 137.69 17.2123C139.105 18.4025 139.819 19.0045 141.24 20.2154C141.24 20.4368 141.24 20.5475 141.24 20.762C139.819 19.5511 139.105 18.9491 137.69 17.7521C137.69 18.0911 137.69 18.4302 137.69 18.7692C139.112 19.9663 139.819 20.5683 141.24 21.7792C141.24 22.0006 141.24 22.1114 141.24 22.3259C139.819 21.1149 139.105 20.506 137.69 19.309C137.69 19.648 137.69 19.9871 137.69 20.3261C139.112 21.5232 139.819 22.1321 141.24 23.343C141.24 23.5644 141.24 23.6752 141.24 23.8897C139.819 22.6718 139.105 22.0698 137.69 20.8658C137.69 21.2049 137.69 21.544 137.69 21.883C139.112 23.087 139.819 23.689 141.24 24.9068C141.24 25.1283 141.24 25.239 141.24 25.4535C139.819 24.2356 139.105 23.6267 137.69 22.4227C137.69 22.7618 137.69 23.1008 137.69 23.4399C139.112 24.6439 139.819 25.2528 141.24 26.4706C141.24 26.6921 141.24 26.8028 141.24 27.0173C139.819 25.7925 139.105 25.1836 137.69 23.9796C137.69 24.3187 137.69 24.6577 137.69 24.9968C139.112 26.2008 139.819 26.8097 141.24 28.0344C141.24 28.2559 141.24 28.3666 141.24 28.5811C139.819 27.3563 139.105 26.7474 137.69 25.5365C137.69 25.8756 137.69 26.2146 137.69 26.5537C139.112 27.7646 139.826 28.3735 141.24 29.5983C141.24 29.8197 141.24 29.9304 141.24 30.1449C139.819 28.9201 139.105 28.3043 137.69 27.0934C137.69 27.4325 137.69 27.7715 137.69 28.1106C139.112 29.3215 139.826 29.9373 141.247 31.169C141.247 31.3904 141.247 31.5011 141.247 31.7156C139.826 30.484 139.112 29.8681 137.697 28.6572C137.697 28.9963 137.697 29.3353 137.697 29.6744C139.119 30.8922 139.826 31.5011 141.254 32.7397C141.254 32.9611 141.254 33.0718 141.254 33.2863C139.833 32.0547 139.119 31.4388 137.697 30.221C137.697 30.5601 137.697 30.8991 137.697 31.2382C139.119 32.456 139.833 33.0718 141.254 34.3104C141.254 34.5319 141.254 34.6426 141.254 34.8571C139.833 33.6185 139.119 33.0026 137.697 31.7848C137.697 32.1377 137.697 32.4837 137.697 32.8366C139.119 34.0544 139.833 34.6702 141.254 35.9158C141.254 36.1372 141.254 36.2479 141.254 36.4624C139.833 35.2238 139.119 34.608 137.697 33.3832C137.697 33.6946 137.697 33.9991 137.697 34.3104C137.697 34.352 137.697 34.3935 137.697 34.435C139.119 35.6597 139.833 36.2756 141.254 37.5211V37.6456C141.254 37.5626 141.261 37.4865 141.254 37.4035C141.226 29.1969 141.199 20.9973 141.171 12.7908C141.219 12.1334 141.206 11.5107 141.157 10.9156" fill="#B4751D"/>
<path d="M204.41 47.5128C204.361 32.373 204.32 17.24 204.271 2.10015C206.809 2.10015 208.071 2.10015 210.608 2.10706C210.657 17.3992 210.712 32.6913 210.761 47.9764C208.223 47.7758 206.954 47.6789 204.41 47.5059M211.648 48.0526C211.593 32.7397 211.544 17.4268 211.489 2.10706C211.489 1.76109 211.489 1.5881 211.489 1.24905C211.135 1.24905 210.955 1.24905 210.601 1.24905C208.064 1.24905 206.802 1.24905 204.264 1.24905H203.377C203.377 1.5881 203.377 1.76109 203.377 2.10015C203.425 17.2193 203.467 32.3314 203.515 47.4506C203.515 47.7896 203.515 47.9626 203.515 48.3017C203.869 48.3293 204.049 48.3363 204.403 48.3639C206.947 48.5438 208.216 48.6338 210.754 48.8414C211.107 48.8691 211.288 48.8829 211.641 48.9175C211.641 48.5715 211.641 48.3985 211.641 48.0595" fill="#B4751D"/>
<path d="M211.288 48.6061C211.288 48.3501 211.288 48.2186 211.288 47.9626C212.64 49.3673 213.354 50.1215 214.636 51.4777C214.636 51.0625 214.636 50.6474 214.636 50.2322C213.354 48.876 212.64 48.1287 211.288 46.724C211.288 46.468 211.288 46.3365 211.288 46.0805C212.64 47.4782 213.354 48.2325 214.636 49.5887C214.636 49.1735 214.636 48.7584 214.636 48.3432C213.354 46.9939 212.64 46.2396 211.288 44.8488C211.288 44.5928 211.288 44.4613 211.288 44.2053C212.64 45.6031 213.354 46.3504 214.636 47.6997C214.636 47.2845 214.636 46.8693 214.636 46.4542C213.354 45.1049 212.64 44.3645 211.288 42.9667C211.288 42.7107 211.288 42.5792 211.288 42.3232C212.64 43.714 213.354 44.4613 214.636 45.8037C214.636 45.3886 214.636 44.9734 214.636 44.5582C213.354 43.2158 212.64 42.4754 211.288 41.0846C211.288 40.8286 211.288 40.6971 211.288 40.4411C212.64 41.8319 213.354 42.5723 214.636 43.9147C214.636 43.4995 214.636 43.0844 214.636 42.6692C213.354 41.3337 212.64 40.5864 211.288 39.2025C211.288 38.9465 211.288 38.815 211.288 38.559C212.64 39.9429 213.354 40.6833 214.636 42.0188C214.636 41.6036 214.636 41.1884 214.636 40.7732C213.354 39.4378 212.64 38.7043 211.288 37.3204C211.288 37.0644 211.288 36.9329 211.288 36.6769C212.64 38.0539 213.354 38.7943 214.636 40.1228C214.636 39.7076 214.636 39.2925 214.636 38.8773C213.354 37.5488 212.64 36.8084 211.288 35.4383C211.288 35.1823 211.288 35.0508 211.288 34.7948C212.64 36.1718 213.354 36.9052 214.636 38.2338C214.636 37.8186 214.636 37.4034 214.636 36.9883C213.354 35.6667 212.64 34.9263 211.288 33.5562C211.288 33.3002 211.288 33.1687 211.288 32.9127C212.64 34.2828 213.354 35.0162 214.636 36.3378C214.636 35.9227 214.636 35.5075 214.636 35.0923C213.354 33.7707 212.64 33.0442 211.288 31.6741C211.288 31.4181 211.288 31.2866 211.288 31.0306C212.64 32.3937 213.354 33.1272 214.636 34.4419C214.636 34.0267 214.636 33.6116 214.636 33.1964C213.354 31.8817 212.64 31.1551 211.288 29.792C211.288 29.536 211.288 29.4045 211.288 29.1485C212.64 30.5116 213.354 31.2382 214.636 32.5529C214.636 32.1377 214.636 31.7225 214.636 31.3074C213.354 29.9996 212.64 29.273 211.288 27.9099C211.288 27.6539 211.288 27.5224 211.288 27.2664C212.64 28.6226 213.354 29.3491 214.636 30.6569C214.636 30.2487 214.636 29.8404 214.636 29.4322C213.354 28.1244 212.64 27.4048 211.288 26.0485C211.288 25.7925 211.288 25.6611 211.288 25.405C212.633 26.7543 213.354 27.4809 214.636 28.7817C214.636 28.3666 214.636 27.9514 214.636 27.5362C213.354 26.2354 212.64 25.5157 211.288 24.1664C211.288 23.9104 211.288 23.7789 211.288 23.5229C212.64 24.8722 213.354 25.5919 214.636 26.8927C214.636 26.4776 214.636 26.0624 214.636 25.6472C213.354 24.3533 212.64 23.6336 211.288 22.2843C211.288 22.0283 211.288 21.8968 211.288 21.6408C212.633 22.9832 213.354 23.7028 214.636 24.9968C214.636 24.5816 214.636 24.1664 214.636 23.7513C213.354 22.4573 212.64 21.7446 211.288 20.4022C211.288 20.1462 211.288 20.0147 211.288 19.7587C212.633 21.0942 213.354 21.8138 214.636 23.1008C214.636 22.6857 214.636 22.2705 214.636 21.8553C213.354 20.5683 212.64 19.8556 211.288 18.5132C211.288 18.2572 211.288 18.1257 211.288 17.8697C212.633 19.2052 213.354 19.9179 214.636 21.2049C214.636 20.7897 214.636 20.3746 214.636 19.9594C213.354 18.6793 212.64 17.9666 211.294 16.6311C211.294 16.3751 211.294 16.2436 211.294 15.9876C212.64 17.3161 213.361 18.0288 214.643 19.3089C214.643 18.8938 214.643 18.4786 214.643 18.0634C213.361 16.7833 212.647 16.0775 211.301 14.749C211.301 14.493 211.301 14.3615 211.301 14.1055C212.647 15.434 213.368 16.1398 214.643 17.413C214.643 16.9978 214.643 16.5827 214.643 16.1675C213.361 14.8943 212.647 14.1885 211.294 12.86C211.294 12.604 211.294 12.4725 211.294 12.2165C212.64 13.5381 213.361 14.2439 214.636 15.5171C214.636 15.1019 214.636 14.6867 214.636 14.2716C213.354 12.9984 212.64 12.2995 211.294 10.9779C211.294 10.7218 211.294 10.5904 211.294 10.3344C212.64 11.6491 213.361 12.3548 214.636 13.6211C214.636 13.2059 214.636 12.7908 214.636 12.3756C213.354 11.1093 212.64 10.4105 211.294 9.09576C211.294 8.83974 211.294 8.70827 211.294 8.45225C212.64 9.76695 213.361 10.4658 214.636 11.7321C214.636 11.3169 214.636 10.9018 214.636 10.4866C213.354 9.22723 212.64 8.52836 211.294 7.21366C211.294 6.95764 211.294 6.82617 211.294 6.57014C212.64 7.87793 213.361 8.5768 214.636 9.83615C214.636 9.42098 214.636 9.00581 214.636 8.59064C213.354 7.33129 212.64 6.63934 211.294 5.33155C211.294 5.07553 211.294 4.94406 211.294 4.68804C212.64 5.98891 213.361 6.68778 214.636 7.94021C214.636 7.46276 214.636 6.99223 214.636 6.51479C213.693 5.51146 213 4.79183 211.87 3.6086C211.87 3.35258 211.87 3.22111 211.87 2.96508C213 4.14832 213.687 4.86795 214.629 5.87127C214.629 5.69137 214.629 5.50454 214.629 5.32463C214.629 4.97866 214.629 4.80567 214.629 4.4597C213.208 3.06888 213.076 2.65371 211.655 1.27673C211.315 1.59502 210.989 1.85796 210.664 2.09323V49.8378H206.67C206.67 50.1768 206.67 50.5159 206.67 50.8619C206.67 51.2009 208.119 49.6648 208.119 50.0039C208.473 50.0315 207.211 51.7545 207.564 51.7822C209.804 51.969 211.059 52.0728 213.069 52.2665C212.591 51.7614 212.099 51.2425 211.461 50.5782C211.461 50.3222 211.461 50.1907 211.461 49.9347C212.39 50.9034 213.021 51.5677 213.742 52.3288C213.804 52.3288 213.86 52.3427 213.922 52.3427C214.276 52.3773 214.456 52.3911 214.81 52.4257C214.81 52.3219 214.81 52.2319 214.81 52.1489C213.527 50.7858 212.813 50.0315 211.461 48.6269" fill="#B4751D"/>
<path d="M160.293 41.8388C160.238 28.3458 160.182 14.8597 160.12 1.36668C162.657 1.36668 163.919 1.3736 166.457 1.38052C166.505 13.3997 166.561 25.412 166.609 37.4311C169.515 37.6733 172.42 37.9293 175.318 38.2061C175.325 40.2335 175.332 41.2507 175.339 43.2781C170.326 42.7522 165.306 42.2679 160.286 41.8319M176.233 43.375C176.226 41.3406 176.219 40.3235 176.212 38.2891C176.212 37.9778 176.212 37.8186 176.212 37.5003C175.859 37.4657 175.678 37.4519 175.325 37.4173C172.718 37.1751 170.111 36.9468 167.504 36.7323C167.455 24.9483 167.4 13.1644 167.351 1.38052C167.351 1.06914 167.351 0.916915 167.351 0.612457C166.998 0.612457 166.817 0.612457 166.464 0.612457C163.933 0.612457 162.664 0.612457 160.127 0.612457H159.239C159.239 0.916915 159.239 1.06914 159.239 1.3736L159.406 41.7697C159.406 42.0741 159.406 42.2263 159.406 42.5239C159.759 42.5516 159.94 42.5723 160.293 42.6C165.313 43.0428 170.333 43.5341 175.345 44.0738C175.699 44.1154 175.879 44.1361 176.233 44.1707C176.233 43.8593 176.233 43.7002 176.233 43.3819" fill="#B4751D"/>
<path d="M182.119 45.0979C182.064 30.5393 182.008 15.9807 181.953 1.42204C184.491 1.42204 185.752 1.42896 188.29 1.43588C188.339 14.403 188.394 27.3702 188.443 40.3442C191.348 40.6003 194.253 40.884 197.151 41.1815C197.158 43.375 197.165 44.4683 197.172 46.6548C192.159 46.0805 187.139 45.5615 182.119 45.0979ZM198.059 46.7655C198.052 44.5721 198.045 43.4719 198.038 41.2784C198.038 40.9393 198.038 40.7663 198.038 40.4273C197.685 40.3927 197.504 40.3719 197.151 40.3373C194.544 40.0744 191.937 39.8253 189.33 39.5969C189.281 26.8789 189.226 14.1608 189.177 1.4428C189.177 1.11066 189.177 0.944593 189.177 0.612457C188.824 0.612457 188.644 0.612457 188.29 0.612457C185.759 0.612457 184.491 0.612457 181.953 0.612457H181.065C181.065 0.937674 181.065 1.10374 181.065 1.42896C181.121 15.9599 181.176 30.4909 181.232 45.0287C181.232 45.354 181.232 45.52 181.232 45.8452C181.585 45.8798 181.766 45.8937 182.119 45.9283C187.139 46.4057 192.159 46.9316 197.172 47.5128C197.525 47.5544 197.706 47.5751 198.059 47.6166C198.059 47.2776 198.059 47.1046 198.059 46.7655Z" fill="#B4751D"/>
<path d="M94.9871 40.6902C92.4218 40.9601 91.1391 41.0985 88.5807 41.3891C88.6361 28.2282 88.6847 15.0604 88.7402 1.89256C91.3124 1.89256 92.5951 1.88564 95.1605 1.87872C95.105 14.8182 95.0426 27.7507 94.9871 40.6902ZM95.1674 1.15218C92.5951 1.15218 91.3124 1.15218 88.7471 1.15218C88.3865 1.15218 88.2063 1.15218 87.8457 1.15218C87.8457 1.44971 87.8457 1.59502 87.8457 1.89256C87.7903 15.0881 87.7417 27.3563 87.6863 40.5518C87.6863 40.8494 87.6863 40.9947 87.6863 41.2922C88.0468 41.2507 88.2271 41.2299 88.5807 41.1884C91.1391 40.8909 92.4218 41.6797 94.9871 41.4098C95.3477 41.3752 95.5279 41.3545 95.8885 41.313C95.8885 41.0223 95.8885 40.877 95.8885 40.5864C95.9439 27.6815 96.0063 14.7767 96.0618 1.8718C96.0618 1.58118 96.0618 1.43588 96.0618 1.14526H95.1605" fill="#B4751D"/>
<path d="M99.5354 4.54966C99.5354 4.36975 99.5354 4.23136 99.5354 4.01685C98.121 2.88206 97.4207 2.30774 96.0063 1.15218C95.6596 1.42204 95.3615 1.6573 95.0772 1.87873H95.1119V44.0323C96.1241 43.9147 97.1295 43.9631 98.4815 43.887C98.8282 43.8663 98.9946 43.887 99.3482 43.8455C99.3482 43.5549 99.3482 43.3058 99.3482 43.0221C99.3482 42.946 99.3482 42.8699 99.3482 42.7937C97.9407 41.7973 97.2335 41.2991 95.826 40.2889C95.826 40.0744 95.826 39.9637 95.826 39.7492C97.2335 40.7594 97.9407 41.2576 99.3482 42.254C99.3482 41.8942 99.3482 41.5344 99.3482 41.1677C97.9407 40.1643 97.2335 39.6661 95.826 38.649C95.826 38.4345 95.826 38.3237 95.826 38.1092C97.2335 39.1264 97.9407 39.6315 99.3482 40.6349C99.3482 40.2889 99.3482 39.9429 99.3482 39.5969C97.9407 38.5936 97.2335 38.0885 95.8191 37.0644C95.8191 36.8499 95.8191 36.7392 95.8191 36.5247C97.2266 37.5488 97.9338 38.0539 99.3412 39.0641C99.3412 38.7182 99.3412 38.3791 99.3412 38.0331C97.9338 37.0229 97.2266 36.5108 95.8121 35.4868C95.8121 35.2722 95.8121 35.1615 95.8121 34.947C97.2196 35.978 97.9268 36.4832 99.3343 37.5003C99.3343 37.1544 99.3343 36.8084 99.3343 36.4693C97.9268 35.4522 97.2196 34.9401 95.8121 33.9091C95.8121 33.6946 95.8121 33.5839 95.8121 33.3694C97.2196 34.4073 97.9268 34.9194 99.3343 35.9365C99.3343 35.5905 99.3343 35.2446 99.3343 34.9055C97.9199 33.8814 97.2196 33.3694 95.8052 32.3315C95.8052 32.117 95.8052 32.0062 95.8052 31.7917C97.2127 32.8297 97.9199 33.3486 99.3274 34.3727C99.3274 34.0267 99.3274 33.6877 99.3274 33.3417C97.9199 32.3107 97.2127 31.7917 95.7983 30.7538C95.7983 30.5393 95.7983 30.4286 95.7983 30.2141C97.2058 31.2589 97.913 31.7779 99.3274 32.8089C99.3274 32.4629 99.3274 32.117 99.3274 31.7779C97.913 30.7469 97.2127 30.221 95.7983 29.1692C95.7983 28.9547 95.7983 28.844 95.7983 28.6295C97.2058 29.6813 97.913 30.2003 99.3204 31.2382C99.3204 30.8922 99.3204 30.5462 99.3204 30.2072C97.906 29.1692 97.2058 28.6434 95.7913 27.5847C95.7913 27.3702 95.7913 27.2595 95.7913 27.045C97.1988 28.1036 97.906 28.6295 99.3204 29.6674C99.3204 29.3215 99.3204 28.9755 99.3204 28.6364C97.913 27.5916 97.2058 27.0657 95.7913 26.0001C95.7913 25.7856 95.7913 25.6749 95.7913 25.4604C97.1988 26.526 97.906 27.0519 99.3204 28.0967C99.3204 27.7507 99.3204 27.4048 99.3204 27.0657C97.906 26.014 97.2058 25.4811 95.7913 24.4155C95.7913 24.201 95.7913 24.0903 95.7913 23.8758C97.1988 24.9483 97.906 25.4742 99.3204 26.5329C99.3204 26.1869 99.3204 25.8479 99.3204 25.5019C97.913 24.4432 97.2058 23.9104 95.7913 22.8379C95.7913 22.6234 95.7913 22.5127 95.7913 22.2982C97.2058 23.3776 97.906 23.9104 99.3204 24.9691C99.3204 24.6231 99.3204 24.2772 99.3204 23.9312C97.906 22.8656 97.2058 22.3328 95.7913 21.2533C95.7913 21.0388 95.7913 20.9281 95.7913 20.7136C97.2058 21.7931 97.906 22.3328 99.3204 23.3984C99.3204 23.0593 99.3204 22.7203 99.3204 22.3812C97.906 21.3156 97.2058 20.7759 95.7913 19.6895C95.7913 19.475 95.7913 19.3643 95.7913 19.1498C97.1988 20.2362 97.906 20.7759 99.3204 21.8484C99.3204 21.5024 99.3204 21.1634 99.3204 20.8174C97.913 19.7449 97.2058 19.2052 95.7913 18.1119C95.7913 17.8974 95.7913 17.7867 95.7913 17.5722C97.2058 18.6654 97.906 19.2052 99.3204 20.2846C99.3204 19.9386 99.3204 19.5996 99.3204 19.2536C97.906 18.1742 97.2058 17.6275 95.7913 16.5342C95.7913 16.3197 95.7913 16.209 95.7913 15.9945C97.2058 17.0947 97.906 17.6414 99.3204 18.7208C99.3204 18.3748 99.3204 18.0288 99.3204 17.6898C97.913 16.6034 97.2058 16.0568 95.7913 14.9566C95.7913 14.7421 95.7913 14.6314 95.7913 14.4169C97.2058 15.524 97.906 16.0706 99.3204 17.157C99.3204 16.811 99.3204 16.465 99.3204 16.126C97.906 15.0327 97.2058 14.4861 95.7913 13.372C95.7913 13.1575 95.7913 13.0468 95.7913 12.8323C97.1988 13.9463 97.906 14.493 99.3204 15.5863C99.3204 15.2403 99.3204 14.9012 99.3204 14.5553C97.906 13.462 97.2058 12.9084 95.7913 11.7875C95.7913 11.573 95.7913 11.4622 95.7913 11.2477C97.2058 12.3618 97.906 12.9223 99.3204 14.0155C99.3204 13.6696 99.3204 13.3236 99.3204 12.9845C97.906 11.8843 97.2058 11.3238 95.7913 10.2029C95.7913 9.98838 95.7913 9.87767 95.7913 9.66317C97.2058 10.7841 97.906 11.3446 99.3204 12.4448C99.3204 12.0988 99.3204 11.7529 99.3204 11.4138C97.906 10.3067 97.2058 9.7462 95.7913 8.61832C95.7913 8.40382 95.7913 8.29311 95.7913 8.0786C97.2058 9.20648 97.906 9.76696 99.3204 10.8741C99.3204 10.5281 99.3204 10.1821 99.3204 9.84308C97.906 8.72904 97.2058 8.16856 95.7913 7.03376C95.7913 6.81925 95.7913 6.70854 95.7913 6.49404C97.2058 7.62883 97.906 8.18931 99.3204 9.31027C99.3204 8.9643 99.3204 8.61832 99.3204 8.27927C97.906 7.15831 97.2058 6.59783 95.7913 5.45611C95.7913 5.24161 95.7913 5.13089 95.7913 4.91639C97.2058 6.05811 97.906 6.62551 99.3204 7.74647C99.3204 7.40049 99.3204 7.05452 99.3204 6.71546C97.906 5.5945 97.2058 5.02018 95.7913 3.87846C95.7913 3.66396 95.7913 3.55325 95.7913 3.33874C97.2058 4.48738 97.906 5.05478 99.3204 6.18266C99.3204 5.83668 99.3204 5.49071 99.3204 5.15165C97.906 4.02377 97.2058 3.44945 95.7913 2.30082C95.7913 2.08631 95.7913 1.9756 95.7913 1.7611C97.2058 2.91665 97.913 3.48405 99.3204 4.61885" fill="#B4751D"/>
<path d="M9.54052 41.8596H8.77091C8.54904 41.6728 8.32024 41.479 8.05677 41.2576C8.05677 41.0016 8.05677 40.8701 8.05677 40.6141C8.63224 41.1054 9.09678 41.486 9.53358 41.8596M7.72397 8.30002L7.21783 42.4685L11.5235 41.8596H11.0243C9.96345 40.9808 9.27705 40.3996 8.07064 39.3755C8.07064 39.1195 8.07064 38.988 8.07064 38.732C9.47118 39.9221 10.1784 40.5172 11.5789 41.6797C11.5789 41.2714 11.5789 40.8632 11.5789 40.4549C10.1784 39.2856 9.47812 38.6905 8.07064 37.4865C8.07064 37.2305 8.07064 37.099 8.07064 36.843C9.47118 38.047 10.1784 38.642 11.5789 39.8184C11.5789 39.4101 11.5789 39.0019 11.5789 38.5936C10.1784 37.4173 9.47812 36.8153 8.07064 35.6044C8.07064 35.3484 8.07064 35.2169 8.07064 34.9609C9.47812 36.1718 10.1784 36.7738 11.5789 37.957C11.5789 37.5488 11.5789 37.1405 11.5789 36.7323C10.1784 35.5421 9.47812 34.9401 8.07064 33.7223C8.07064 33.4662 8.07064 33.3348 8.07064 33.0788C9.47812 34.2966 10.1784 34.9055 11.5789 36.0957C11.5789 35.6874 11.5789 35.2792 11.5789 34.8709C10.1784 33.6738 9.47118 33.0649 8.07064 31.8402C8.07064 31.5841 8.07064 31.4527 8.07064 31.1967C9.47812 32.4283 10.1784 33.0372 11.5789 34.2343C11.5789 33.8261 11.5789 33.4178 11.5789 33.0096C10.1784 31.8056 9.47118 31.1897 8.07064 29.9581C8.07064 29.702 8.07064 29.5706 8.07064 29.3145C9.47812 30.5531 10.1784 31.169 11.5789 32.373C11.5789 31.9647 11.5789 31.5565 11.5789 31.1482C10.1784 29.9373 9.47118 29.3145 8.06371 28.069C8.06371 27.813 8.06371 27.6815 8.06371 27.4255C9.47118 28.671 10.1784 29.2938 11.5789 30.5116C11.5789 30.1034 11.5789 29.6951 11.5789 29.2869C10.1784 28.0621 9.47118 27.4394 8.06371 26.1869C8.06371 25.9309 8.06371 25.7994 8.06371 25.5434C9.47118 26.8028 10.1784 27.4255 11.5789 28.6503C11.5789 28.242 11.5789 27.8338 11.5789 27.4255C10.1784 26.1939 9.47118 25.5711 8.06371 24.3048C8.06371 24.0488 8.06371 23.9173 8.06371 23.6613C9.47118 24.9276 10.1784 25.5573 11.5789 26.7889C11.5789 26.3807 11.5789 25.9724 11.5789 25.5642C10.1784 24.3256 9.47118 23.6959 8.06371 22.4227C8.06371 22.1667 8.06371 22.0352 8.06371 21.7792C9.47118 23.0524 10.1784 23.689 11.5789 24.9276C11.5789 24.5193 11.5789 24.1111 11.5789 23.7028C10.1784 22.4504 9.47118 21.8207 8.06371 20.5406C8.06371 20.2846 8.06371 20.1531 8.06371 19.8971C9.47118 21.1841 10.1784 21.8138 11.5789 23.0662C11.5789 22.658 11.5789 22.2497 11.5789 21.8415C10.1784 20.5821 9.47118 19.9455 8.06371 18.6585C8.06371 18.4025 8.06371 18.271 8.06371 18.015C9.47118 19.3089 10.1784 19.9455 11.5789 21.2118C11.5789 20.8036 11.5789 20.3953 11.5789 19.9871C10.1784 18.7208 9.47118 18.0773 8.05677 16.7764C8.05677 16.5204 8.05677 16.3889 8.05677 16.1329C9.46425 17.4338 10.1715 18.0773 11.572 19.3505C11.572 18.9422 11.572 18.534 11.572 18.1257C10.1645 16.8525 9.46425 16.2021 8.04984 14.8943C8.04984 14.6383 8.04984 14.5068 8.04984 14.2508C9.45732 15.5586 10.1645 16.209 11.572 17.4891C11.572 17.0809 11.572 16.6726 11.572 16.2644C10.1715 14.9843 9.46425 14.3269 8.04984 13.0122C8.04984 12.7562 8.04984 12.6247 8.04984 12.3687C9.45732 13.6903 10.1645 14.3407 11.572 15.6278V14.403C10.1715 13.1091 9.46425 12.4517 8.04984 11.1301C8.04984 10.8741 8.04984 10.7426 8.04984 10.4866C9.45732 11.8151 10.1645 12.4725 11.572 13.7664C11.572 13.1022 11.572 12.4448 11.572 11.7805C13.7629 11.6975 12.4317 11.8082 14.0472 11.6906L13.3539 7.91253L7.6685 8.33462L7.72397 8.30002Z" fill="#B4751D"/>
<path d="M21.5767 28.332C21.5767 28.0829 21.5767 27.9583 21.5767 27.7161C22.9842 28.8648 23.6914 29.4391 25.0988 30.567C25.0988 30.8092 25.0988 30.9337 25.0988 31.1759C23.6914 30.048 22.9842 29.4806 21.5767 28.332ZM21.5836 25.9102C22.9911 27.0657 23.6983 27.64 25.1058 28.7817C25.1058 29.0239 25.1058 29.1485 25.1058 29.3907C23.6983 28.2559 22.9911 27.6816 21.5836 26.526C21.5836 26.2769 21.5836 26.1523 21.5836 25.9102ZM21.5905 24.1042C22.998 25.2736 23.7052 25.8479 25.1127 26.9965C25.1127 27.2387 25.1127 27.3633 25.1127 27.6054C23.7052 26.4637 22.998 25.8894 21.5905 24.72C21.5905 24.4709 21.5905 24.3463 21.5905 24.1042ZM21.5905 22.3466C22.998 23.5229 23.7052 24.1042 25.1127 25.2528C25.1127 25.495 25.1127 25.6195 25.1127 25.8617C23.7052 24.7131 22.998 24.1318 21.5905 22.9625C21.5905 22.7133 21.5905 22.5957 21.5905 22.3466ZM21.5975 20.5821C23.005 21.7654 23.7122 22.3466 25.1196 23.5091C25.1196 23.7513 25.1196 23.8758 25.1196 24.118C23.7122 22.9624 23.005 22.3743 21.5975 21.198C21.5975 20.9489 21.5975 20.8243 21.5975 20.5821ZM21.6044 18.8177C23.0119 20.0078 23.7191 20.596 25.1266 21.7585C25.1266 22.0006 25.1266 22.1252 25.1266 22.3674C23.7191 21.2049 23.0119 20.6167 21.6044 19.4266C21.6044 19.1775 21.6044 19.0598 21.6044 18.8107M21.6113 17.0532C23.0188 18.2503 23.726 18.8453 25.1335 20.0147C25.1335 20.2569 25.1335 20.3815 25.1335 20.6237C23.726 19.4543 23.0188 18.8592 21.6113 17.669C21.6113 17.4199 21.6113 17.3023 21.6113 17.0532ZM21.6183 15.2887C23.0258 16.4927 23.733 17.0878 25.1404 18.271C25.1404 18.5132 25.1404 18.6378 25.1404 18.8799C23.733 17.7036 23.0258 17.1086 21.6183 15.9046C21.6183 15.6555 21.6183 15.5378 21.6183 15.2887ZM21.6183 13.5312C23.0327 14.7421 23.733 15.3441 25.1474 16.5342C25.1474 16.7764 25.1474 16.901 25.1474 17.1431C23.7399 15.9599 23.0327 15.3579 21.6252 14.147C21.6252 13.8979 21.6252 13.7803 21.6252 13.5312M21.6252 11.7667C23.0327 12.9845 23.7399 13.5934 25.1543 14.7836C25.1543 15.0258 25.1543 15.1503 25.1543 15.3925C23.7468 14.1954 23.0396 13.5934 21.6252 12.3825C21.6252 12.1334 21.6252 12.0089 21.6252 11.7667ZM21.6321 10.0022C23.0396 11.227 23.7468 11.8359 25.1612 13.0399C25.1612 13.2821 25.1612 13.4066 25.1612 13.6488C23.7538 12.4448 23.0466 11.8428 21.6321 10.6181C21.6321 10.369 21.6321 10.2513 21.6321 10.0022ZM18.1308 50.4744C19.3927 50.1492 20.5783 49.6371 21.6044 48.9521C21.5073 48.8414 18.2209 45.5615 18.1308 45.4508C18.0961 45.4093 18.8241 45.3747 18.8241 45.3124C18.4567 45.3124 21.9372 48.53 22.0135 48.5992C22.2561 48.4262 22.3185 48.4331 22.5404 48.2325C22.2561 47.9972 19.4481 45.2363 19.1015 44.9388C19.1015 44.6897 19.1015 44.5721 19.1015 44.323C19.5868 44.7381 22.5057 47.582 22.8802 47.9003C23.0882 47.6927 23.2823 47.4782 23.4695 47.2499C22.9079 46.7794 20.71 44.662 19.9681 44.0323C19.9681 43.7832 19.9681 43.6656 19.9681 43.4165C20.8348 44.1569 23.0882 46.3158 23.7538 46.8762C23.9271 46.6341 24.0796 46.385 24.2183 46.1289C23.3516 45.3955 21.8817 44.0254 20.814 43.112C20.814 42.8629 20.814 42.7453 20.814 42.4962C21.9649 43.4857 23.4556 44.8765 24.4332 45.6999C24.558 45.4232 24.669 45.1325 24.7591 44.835C23.6012 43.8524 22.5404 42.8906 21.2647 41.7973C21.2647 41.5482 21.2647 41.4237 21.2647 41.1815C22.582 42.3232 23.6498 43.285 24.8839 44.3368C24.9602 44.0185 25.0226 43.6864 25.0572 43.3473C23.7122 42.1987 23.005 41.5897 21.6252 40.3927C21.6252 40.1436 21.6252 40.0259 21.6252 39.7768C23.0119 40.9808 23.7191 41.5897 25.085 42.7591C25.085 42.6277 25.0988 42.5031 25.0988 42.3717C25.0988 42.1295 25.0988 41.8804 25.0988 41.6382C23.726 40.4619 23.0188 39.846 21.6252 38.6351C21.6252 38.386 21.6252 38.2615 21.6252 38.0193C23.0188 39.2371 23.726 39.853 25.0988 41.0293C25.0988 40.6487 25.0988 40.275 25.0988 39.8945C23.726 38.7112 23.0188 38.0954 21.6252 36.8706C21.6252 36.6215 21.6252 36.497 21.6252 36.2548C23.0188 37.4796 23.726 38.0954 25.0988 39.2856C25.0988 38.905 25.0988 38.5313 25.0988 38.1508C23.726 36.9606 23.0188 36.3378 21.6252 35.1062C21.6252 34.8571 21.6252 34.7394 21.6252 34.4903C23.0188 35.722 23.726 36.3448 25.0988 37.5418C25.0988 37.1613 25.0988 36.7876 25.0988 36.407C23.726 35.21 23.0188 34.5872 21.6252 33.3486C21.6252 33.0995 21.6252 32.975 21.6252 32.7328C23.0188 33.9714 23.726 34.6011 25.0988 35.7981C25.0988 35.4176 25.0988 35.0439 25.0988 34.6633C23.726 33.4593 23.0188 32.8297 21.6252 31.5841C21.6252 31.335 21.6252 31.2174 21.6252 30.9683C23.0188 32.2138 23.726 32.8435 25.1058 34.0544C25.1058 33.6738 25.1058 33.3002 25.1058 32.9196C23.733 31.7087 23.0188 31.0721 21.6252 29.8197C21.6252 29.5706 21.6252 29.446 21.6252 29.2038C23.0188 30.4632 23.726 31.0929 25.1058 32.3107C25.1266 26.0416 25.1474 19.7726 25.1682 13.5035C25.1682 12.9499 25.1335 12.3964 25.0642 11.8566C23.6983 10.6873 22.9911 10.0714 21.6044 8.8605C21.6044 8.6114 21.6044 8.48685 21.6044 8.24467C22.9495 9.42098 23.6567 10.0368 24.9463 11.137C24.8492 10.6388 24.7175 10.1475 24.558 9.67009C23.518 8.77055 21.4865 6.82617 20.2732 5.76057C20.6892 6.68086 21.3964 7.7603 21.2023 9.04041C21.1745 17.8489 21.1329 30.6985 21.1052 39.507C21.1745 44.0393 17.486 47.2776 13.4993 47.7412C11.3915 48.1148 9.29073 48.5023 7.18298 48.8898V48.9521H6.84325C5.35257 49.2289 3.85496 49.5126 2.36428 49.8032C2.05228 49.8655 1.89975 49.8932 1.58774 49.9554V49.8447C1.06081 49.9347 0.53387 50.0177 0 50.1146C1.38668 51.2701 2.09388 51.8444 3.45976 52.9585V53C3.45976 53 3.48749 53 3.50136 52.9931C3.50136 52.9931 3.50136 52.9931 3.50829 53" fill="#B4751D"/>
<path d="M13.5619 39.6177C13.5619 40.2128 13.4371 40.8009 11.9464 40.9947C10.4072 41.1953 9.63758 41.2991 8.09837 41.5136C8.11224 30.4701 8.12611 19.4335 8.14691 8.38998C9.56132 8.35538 10.2685 8.33462 11.676 8.30694C12.6883 8.27927 13.6243 8.55605 13.6243 10.6873C13.6035 20.333 13.5827 29.9719 13.5619 39.6177ZM11.676 7.45584C9.90799 7.49044 9.02745 7.5112 7.25943 7.55272C7.24557 19.2052 7.2317 30.8507 7.21783 42.5031C9.10371 42.2333 10.0536 42.1087 11.9464 41.8527C13.6104 41.6313 14.4424 40.8563 14.4493 39.5139C14.4701 29.8958 14.4909 20.2777 14.5187 10.6665C14.5187 8.49377 13.5757 7.42125 11.6899 7.46276" fill="#B4751D"/>
<path d="M20.752 39.673C20.8352 44.0323 17.2576 46.7517 13.1807 47.1599C9.09005 47.7896 5.00629 48.447 0.922531 49.132C0.922531 33.4178 0.922531 17.6967 0.929465 1.98251C4.60416 1.96867 8.27885 1.96175 11.9535 1.94792C17.2714 1.82336 20.9808 4.96482 20.8352 10.4105C20.8075 20.167 20.7728 29.9165 20.7451 39.673M11.9535 1.09682H0.0419922V1.98251C0.0419922 17.7451 0.0419922 33.5147 0.0419922 49.2773V50.163C0.395595 50.1007 0.568929 50.073 0.922531 50.0108C5.00629 49.3119 9.08312 48.6407 13.1738 48.0041C17.7706 47.4021 21.7019 44.4752 21.6325 39.5692C21.6603 29.8404 21.6949 20.1116 21.7227 10.3897C21.8683 4.48737 17.6944 0.993024 11.9535 1.10374" fill="#B4751D"/>
<path d="M81.6338 40.4965C76.6002 40.7248 71.5665 40.9947 66.5398 41.3199C66.5884 28.0898 66.6438 14.8597 66.6924 1.62962C69.23 1.62962 70.4918 1.62962 73.0295 1.6227C72.9879 13.1368 72.9463 24.6508 72.9116 36.1649C75.8236 36.0195 78.7356 35.8881 81.6476 35.7843C81.6476 37.6664 81.6407 38.6144 81.6338 40.4965ZM81.6476 35.0577C79.0338 35.1546 76.4129 35.2653 73.7991 35.3899C73.8407 24.1318 73.8753 12.8807 73.9169 1.6227C73.9169 1.32517 73.9169 1.17986 73.9169 0.889236H73.0295C70.4918 0.889236 69.23 0.889236 66.6924 0.889236C66.3387 0.889236 66.1585 0.889236 65.8049 0.889236C65.8049 1.18678 65.8049 1.339 65.8049 1.63654C65.7563 14.8874 65.7009 28.1382 65.6523 41.3822C65.6523 41.6797 65.6523 41.8319 65.6523 42.1295C66.0059 42.1018 66.1862 42.0949 66.5398 42.0672C71.5735 41.742 76.6002 41.4583 81.6338 41.2299C81.9874 41.2161 82.1677 41.2092 82.5282 41.1953C82.5282 40.9047 82.5282 40.7594 82.5282 40.4688C82.5282 38.5867 82.5351 37.6456 82.5421 35.7635C82.5421 35.4729 82.5421 35.3276 82.5421 35.037C82.1885 35.0508 82.0082 35.0577 81.6476 35.0716" fill="#B4751D"/>
<path d="M82.5353 35.0231C82.05 35.3138 81.6201 35.5698 81.218 35.805L81.6409 35.7843L81.6271 40.4965L72.6622 40.9601V41.0846H69.1955C69.1955 42.0949 69.1955 43.0982 69.1816 44.1084C69.1816 44.406 69.1816 44.5513 69.1816 44.8488C69.5352 44.8211 69.7155 44.8142 70.0691 44.7866C75.1027 44.4683 80.1364 44.1984 85.17 43.9839C85.5305 43.97 85.7039 43.9631 86.0644 43.9493C86.0644 43.6587 86.0644 43.5134 86.0644 43.2227C86.0644 42.8629 86.0644 42.5516 86.0644 42.2471C84.6431 41.14 83.9359 40.5864 82.5145 39.4862C82.5145 39.2717 82.5145 39.161 82.5145 38.9396C83.9359 40.0467 84.6431 40.6002 86.0644 41.7005C86.0644 41.3406 86.0644 40.9947 86.0644 40.6556C84.6431 39.5485 83.9359 39.0018 82.5145 37.8947C82.5145 37.6802 82.5145 37.5695 82.5145 37.355C83.9359 38.4621 84.6431 39.0157 86.0644 40.1228C86.0644 39.7976 86.0644 39.4585 86.0644 39.078C84.6431 37.9708 83.9359 37.4173 82.5145 36.3032C82.5145 36.0887 82.5145 35.978 82.5145 35.7566C83.9359 36.8706 84.6431 37.4242 86.0644 38.5313C86.0644 38.2407 86.0644 38.0954 86.0644 37.8048C84.6431 36.6907 83.9359 36.1372 82.5145 35.0301" fill="#B4751D"/>
</svg>