<svg width="503" height="335" viewBox="0 0 503 335" fill="none" xmlns="http://www.w3.org/2000/svg">
<mask id="path-1-inside-1_67_1037" fill="white">
<path fill-rule="evenodd" clip-rule="evenodd" d="M488.328 0L483.174 0C483.174 7.82737 476.829 14.1726 469.001 14.1726C461.174 14.1726 454.829 7.82737 454.828 0L449.674 0C449.674 7.82738 443.329 14.1726 435.501 14.1726C427.674 14.1726 421.329 7.82738 421.328 0L416.174 0C416.174 7.82738 409.829 14.1726 402.001 14.1726C394.174 14.1726 387.829 7.82738 387.828 0L382.675 0C382.674 7.82737 376.329 14.1726 368.502 14.1726C360.674 14.1726 354.329 7.82737 354.329 0L349.174 0C349.174 7.82738 342.829 14.1726 335.001 14.1726C327.174 14.1726 320.829 7.82738 320.828 0L315.675 0C315.674 7.82737 309.329 14.1726 301.501 14.1726C293.674 14.1726 287.329 7.82737 287.328 0L282.174 0C282.174 7.82738 275.829 14.1726 268.001 14.1726C260.174 14.1726 253.829 7.82738 253.828 0L248.674 0C248.674 7.82731 242.329 14.1725 234.501 14.1725C226.674 14.1725 220.329 7.82731 220.328 0L215.174 0C215.174 7.82738 208.829 14.1726 201.001 14.1726C193.174 14.1726 186.829 7.82738 186.828 0L181.674 0C181.674 7.82738 175.329 14.1726 167.501 14.1726C159.674 14.1726 153.329 7.82738 153.328 0L148.175 0C148.174 7.82737 141.829 14.1726 134.002 14.1726C126.174 14.1726 119.829 7.82737 119.828 0L114.674 0C114.674 7.82738 108.329 14.1726 100.501 14.1726C92.674 14.1726 86.3286 7.82738 86.3283 0L81.1744 0C81.1742 7.82737 74.8287 14.1726 67.0013 14.1726C59.1739 14.1726 52.8285 7.82737 52.8282 0L47.6745 0C47.6742 7.82738 41.3288 14.1726 33.5014 14.1726C25.674 14.1726 19.3286 7.82738 19.3283 0L14.1745 0C14.1742 7.82738 7.82883 14.1726 0.00139523 14.1726H0L0 19.3267H0.0028944C7.83047 19.3267 14.176 25.6722 14.176 33.4997C14.176 41.3273 7.83047 47.6728 0.00289315 47.6728H0L0 52.8267H0.0027406C7.83032 52.8267 14.1758 59.1722 14.1758 66.9998C14.1758 74.8274 7.83031 81.1729 0.00273935 81.1729H0L0 86.3268H0.0027406C7.83032 86.3268 14.1758 92.6723 14.1758 100.5C14.1758 108.327 7.83031 114.673 0.00273935 114.673H0L0 119.827H0.0027406C7.83032 119.827 14.1758 126.172 14.1758 134C14.1758 141.827 7.83031 148.173 0.00273935 148.173H0L0 153.327H0.0027406C7.83032 153.327 14.1758 159.672 14.1758 167.5C14.1758 175.327 7.83031 181.673 0.00273935 181.673H0L0 186.827H0.0027406C7.83032 186.827 14.1758 193.172 14.1758 201C14.1758 208.827 7.83031 215.173 0.00273935 215.173H0L0 220.327H0.0027406C7.83032 220.327 14.1758 226.672 14.1758 234.5C14.1758 242.327 7.83031 248.673 0.00273935 248.673H0L0 253.827H0.0027406C7.83032 253.827 14.1758 260.172 14.1758 268C14.1758 275.827 7.83031 282.173 0.00273935 282.173H0L0 287.327H0.0027406C7.83032 287.327 14.1758 293.672 14.1758 301.5C14.1758 309.327 7.83031 315.673 0.00273935 315.673H0L0 320.827H0.00139523C7.82897 320.827 14.1745 327.172 14.1745 335H19.3283C19.3283 327.172 25.6738 320.827 33.5014 320.827C41.329 320.827 47.6745 327.172 47.6745 335H52.8282C52.8282 327.172 59.1737 320.827 67.0013 320.827C74.8289 320.827 81.1744 327.172 81.1744 335H86.3283C86.3283 327.172 92.6738 320.827 100.501 320.827C108.329 320.827 114.674 327.172 114.674 335L119.828 335C119.828 327.172 126.174 320.827 134.002 320.827C141.829 320.827 148.175 327.172 148.175 335L153.328 335C153.328 327.172 159.674 320.827 167.501 320.827C175.329 320.827 181.674 327.172 181.674 335H186.828C186.828 327.172 193.174 320.827 201.001 320.827C208.829 320.827 215.174 327.172 215.174 335H220.328C220.328 327.172 226.674 320.827 234.501 320.827C242.329 320.827 248.674 327.172 248.674 335H253.828C253.828 327.172 260.174 320.827 268.001 320.827C275.829 320.827 282.174 327.172 282.174 335L287.328 335C287.328 327.172 293.674 320.827 301.501 320.827C309.329 320.827 315.675 327.172 315.675 335L320.828 335C320.828 327.172 327.174 320.827 335.001 320.827C342.829 320.827 349.174 327.172 349.174 335H354.329C354.329 327.172 360.674 320.827 368.502 320.827C376.329 320.827 382.675 327.172 382.675 335H387.828C387.828 327.172 394.174 320.827 402.001 320.827C409.829 320.827 416.174 327.172 416.174 335H421.328C421.328 327.172 427.674 320.827 435.501 320.827C443.329 320.827 449.674 327.172 449.674 335H454.828C454.828 327.172 461.174 320.827 469.001 320.827C476.829 320.827 483.174 327.172 483.174 335H488.328C488.328 327.173 494.673 320.827 502.5 320.827V315.673C494.674 315.671 488.33 309.326 488.33 301.5C488.33 293.673 494.674 287.328 502.5 287.327V282.173C494.674 282.171 488.33 275.826 488.33 268C488.33 260.173 494.674 253.828 502.5 253.827V248.673C494.674 248.671 488.33 242.326 488.33 234.5C488.33 226.673 494.674 220.328 502.5 220.327V215.173C494.674 215.171 488.33 208.826 488.33 201C488.33 193.173 494.674 186.828 502.5 186.827V181.673C494.674 181.671 488.33 175.326 488.33 167.5C488.33 159.673 494.674 153.328 502.5 153.327V148.173C494.674 148.171 488.33 141.826 488.33 134C488.33 126.173 494.674 119.828 502.5 119.827V114.673C494.674 114.671 488.33 108.326 488.33 100.5C488.33 92.6731 494.674 86.3282 502.5 86.3267V81.1728C494.674 81.1713 488.33 74.8264 488.33 66.9998C488.33 59.1731 494.674 52.8282 502.5 52.8267V47.6728C494.674 47.6713 488.33 41.3264 488.33 33.4998C488.33 25.6731 494.674 19.3282 502.5 19.3267V14.1726C494.673 14.1719 488.329 7.82692 488.328 0Z"/>
</mask>
<path fill-rule="evenodd" clip-rule="evenodd" d="M488.328 0L483.174 0C483.174 7.82737 476.829 14.1726 469.001 14.1726C461.174 14.1726 454.829 7.82737 454.828 0L449.674 0C449.674 7.82738 443.329 14.1726 435.501 14.1726C427.674 14.1726 421.329 7.82738 421.328 0L416.174 0C416.174 7.82738 409.829 14.1726 402.001 14.1726C394.174 14.1726 387.829 7.82738 387.828 0L382.675 0C382.674 7.82737 376.329 14.1726 368.502 14.1726C360.674 14.1726 354.329 7.82737 354.329 0L349.174 0C349.174 7.82738 342.829 14.1726 335.001 14.1726C327.174 14.1726 320.829 7.82738 320.828 0L315.675 0C315.674 7.82737 309.329 14.1726 301.501 14.1726C293.674 14.1726 287.329 7.82737 287.328 0L282.174 0C282.174 7.82738 275.829 14.1726 268.001 14.1726C260.174 14.1726 253.829 7.82738 253.828 0L248.674 0C248.674 7.82731 242.329 14.1725 234.501 14.1725C226.674 14.1725 220.329 7.82731 220.328 0L215.174 0C215.174 7.82738 208.829 14.1726 201.001 14.1726C193.174 14.1726 186.829 7.82738 186.828 0L181.674 0C181.674 7.82738 175.329 14.1726 167.501 14.1726C159.674 14.1726 153.329 7.82738 153.328 0L148.175 0C148.174 7.82737 141.829 14.1726 134.002 14.1726C126.174 14.1726 119.829 7.82737 119.828 0L114.674 0C114.674 7.82738 108.329 14.1726 100.501 14.1726C92.674 14.1726 86.3286 7.82738 86.3283 0L81.1744 0C81.1742 7.82737 74.8287 14.1726 67.0013 14.1726C59.1739 14.1726 52.8285 7.82737 52.8282 0L47.6745 0C47.6742 7.82738 41.3288 14.1726 33.5014 14.1726C25.674 14.1726 19.3286 7.82738 19.3283 0L14.1745 0C14.1742 7.82738 7.82883 14.1726 0.00139523 14.1726H0L0 19.3267H0.0028944C7.83047 19.3267 14.176 25.6722 14.176 33.4997C14.176 41.3273 7.83047 47.6728 0.00289315 47.6728H0L0 52.8267H0.0027406C7.83032 52.8267 14.1758 59.1722 14.1758 66.9998C14.1758 74.8274 7.83031 81.1729 0.00273935 81.1729H0L0 86.3268H0.0027406C7.83032 86.3268 14.1758 92.6723 14.1758 100.5C14.1758 108.327 7.83031 114.673 0.00273935 114.673H0L0 119.827H0.0027406C7.83032 119.827 14.1758 126.172 14.1758 134C14.1758 141.827 7.83031 148.173 0.00273935 148.173H0L0 153.327H0.0027406C7.83032 153.327 14.1758 159.672 14.1758 167.5C14.1758 175.327 7.83031 181.673 0.00273935 181.673H0L0 186.827H0.0027406C7.83032 186.827 14.1758 193.172 14.1758 201C14.1758 208.827 7.83031 215.173 0.00273935 215.173H0L0 220.327H0.0027406C7.83032 220.327 14.1758 226.672 14.1758 234.5C14.1758 242.327 7.83031 248.673 0.00273935 248.673H0L0 253.827H0.0027406C7.83032 253.827 14.1758 260.172 14.1758 268C14.1758 275.827 7.83031 282.173 0.00273935 282.173H0L0 287.327H0.0027406C7.83032 287.327 14.1758 293.672 14.1758 301.5C14.1758 309.327 7.83031 315.673 0.00273935 315.673H0L0 320.827H0.00139523C7.82897 320.827 14.1745 327.172 14.1745 335H19.3283C19.3283 327.172 25.6738 320.827 33.5014 320.827C41.329 320.827 47.6745 327.172 47.6745 335H52.8282C52.8282 327.172 59.1737 320.827 67.0013 320.827C74.8289 320.827 81.1744 327.172 81.1744 335H86.3283C86.3283 327.172 92.6738 320.827 100.501 320.827C108.329 320.827 114.674 327.172 114.674 335L119.828 335C119.828 327.172 126.174 320.827 134.002 320.827C141.829 320.827 148.175 327.172 148.175 335L153.328 335C153.328 327.172 159.674 320.827 167.501 320.827C175.329 320.827 181.674 327.172 181.674 335H186.828C186.828 327.172 193.174 320.827 201.001 320.827C208.829 320.827 215.174 327.172 215.174 335H220.328C220.328 327.172 226.674 320.827 234.501 320.827C242.329 320.827 248.674 327.172 248.674 335H253.828C253.828 327.172 260.174 320.827 268.001 320.827C275.829 320.827 282.174 327.172 282.174 335L287.328 335C287.328 327.172 293.674 320.827 301.501 320.827C309.329 320.827 315.675 327.172 315.675 335L320.828 335C320.828 327.172 327.174 320.827 335.001 320.827C342.829 320.827 349.174 327.172 349.174 335H354.329C354.329 327.172 360.674 320.827 368.502 320.827C376.329 320.827 382.675 327.172 382.675 335H387.828C387.828 327.172 394.174 320.827 402.001 320.827C409.829 320.827 416.174 327.172 416.174 335H421.328C421.328 327.172 427.674 320.827 435.501 320.827C443.329 320.827 449.674 327.172 449.674 335H454.828C454.828 327.172 461.174 320.827 469.001 320.827C476.829 320.827 483.174 327.172 483.174 335H488.328C488.328 327.173 494.673 320.827 502.5 320.827V315.673C494.674 315.671 488.33 309.326 488.33 301.5C488.33 293.673 494.674 287.328 502.5 287.327V282.173C494.674 282.171 488.33 275.826 488.33 268C488.33 260.173 494.674 253.828 502.5 253.827V248.673C494.674 248.671 488.33 242.326 488.33 234.5C488.33 226.673 494.674 220.328 502.5 220.327V215.173C494.674 215.171 488.33 208.826 488.33 201C488.33 193.173 494.674 186.828 502.5 186.827V181.673C494.674 181.671 488.33 175.326 488.33 167.5C488.33 159.673 494.674 153.328 502.5 153.327V148.173C494.674 148.171 488.33 141.826 488.33 134C488.33 126.173 494.674 119.828 502.5 119.827V114.673C494.674 114.671 488.33 108.326 488.33 100.5C488.33 92.6731 494.674 86.3282 502.5 86.3267V81.1728C494.674 81.1713 488.33 74.8264 488.33 66.9998C488.33 59.1731 494.674 52.8282 502.5 52.8267V47.6728C494.674 47.6713 488.33 41.3264 488.33 33.4998C488.33 25.6731 494.674 19.3282 502.5 19.3267V14.1726C494.673 14.1719 488.329 7.82692 488.328 0Z" fill="#FFF5E2"/>
<path d="M483.174 0V-1.18794H481.987L481.986 -3.70527e-05L483.174 0ZM488.328 0L489.516 -3.70548e-05L489.516 -1.18794H488.328V0ZM454.828 0L456.016 -3.70527e-05L456.016 -1.18794H454.828V0ZM449.674 0V-1.18794H448.487L448.487 -3.70527e-05L449.674 0ZM421.328 0L422.516 -3.70527e-05L422.516 -1.18794H421.328V0ZM416.174 0V-1.18794H414.987L414.987 -3.70527e-05L416.174 0ZM387.828 0L389.016 -3.70527e-05L389.016 -1.18794L387.828 -1.18794V0ZM382.675 0V-1.18794H381.487L381.487 -3.70527e-05L382.675 0ZM354.329 0L355.517 -3.70527e-05L355.516 -1.18794H354.329V0ZM349.174 0V-1.18794L347.987 -1.18794L347.987 -3.70527e-05L349.174 0ZM320.828 0L322.016 -3.70527e-05L322.016 -1.18794H320.828V0ZM315.675 0V-1.18794H314.487L314.487 -3.70527e-05L315.675 0ZM287.328 0L288.516 -3.70527e-05L288.516 -1.18794H287.328V0ZM282.174 0V-1.18794H280.987L280.987 -3.70527e-05L282.174 0ZM253.828 0L255.016 -3.47369e-05L255.016 -1.18794H253.828V0ZM248.674 0V-1.18794H247.486L247.486 -4.86321e-05L248.674 0ZM220.328 0L221.516 -4.86321e-05L221.516 -1.18794H220.328V0ZM215.174 0V-1.18794H213.987L213.987 -3.47369e-05L215.174 0ZM186.828 0L188.016 -3.47369e-05L188.016 -1.18794L186.828 -1.18794V0ZM181.674 0V-1.18794H180.487L180.487 -3.47369e-05L181.674 0ZM153.328 0L154.516 -3.47369e-05L154.516 -1.18794H153.328V0ZM148.175 0V-1.18794L146.987 -1.18794L146.987 -3.70527e-05L148.175 0ZM119.828 0L121.016 -3.70527e-05L121.016 -1.18794H119.828V0ZM114.674 0V-1.18794H113.487L113.487 -3.58948e-05L114.674 0ZM86.3283 0L87.5163 -3.58948e-05L87.5162 -1.18794H86.3283V0ZM81.1744 0V-1.18794H79.9865L79.9865 -3.70527e-05L81.1744 0ZM52.8282 0L54.0162 -3.70527e-05L54.0161 -1.18794H52.8282V0ZM47.6745 0V-1.18794H46.4866L46.4865 -3.53158e-05L47.6745 0ZM19.3283 0L20.5163 -3.56053e-05L20.5162 -1.18794L19.3283 -1.18794V0ZM14.1745 0V-1.18794H12.9866L12.9865 -3.56053e-05L14.1745 0ZM0 14.1726L0 12.9847H-1.18794V14.1726H0ZM0 19.3267H-1.18794L-1.18794 20.5146H0L0 19.3267ZM14.176 33.4997H12.988H14.176ZM0 47.6728L0 46.4849H-1.18794V47.6728H0ZM0 52.8267H-1.18794V54.0147H0L0 52.8267ZM0 81.1729L0 79.9849H-1.18794V81.1729H0ZM0 86.3268H-1.18794V87.5148H0L0 86.3268ZM0 114.673L0 113.485H-1.18794V114.673H0ZM0 119.827H-1.18794V121.015H0L0 119.827ZM0 148.173L0 146.985H-1.18794L-1.18794 148.173H0ZM0 153.327H-1.18794V154.515H0L0 153.327ZM0 181.673L0 180.485H-1.18794V181.673H0ZM0 186.827H-1.18794L-1.18794 188.015H0L0 186.827ZM0 215.173L0 213.985H-1.18794V215.173H0ZM0 220.327H-1.18794V221.515H0L0 220.327ZM0 248.673L0 247.485H-1.18794V248.673H0ZM0 253.827H-1.18794V255.015H0L0 253.827ZM0 282.173L0 280.985H-1.18794V282.173H0ZM0 287.327H-1.18794V288.515H0L0 287.327ZM0 315.673L0 314.485H-1.18794V315.673H0ZM0 320.827H-1.18794V322.015H0L0 320.827ZM14.1745 335H12.9865V336.188H14.1745V335ZM19.3283 335V336.188H20.5163V335H19.3283ZM47.6745 335H46.4865V336.188H47.6745V335ZM52.8282 335V336.188H54.0162V335H52.8282ZM81.1744 335H79.9865V336.188H81.1744V335ZM86.3283 335V336.188H87.5163V335H86.3283ZM114.674 335H113.487V336.188H114.675L114.674 335ZM119.828 335L119.828 336.188L121.016 336.188V335H119.828ZM148.175 335H146.987V336.188L148.175 336.188L148.175 335ZM153.328 335L153.328 336.188H154.516V335H153.328ZM181.674 335H180.487V336.188H181.674V335ZM186.828 335V336.188H188.016V335H186.828ZM215.174 335H213.987V336.188H215.174V335ZM220.328 335V336.188H221.516V335H220.328ZM248.674 335H247.486V336.188H248.674V335ZM253.828 335V336.188H255.016V335H253.828ZM282.174 335H280.987V336.188H282.175L282.174 335ZM287.328 335L287.328 336.188L288.516 336.188V335H287.328ZM315.675 335H314.487V336.188L315.674 336.188L315.675 335ZM320.828 335L320.828 336.188H322.016V335H320.828ZM349.174 335H347.987V336.188H349.174V335ZM354.329 335V336.188H355.517V335H354.329ZM382.675 335H381.487V336.188H382.675V335ZM387.828 335V336.188H389.016V335H387.828ZM416.174 335H414.987V336.188H416.174V335ZM421.328 335V336.188H422.516V335H421.328ZM449.674 335H448.487V336.188H449.674V335ZM454.828 335V336.188H456.016V335H454.828ZM483.174 335H481.986V336.188H483.174V335ZM488.328 335V336.188H489.516V335H488.328ZM502.5 320.827L502.5 322.015L503.688 322.015V320.827H502.5ZM502.5 315.673H503.688V314.485L502.5 314.485L502.5 315.673ZM502.5 287.327L502.5 288.515L503.688 288.514V287.327H502.5ZM502.5 282.173H503.688V280.985L502.5 280.985L502.5 282.173ZM502.5 253.827L502.5 255.015L503.688 255.014V253.827H502.5ZM502.5 248.673H503.688V247.485L502.5 247.485L502.5 248.673ZM502.5 220.327L502.5 221.515L503.688 221.514V220.327H502.5ZM502.5 215.173H503.688V213.985L502.5 213.985L502.5 215.173ZM502.5 186.827L502.5 188.015L503.688 188.014V186.827H502.5ZM502.5 181.673H503.688V180.485L502.5 180.485L502.5 181.673ZM502.5 153.327L502.5 154.515L503.688 154.514V153.327H502.5ZM502.5 148.173H503.688V146.985L502.5 146.985L502.5 148.173ZM502.5 119.827L502.5 121.015L503.688 121.014V119.827H502.5ZM502.5 114.673H503.688V113.485L502.5 113.485L502.5 114.673ZM502.5 86.3267L502.5 87.5146L503.688 87.5144V86.3267H502.5ZM502.5 81.1728H503.688V79.9851L502.5 79.9849L502.5 81.1728ZM502.5 52.8267L502.5 54.0146L503.688 54.0144V52.8267H502.5ZM502.5 47.6728H503.688V46.4851L502.5 46.4849L502.5 47.6728ZM502.5 19.3267L502.5 20.5146L503.688 20.5144V19.3267H502.5ZM502.5 14.1726H503.688V12.9848L502.5 12.9847L502.5 14.1726ZM483.174 1.18794L488.328 1.18794V-1.18794L483.174 -1.18794V1.18794ZM469.001 15.3606C477.485 15.3606 484.362 8.48347 484.362 3.70527e-05L481.986 -3.70527e-05C481.986 7.17127 476.173 12.9847 469.001 12.9847V15.3606ZM453.64 3.70527e-05C453.641 8.48347 460.518 15.3606 469.001 15.3606V12.9847C461.83 12.9847 456.016 7.17126 456.016 -3.70527e-05L453.64 3.70527e-05ZM449.674 1.18794L454.828 1.18794V-1.18794L449.674 -1.18794V1.18794ZM435.501 15.3606C443.985 15.3606 450.862 8.48348 450.862 3.70527e-05L448.487 -3.70527e-05C448.486 7.17128 442.673 12.9847 435.501 12.9847V15.3606ZM420.14 3.70527e-05C420.141 8.48348 427.018 15.3606 435.501 15.3606V12.9847C428.33 12.9847 422.517 7.17127 422.516 -3.70527e-05L420.14 3.70527e-05ZM416.174 1.18794L421.328 1.18794V-1.18794L416.174 -1.18794V1.18794ZM402.001 15.3606C410.485 15.3606 417.362 8.48348 417.362 3.70527e-05L414.987 -3.70527e-05C414.986 7.17128 409.173 12.9847 402.001 12.9847V15.3606ZM386.64 3.70527e-05C386.641 8.48348 393.518 15.3606 402.001 15.3606V12.9847C394.83 12.9847 389.017 7.17127 389.016 -3.70527e-05L386.64 3.70527e-05ZM382.675 1.18794H387.828V-1.18794H382.675V1.18794ZM368.502 15.3606C376.985 15.3606 383.862 8.48347 383.863 3.70527e-05L381.487 -3.70527e-05C381.487 7.17127 375.673 12.9847 368.502 12.9847V15.3606ZM353.141 3.70527e-05C353.141 8.48347 360.018 15.3606 368.502 15.3606V12.9847C361.33 12.9847 355.517 7.17126 355.517 -3.70527e-05L353.141 3.70527e-05ZM349.174 1.18794H354.329V-1.18794H349.174V1.18794ZM335.001 15.3606C343.485 15.3606 350.362 8.48348 350.362 3.70527e-05L347.987 -3.70527e-05C347.986 7.17128 342.173 12.9847 335.001 12.9847V15.3606ZM319.64 3.70527e-05C319.641 8.48348 326.518 15.3606 335.001 15.3606V12.9847C327.83 12.9847 322.017 7.17127 322.016 -3.70527e-05L319.64 3.70527e-05ZM315.675 1.18794L320.828 1.18794V-1.18794L315.675 -1.18794V1.18794ZM301.501 15.3606C309.985 15.3606 316.862 8.48347 316.862 3.70527e-05L314.487 -3.70527e-05C314.486 7.17127 308.673 12.9847 301.501 12.9847V15.3606ZM286.14 3.70527e-05C286.141 8.48347 293.018 15.3606 301.501 15.3606V12.9847C294.33 12.9847 288.517 7.17126 288.516 -3.70527e-05L286.14 3.70527e-05ZM282.174 1.18794L287.328 1.18794V-1.18794L282.174 -1.18794V1.18794ZM268.001 15.3606C276.485 15.3606 283.362 8.48348 283.362 3.70527e-05L280.987 -3.70527e-05C280.986 7.17128 275.173 12.9847 268.001 12.9847V15.3606ZM252.64 3.47369e-05C252.641 8.48348 259.518 15.3606 268.001 15.3606V12.9847C260.83 12.9847 255.017 7.17127 255.016 -3.47369e-05L252.64 3.47369e-05ZM248.674 1.18794L253.828 1.18794V-1.18794L248.674 -1.18794V1.18794ZM234.501 15.3604C242.985 15.3604 249.862 8.48342 249.862 4.86321e-05L247.486 -4.86321e-05C247.486 7.1712 241.673 12.9845 234.501 12.9845V15.3604ZM219.14 4.86321e-05C219.141 8.48341 226.018 15.3604 234.501 15.3604V12.9845C227.33 12.9845 221.516 7.1712 221.516 -4.86321e-05L219.14 4.86321e-05ZM215.174 1.18794L220.328 1.18794V-1.18794L215.174 -1.18794V1.18794ZM201.001 15.3606C209.485 15.3606 216.362 8.48348 216.362 3.47369e-05L213.987 -3.47369e-05C213.986 7.17127 208.173 12.9847 201.001 12.9847V15.3606ZM185.64 3.47369e-05C185.641 8.48348 192.518 15.3606 201.001 15.3606V12.9847C193.83 12.9847 188.016 7.17127 188.016 -3.47369e-05L185.64 3.47369e-05ZM181.674 1.18794H186.828V-1.18794H181.674V1.18794ZM167.501 15.3606C175.985 15.3606 182.862 8.48348 182.862 3.47369e-05L180.487 -3.47369e-05C180.486 7.17127 174.673 12.9847 167.501 12.9847V15.3606ZM152.14 3.47369e-05C152.141 8.48348 159.018 15.3606 167.501 15.3606V12.9847C160.33 12.9847 154.516 7.17127 154.516 -3.47369e-05L152.14 3.47369e-05ZM148.175 1.18794H153.328V-1.18794H148.175V1.18794ZM134.002 15.3606C142.485 15.3606 149.362 8.48347 149.363 3.70527e-05L146.987 -3.70527e-05C146.986 7.17126 141.173 12.9847 134.002 12.9847V15.3606ZM118.64 3.70527e-05C118.641 8.48347 125.518 15.3606 134.002 15.3606V12.9847C126.83 12.9847 121.017 7.17126 121.016 -3.70527e-05L118.64 3.70527e-05ZM114.674 1.18794L119.828 1.18794V-1.18794L114.674 -1.18794V1.18794ZM100.501 15.3606C108.985 15.3606 115.862 8.48348 115.862 3.58948e-05L113.487 -3.58948e-05C113.486 7.17127 107.673 12.9847 100.501 12.9847V15.3606ZM85.1404 3.58948e-05C85.1406 8.48348 92.0179 15.3606 100.501 15.3606V12.9847C93.3301 12.9847 87.5165 7.17127 87.5163 -3.58948e-05L85.1404 3.58948e-05ZM81.1744 1.18794L86.3283 1.18794V-1.18794L81.1744 -1.18794V1.18794ZM67.0013 15.3606C75.4848 15.3606 82.3621 8.48347 82.3623 3.70527e-05L79.9865 -3.70527e-05C79.9862 7.17126 74.1727 12.9847 67.0013 12.9847V15.3606ZM51.6403 3.70527e-05C51.6406 8.48347 58.5178 15.3606 67.0013 15.3606V12.9847C59.83 12.9847 54.0164 7.17126 54.0162 -3.70527e-05L51.6403 3.70527e-05ZM47.6745 1.18794L52.8282 1.18794V-1.18794L47.6745 -1.18794V1.18794ZM33.5014 15.3606C41.9849 15.3606 48.8622 8.48348 48.8624 3.53158e-05L46.4865 -3.53158e-05C46.4863 7.17127 40.6728 12.9847 33.5014 12.9847V15.3606ZM18.1404 3.56053e-05C18.1406 8.48348 25.0179 15.3606 33.5014 15.3606V12.9847C26.33 12.9847 20.5165 7.17127 20.5163 -3.56053e-05L18.1404 3.56053e-05ZM14.1745 1.18794H19.3283V-1.18794H14.1745V1.18794ZM0.00139523 15.3606C8.4849 15.3606 15.3622 8.48348 15.3624 3.56053e-05L12.9865 -3.56053e-05C12.9863 7.17127 7.17275 12.9847 0.00139523 12.9847L0.00139523 15.3606ZM0 15.3606H0.00139523L0.00139523 12.9847H0L0 15.3606ZM1.18794 19.3267V14.1726H-1.18794V19.3267H1.18794ZM0.0028944 18.1387H0L0 20.5146H0.0028944L0.0028944 18.1387ZM15.3639 33.4997C15.3639 25.0161 8.48655 18.1387 0.0028944 18.1387L0.0028944 20.5146C7.17439 20.5146 12.988 26.3283 12.988 33.4997H15.3639ZM0.00289315 48.8608C8.48655 48.8608 15.3639 41.9834 15.3639 33.4997H12.988C12.988 40.6712 7.17439 46.4849 0.00289315 46.4849L0.00289315 48.8608ZM0 48.8608H0.00289315L0.00289315 46.4849H0L0 48.8608ZM1.18794 52.8267L1.18794 47.6728H-1.18794L-1.18794 52.8267H1.18794ZM0.0027406 51.6388H0L0 54.0147H0.0027406L0.0027406 51.6388ZM15.3638 66.9998C15.3638 58.5161 8.4864 51.6388 0.0027406 51.6388L0.0027406 54.0147C7.17423 54.0147 12.9879 59.8283 12.9879 66.9998H15.3638ZM0.00273935 82.3608C8.4864 82.3608 15.3638 75.4835 15.3638 66.9998H12.9879C12.9879 74.1713 7.17423 79.9849 0.00273935 79.9849L0.00273935 82.3608ZM0 82.3608H0.00273935L0.00273935 79.9849H0L0 82.3608ZM1.18794 86.3268L1.18794 81.1729H-1.18794L-1.18794 86.3268H1.18794ZM0.0027406 85.1389H0L0 87.5148H0.0027406L0.0027406 85.1389ZM15.3638 100.5C15.3638 92.0162 8.4864 85.1389 0.0027406 85.1389L0.0027406 87.5148C7.17423 87.5148 12.9879 93.3284 12.9879 100.5H15.3638ZM0.00273935 115.861C8.4864 115.861 15.3638 108.984 15.3638 100.5H12.9879C12.9879 107.671 7.17423 113.485 0.00273935 113.485L0.00273935 115.861ZM0 115.861H0.00273935L0.00273935 113.485H0L0 115.861ZM1.18794 119.827L1.18794 114.673H-1.18794L-1.18794 119.827H1.18794ZM0.0027406 118.639H0L0 121.015H0.0027406L0.0027406 118.639ZM15.3638 134C15.3638 125.516 8.4864 118.639 0.0027406 118.639L0.0027406 121.015C7.17423 121.015 12.9879 126.828 12.9879 134H15.3638ZM0.00273935 149.361C8.4864 149.361 15.3638 142.483 15.3638 134H12.9879C12.9879 141.171 7.17423 146.985 0.00273935 146.985L0.00273935 149.361ZM0 149.361H0.00273935L0.00273935 146.985H0L0 149.361ZM1.18794 153.327V148.173H-1.18794V153.327H1.18794ZM0.0027406 152.139H0L0 154.515H0.0027406L0.0027406 152.139ZM15.3638 167.5C15.3638 159.016 8.4864 152.139 0.0027406 152.139L0.0027406 154.515C7.17423 154.515 12.9879 160.328 12.9879 167.5H15.3638ZM0.00273935 182.861C8.4864 182.861 15.3638 175.983 15.3638 167.5H12.9879C12.9879 174.671 7.17423 180.485 0.00273935 180.485L0.00273935 182.861ZM0 182.861H0.00273935L0.00273935 180.485H0L0 182.861ZM1.18794 186.827V181.673H-1.18794V186.827H1.18794ZM0.0027406 185.639H0L0 188.015H0.0027406L0.0027406 185.639ZM15.3638 201C15.3638 192.516 8.4864 185.639 0.0027406 185.639L0.0027406 188.015C7.17423 188.015 12.9879 193.828 12.9879 201H15.3638ZM0.00273935 216.361C8.4864 216.361 15.3638 209.484 15.3638 201H12.9879C12.9879 208.171 7.17423 213.985 0.00273935 213.985L0.00273935 216.361ZM0 216.361H0.00273935L0.00273935 213.985H0L0 216.361ZM1.18794 220.327L1.18794 215.173H-1.18794L-1.18794 220.327H1.18794ZM0.0027406 219.139H0L0 221.515H0.0027406L0.0027406 219.139ZM15.3638 234.5C15.3638 226.016 8.4864 219.139 0.0027406 219.139L0.0027406 221.515C7.17423 221.515 12.9879 227.328 12.9879 234.5H15.3638ZM0.00273935 249.861C8.4864 249.861 15.3638 242.983 15.3638 234.5H12.9879C12.9879 241.671 7.17423 247.485 0.00273935 247.485L0.00273935 249.861ZM0 249.861H0.00273935L0.00273935 247.485H0L0 249.861ZM1.18794 253.827L1.18794 248.673H-1.18794L-1.18794 253.827H1.18794ZM0.0027406 252.639H0L0 255.015H0.0027406L0.0027406 252.639ZM15.3638 268C15.3638 259.516 8.4864 252.639 0.0027406 252.639L0.0027406 255.015C7.17423 255.015 12.9879 260.828 12.9879 268H15.3638ZM0.00273935 283.361C8.4864 283.361 15.3638 276.483 15.3638 268H12.9879C12.9879 275.171 7.17423 280.985 0.00273935 280.985L0.00273935 283.361ZM0 283.361H0.00273935L0.00273935 280.985H0L0 283.361ZM1.18794 287.327L1.18794 282.173H-1.18794L-1.18794 287.327H1.18794ZM0.0027406 286.139H0L0 288.515H0.0027406L0.0027406 286.139ZM15.3638 301.5C15.3638 293.016 8.4864 286.139 0.0027406 286.139L0.0027406 288.515C7.17423 288.515 12.9879 294.328 12.9879 301.5H15.3638ZM0.00273935 316.861C8.4864 316.861 15.3638 309.984 15.3638 301.5H12.9879C12.9879 308.671 7.17423 314.485 0.00273935 314.485L0.00273935 316.861ZM0 316.861H0.00273935L0.00273935 314.485H0L0 316.861ZM1.18794 320.827L1.18794 315.673H-1.18794L-1.18794 320.827H1.18794ZM0.00139523 319.639H0L0 322.015H0.00139523L0.00139523 319.639ZM15.3624 335C15.3624 326.516 8.48505 319.639 0.00139523 319.639L0.00139523 322.015C7.17289 322.015 12.9865 327.828 12.9865 335H15.3624ZM19.3283 333.812H14.1745V336.188H19.3283V333.812ZM33.5014 319.639C25.0177 319.639 18.1404 326.516 18.1404 335H20.5163C20.5163 327.828 26.3299 322.015 33.5014 322.015V319.639ZM48.8624 335C48.8624 326.516 41.9851 319.639 33.5014 319.639V322.015C40.6729 322.015 46.4865 327.828 46.4865 335H48.8624ZM52.8282 333.812H47.6745V336.188H52.8282V333.812ZM67.0013 319.639C58.5177 319.639 51.6403 326.516 51.6403 335H54.0162C54.0162 327.828 59.8298 322.015 67.0013 322.015V319.639ZM82.3623 335C82.3623 326.516 75.485 319.639 67.0013 319.639V322.015C74.1728 322.015 79.9865 327.828 79.9865 335H82.3623ZM86.3283 333.812H81.1744V336.188H86.3283V333.812ZM100.501 319.639C92.0178 319.639 85.1404 326.516 85.1404 335H87.5163C87.5163 327.828 93.3299 322.015 100.501 322.015V319.639ZM115.862 335C115.862 326.516 108.985 319.639 100.501 319.639V322.015C107.673 322.015 113.487 327.828 113.487 335H115.862ZM119.828 333.812L114.674 333.812L114.675 336.188L119.828 336.188L119.828 333.812ZM134.002 319.639C125.518 319.639 118.64 326.516 118.64 335H121.016C121.016 327.828 126.83 322.015 134.002 322.015V319.639ZM149.363 335C149.363 326.516 142.485 319.639 134.002 319.639V322.015C141.173 322.015 146.987 327.828 146.987 335H149.363ZM153.328 333.812L148.175 333.812L148.175 336.188L153.328 336.188L153.328 333.812ZM167.501 319.639C159.018 319.639 152.14 326.516 152.14 335H154.516C154.516 327.828 160.33 322.015 167.501 322.015V319.639ZM182.862 335C182.862 326.516 175.985 319.639 167.501 319.639V322.015C174.673 322.015 180.487 327.828 180.487 335H182.862ZM186.828 333.812H181.674V336.188H186.828V333.812ZM201.001 319.639C192.518 319.639 185.64 326.516 185.64 335H188.016C188.016 327.828 193.83 322.015 201.001 322.015V319.639ZM216.362 335C216.362 326.516 209.485 319.639 201.001 319.639V322.015C208.173 322.015 213.987 327.828 213.987 335H216.362ZM220.328 333.812H215.174V336.188H220.328V333.812ZM234.501 319.639C226.018 319.639 219.14 326.516 219.14 335H221.516C221.516 327.828 227.33 322.015 234.501 322.015V319.639ZM249.862 335C249.862 326.516 242.985 319.639 234.501 319.639V322.015C241.673 322.015 247.486 327.828 247.486 335H249.862ZM253.828 333.812H248.674V336.188H253.828V333.812ZM268.001 319.639C259.518 319.639 252.64 326.516 252.64 335H255.016C255.016 327.828 260.83 322.015 268.001 322.015V319.639ZM283.362 335C283.362 326.516 276.485 319.639 268.001 319.639V322.015C275.173 322.015 280.987 327.828 280.987 335H283.362ZM287.328 333.812L282.174 333.812L282.175 336.188L287.328 336.188L287.328 333.812ZM301.501 319.639C293.018 319.639 286.14 326.516 286.14 335H288.516C288.516 327.828 294.33 322.015 301.501 322.015V319.639ZM316.862 335C316.862 326.516 309.985 319.639 301.501 319.639V322.015C308.673 322.015 314.487 327.828 314.487 335H316.862ZM320.828 333.812L315.675 333.812L315.674 336.188L320.828 336.188L320.828 333.812ZM335.001 319.639C326.518 319.639 319.64 326.516 319.64 335H322.016C322.016 327.828 327.83 322.015 335.001 322.015V319.639ZM350.362 335C350.362 326.516 343.485 319.639 335.001 319.639V322.015C342.173 322.015 347.987 327.828 347.987 335H350.362ZM354.329 333.812H349.174V336.188H354.329V333.812ZM368.502 319.639C360.018 319.639 353.141 326.516 353.141 335H355.517C355.517 327.828 361.33 322.015 368.502 322.015V319.639ZM383.863 335C383.863 326.516 376.985 319.639 368.502 319.639V322.015C375.673 322.015 381.487 327.828 381.487 335H383.863ZM387.828 333.812H382.675V336.188H387.828V333.812ZM402.001 319.639C393.518 319.639 386.64 326.516 386.64 335H389.016C389.016 327.828 394.83 322.015 402.001 322.015V319.639ZM417.362 335C417.362 326.516 410.485 319.639 402.001 319.639V322.015C409.173 322.015 414.987 327.828 414.987 335H417.362ZM421.328 333.812H416.174V336.188H421.328V333.812ZM435.501 319.639C427.018 319.639 420.14 326.516 420.14 335H422.516C422.516 327.828 428.33 322.015 435.501 322.015V319.639ZM450.862 335C450.862 326.516 443.985 319.639 435.501 319.639V322.015C442.673 322.015 448.487 327.828 448.487 335H450.862ZM454.828 333.812H449.674V336.188H454.828V333.812ZM469.001 319.639C460.518 319.639 453.64 326.516 453.64 335H456.016C456.016 327.828 461.83 322.015 469.001 322.015V319.639ZM484.362 335C484.362 326.516 477.485 319.639 469.001 319.639V322.015C476.173 322.015 481.986 327.828 481.986 335H484.362ZM488.328 333.812H483.174V336.188H488.328V333.812ZM502.5 319.639C494.017 319.64 487.14 326.517 487.14 335H489.516C489.516 327.829 495.329 322.015 502.5 322.015L502.5 319.639ZM501.312 315.673V320.827H503.688V315.673H501.312ZM502.5 314.485C495.33 314.484 489.518 308.67 489.518 301.5H487.142C487.142 309.982 494.018 316.859 502.5 316.861L502.5 314.485ZM489.518 301.5C489.518 294.329 495.33 288.516 502.5 288.515L502.5 286.139C494.018 286.14 487.142 293.017 487.142 301.5H489.518ZM501.312 282.173V287.327H503.688V282.173H501.312ZM487.142 268C487.142 276.482 494.018 283.359 502.5 283.361L502.5 280.985C495.33 280.984 489.518 275.17 489.518 268H487.142ZM502.5 252.639C494.018 252.64 487.142 259.517 487.142 268H489.518C489.518 260.829 495.33 255.016 502.5 255.015L502.5 252.639ZM501.312 248.673V253.827H503.688V248.673H501.312ZM487.142 234.5C487.142 242.982 494.018 249.859 502.5 249.861L502.5 247.485C495.33 247.483 489.518 241.67 489.518 234.5H487.142ZM502.5 219.139C494.018 219.14 487.142 226.017 487.142 234.5H489.518C489.518 227.329 495.33 221.516 502.5 221.515L502.5 219.139ZM501.312 215.173V220.327H503.688V215.173H501.312ZM487.142 201C487.142 209.482 494.018 216.359 502.5 216.361L502.5 213.985C495.33 213.983 489.518 208.17 489.518 201H487.142ZM502.5 185.639C494.018 185.64 487.142 192.517 487.142 201H489.518C489.518 193.829 495.33 188.016 502.5 188.015L502.5 185.639ZM501.312 181.673V186.827H503.688V181.673H501.312ZM487.142 167.5C487.142 175.982 494.018 182.859 502.5 182.861L502.5 180.485C495.33 180.483 489.518 174.67 489.518 167.5H487.142ZM502.5 152.139C494.018 152.14 487.142 159.017 487.142 167.5H489.518C489.518 160.329 495.33 154.516 502.5 154.515L502.5 152.139ZM501.312 148.173V153.327H503.688V148.173H501.312ZM487.142 134C487.142 142.482 494.018 149.359 502.5 149.361L502.5 146.985C495.33 146.983 489.518 141.17 489.518 134H487.142ZM502.5 118.639C494.018 118.64 487.142 125.517 487.142 134H489.518C489.518 126.829 495.33 121.016 502.5 121.015L502.5 118.639ZM501.312 114.673V119.827H503.688V114.673H501.312ZM487.142 100.5C487.142 108.982 494.018 115.859 502.5 115.861L502.5 113.485C495.33 113.484 489.518 107.67 489.518 100.5H487.142ZM502.5 85.1387C494.018 85.1404 487.142 92.0171 487.142 100.5H489.518C489.518 93.3291 495.33 87.516 502.5 87.5146L502.5 85.1387ZM501.312 81.1728V86.3267H503.688V81.1728H501.312ZM487.142 66.9998C487.142 75.4824 494.018 82.3591 502.5 82.3608L502.5 79.9849C495.33 79.9835 489.518 74.1704 489.518 66.9998H487.142ZM502.5 51.6387C494.018 51.6404 487.142 58.5171 487.142 66.9998H489.518C489.518 59.8291 495.33 54.016 502.5 54.0146L502.5 51.6387ZM501.312 47.6728V52.8267H503.688V47.6728H501.312ZM487.142 33.4998C487.142 41.9824 494.018 48.8591 502.5 48.8608L502.5 46.4849C495.33 46.4835 489.518 40.6704 489.518 33.4998H487.142ZM502.5 18.1387C494.018 18.1404 487.142 25.0171 487.142 33.4998H489.518C489.518 26.3291 495.33 20.516 502.5 20.5146L502.5 18.1387ZM501.312 14.1726V19.3267H503.688V14.1726H501.312ZM487.14 3.70548e-05C487.141 8.48298 494.017 15.3598 502.5 15.3606L502.5 12.9847C495.329 12.984 489.517 7.17085 489.516 -3.70548e-05L487.14 3.70548e-05Z" fill="#B4751D" mask="url(#path-1-inside-1_67_1037)"/>
</svg>
