<svg width="274" height="575" viewBox="0 0 274 575" fill="none" xmlns="http://www.w3.org/2000/svg">
<mask id="path-1-inside-1_359_1207" fill="white">
<path fill-rule="evenodd" clip-rule="evenodd" d="M251.5 11C245.701 11 241 6.29899 241 0.499999C241 0.332386 241.004 0.165691 241.012 0L233.988 0C233.996 0.165691 234 0.332387 234 0.5C234 6.29899 229.299 11 223.5 11C217.701 11 213 6.29899 213 0.499999C213 0.332386 213.004 0.165691 213.012 0L205.988 0C205.996 0.165691 206 0.332387 206 0.5C206 6.29899 201.299 11 195.5 11C189.701 11 185 6.29899 185 0.499999C185 0.332386 185.004 0.165691 185.012 0L177.988 0C177.996 0.165691 178 0.332387 178 0.5C178 6.29899 173.299 11 167.5 11C161.701 11 157 6.29899 157 0.499999C157 0.332386 157.004 0.165691 157.012 0L149.988 0C149.996 0.165691 150 0.332387 150 0.5C150 6.29899 145.299 11 139.5 11C133.701 11 129 6.29899 129 0.499999C129 0.332386 129.004 0.165691 129.012 0L121.988 0C121.996 0.165691 122 0.332387 122 0.5C122 6.29899 117.299 11 111.5 11C105.701 11 101 6.29899 101 0.499999C101 0.332386 101.004 0.165691 101.012 0L93.9883 0C93.9961 0.165691 94 0.332387 94 0.5C94 6.29899 89.299 11 83.5 11C77.701 11 73 6.29899 73 0.499999C73 0.332386 73.0039 0.165691 73.0117 0L65.9883 0C65.9961 0.165691 66 0.332387 66 0.5C66 6.29899 61.299 11 55.5 11C49.701 11 45 6.29899 45 0.499999C45 0.332386 45.0039 0.165691 45.0117 0L37.9883 0C37.9961 0.165691 38 0.332387 38 0.5C38 6.29899 33.299 11 27.5 11C21.701 11 17 6.29899 17 0.499999C17 0.332386 17.0039 0.165691 17.0117 0L9.98831 0C9.99607 0.165691 10 0.332387 10 0.5C10 6.13138 5.56682 10.7273 0 10.9883L0 16.0117C5.56682 16.2727 10 20.8686 10 26.5C10 32.1314 5.56682 36.7273 0 36.9883L0 42.0117C5.56682 42.2727 10 46.8686 10 52.5C10 58.1314 5.56682 62.7273 0 62.9883L0 68.0117C5.56682 68.2727 10 72.8686 10 78.5C10 84.1314 5.56682 88.7273 0 88.9883L0 94.0117C5.56682 94.2727 10 98.8686 10 104.5C10 110.131 5.56682 114.727 0 114.988L0 120.012C5.56682 120.273 10 124.869 10 130.5C10 136.131 5.56682 140.727 0 140.988L0 146.012C5.56682 146.273 10 150.869 10 156.5C10 162.131 5.56682 166.727 0 166.988L0 172.012C5.56682 172.273 10 176.869 10 182.5C10 188.131 5.56682 192.727 0 192.988L0 198.012C5.56682 198.273 10 202.869 10 208.5C10 214.131 5.56682 218.727 0 218.988L0 224.012C5.56682 224.273 10 228.869 10 234.5C10 240.131 5.56682 244.727 0 244.988L0 250.012C5.56682 250.273 10 254.869 10 260.5C10 266.131 5.56682 270.727 0 270.988L0 276.012C5.56682 276.273 10 280.869 10 286.5C10 292.131 5.56682 296.727 0 296.988L0 302.012C5.56682 302.273 10 306.869 10 312.5C10 318.131 5.56682 322.727 0 322.988L0 328.012C5.56682 328.273 10 332.869 10 338.5C10 344.131 5.56682 348.727 0 348.988L0 354.012C5.56682 354.273 10 358.869 10 364.5C10 370.131 5.56682 374.727 0 374.988L0 380.012C5.56682 380.273 10 384.869 10 390.5C10 396.131 5.56682 400.727 0 400.988L0 406.012C5.56682 406.273 10 410.869 10 416.5C10 422.131 5.56682 426.727 0 426.988L0 432.012C5.56682 432.273 10 436.869 10 442.5C10 448.131 5.56682 452.727 0 452.988L0 458.012C5.56682 458.273 10 462.869 10 468.5C10 474.131 5.56682 478.727 0 478.988L0 484.012C5.56682 484.273 10 488.869 10 494.5C10 500.131 5.56682 504.727 0 504.988L0 510.012C5.56682 510.273 10 514.869 10 520.5C10 526.131 5.56682 530.727 0 530.988L0 536.012C5.56682 536.273 10 540.869 10 546.5C10 552.131 5.56682 556.727 0 556.988L0 562.012C5.56682 562.273 10 566.869 10 572.5C10 573.362 9.89625 574.199 9.70056 575H17.0117C17.0039 574.834 17 574.668 17 574.5C17 568.701 21.701 564 27.5 564C33.299 564 38 568.701 38 574.5C38 574.668 37.9961 574.834 37.9883 575H45.0117C45.0039 574.834 45 574.668 45 574.5C45 568.701 49.701 564 55.5 564C61.299 564 66 568.701 66 574.5C66 574.668 65.9961 574.834 65.9883 575H73.0117C73.0039 574.834 73 574.668 73 574.5C73 568.701 77.701 564 83.5 564C89.299 564 94 568.701 94 574.5C94 574.668 93.9961 574.834 93.9883 575H101.012C101.004 574.834 101 574.668 101 574.5C101 568.701 105.701 564 111.5 564C117.299 564 122 568.701 122 574.5C122 574.57 121.999 574.639 121.998 574.708C121.997 574.751 121.996 574.793 121.995 574.835L121.992 574.915L121.991 574.929L121.988 575H129.012C129.004 574.834 129 574.668 129 574.5C129 568.701 133.701 564 139.5 564C145.299 564 150 568.701 150 574.5L150 574.544L150 574.586L149.999 574.653C149.998 574.732 149.996 574.811 149.993 574.889C149.992 574.926 149.99 574.963 149.988 575H157.012C157.007 574.901 157.004 574.801 157.002 574.701C157.001 574.634 157 574.567 157 574.5C157 568.701 161.701 564 167.5 564C173.299 564 178 568.701 178 574.5C178 574.668 177.996 574.834 177.988 575H185.012C185.004 574.834 185 574.668 185 574.5C185 568.701 189.701 564 195.5 564C201.299 564 206 568.701 206 574.5C206 574.668 205.996 574.834 205.988 575H213.012C213.004 574.834 213 574.668 213 574.5C213 568.701 217.701 564 223.5 564C229.299 564 234 568.701 234 574.5C234 574.668 233.996 574.834 233.988 575H241.012C241.004 574.834 241 574.668 241 574.5C241 568.701 245.701 564 251.5 564C257.299 564 262 568.701 262 574.5C262 574.668 261.996 574.834 261.988 575H264.299C264.104 574.199 264 573.362 264 572.5C264 566.869 268.433 562.273 274 562.012V556.988C268.433 556.727 264 552.131 264 546.5C264 540.869 268.433 536.273 274 536.012V530.988C268.433 530.727 264 526.131 264 520.5C264 514.869 268.433 510.273 274 510.012V504.988C268.433 504.727 264 500.131 264 494.5C264 488.869 268.433 484.273 274 484.012V478.988C268.433 478.727 264 474.131 264 468.5C264 462.869 268.433 458.273 274 458.012V452.988C268.433 452.727 264 448.131 264 442.5C264 436.869 268.433 432.273 274 432.012V426.988C268.433 426.727 264 422.131 264 416.5C264 410.869 268.433 406.273 274 406.012V400.988C268.433 400.727 264 396.131 264 390.5C264 384.869 268.433 380.273 274 380.012V374.988C268.433 374.727 264 370.131 264 364.5C264 358.869 268.433 354.273 274 354.012V348.988C268.433 348.727 264 344.131 264 338.5C264 332.869 268.433 328.273 274 328.012V322.988C268.433 322.727 264 318.131 264 312.5C264 306.869 268.433 302.273 274 302.012V296.988C268.433 296.727 264 292.131 264 286.5C264 280.869 268.433 276.273 274 276.012V270.988C268.433 270.727 264 266.131 264 260.5C264 254.869 268.433 250.273 274 250.012V244.988C268.433 244.727 264 240.131 264 234.5C264 228.869 268.433 224.273 274 224.012V218.988C268.433 218.727 264 214.131 264 208.5C264 202.869 268.433 198.273 274 198.012V192.988C268.433 192.727 264 188.131 264 182.5C264 176.869 268.433 172.273 274 172.012V166.988C268.433 166.727 264 162.131 264 156.5C264 150.869 268.433 146.273 274 146.012V140.988C268.433 140.727 264 136.131 264 130.5C264 124.869 268.433 120.273 274 120.012V114.988C268.433 114.727 264 110.131 264 104.5C264 98.8686 268.433 94.2727 274 94.0117V88.9883C268.433 88.7273 264 84.1314 264 78.5C264 72.8686 268.433 68.2727 274 68.0117V62.9883C268.433 62.7273 264 58.1314 264 52.5C264 46.8686 268.433 42.2727 274 42.0117V36.9883C268.433 36.7273 264 32.1314 264 26.5C264 20.8686 268.433 16.2727 274 16.0117V9.446C271 7.59762 269 4.28236 269 0.5C269 0.332387 269.004 0.165691 269.012 0L261.988 0C261.996 0.165691 262 0.332387 262 0.5C262 6.29899 257.299 11 251.5 11Z"/>
</mask>
<path fill-rule="evenodd" clip-rule="evenodd" d="M251.5 11C245.701 11 241 6.29899 241 0.499999C241 0.332386 241.004 0.165691 241.012 0L233.988 0C233.996 0.165691 234 0.332387 234 0.5C234 6.29899 229.299 11 223.5 11C217.701 11 213 6.29899 213 0.499999C213 0.332386 213.004 0.165691 213.012 0L205.988 0C205.996 0.165691 206 0.332387 206 0.5C206 6.29899 201.299 11 195.5 11C189.701 11 185 6.29899 185 0.499999C185 0.332386 185.004 0.165691 185.012 0L177.988 0C177.996 0.165691 178 0.332387 178 0.5C178 6.29899 173.299 11 167.5 11C161.701 11 157 6.29899 157 0.499999C157 0.332386 157.004 0.165691 157.012 0L149.988 0C149.996 0.165691 150 0.332387 150 0.5C150 6.29899 145.299 11 139.5 11C133.701 11 129 6.29899 129 0.499999C129 0.332386 129.004 0.165691 129.012 0L121.988 0C121.996 0.165691 122 0.332387 122 0.5C122 6.29899 117.299 11 111.5 11C105.701 11 101 6.29899 101 0.499999C101 0.332386 101.004 0.165691 101.012 0L93.9883 0C93.9961 0.165691 94 0.332387 94 0.5C94 6.29899 89.299 11 83.5 11C77.701 11 73 6.29899 73 0.499999C73 0.332386 73.0039 0.165691 73.0117 0L65.9883 0C65.9961 0.165691 66 0.332387 66 0.5C66 6.29899 61.299 11 55.5 11C49.701 11 45 6.29899 45 0.499999C45 0.332386 45.0039 0.165691 45.0117 0L37.9883 0C37.9961 0.165691 38 0.332387 38 0.5C38 6.29899 33.299 11 27.5 11C21.701 11 17 6.29899 17 0.499999C17 0.332386 17.0039 0.165691 17.0117 0L9.98831 0C9.99607 0.165691 10 0.332387 10 0.5C10 6.13138 5.56682 10.7273 0 10.9883L0 16.0117C5.56682 16.2727 10 20.8686 10 26.5C10 32.1314 5.56682 36.7273 0 36.9883L0 42.0117C5.56682 42.2727 10 46.8686 10 52.5C10 58.1314 5.56682 62.7273 0 62.9883L0 68.0117C5.56682 68.2727 10 72.8686 10 78.5C10 84.1314 5.56682 88.7273 0 88.9883L0 94.0117C5.56682 94.2727 10 98.8686 10 104.5C10 110.131 5.56682 114.727 0 114.988L0 120.012C5.56682 120.273 10 124.869 10 130.5C10 136.131 5.56682 140.727 0 140.988L0 146.012C5.56682 146.273 10 150.869 10 156.5C10 162.131 5.56682 166.727 0 166.988L0 172.012C5.56682 172.273 10 176.869 10 182.5C10 188.131 5.56682 192.727 0 192.988L0 198.012C5.56682 198.273 10 202.869 10 208.5C10 214.131 5.56682 218.727 0 218.988L0 224.012C5.56682 224.273 10 228.869 10 234.5C10 240.131 5.56682 244.727 0 244.988L0 250.012C5.56682 250.273 10 254.869 10 260.5C10 266.131 5.56682 270.727 0 270.988L0 276.012C5.56682 276.273 10 280.869 10 286.5C10 292.131 5.56682 296.727 0 296.988L0 302.012C5.56682 302.273 10 306.869 10 312.5C10 318.131 5.56682 322.727 0 322.988L0 328.012C5.56682 328.273 10 332.869 10 338.5C10 344.131 5.56682 348.727 0 348.988L0 354.012C5.56682 354.273 10 358.869 10 364.5C10 370.131 5.56682 374.727 0 374.988L0 380.012C5.56682 380.273 10 384.869 10 390.5C10 396.131 5.56682 400.727 0 400.988L0 406.012C5.56682 406.273 10 410.869 10 416.5C10 422.131 5.56682 426.727 0 426.988L0 432.012C5.56682 432.273 10 436.869 10 442.5C10 448.131 5.56682 452.727 0 452.988L0 458.012C5.56682 458.273 10 462.869 10 468.5C10 474.131 5.56682 478.727 0 478.988L0 484.012C5.56682 484.273 10 488.869 10 494.5C10 500.131 5.56682 504.727 0 504.988L0 510.012C5.56682 510.273 10 514.869 10 520.5C10 526.131 5.56682 530.727 0 530.988L0 536.012C5.56682 536.273 10 540.869 10 546.5C10 552.131 5.56682 556.727 0 556.988L0 562.012C5.56682 562.273 10 566.869 10 572.5C10 573.362 9.89625 574.199 9.70056 575H17.0117C17.0039 574.834 17 574.668 17 574.5C17 568.701 21.701 564 27.5 564C33.299 564 38 568.701 38 574.5C38 574.668 37.9961 574.834 37.9883 575H45.0117C45.0039 574.834 45 574.668 45 574.5C45 568.701 49.701 564 55.5 564C61.299 564 66 568.701 66 574.5C66 574.668 65.9961 574.834 65.9883 575H73.0117C73.0039 574.834 73 574.668 73 574.5C73 568.701 77.701 564 83.5 564C89.299 564 94 568.701 94 574.5C94 574.668 93.9961 574.834 93.9883 575H101.012C101.004 574.834 101 574.668 101 574.5C101 568.701 105.701 564 111.5 564C117.299 564 122 568.701 122 574.5C122 574.57 121.999 574.639 121.998 574.708C121.997 574.751 121.996 574.793 121.995 574.835L121.992 574.915L121.991 574.929L121.988 575H129.012C129.004 574.834 129 574.668 129 574.5C129 568.701 133.701 564 139.5 564C145.299 564 150 568.701 150 574.5L150 574.544L150 574.586L149.999 574.653C149.998 574.732 149.996 574.811 149.993 574.889C149.992 574.926 149.99 574.963 149.988 575H157.012C157.007 574.901 157.004 574.801 157.002 574.701C157.001 574.634 157 574.567 157 574.5C157 568.701 161.701 564 167.5 564C173.299 564 178 568.701 178 574.5C178 574.668 177.996 574.834 177.988 575H185.012C185.004 574.834 185 574.668 185 574.5C185 568.701 189.701 564 195.5 564C201.299 564 206 568.701 206 574.5C206 574.668 205.996 574.834 205.988 575H213.012C213.004 574.834 213 574.668 213 574.5C213 568.701 217.701 564 223.5 564C229.299 564 234 568.701 234 574.5C234 574.668 233.996 574.834 233.988 575H241.012C241.004 574.834 241 574.668 241 574.5C241 568.701 245.701 564 251.5 564C257.299 564 262 568.701 262 574.5C262 574.668 261.996 574.834 261.988 575H264.299C264.104 574.199 264 573.362 264 572.5C264 566.869 268.433 562.273 274 562.012V556.988C268.433 556.727 264 552.131 264 546.5C264 540.869 268.433 536.273 274 536.012V530.988C268.433 530.727 264 526.131 264 520.5C264 514.869 268.433 510.273 274 510.012V504.988C268.433 504.727 264 500.131 264 494.5C264 488.869 268.433 484.273 274 484.012V478.988C268.433 478.727 264 474.131 264 468.5C264 462.869 268.433 458.273 274 458.012V452.988C268.433 452.727 264 448.131 264 442.5C264 436.869 268.433 432.273 274 432.012V426.988C268.433 426.727 264 422.131 264 416.5C264 410.869 268.433 406.273 274 406.012V400.988C268.433 400.727 264 396.131 264 390.5C264 384.869 268.433 380.273 274 380.012V374.988C268.433 374.727 264 370.131 264 364.5C264 358.869 268.433 354.273 274 354.012V348.988C268.433 348.727 264 344.131 264 338.5C264 332.869 268.433 328.273 274 328.012V322.988C268.433 322.727 264 318.131 264 312.5C264 306.869 268.433 302.273 274 302.012V296.988C268.433 296.727 264 292.131 264 286.5C264 280.869 268.433 276.273 274 276.012V270.988C268.433 270.727 264 266.131 264 260.5C264 254.869 268.433 250.273 274 250.012V244.988C268.433 244.727 264 240.131 264 234.5C264 228.869 268.433 224.273 274 224.012V218.988C268.433 218.727 264 214.131 264 208.5C264 202.869 268.433 198.273 274 198.012V192.988C268.433 192.727 264 188.131 264 182.5C264 176.869 268.433 172.273 274 172.012V166.988C268.433 166.727 264 162.131 264 156.5C264 150.869 268.433 146.273 274 146.012V140.988C268.433 140.727 264 136.131 264 130.5C264 124.869 268.433 120.273 274 120.012V114.988C268.433 114.727 264 110.131 264 104.5C264 98.8686 268.433 94.2727 274 94.0117V88.9883C268.433 88.7273 264 84.1314 264 78.5C264 72.8686 268.433 68.2727 274 68.0117V62.9883C268.433 62.7273 264 58.1314 264 52.5C264 46.8686 268.433 42.2727 274 42.0117V36.9883C268.433 36.7273 264 32.1314 264 26.5C264 20.8686 268.433 16.2727 274 16.0117V9.446C271 7.59762 269 4.28236 269 0.5C269 0.332387 269.004 0.165691 269.012 0L261.988 0C261.996 0.165691 262 0.332387 262 0.5C262 6.29899 257.299 11 251.5 11Z" fill="#FFF5E2"/>
<path d="M251.5 11V12.2V11ZM241.012 0L242.21 0.056188L242.269 -1.2H241.012V0ZM233.988 0V-1.2H232.731L232.79 0.0561879L233.988 0ZM223.5 11V12.2V11ZM213.012 0L214.21 0.056188L214.269 -1.2H213.012V0ZM205.988 0V-1.2H204.731L204.79 0.0561879L205.988 0ZM195.5 11V12.2V11ZM185.012 0L186.21 0.056188L186.269 -1.2H185.012V0ZM177.988 0V-1.2H176.731L176.79 0.0561879L177.988 0ZM167.5 11V12.2V11ZM157.012 0L158.21 0.056188L158.269 -1.2H157.012V0ZM149.988 0V-1.2H148.731L148.79 0.0561879L149.988 0ZM139.5 11V12.2V11ZM129.012 0L130.21 0.056188L130.269 -1.2H129.012V0ZM121.988 0V-1.2H120.731L120.79 0.0561879L121.988 0ZM111.5 11V12.2V11ZM101.012 0L102.21 0.056188L102.269 -1.2H101.012V0ZM93.9883 0V-1.2H92.7307L92.7896 0.0561879L93.9883 0ZM83.5 11V12.2V11ZM73.0117 0L74.2104 0.056188L74.2693 -1.2H73.0117V0ZM65.9883 0V-1.2H64.7307L64.7896 0.0561879L65.9883 0ZM55.5 11V12.2V11ZM45.0117 0L46.2104 0.056188L46.2693 -1.2H45.0117V0ZM37.9883 0V-1.2H36.7307L36.7896 0.0561879L37.9883 0ZM27.5 11V12.2V11ZM17.0117 0L18.2104 0.0562017L18.2693 -1.2H17.0117V0ZM9.98831 0V-1.2H8.73073L8.78962 0.0561948L9.98831 0ZM0 10.9883L-0.0561952 9.78962L-1.2 9.84324V10.9883H0ZM0 16.0117H-1.2V17.1568L-0.0561952 17.2104L0 16.0117ZM0 36.9883L-0.0561957 35.7896L-1.2 35.8432L-1.2 36.9883H0ZM0 42.0117H-1.2V43.1568L-0.0561948 43.2104L0 42.0117ZM0 62.9883L-0.0561957 61.7896L-1.2 61.8432V62.9883H0ZM0 68.0117H-1.2V69.1568L-0.0561956 69.2104L0 68.0117ZM0 88.9883L-0.0561957 87.7896L-1.2 87.8432V88.9883H0ZM0 94.0117H-1.2V95.1568L-0.0561956 95.2104L0 94.0117ZM0 114.988L-0.0561957 113.79L-1.2 113.843V114.988H0ZM0 120.012H-1.2V121.157L-0.0561956 121.21L0 120.012ZM0 140.988L-0.056194 139.79L-1.2 139.843L-1.2 140.988H0ZM0 146.012H-1.2V147.157L-0.056194 147.21L0 146.012ZM0 166.988L-0.056194 165.79L-1.2 165.843V166.988H0ZM0 172.012H-1.2V173.157L-0.056194 173.21L0 172.012ZM0 192.988L-0.056194 191.79L-1.2 191.843V192.988H0ZM0 198.012H-1.2V199.157L-0.056194 199.21L0 198.012ZM0 218.988L-0.056194 217.79L-1.2 217.843V218.988H0ZM0 224.012H-1.2V225.157L-0.056194 225.21L0 224.012ZM0 244.988L-0.056194 243.79L-1.2 243.843L-1.2 244.988H0ZM0 250.012H-1.2V251.157L-0.056194 251.21L0 250.012ZM0 270.988L-0.0561973 269.79L-1.2 269.843V270.988H0ZM0 276.012H-1.2V277.157L-0.0561973 277.21L0 276.012ZM0 296.988L-0.0561973 295.79L-1.2 295.843V296.988H0ZM0 302.012H-1.2V303.157L-0.0561973 303.21L0 302.012ZM0 322.988L-0.0561973 321.79L-1.2 321.843V322.988H0ZM0 328.012H-1.2V329.157L-0.0561973 329.21L0 328.012ZM0 348.988L-0.0561973 347.79L-1.2 347.843L-1.2 348.988H0ZM0 354.012H-1.2V355.157L-0.0561973 355.21L0 354.012ZM0 374.988L-0.0561973 373.79L-1.2 373.843V374.988H0ZM0 380.012H-1.2V381.157L-0.0561973 381.21L0 380.012ZM0 400.988L-0.0561973 399.79L-1.2 399.843V400.988H0ZM0 406.012H-1.2V407.157L-0.0561973 407.21L0 406.012ZM0 426.988L-0.0561973 425.79L-1.2 425.843V426.988H0ZM0 432.012H-1.2V433.157L-0.0561973 433.21L0 432.012ZM0 452.988L-0.0561973 451.79L-1.2 451.843L-1.2 452.988H0ZM0 458.012H-1.2V459.157L-0.0561973 459.21L0 458.012ZM0 478.988L-0.0561973 477.79L-1.2 477.843V478.988H0ZM0 484.012H-1.2V485.157L-0.0561973 485.21L0 484.012ZM0 504.988L-0.0561973 503.79L-1.2 503.843V504.988H0ZM0 510.012H-1.2V511.157L-0.0561973 511.21L0 510.012ZM0 530.988L-0.0561973 529.79L-1.2 529.843V530.988H0ZM0 536.012H-1.2V537.157L-0.0561973 537.21L0 536.012ZM0 556.988L-0.0561973 555.79L-1.2 555.843L-1.2 556.988H0ZM0 562.012H-1.2V563.157L-0.0561973 563.21L0 562.012ZM9.70056 575L8.53482 574.715L8.17218 576.2H9.70056V575ZM17.0117 575L17.0117 576.2H18.2693L18.2104 574.944L17.0117 575ZM37.9883 575L36.7896 574.944L36.7307 576.2H37.9883V575ZM45.0117 575V576.2H46.2693L46.2104 574.944L45.0117 575ZM65.9883 575L64.7896 574.944L64.7307 576.2H65.9883V575ZM73.0117 575V576.2H74.2693L74.2104 574.944L73.0117 575ZM93.9883 575L92.7896 574.944L92.7307 576.2H93.9883V575ZM101.012 575V576.2H102.269L102.21 574.944L101.012 575ZM121.998 574.708L123.198 574.732H123.198L121.998 574.708ZM121.995 574.835L123.194 574.877L123.194 574.872L121.995 574.835ZM121.992 574.915L123.191 574.963L123.191 574.957L121.992 574.915ZM121.991 574.929L123.19 574.981L123.19 574.977L121.991 574.929ZM121.988 575L120.789 574.948L120.735 576.2H121.988V575ZM129.012 575V576.2H130.269L130.21 574.944L129.012 575ZM150 574.5L151.2 574.503V574.5H150ZM150 574.544L151.2 574.552L151.2 574.547L150 574.544ZM150 574.586L151.2 574.6L151.2 574.594L150 574.586ZM149.999 574.653L151.199 574.67L151.199 574.667L149.999 574.653ZM149.993 574.889L148.794 574.846V574.846L149.993 574.889ZM149.988 575L148.79 574.944L148.731 576.2H149.988V575ZM157.012 575V576.2H158.269L158.21 574.944L157.012 575ZM157.002 574.701L158.202 574.679V574.678L157.002 574.701ZM177.988 575L176.79 574.944L176.731 576.2H177.988V575ZM185.012 575V576.2H186.269L186.21 574.944L185.012 575ZM205.988 575L204.79 574.944L204.731 576.2H205.988V575ZM213.012 575V576.2H214.269L214.21 574.944L213.012 575ZM233.988 575L232.79 574.944L232.731 576.2H233.988V575ZM241.012 575V576.2H242.269L242.21 574.944L241.012 575ZM261.988 575L260.79 574.944L260.731 576.2H261.988V575ZM264.299 575V576.2H265.828L265.465 574.715L264.299 575ZM274 562.012L274.056 563.21L275.2 563.157V562.012H274ZM274 556.988H275.2V555.843L274.056 555.79L274 556.988ZM274 536.012L274.056 537.21L275.2 537.157V536.012H274ZM274 530.988H275.2V529.843L274.056 529.79L274 530.988ZM274 510.012L274.056 511.21L275.2 511.157V510.012H274ZM274 504.988H275.2V503.843L274.056 503.79L274 504.988ZM274 484.012L274.056 485.21L275.2 485.157V484.012H274ZM274 478.988H275.2V477.843L274.056 477.79L274 478.988ZM274 458.012L274.056 459.21L275.2 459.157V458.012H274ZM274 452.988H275.2V451.843L274.056 451.79L274 452.988ZM274 432.012L274.056 433.21L275.2 433.157V432.012H274ZM274 426.988H275.2V425.843L274.056 425.79L274 426.988ZM274 406.012L274.056 407.21L275.2 407.157V406.012H274ZM274 400.988H275.2V399.843L274.056 399.79L274 400.988ZM274 380.012L274.056 381.21L275.2 381.157V380.012H274ZM274 374.988H275.2V373.843L274.056 373.79L274 374.988ZM274 354.012L274.056 355.21L275.2 355.157V354.012H274ZM274 348.988H275.2V347.843L274.056 347.79L274 348.988ZM274 328.012L274.056 329.21L275.2 329.157V328.012H274ZM274 322.988H275.2V321.843L274.056 321.79L274 322.988ZM274 302.012L274.056 303.21L275.2 303.157V302.012H274ZM274 296.988H275.2V295.843L274.056 295.79L274 296.988ZM274 276.012L274.056 277.21L275.2 277.157V276.012H274ZM274 270.988H275.2V269.843L274.056 269.79L274 270.988ZM274 250.012L274.056 251.21L275.2 251.157V250.012H274ZM274 244.988H275.2V243.843L274.056 243.79L274 244.988ZM274 224.012L274.056 225.21L275.2 225.157V224.012H274ZM274 218.988H275.2V217.843L274.056 217.79L274 218.988ZM274 198.012L274.056 199.21L275.2 199.157V198.012H274ZM274 192.988H275.2V191.843L274.056 191.79L274 192.988ZM274 172.012L274.056 173.21L275.2 173.157V172.012H274ZM274 166.988H275.2V165.843L274.056 165.79L274 166.988ZM274 146.012L274.056 147.21L275.2 147.157V146.012H274ZM274 140.988H275.2V139.843L274.056 139.79L274 140.988ZM274 120.012L274.056 121.21L275.2 121.157V120.012H274ZM274 114.988H275.2V113.843L274.056 113.79L274 114.988ZM274 94.0117L274.056 95.2104L275.2 95.1568V94.0117H274ZM274 88.9883H275.2V87.8432L274.056 87.7896L274 88.9883ZM274 68.0117L274.056 69.2104L275.2 69.1568V68.0117H274ZM274 62.9883H275.2V61.8432L274.056 61.7896L274 62.9883ZM274 42.0117L274.056 43.2104L275.2 43.1568V42.0117H274ZM274 36.9883H275.2V35.8432L274.056 35.7896L274 36.9883ZM274 16.0117L274.056 17.2104L275.2 17.1568V16.0117H274ZM274 9.446H275.2V8.77586L274.629 8.42434L274 9.446ZM269.012 0L270.21 0.056298L270.269 -1.2H269.012V0ZM261.988 0V-1.2H260.731L260.79 0.056298L261.988 0ZM239.8 0.499999C239.8 6.96173 245.038 12.2 251.5 12.2V9.8C246.364 9.8 242.2 5.63625 242.2 0.499999L239.8 0.499999ZM239.813 -0.056188C239.804 0.128237 239.8 0.313667 239.8 0.499999L242.2 0.499999C242.2 0.351106 242.203 0.203145 242.21 0.056188L239.813 -0.056188ZM233.988 1.2L241.012 1.2V-1.2L233.988 -1.2V1.2ZM235.2 0.5C235.2 0.313667 235.196 0.128237 235.187 -0.0561879L232.79 0.0561879C232.797 0.203145 232.8 0.351107 232.8 0.5L235.2 0.5ZM223.5 12.2C229.962 12.2 235.2 6.96173 235.2 0.5L232.8 0.5C232.8 5.63625 228.636 9.8 223.5 9.8V12.2ZM211.8 0.499999C211.8 6.96173 217.038 12.2 223.5 12.2V9.8C218.364 9.8 214.2 5.63625 214.2 0.499999L211.8 0.499999ZM211.813 -0.056188C211.804 0.128237 211.8 0.313667 211.8 0.499999L214.2 0.499999C214.2 0.351106 214.203 0.203145 214.21 0.056188L211.813 -0.056188ZM205.988 1.2L213.012 1.2V-1.2L205.988 -1.2V1.2ZM207.2 0.5C207.2 0.313667 207.196 0.128237 207.187 -0.0561879L204.79 0.0561879C204.797 0.203145 204.8 0.351107 204.8 0.5L207.2 0.5ZM195.5 12.2C201.962 12.2 207.2 6.96173 207.2 0.5L204.8 0.5C204.8 5.63625 200.636 9.8 195.5 9.8V12.2ZM183.8 0.499999C183.8 6.96173 189.038 12.2 195.5 12.2V9.8C190.364 9.8 186.2 5.63625 186.2 0.499999L183.8 0.499999ZM183.813 -0.056188C183.804 0.128237 183.8 0.313667 183.8 0.499999L186.2 0.499999C186.2 0.351106 186.203 0.203145 186.21 0.056188L183.813 -0.056188ZM177.988 1.2L185.012 1.2V-1.2L177.988 -1.2V1.2ZM179.2 0.5C179.2 0.313667 179.196 0.128237 179.187 -0.0561879L176.79 0.0561879C176.797 0.203145 176.8 0.351107 176.8 0.5L179.2 0.5ZM167.5 12.2C173.962 12.2 179.2 6.96173 179.2 0.5L176.8 0.5C176.8 5.63625 172.636 9.8 167.5 9.8V12.2ZM155.8 0.499999C155.8 6.96173 161.038 12.2 167.5 12.2V9.8C162.364 9.8 158.2 5.63625 158.2 0.499999L155.8 0.499999ZM155.813 -0.056188C155.804 0.128237 155.8 0.313667 155.8 0.499999L158.2 0.499999C158.2 0.351106 158.203 0.203145 158.21 0.056188L155.813 -0.056188ZM149.988 1.2L157.012 1.2V-1.2L149.988 -1.2V1.2ZM151.2 0.5C151.2 0.313667 151.196 0.128237 151.187 -0.0561879L148.79 0.0561879C148.797 0.203145 148.8 0.351107 148.8 0.5L151.2 0.5ZM139.5 12.2C145.962 12.2 151.2 6.96173 151.2 0.5L148.8 0.5C148.8 5.63625 144.636 9.8 139.5 9.8V12.2ZM127.8 0.499999C127.8 6.96173 133.038 12.2 139.5 12.2V9.8C134.364 9.8 130.2 5.63625 130.2 0.499999L127.8 0.499999ZM127.813 -0.056188C127.804 0.128237 127.8 0.313667 127.8 0.499999L130.2 0.499999C130.2 0.351106 130.203 0.203145 130.21 0.056188L127.813 -0.056188ZM121.988 1.2L129.012 1.2V-1.2L121.988 -1.2V1.2ZM123.2 0.5C123.2 0.313631 123.196 0.128201 123.187 -0.0561879L120.79 0.0561879C120.797 0.203182 120.8 0.351143 120.8 0.5L123.2 0.5ZM111.5 12.2C117.962 12.2 123.2 6.96173 123.2 0.5L120.8 0.5C120.8 5.63625 116.636 9.8 111.5 9.8V12.2ZM99.8 0.499999C99.8 6.96173 105.038 12.2 111.5 12.2V9.8C106.364 9.8 102.2 5.63625 102.2 0.499999L99.8 0.499999ZM99.813 -0.056188C99.8044 0.1282 99.8 0.31363 99.8 0.499999L102.2 0.499999C102.2 0.351143 102.203 0.203182 102.21 0.056188L99.813 -0.056188ZM93.9883 1.2L101.012 1.2V-1.2L93.9883 -1.2V1.2ZM95.2 0.5C95.2 0.313631 95.1956 0.128201 95.187 -0.0561879L92.7896 0.0561879C92.7965 0.203182 92.8 0.351143 92.8 0.5L95.2 0.5ZM83.5 12.2C89.9617 12.2 95.2 6.96173 95.2 0.5L92.8 0.5C92.8 5.63625 88.6362 9.8 83.5 9.8V12.2ZM71.8 0.499999C71.8 6.96173 77.0383 12.2 83.5 12.2V9.8C78.3638 9.8 74.2 5.63625 74.2 0.499999L71.8 0.499999ZM71.813 -0.056188C71.8044 0.1282 71.8 0.31363 71.8 0.499999L74.2 0.499999C74.2 0.351143 74.2035 0.203182 74.2104 0.056188L71.813 -0.056188ZM65.9883 1.2L73.0117 1.2V-1.2L65.9883 -1.2V1.2ZM67.2 0.5C67.2 0.313631 67.1956 0.128201 67.187 -0.0561879L64.7896 0.0561879C64.7965 0.203182 64.8 0.351143 64.8 0.5L67.2 0.5ZM55.5 12.2C61.9617 12.2 67.2 6.96173 67.2 0.5L64.8 0.5C64.8 5.63625 60.6362 9.8 55.5 9.8V12.2ZM43.8 0.499999C43.8 6.96173 49.0383 12.2 55.5 12.2V9.8C50.3638 9.8 46.2 5.63625 46.2 0.499999L43.8 0.499999ZM43.813 -0.056188C43.8044 0.1282 43.8 0.31363 43.8 0.499999L46.2 0.499999C46.2 0.351143 46.2035 0.203182 46.2104 0.056188L43.813 -0.056188ZM37.9883 1.2L45.0117 1.2V-1.2L37.9883 -1.2V1.2ZM39.2 0.5C39.2 0.313631 39.1956 0.128201 39.187 -0.0561879L36.7896 0.0561879C36.7965 0.203182 36.8 0.351143 36.8 0.5L39.2 0.5ZM27.5 12.2C33.9617 12.2 39.2 6.96173 39.2 0.5L36.8 0.5C36.8 5.63625 32.6362 9.8 27.5 9.8V12.2ZM15.8 0.499999C15.8 6.96173 21.0383 12.2 27.5 12.2V9.8C22.3638 9.8 18.2 5.63625 18.2 0.499999L15.8 0.499999ZM15.813 -0.0562017C15.8044 0.128205 15.8 0.313639 15.8 0.499999L18.2 0.499999C18.2 0.351134 18.2035 0.203177 18.2104 0.0562017L15.813 -0.0562017ZM9.98831 1.2L17.0117 1.2V-1.2L9.98831 -1.2V1.2ZM11.2 0.5C11.2 0.31364 11.1956 0.128208 11.187 -0.0561948L8.78962 0.0561948C8.79651 0.203175 8.8 0.351134 8.8 0.5L11.2 0.5ZM0.0561952 12.187C6.26017 11.8961 11.2 6.7753 11.2 0.5L8.8 0.5C8.8 5.48746 4.87346 9.55852 -0.0561952 9.78962L0.0561952 12.187ZM1.2 16.0117L1.2 10.9883H-1.2L-1.2 16.0117H1.2ZM11.2 26.5C11.2 20.2247 6.26017 15.1039 0.0561952 14.813L-0.0561952 17.2104C4.87346 17.4415 8.8 21.5125 8.8 26.5H11.2ZM0.0561957 38.187C6.26017 37.8961 11.2 32.7753 11.2 26.5H8.8C8.8 31.4875 4.87346 35.5585 -0.0561957 35.7896L0.0561957 38.187ZM1.2 42.0117V36.9883H-1.2V42.0117H1.2ZM11.2 52.5C11.2 46.2247 6.26017 41.1039 0.0561948 40.813L-0.0561948 43.2104C4.87346 43.4415 8.8 47.5125 8.8 52.5H11.2ZM0.0561957 64.187C6.26017 63.8961 11.2 58.7753 11.2 52.5H8.8C8.8 57.4875 4.87346 61.5585 -0.0561957 61.7896L0.0561957 64.187ZM1.2 68.0117L1.2 62.9883H-1.2L-1.2 68.0117H1.2ZM11.2 78.5C11.2 72.2247 6.26017 67.1039 0.0561956 66.813L-0.0561956 69.2104C4.87346 69.4415 8.8 73.5125 8.8 78.5H11.2ZM0.0561957 90.187C6.26017 89.8961 11.2 84.7753 11.2 78.5H8.8C8.8 83.4875 4.87346 87.5585 -0.0561957 87.7896L0.0561957 90.187ZM1.2 94.0117L1.2 88.9883H-1.2L-1.2 94.0117H1.2ZM11.2 104.5C11.2 98.2247 6.26017 93.1039 0.0561956 92.813L-0.0561956 95.2104C4.87346 95.4415 8.8 99.5125 8.8 104.5H11.2ZM0.0561957 116.187C6.26017 115.896 11.2 110.775 11.2 104.5H8.8C8.8 109.487 4.87346 113.559 -0.0561957 113.79L0.0561957 116.187ZM1.2 120.012L1.2 114.988H-1.2L-1.2 120.012H1.2ZM11.2 130.5C11.2 124.225 6.26017 119.104 0.0561956 118.813L-0.0561956 121.21C4.87346 121.441 8.8 125.513 8.8 130.5H11.2ZM0.056194 142.187C6.26018 141.896 11.2 136.775 11.2 130.5H8.8C8.8 135.487 4.87346 139.559 -0.056194 139.79L0.056194 142.187ZM1.2 146.012V140.988H-1.2V146.012H1.2ZM11.2 156.5C11.2 150.225 6.26018 145.104 0.056194 144.813L-0.056194 147.21C4.87346 147.441 8.8 151.513 8.8 156.5H11.2ZM0.056194 168.187C6.26018 167.896 11.2 162.775 11.2 156.5H8.8C8.8 161.487 4.87346 165.559 -0.056194 165.79L0.056194 168.187ZM1.2 172.012L1.2 166.988H-1.2L-1.2 172.012H1.2ZM11.2 182.5C11.2 176.225 6.26018 171.104 0.056194 170.813L-0.056194 173.21C4.87346 173.441 8.8 177.513 8.8 182.5H11.2ZM0.056194 194.187C6.26018 193.896 11.2 188.775 11.2 182.5H8.8C8.8 187.487 4.87346 191.559 -0.056194 191.79L0.056194 194.187ZM1.2 198.012L1.2 192.988H-1.2L-1.2 198.012H1.2ZM11.2 208.5C11.2 202.225 6.26018 197.104 0.056194 196.813L-0.056194 199.21C4.87346 199.441 8.8 203.513 8.8 208.5H11.2ZM0.056194 220.187C6.26018 219.896 11.2 214.775 11.2 208.5H8.8C8.8 213.487 4.87346 217.559 -0.056194 217.79L0.056194 220.187ZM1.2 224.012L1.2 218.988H-1.2L-1.2 224.012H1.2ZM11.2 234.5C11.2 228.225 6.26018 223.104 0.056194 222.813L-0.056194 225.21C4.87346 225.441 8.8 229.513 8.8 234.5H11.2ZM0.056194 246.187C6.26018 245.896 11.2 240.775 11.2 234.5H8.8C8.8 239.487 4.87346 243.559 -0.056194 243.79L0.056194 246.187ZM1.2 250.012V244.988H-1.2V250.012H1.2ZM11.2 260.5C11.2 254.225 6.26018 249.104 0.056194 248.813L-0.056194 251.21C4.87346 251.441 8.8 255.513 8.8 260.5H11.2ZM0.0561973 272.187C6.26017 271.896 11.2 266.775 11.2 260.5H8.8C8.8 265.487 4.87346 269.559 -0.0561973 269.79L0.0561973 272.187ZM1.2 276.012L1.2 270.988H-1.2L-1.2 276.012H1.2ZM11.2 286.5C11.2 280.225 6.26017 275.104 0.0561973 274.813L-0.0561973 277.21C4.87346 277.441 8.8 281.513 8.8 286.5H11.2ZM0.0561973 298.187C6.26017 297.896 11.2 292.775 11.2 286.5H8.8C8.8 291.487 4.87346 295.559 -0.0561973 295.79L0.0561973 298.187ZM1.2 302.012L1.2 296.988H-1.2L-1.2 302.012H1.2ZM11.2 312.5C11.2 306.225 6.26017 301.104 0.0561973 300.813L-0.0561973 303.21C4.87346 303.441 8.8 307.513 8.8 312.5H11.2ZM0.0561973 324.187C6.26017 323.896 11.2 318.775 11.2 312.5H8.8C8.8 317.487 4.87346 321.559 -0.0561973 321.79L0.0561973 324.187ZM1.2 328.012L1.2 322.988H-1.2L-1.2 328.012H1.2ZM11.2 338.5C11.2 332.225 6.26017 327.104 0.0561973 326.813L-0.0561973 329.21C4.87346 329.441 8.8 333.513 8.8 338.5H11.2ZM0.0561973 350.187C6.26017 349.896 11.2 344.775 11.2 338.5H8.8C8.8 343.487 4.87346 347.559 -0.0561973 347.79L0.0561973 350.187ZM1.2 354.012V348.988H-1.2V354.012H1.2ZM11.2 364.5C11.2 358.225 6.26017 353.104 0.0561973 352.813L-0.0561973 355.21C4.87346 355.441 8.8 359.513 8.8 364.5H11.2ZM0.0561973 376.187C6.26017 375.896 11.2 370.775 11.2 364.5H8.8C8.8 369.487 4.87346 373.559 -0.0561973 373.79L0.0561973 376.187ZM1.2 380.012L1.2 374.988H-1.2L-1.2 380.012H1.2ZM11.2 390.5C11.2 384.225 6.26017 379.104 0.0561973 378.813L-0.0561973 381.21C4.87346 381.441 8.8 385.513 8.8 390.5H11.2ZM0.0561973 402.187C6.26017 401.896 11.2 396.775 11.2 390.5H8.8C8.8 395.487 4.87346 399.559 -0.0561973 399.79L0.0561973 402.187ZM1.2 406.012L1.2 400.988H-1.2L-1.2 406.012H1.2ZM11.2 416.5C11.2 410.225 6.26017 405.104 0.0561973 404.813L-0.0561973 407.21C4.87346 407.441 8.8 411.513 8.8 416.5H11.2ZM0.0561973 428.187C6.26017 427.896 11.2 422.775 11.2 416.5H8.8C8.8 421.487 4.87346 425.559 -0.0561973 425.79L0.0561973 428.187ZM1.2 432.012L1.2 426.988H-1.2L-1.2 432.012H1.2ZM11.2 442.5C11.2 436.225 6.26017 431.104 0.0561973 430.813L-0.0561973 433.21C4.87346 433.441 8.8 437.513 8.8 442.5H11.2ZM0.0561973 454.187C6.26017 453.896 11.2 448.775 11.2 442.5H8.8C8.8 447.487 4.87346 451.559 -0.0561973 451.79L0.0561973 454.187ZM1.2 458.012V452.988H-1.2V458.012H1.2ZM11.2 468.5C11.2 462.225 6.26017 457.104 0.0561973 456.813L-0.0561973 459.21C4.87346 459.441 8.8 463.513 8.8 468.5H11.2ZM0.0561973 480.187C6.26017 479.896 11.2 474.775 11.2 468.5H8.8C8.8 473.487 4.87346 477.559 -0.0561973 477.79L0.0561973 480.187ZM1.2 484.012L1.2 478.988H-1.2L-1.2 484.012H1.2ZM11.2 494.5C11.2 488.225 6.26017 483.104 0.0561973 482.813L-0.0561973 485.21C4.87346 485.441 8.8 489.513 8.8 494.5H11.2ZM0.0561973 506.187C6.26017 505.896 11.2 500.775 11.2 494.5H8.8C8.8 499.487 4.87346 503.559 -0.0561973 503.79L0.0561973 506.187ZM1.2 510.012L1.2 504.988H-1.2L-1.2 510.012H1.2ZM11.2 520.5C11.2 514.225 6.26017 509.104 0.0561973 508.813L-0.0561973 511.21C4.87346 511.441 8.8 515.513 8.8 520.5H11.2ZM0.0561973 532.187C6.26017 531.896 11.2 526.775 11.2 520.5H8.8C8.8 525.487 4.87347 529.558 -0.0561973 529.79L0.0561973 532.187ZM1.2 536.012L1.2 530.988H-1.2L-1.2 536.012H1.2ZM11.2 546.5C11.2 540.225 6.26017 535.104 0.0561973 534.813L-0.0561973 537.21C4.87347 537.442 8.8 541.513 8.8 546.5H11.2ZM0.0561973 558.187C6.26017 557.896 11.2 552.775 11.2 546.5H8.8C8.8 551.487 4.87347 555.558 -0.0561973 555.79L0.0561973 558.187ZM1.2 562.012V556.988H-1.2V562.012H1.2ZM11.2 572.5C11.2 566.225 6.26017 561.104 0.0561973 560.813L-0.0561973 563.21C4.87347 563.442 8.8 567.513 8.8 572.5H11.2ZM10.8663 575.285C11.0846 574.391 11.2 573.458 11.2 572.5H8.8C8.8 573.265 8.70793 574.007 8.53482 574.715L10.8663 575.285ZM17.0117 573.8H9.70056V576.2H17.0117L17.0117 573.8ZM15.8 574.5C15.8 574.686 15.8044 574.872 15.813 575.056L18.2104 574.944C18.2035 574.797 18.2 574.649 18.2 574.5H15.8ZM27.5 562.8C21.0383 562.8 15.8 568.038 15.8 574.5H18.2C18.2 569.364 22.3638 565.2 27.5 565.2V562.8ZM39.2 574.5C39.2 568.038 33.9617 562.8 27.5 562.8V565.2C32.6362 565.2 36.8 569.364 36.8 574.5H39.2ZM39.187 575.056C39.1956 574.872 39.2 574.686 39.2 574.5H36.8C36.8 574.649 36.7965 574.797 36.7896 574.944L39.187 575.056ZM45.0117 573.8H37.9883V576.2H45.0117V573.8ZM43.8 574.5C43.8 574.686 43.8044 574.872 43.813 575.056L46.2104 574.944C46.2035 574.797 46.2 574.649 46.2 574.5H43.8ZM55.5 562.8C49.0383 562.8 43.8 568.038 43.8 574.5H46.2C46.2 569.364 50.3638 565.2 55.5 565.2V562.8ZM67.2 574.5C67.2 568.038 61.9617 562.8 55.5 562.8V565.2C60.6362 565.2 64.8 569.364 64.8 574.5H67.2ZM67.187 575.056C67.1956 574.872 67.2 574.686 67.2 574.5H64.8C64.8 574.649 64.7965 574.797 64.7896 574.944L67.187 575.056ZM73.0117 573.8H65.9883V576.2H73.0117V573.8ZM71.8 574.5C71.8 574.686 71.8044 574.872 71.813 575.056L74.2104 574.944C74.2035 574.797 74.2 574.649 74.2 574.5H71.8ZM83.5 562.8C77.0383 562.8 71.8 568.038 71.8 574.5H74.2C74.2 569.364 78.3638 565.2 83.5 565.2V562.8ZM95.2 574.5C95.2 568.038 89.9617 562.8 83.5 562.8V565.2C88.6362 565.2 92.8 569.364 92.8 574.5H95.2ZM95.187 575.056C95.1956 574.872 95.2 574.686 95.2 574.5H92.8C92.8 574.649 92.7965 574.797 92.7896 574.944L95.187 575.056ZM101.012 573.8H93.9883V576.2H101.012V573.8ZM99.8 574.5C99.8 574.686 99.8044 574.872 99.813 575.056L102.21 574.944C102.203 574.797 102.2 574.649 102.2 574.5H99.8ZM111.5 562.8C105.038 562.8 99.8 568.038 99.8 574.5H102.2C102.2 569.364 106.364 565.2 111.5 565.2V562.8ZM123.2 574.5C123.2 568.038 117.962 562.8 111.5 562.8V565.2C116.636 565.2 120.8 569.364 120.8 574.5H123.2ZM123.198 574.732C123.199 574.655 123.2 574.577 123.2 574.5H120.8C120.8 574.562 120.799 574.623 120.798 574.685L123.198 574.732ZM123.194 574.872C123.196 574.826 123.197 574.779 123.198 574.732L120.798 574.685C120.797 574.722 120.797 574.76 120.795 574.797L123.194 574.872ZM123.191 574.957L123.194 574.877L120.795 574.793L120.793 574.873L123.191 574.957ZM123.19 574.977L123.191 574.963L120.793 574.867L120.792 574.881L123.19 574.977ZM123.187 575.052L123.19 574.981L120.793 574.877L120.789 574.948L123.187 575.052ZM129.012 573.8H121.988V576.2H129.012V573.8ZM127.8 574.5C127.8 574.686 127.804 574.872 127.813 575.056L130.21 574.944C130.203 574.797 130.2 574.649 130.2 574.5H127.8ZM139.5 562.8C133.038 562.8 127.8 568.038 127.8 574.5H130.2C130.2 569.364 134.364 565.2 139.5 565.2V562.8ZM151.2 574.5C151.2 568.038 145.962 562.8 139.5 562.8V565.2C144.636 565.2 148.8 569.364 148.8 574.5H151.2ZM151.2 574.547L151.2 574.503L148.8 574.497L148.8 574.542L151.2 574.547ZM151.2 574.594L151.2 574.552L148.8 574.537L148.8 574.579L151.2 574.594ZM151.199 574.667L151.2 574.6L148.8 574.573L148.799 574.64L151.199 574.667ZM151.192 574.933C151.195 574.846 151.198 574.758 151.199 574.67L148.799 574.636C148.798 574.706 148.796 574.776 148.794 574.846L151.192 574.933ZM151.187 575.056C151.189 575.015 151.191 574.974 151.192 574.933L148.794 574.846C148.793 574.878 148.791 574.911 148.79 574.944L151.187 575.056ZM157.012 573.8H149.988V576.2H157.012V573.8ZM155.802 574.724C155.804 574.835 155.808 574.946 155.813 575.056L158.21 574.944C158.206 574.856 158.203 574.767 158.202 574.679L155.802 574.724ZM155.8 574.5C155.8 574.575 155.801 574.649 155.802 574.724L158.202 574.678C158.201 574.619 158.2 574.56 158.2 574.5H155.8ZM167.5 562.8C161.038 562.8 155.8 568.038 155.8 574.5H158.2C158.2 569.364 162.364 565.2 167.5 565.2V562.8ZM179.2 574.5C179.2 568.038 173.962 562.8 167.5 562.8V565.2C172.636 565.2 176.8 569.364 176.8 574.5H179.2ZM179.187 575.056C179.196 574.872 179.2 574.686 179.2 574.5H176.8C176.8 574.649 176.797 574.797 176.79 574.944L179.187 575.056ZM185.012 573.8H177.988V576.2H185.012V573.8ZM183.8 574.5C183.8 574.686 183.804 574.872 183.813 575.056L186.21 574.944C186.203 574.797 186.2 574.649 186.2 574.5H183.8ZM195.5 562.8C189.038 562.8 183.8 568.038 183.8 574.5H186.2C186.2 569.364 190.364 565.2 195.5 565.2V562.8ZM207.2 574.5C207.2 568.038 201.962 562.8 195.5 562.8V565.2C200.636 565.2 204.8 569.364 204.8 574.5H207.2ZM207.187 575.056C207.196 574.872 207.2 574.686 207.2 574.5H204.8C204.8 574.649 204.797 574.797 204.79 574.944L207.187 575.056ZM213.012 573.8H205.988V576.2H213.012V573.8ZM211.8 574.5C211.8 574.686 211.804 574.872 211.813 575.056L214.21 574.944C214.203 574.797 214.2 574.649 214.2 574.5H211.8ZM223.5 562.8C217.038 562.8 211.8 568.038 211.8 574.5H214.2C214.2 569.364 218.364 565.2 223.5 565.2V562.8ZM235.2 574.5C235.2 568.038 229.962 562.8 223.5 562.8V565.2C228.636 565.2 232.8 569.364 232.8 574.5H235.2ZM235.187 575.056C235.196 574.872 235.2 574.686 235.2 574.5H232.8C232.8 574.649 232.797 574.797 232.79 574.944L235.187 575.056ZM241.012 573.8H233.988V576.2H241.012V573.8ZM242.21 574.944C242.203 574.797 242.2 574.649 242.2 574.5H239.8C239.8 574.686 239.804 574.872 239.813 575.056L242.21 574.944ZM242.2 574.5C242.2 569.364 246.364 565.2 251.5 565.2V562.8C245.038 562.8 239.8 568.038 239.8 574.5H242.2ZM251.5 565.2C256.636 565.2 260.8 569.364 260.8 574.5H263.2C263.2 568.038 257.962 562.8 251.5 562.8V565.2ZM260.8 574.5C260.8 574.649 260.797 574.797 260.79 574.944L263.187 575.056C263.196 574.872 263.2 574.686 263.2 574.5H260.8ZM264.299 573.8H261.988V576.2H264.299V573.8ZM262.8 572.5C262.8 573.458 262.915 574.391 263.134 575.285L265.465 574.715C265.292 574.007 265.2 573.265 265.2 572.5H262.8ZM273.944 560.813C267.74 561.104 262.8 566.225 262.8 572.5H265.2C265.2 567.513 269.127 563.442 274.056 563.21L273.944 560.813ZM272.8 556.988V562.012H275.2V556.988H272.8ZM262.8 546.5C262.8 552.775 267.74 557.896 273.944 558.187L274.056 555.79C269.127 555.558 265.2 551.487 265.2 546.5H262.8ZM273.944 534.813C267.74 535.104 262.8 540.225 262.8 546.5H265.2C265.2 541.513 269.127 537.442 274.056 537.21L273.944 534.813ZM272.8 530.988V536.012H275.2V530.988H272.8ZM262.8 520.5C262.8 526.775 267.74 531.896 273.944 532.187L274.056 529.79C269.127 529.558 265.2 525.487 265.2 520.5H262.8ZM273.944 508.813C267.74 509.104 262.8 514.225 262.8 520.5H265.2C265.2 515.513 269.127 511.441 274.056 511.21L273.944 508.813ZM272.8 504.988V510.012H275.2V504.988H272.8ZM262.8 494.5C262.8 500.775 267.74 505.896 273.944 506.187L274.056 503.79C269.127 503.559 265.2 499.487 265.2 494.5H262.8ZM273.944 482.813C267.74 483.104 262.8 488.225 262.8 494.5H265.2C265.2 489.513 269.127 485.441 274.056 485.21L273.944 482.813ZM272.8 478.988V484.012H275.2V478.988H272.8ZM262.8 468.5C262.8 474.775 267.74 479.896 273.944 480.187L274.056 477.79C269.127 477.559 265.2 473.487 265.2 468.5H262.8ZM273.944 456.813C267.74 457.104 262.8 462.225 262.8 468.5H265.2C265.2 463.513 269.127 459.441 274.056 459.21L273.944 456.813ZM272.8 452.988V458.012H275.2V452.988H272.8ZM262.8 442.5C262.8 448.775 267.74 453.896 273.944 454.187L274.056 451.79C269.127 451.559 265.2 447.487 265.2 442.5H262.8ZM273.944 430.813C267.74 431.104 262.8 436.225 262.8 442.5H265.2C265.2 437.513 269.127 433.441 274.056 433.21L273.944 430.813ZM272.8 426.988V432.012H275.2V426.988H272.8ZM262.8 416.5C262.8 422.775 267.74 427.896 273.944 428.187L274.056 425.79C269.127 425.559 265.2 421.487 265.2 416.5H262.8ZM273.944 404.813C267.74 405.104 262.8 410.225 262.8 416.5H265.2C265.2 411.513 269.127 407.441 274.056 407.21L273.944 404.813ZM272.8 400.988V406.012H275.2V400.988H272.8ZM262.8 390.5C262.8 396.775 267.74 401.896 273.944 402.187L274.056 399.79C269.127 399.559 265.2 395.487 265.2 390.5H262.8ZM273.944 378.813C267.74 379.104 262.8 384.225 262.8 390.5H265.2C265.2 385.513 269.127 381.441 274.056 381.21L273.944 378.813ZM272.8 374.988V380.012H275.2V374.988H272.8ZM262.8 364.5C262.8 370.775 267.74 375.896 273.944 376.187L274.056 373.79C269.127 373.559 265.2 369.487 265.2 364.5H262.8ZM273.944 352.813C267.74 353.104 262.8 358.225 262.8 364.5H265.2C265.2 359.513 269.127 355.441 274.056 355.21L273.944 352.813ZM272.8 348.988V354.012H275.2V348.988H272.8ZM262.8 338.5C262.8 344.775 267.74 349.896 273.944 350.187L274.056 347.79C269.127 347.559 265.2 343.487 265.2 338.5H262.8ZM273.944 326.813C267.74 327.104 262.8 332.225 262.8 338.5H265.2C265.2 333.513 269.127 329.441 274.056 329.21L273.944 326.813ZM272.8 322.988V328.012H275.2V322.988H272.8ZM262.8 312.5C262.8 318.775 267.74 323.896 273.944 324.187L274.056 321.79C269.127 321.559 265.2 317.487 265.2 312.5H262.8ZM273.944 300.813C267.74 301.104 262.8 306.225 262.8 312.5H265.2C265.2 307.513 269.127 303.441 274.056 303.21L273.944 300.813ZM272.8 296.988V302.012H275.2V296.988H272.8ZM262.8 286.5C262.8 292.775 267.74 297.896 273.944 298.187L274.056 295.79C269.127 295.559 265.2 291.487 265.2 286.5H262.8ZM273.944 274.813C267.74 275.104 262.8 280.225 262.8 286.5H265.2C265.2 281.513 269.127 277.441 274.056 277.21L273.944 274.813ZM272.8 270.988V276.012H275.2V270.988H272.8ZM262.8 260.5C262.8 266.775 267.74 271.896 273.944 272.187L274.056 269.79C269.127 269.559 265.2 265.487 265.2 260.5H262.8ZM273.944 248.813C267.74 249.104 262.8 254.225 262.8 260.5H265.2C265.2 255.513 269.127 251.441 274.056 251.21L273.944 248.813ZM272.8 244.988V250.012H275.2V244.988H272.8ZM262.8 234.5C262.8 240.775 267.74 245.896 273.944 246.187L274.056 243.79C269.127 243.559 265.2 239.487 265.2 234.5H262.8ZM273.944 222.813C267.74 223.104 262.8 228.225 262.8 234.5H265.2C265.2 229.513 269.127 225.441 274.056 225.21L273.944 222.813ZM272.8 218.988V224.012H275.2V218.988H272.8ZM262.8 208.5C262.8 214.775 267.74 219.896 273.944 220.187L274.056 217.79C269.127 217.559 265.2 213.487 265.2 208.5H262.8ZM273.944 196.813C267.74 197.104 262.8 202.225 262.8 208.5H265.2C265.2 203.513 269.127 199.441 274.056 199.21L273.944 196.813ZM272.8 192.988V198.012H275.2V192.988H272.8ZM262.8 182.5C262.8 188.775 267.74 193.896 273.944 194.187L274.056 191.79C269.127 191.559 265.2 187.487 265.2 182.5H262.8ZM273.944 170.813C267.74 171.104 262.8 176.225 262.8 182.5H265.2C265.2 177.513 269.127 173.441 274.056 173.21L273.944 170.813ZM272.8 166.988V172.012H275.2V166.988H272.8ZM262.8 156.5C262.8 162.775 267.74 167.896 273.944 168.187L274.056 165.79C269.127 165.559 265.2 161.487 265.2 156.5H262.8ZM273.944 144.813C267.74 145.104 262.8 150.225 262.8 156.5H265.2C265.2 151.513 269.127 147.441 274.056 147.21L273.944 144.813ZM272.8 140.988V146.012H275.2V140.988H272.8ZM262.8 130.5C262.8 136.775 267.74 141.896 273.944 142.187L274.056 139.79C269.127 139.559 265.2 135.487 265.2 130.5H262.8ZM273.944 118.813C267.74 119.104 262.8 124.225 262.8 130.5H265.2C265.2 125.513 269.127 121.441 274.056 121.21L273.944 118.813ZM272.8 114.988V120.012H275.2V114.988H272.8ZM262.8 104.5C262.8 110.775 267.74 115.896 273.944 116.187L274.056 113.79C269.127 113.559 265.2 109.487 265.2 104.5H262.8ZM273.944 92.813C267.74 93.1039 262.8 98.2247 262.8 104.5H265.2C265.2 99.5125 269.127 95.4415 274.056 95.2104L273.944 92.813ZM272.8 88.9883V94.0117H275.2V88.9883H272.8ZM262.8 78.5C262.8 84.7753 267.74 89.8961 273.944 90.187L274.056 87.7896C269.127 87.5585 265.2 83.4875 265.2 78.5H262.8ZM273.944 66.813C267.74 67.1039 262.8 72.2247 262.8 78.5H265.2C265.2 73.5125 269.127 69.4415 274.056 69.2104L273.944 66.813ZM272.8 62.9883V68.0117H275.2V62.9883H272.8ZM262.8 52.5C262.8 58.7753 267.74 63.8961 273.944 64.187L274.056 61.7896C269.127 61.5585 265.2 57.4875 265.2 52.5H262.8ZM273.944 40.813C267.74 41.1039 262.8 46.2247 262.8 52.5H265.2C265.2 47.5125 269.127 43.4415 274.056 43.2104L273.944 40.813ZM272.8 36.9883V42.0117H275.2V36.9883H272.8ZM262.8 26.5C262.8 32.7753 267.74 37.8961 273.944 38.187L274.056 35.7896C269.127 35.5585 265.2 31.4875 265.2 26.5H262.8ZM273.944 14.813C267.74 15.1039 262.8 20.2247 262.8 26.5H265.2C265.2 21.5125 269.127 17.4415 274.056 17.2104L273.944 14.813ZM272.8 9.446V16.0117H275.2V9.446H272.8ZM267.8 0.5C267.8 4.71601 270.031 8.40996 273.371 10.4677L274.629 8.42434C271.969 6.78528 270.2 3.84872 270.2 0.5L267.8 0.5ZM267.813 -0.056298C267.804 0.128274 267.8 0.313741 267.8 0.5L270.2 0.5C270.2 0.351033 270.203 0.203109 270.21 0.056298L267.813 -0.056298ZM261.988 1.2L269.012 1.2V-1.2L261.988 -1.2V1.2ZM263.2 0.5C263.2 0.313741 263.196 0.128274 263.187 -0.056298L260.79 0.056298C260.797 0.203109 260.8 0.351033 260.8 0.5L263.2 0.5ZM251.5 12.2C257.962 12.2 263.2 6.96173 263.2 0.5L260.8 0.5C260.8 5.63625 256.636 9.8 251.5 9.8V12.2Z" fill="#B4751D" mask="url(#path-1-inside-1_359_1207)"/>
</svg>
