<svg width="328" height="717" viewBox="0 0 328 717" fill="none" xmlns="http://www.w3.org/2000/svg">
<mask id="path-1-inside-1_359_1516" fill="white">
<path fill-rule="evenodd" clip-rule="evenodd" d="M274.5 11C268.701 11 264 6.29899 264 0.499997C264 0.332385 264.004 0.16569 264.012 0L256.988 0C256.996 0.165691 257 0.332386 257 0.499998C257 6.29899 252.299 11 246.5 11C240.701 11 236 6.29899 236 0.499997C236 0.332385 236.004 0.16569 236.012 0L228.988 0C228.996 0.165691 229 0.332386 229 0.499998C229 6.29899 224.299 11 218.5 11C212.701 11 208 6.29899 208 0.499997C208 0.332385 208.004 0.16569 208.012 0L200.988 0C200.996 0.165691 201 0.332386 201 0.499998C201 6.29899 196.299 11 190.5 11C184.701 11 180 6.29899 180 0.499997C180 0.332385 180.004 0.16569 180.012 0L172.988 0C172.996 0.165691 173 0.332386 173 0.499998C173 6.29899 168.299 11 162.5 11C156.701 11 152 6.29899 152 0.499997C152 0.332385 152.004 0.16569 152.012 0L144.988 0C144.996 0.165691 145 0.332386 145 0.499998C145 6.29899 140.299 11 134.5 11C128.701 11 124 6.29899 124 0.499997C124 0.332385 124.004 0.16569 124.012 0L116.988 0C116.996 0.165691 117 0.332386 117 0.499998C117 6.29899 112.299 11 106.5 11C100.701 11 96 6.29899 96 0.499997C96 0.332385 96.0039 0.16569 96.0117 0L88.9883 0C88.9961 0.165691 89 0.332386 89 0.499998C89 6.29899 84.299 11 78.5 11C72.701 11 68 6.29899 68 0.499997C68 0.332385 68.0039 0.16569 68.0117 0L62.9883 0C62.9961 0.165691 63 0.332386 63 0.499998C63 6.29899 58.299 11 52.5 11C46.701 11 42 6.29899 42 0.499997C42 0.332385 42.0039 0.16569 42.0117 0L36.9883 0C36.9961 0.165691 37 0.332386 37 0.499998C37 6.29899 32.299 11 26.5 11C20.701 11 16 6.29899 16 0.499997C16 0.332385 16.0039 0.16569 16.0117 0L10.9883 0C10.9961 0.165691 11 0.332386 11 0.499998C11 6.29899 6.29898 11 0.499989 11C0.332379 11 0.165688 10.9961 0 10.9883L0 15.0117C5.56681 15.2727 9.99999 19.8686 9.99999 25.5C9.99999 31.1314 5.56681 35.7273 0 35.9883L0 43.0111C5.56681 43.2597 9.99999 47.6368 9.99999 53C9.99999 58.3632 5.56681 62.7403 0 62.9889L0 70.0117C5.56681 70.2727 9.99999 74.8686 9.99999 80.5C9.99999 86.1314 5.56681 90.7273 0 90.9883L0 98.0117C5.56681 98.2727 9.99999 102.869 9.99999 108.5C9.99999 114.131 5.56681 118.727 0 118.988L0 125.012C5.56681 125.273 9.99999 129.869 9.99999 135.5C9.99999 141.131 5.56681 145.727 0 145.988L0 153.012C5.56681 153.273 9.99999 157.869 9.99999 163.5C9.99999 169.131 5.56681 173.727 0 173.988L0 181.011C5.56681 181.26 9.99999 185.637 9.99999 191C9.99999 196.363 5.56681 200.74 0 200.989L0 208.012C5.56681 208.273 9.99999 212.869 9.99999 218.5C9.99999 224.131 5.56681 228.727 0 228.988L0 236.012C5.56681 236.273 9.99999 240.869 9.99999 246.5C9.99999 252.131 5.56681 256.727 0 256.988L0 263.012C5.56681 263.273 9.99999 267.869 9.99999 273.5C9.99999 279.131 5.56681 283.727 0 283.988L0 291.012C5.56681 291.273 9.99999 295.869 9.99999 301.5C9.99999 307.131 5.56681 311.727 0 311.988L0 319.011C5.56681 319.26 9.99999 323.637 9.99999 329C9.99999 334.363 5.56681 338.74 0 338.989L0 346.012C5.56681 346.273 9.99999 350.869 9.99999 356.5C9.99999 362.131 5.56681 366.727 0 366.988L0 374.012C5.56681 374.273 9.99999 378.869 9.99999 384.5C9.99999 390.131 5.56681 394.727 0 394.988L0 402.011C5.56681 402.26 9.99999 406.637 9.99999 412C9.99999 417.363 5.56681 421.74 0 421.989L0 429.012C5.56681 429.273 9.99999 433.869 9.99999 439.5C9.99999 445.131 5.56681 449.727 0 449.988L0 457.011C5.56681 457.26 9.99999 461.637 9.99999 467C9.99999 472.363 5.56681 476.74 0 476.989L0 484.012C5.56681 484.273 9.99999 488.869 9.99999 494.5C9.99999 500.131 5.56681 504.727 0 504.988L0 512.012C5.56681 512.273 9.99999 516.869 9.99999 522.5C9.99999 528.131 5.56681 532.727 0 532.988L0 540.011C5.56681 540.26 9.99999 544.637 9.99999 550C9.99999 555.363 5.56681 559.74 0 559.989L0 567.012C5.56681 567.273 9.99999 571.869 9.99999 577.5C9.99999 583.131 5.56681 587.727 0 587.988L0 595.012C5.56681 595.273 9.99999 599.869 9.99999 605.5C9.99999 611.131 5.56681 615.727 0 615.988L0 622.012C5.56681 622.273 9.99999 626.869 9.99999 632.5C9.99999 638.131 5.56681 642.727 0 642.988L0 650.012C5.56681 650.273 9.99999 654.869 9.99999 660.5C9.99999 666.131 5.56681 670.727 0 670.988L0 678.011C5.56681 678.26 9.99999 682.637 9.99999 688C9.99999 693.363 5.56681 697.74 0 697.989L0 705.012C5.56681 705.273 9.99999 709.869 9.99999 715.5C9.99999 716.009 9.96373 716.51 9.89366 717H16.1063C16.0362 716.51 16 716.009 16 715.5C16 709.701 20.701 705 26.5 705C32.299 705 37 709.701 37 715.5C37 716.009 36.9637 716.51 36.8937 717H42.1063C42.0362 716.51 42 716.009 42 715.5C42 709.701 46.701 705 52.5 705C58.299 705 63 709.701 63 715.5C63 716.009 62.9637 716.51 62.8937 717H68.1063C68.0362 716.51 68 716.009 68 715.5C68 709.701 72.701 705 78.5 705C84.299 705 89 709.701 89 715.5C89 716.009 88.9637 716.51 88.8937 717H96.1063C96.0362 716.51 96 716.009 96 715.5C96 709.701 100.701 705 106.5 705C112.299 705 117 709.701 117 715.5C117 716.009 116.964 716.51 116.894 717H124.106C124.036 716.51 124 716.009 124 715.5C124 709.701 128.701 705 134.5 705C140.299 705 145 709.701 145 715.5C145 716.009 144.964 716.51 144.894 717H152.106C152.036 716.51 152 716.009 152 715.5C152 709.701 156.701 705 162.5 705C168.299 705 173 709.701 173 715.5C173 716.009 172.964 716.51 172.894 717H180.106C180.036 716.51 180 716.009 180 715.5C180 709.701 184.701 705 190.5 705C196.299 705 201 709.701 201 715.5C201 716.009 200.964 716.51 200.894 717H208.106C208.036 716.51 208 716.009 208 715.5C208 709.701 212.701 705 218.5 705C224.299 705 229 709.701 229 715.5C229 716.009 228.964 716.51 228.894 717H236.106C236.036 716.51 236 716.009 236 715.5C236 709.701 240.701 705 246.5 705C252.299 705 257 709.701 257 715.5C257 716.009 256.964 716.51 256.894 717H264.106C264.036 716.51 264 716.009 264 715.5C264 709.701 268.701 705 274.5 705C280.299 705 285 709.701 285 715.5C285 716.009 284.964 716.51 284.894 717H292.106C292.036 716.51 292 716.009 292 715.5C292 709.701 296.701 705 302.5 705C308.299 705 313 709.701 313 715.5C313 716.009 312.964 716.51 312.894 717H317.106C317.036 716.51 317 716.009 317 715.5C317 709.701 321.701 705 327.5 705C327.567 705 327.635 705.001 327.702 705.002C327.801 705.004 327.901 705.007 328 705.012V697.989C327.834 697.996 327.668 698 327.5 698C321.701 698 317 693.523 317 688C317 682.477 321.701 678 327.5 678C327.668 678 327.834 678.004 328 678.011V670.988C327.834 670.996 327.668 671 327.5 671C321.701 671 317 666.299 317 660.5C317 654.701 321.701 650 327.5 650C327.668 650 327.834 650.004 328 650.012V642.988L327.959 642.99L327.914 642.992L327.876 642.993C327.844 642.995 327.813 642.995 327.781 642.996C327.688 642.999 327.594 643 327.5 643C321.701 643 317 638.299 317 632.5C317 626.701 321.701 622 327.5 622C327.668 622 327.834 622.004 328 622.012V615.988C327.834 615.996 327.668 616 327.5 616C321.701 616 317 611.299 317 605.5C317 599.701 321.701 595 327.5 595C327.668 595 327.834 595.004 328 595.012V587.988C327.923 587.992 327.846 587.995 327.769 587.997C327.68 587.999 327.59 588 327.5 588C321.701 588 317 583.299 317 577.5C317 571.701 321.701 567 327.5 567C327.668 567 327.834 567.004 328 567.012V559.989C327.834 559.996 327.668 560 327.5 560C321.701 560 317 555.523 317 550C317 544.477 321.701 540 327.5 540C327.668 540 327.834 540.004 328 540.011V532.988C327.959 532.99 327.919 532.992 327.878 532.993C327.839 532.995 327.801 532.996 327.762 532.997C327.675 532.999 327.588 533 327.5 533C321.701 533 317 528.299 317 522.5C317 516.701 321.701 512 327.5 512C327.668 512 327.834 512.004 328 512.012V504.988C327.834 504.996 327.668 505 327.5 505C321.701 505 317 500.299 317 494.5C317 488.701 321.701 484 327.5 484C327.575 484 327.65 484.001 327.724 484.002C327.817 484.004 327.908 484.007 328 484.012V476.989C327.834 476.996 327.668 477 327.5 477C321.701 477 317 472.523 317 467C317 461.477 321.701 457 327.5 457C327.668 457 327.834 457.004 328 457.011V449.988C327.834 449.996 327.668 450 327.5 450C321.701 450 317 445.299 317 439.5C317 433.701 321.701 429 327.5 429C327.668 429 327.834 429.004 328 429.012V421.989C327.92 421.992 327.84 421.995 327.759 421.997C327.72 421.998 327.681 421.999 327.642 421.999C327.61 422 327.577 422 327.544 422L327.5 422C321.701 422 317 417.523 317 412C317 406.477 321.701 402 327.5 402C327.668 402 327.834 402.004 328 402.011V394.988C327.834 394.996 327.668 395 327.5 395C321.701 395 317 390.299 317 384.5C317 378.701 321.701 374 327.5 374C327.668 374 327.834 374.004 328 374.012V366.988C327.834 366.996 327.668 367 327.5 367C321.701 367 317 362.299 317 356.5C317 350.701 321.701 346 327.5 346C327.668 346 327.834 346.004 328 346.012V338.989C327.834 338.996 327.668 339 327.5 339C321.701 339 317 334.523 317 329C317 323.477 321.701 319 327.5 319C327.668 319 327.834 319.004 328 319.011V311.988C327.915 311.992 327.829 311.995 327.743 311.997C327.662 311.999 327.581 312 327.5 312C321.701 312 317 307.299 317 301.5C317 295.701 321.701 291 327.5 291C327.596 291 327.692 291.001 327.787 291.004C327.858 291.006 327.929 291.008 328 291.012V283.988C327.834 283.996 327.668 284 327.5 284C321.701 284 317 279.299 317 273.5C317 267.701 321.701 263 327.5 263C327.668 263 327.834 263.004 328 263.012V256.988C327.834 256.996 327.668 257 327.5 257C321.701 257 317 252.299 317 246.5C317 240.701 321.701 236 327.5 236C327.668 236 327.834 236.004 328 236.012V228.988C327.834 228.996 327.668 229 327.5 229C321.701 229 317 224.299 317 218.5C317 212.701 321.701 208 327.5 208C327.595 208 327.689 208.001 327.784 208.004C327.856 208.006 327.928 208.008 328 208.012V200.989C327.834 200.996 327.668 201 327.5 201C321.701 201 317 196.523 317 191C317 185.477 321.701 181 327.5 181C327.668 181 327.834 181.004 328 181.011V173.988C327.834 173.996 327.668 174 327.5 174C321.701 174 317 169.299 317 163.5C317 157.701 321.701 153 327.5 153C327.668 153 327.834 153.004 328 153.012V145.988C327.834 145.996 327.668 146 327.5 146C321.701 146 317 141.299 317 135.5C317 129.701 321.701 125 327.5 125C327.668 125 327.834 125.004 328 125.012V118.988C327.926 118.992 327.852 118.994 327.778 118.996C327.686 118.999 327.593 119 327.5 119C321.701 119 317 114.299 317 108.5C317 102.701 321.701 98 327.5 98C327.668 98 327.834 98.0039 328 98.0117V90.9883C327.834 90.9961 327.668 91 327.5 91C321.701 91 317 86.299 317 80.5C317 74.701 321.701 70 327.5 70C327.668 70 327.834 70.0039 328 70.0117V62.9889C327.834 62.9963 327.668 63 327.5 63C321.701 63 317 58.5228 317 53C317 47.4771 321.701 43 327.5 43C327.668 43 327.834 43.0037 328 43.0111V35.9883C327.834 35.9961 327.668 36 327.5 36C321.701 36 317 31.299 317 25.5C317 19.701 321.701 15 327.5 15C327.668 15 327.834 15.0039 328 15.0117V10.7005C323.408 9.57899 320 5.43748 320 0.499991C320 0.332381 320.004 0.165689 320.012 0L312.988 0C312.996 0.165689 313 0.332382 313 0.499992C313 6.29898 308.299 11 302.5 11C296.701 11 292 6.29898 292 0.499991C292 0.332381 292.004 0.165689 292.012 0L284.988 0C284.996 0.165691 285 0.332386 285 0.499998C285 6.29899 280.299 11 274.5 11Z"/>
</mask>
<path fill-rule="evenodd" clip-rule="evenodd" d="M274.5 11C268.701 11 264 6.29899 264 0.499997C264 0.332385 264.004 0.16569 264.012 0L256.988 0C256.996 0.165691 257 0.332386 257 0.499998C257 6.29899 252.299 11 246.5 11C240.701 11 236 6.29899 236 0.499997C236 0.332385 236.004 0.16569 236.012 0L228.988 0C228.996 0.165691 229 0.332386 229 0.499998C229 6.29899 224.299 11 218.5 11C212.701 11 208 6.29899 208 0.499997C208 0.332385 208.004 0.16569 208.012 0L200.988 0C200.996 0.165691 201 0.332386 201 0.499998C201 6.29899 196.299 11 190.5 11C184.701 11 180 6.29899 180 0.499997C180 0.332385 180.004 0.16569 180.012 0L172.988 0C172.996 0.165691 173 0.332386 173 0.499998C173 6.29899 168.299 11 162.5 11C156.701 11 152 6.29899 152 0.499997C152 0.332385 152.004 0.16569 152.012 0L144.988 0C144.996 0.165691 145 0.332386 145 0.499998C145 6.29899 140.299 11 134.5 11C128.701 11 124 6.29899 124 0.499997C124 0.332385 124.004 0.16569 124.012 0L116.988 0C116.996 0.165691 117 0.332386 117 0.499998C117 6.29899 112.299 11 106.5 11C100.701 11 96 6.29899 96 0.499997C96 0.332385 96.0039 0.16569 96.0117 0L88.9883 0C88.9961 0.165691 89 0.332386 89 0.499998C89 6.29899 84.299 11 78.5 11C72.701 11 68 6.29899 68 0.499997C68 0.332385 68.0039 0.16569 68.0117 0L62.9883 0C62.9961 0.165691 63 0.332386 63 0.499998C63 6.29899 58.299 11 52.5 11C46.701 11 42 6.29899 42 0.499997C42 0.332385 42.0039 0.16569 42.0117 0L36.9883 0C36.9961 0.165691 37 0.332386 37 0.499998C37 6.29899 32.299 11 26.5 11C20.701 11 16 6.29899 16 0.499997C16 0.332385 16.0039 0.16569 16.0117 0L10.9883 0C10.9961 0.165691 11 0.332386 11 0.499998C11 6.29899 6.29898 11 0.499989 11C0.332379 11 0.165688 10.9961 0 10.9883L0 15.0117C5.56681 15.2727 9.99999 19.8686 9.99999 25.5C9.99999 31.1314 5.56681 35.7273 0 35.9883L0 43.0111C5.56681 43.2597 9.99999 47.6368 9.99999 53C9.99999 58.3632 5.56681 62.7403 0 62.9889L0 70.0117C5.56681 70.2727 9.99999 74.8686 9.99999 80.5C9.99999 86.1314 5.56681 90.7273 0 90.9883L0 98.0117C5.56681 98.2727 9.99999 102.869 9.99999 108.5C9.99999 114.131 5.56681 118.727 0 118.988L0 125.012C5.56681 125.273 9.99999 129.869 9.99999 135.5C9.99999 141.131 5.56681 145.727 0 145.988L0 153.012C5.56681 153.273 9.99999 157.869 9.99999 163.5C9.99999 169.131 5.56681 173.727 0 173.988L0 181.011C5.56681 181.26 9.99999 185.637 9.99999 191C9.99999 196.363 5.56681 200.74 0 200.989L0 208.012C5.56681 208.273 9.99999 212.869 9.99999 218.5C9.99999 224.131 5.56681 228.727 0 228.988L0 236.012C5.56681 236.273 9.99999 240.869 9.99999 246.5C9.99999 252.131 5.56681 256.727 0 256.988L0 263.012C5.56681 263.273 9.99999 267.869 9.99999 273.5C9.99999 279.131 5.56681 283.727 0 283.988L0 291.012C5.56681 291.273 9.99999 295.869 9.99999 301.5C9.99999 307.131 5.56681 311.727 0 311.988L0 319.011C5.56681 319.26 9.99999 323.637 9.99999 329C9.99999 334.363 5.56681 338.74 0 338.989L0 346.012C5.56681 346.273 9.99999 350.869 9.99999 356.5C9.99999 362.131 5.56681 366.727 0 366.988L0 374.012C5.56681 374.273 9.99999 378.869 9.99999 384.5C9.99999 390.131 5.56681 394.727 0 394.988L0 402.011C5.56681 402.26 9.99999 406.637 9.99999 412C9.99999 417.363 5.56681 421.74 0 421.989L0 429.012C5.56681 429.273 9.99999 433.869 9.99999 439.5C9.99999 445.131 5.56681 449.727 0 449.988L0 457.011C5.56681 457.26 9.99999 461.637 9.99999 467C9.99999 472.363 5.56681 476.74 0 476.989L0 484.012C5.56681 484.273 9.99999 488.869 9.99999 494.5C9.99999 500.131 5.56681 504.727 0 504.988L0 512.012C5.56681 512.273 9.99999 516.869 9.99999 522.5C9.99999 528.131 5.56681 532.727 0 532.988L0 540.011C5.56681 540.26 9.99999 544.637 9.99999 550C9.99999 555.363 5.56681 559.74 0 559.989L0 567.012C5.56681 567.273 9.99999 571.869 9.99999 577.5C9.99999 583.131 5.56681 587.727 0 587.988L0 595.012C5.56681 595.273 9.99999 599.869 9.99999 605.5C9.99999 611.131 5.56681 615.727 0 615.988L0 622.012C5.56681 622.273 9.99999 626.869 9.99999 632.5C9.99999 638.131 5.56681 642.727 0 642.988L0 650.012C5.56681 650.273 9.99999 654.869 9.99999 660.5C9.99999 666.131 5.56681 670.727 0 670.988L0 678.011C5.56681 678.26 9.99999 682.637 9.99999 688C9.99999 693.363 5.56681 697.74 0 697.989L0 705.012C5.56681 705.273 9.99999 709.869 9.99999 715.5C9.99999 716.009 9.96373 716.51 9.89366 717H16.1063C16.0362 716.51 16 716.009 16 715.5C16 709.701 20.701 705 26.5 705C32.299 705 37 709.701 37 715.5C37 716.009 36.9637 716.51 36.8937 717H42.1063C42.0362 716.51 42 716.009 42 715.5C42 709.701 46.701 705 52.5 705C58.299 705 63 709.701 63 715.5C63 716.009 62.9637 716.51 62.8937 717H68.1063C68.0362 716.51 68 716.009 68 715.5C68 709.701 72.701 705 78.5 705C84.299 705 89 709.701 89 715.5C89 716.009 88.9637 716.51 88.8937 717H96.1063C96.0362 716.51 96 716.009 96 715.5C96 709.701 100.701 705 106.5 705C112.299 705 117 709.701 117 715.5C117 716.009 116.964 716.51 116.894 717H124.106C124.036 716.51 124 716.009 124 715.5C124 709.701 128.701 705 134.5 705C140.299 705 145 709.701 145 715.5C145 716.009 144.964 716.51 144.894 717H152.106C152.036 716.51 152 716.009 152 715.5C152 709.701 156.701 705 162.5 705C168.299 705 173 709.701 173 715.5C173 716.009 172.964 716.51 172.894 717H180.106C180.036 716.51 180 716.009 180 715.5C180 709.701 184.701 705 190.5 705C196.299 705 201 709.701 201 715.5C201 716.009 200.964 716.51 200.894 717H208.106C208.036 716.51 208 716.009 208 715.5C208 709.701 212.701 705 218.5 705C224.299 705 229 709.701 229 715.5C229 716.009 228.964 716.51 228.894 717H236.106C236.036 716.51 236 716.009 236 715.5C236 709.701 240.701 705 246.5 705C252.299 705 257 709.701 257 715.5C257 716.009 256.964 716.51 256.894 717H264.106C264.036 716.51 264 716.009 264 715.5C264 709.701 268.701 705 274.5 705C280.299 705 285 709.701 285 715.5C285 716.009 284.964 716.51 284.894 717H292.106C292.036 716.51 292 716.009 292 715.5C292 709.701 296.701 705 302.5 705C308.299 705 313 709.701 313 715.5C313 716.009 312.964 716.51 312.894 717H317.106C317.036 716.51 317 716.009 317 715.5C317 709.701 321.701 705 327.5 705C327.567 705 327.635 705.001 327.702 705.002C327.801 705.004 327.901 705.007 328 705.012V697.989C327.834 697.996 327.668 698 327.5 698C321.701 698 317 693.523 317 688C317 682.477 321.701 678 327.5 678C327.668 678 327.834 678.004 328 678.011V670.988C327.834 670.996 327.668 671 327.5 671C321.701 671 317 666.299 317 660.5C317 654.701 321.701 650 327.5 650C327.668 650 327.834 650.004 328 650.012V642.988L327.959 642.99L327.914 642.992L327.876 642.993C327.844 642.995 327.813 642.995 327.781 642.996C327.688 642.999 327.594 643 327.5 643C321.701 643 317 638.299 317 632.5C317 626.701 321.701 622 327.5 622C327.668 622 327.834 622.004 328 622.012V615.988C327.834 615.996 327.668 616 327.5 616C321.701 616 317 611.299 317 605.5C317 599.701 321.701 595 327.5 595C327.668 595 327.834 595.004 328 595.012V587.988C327.923 587.992 327.846 587.995 327.769 587.997C327.68 587.999 327.59 588 327.5 588C321.701 588 317 583.299 317 577.5C317 571.701 321.701 567 327.5 567C327.668 567 327.834 567.004 328 567.012V559.989C327.834 559.996 327.668 560 327.5 560C321.701 560 317 555.523 317 550C317 544.477 321.701 540 327.5 540C327.668 540 327.834 540.004 328 540.011V532.988C327.959 532.99 327.919 532.992 327.878 532.993C327.839 532.995 327.801 532.996 327.762 532.997C327.675 532.999 327.588 533 327.5 533C321.701 533 317 528.299 317 522.5C317 516.701 321.701 512 327.5 512C327.668 512 327.834 512.004 328 512.012V504.988C327.834 504.996 327.668 505 327.5 505C321.701 505 317 500.299 317 494.5C317 488.701 321.701 484 327.5 484C327.575 484 327.65 484.001 327.724 484.002C327.817 484.004 327.908 484.007 328 484.012V476.989C327.834 476.996 327.668 477 327.5 477C321.701 477 317 472.523 317 467C317 461.477 321.701 457 327.5 457C327.668 457 327.834 457.004 328 457.011V449.988C327.834 449.996 327.668 450 327.5 450C321.701 450 317 445.299 317 439.5C317 433.701 321.701 429 327.5 429C327.668 429 327.834 429.004 328 429.012V421.989C327.92 421.992 327.84 421.995 327.759 421.997C327.72 421.998 327.681 421.999 327.642 421.999C327.61 422 327.577 422 327.544 422L327.5 422C321.701 422 317 417.523 317 412C317 406.477 321.701 402 327.5 402C327.668 402 327.834 402.004 328 402.011V394.988C327.834 394.996 327.668 395 327.5 395C321.701 395 317 390.299 317 384.5C317 378.701 321.701 374 327.5 374C327.668 374 327.834 374.004 328 374.012V366.988C327.834 366.996 327.668 367 327.5 367C321.701 367 317 362.299 317 356.5C317 350.701 321.701 346 327.5 346C327.668 346 327.834 346.004 328 346.012V338.989C327.834 338.996 327.668 339 327.5 339C321.701 339 317 334.523 317 329C317 323.477 321.701 319 327.5 319C327.668 319 327.834 319.004 328 319.011V311.988C327.915 311.992 327.829 311.995 327.743 311.997C327.662 311.999 327.581 312 327.5 312C321.701 312 317 307.299 317 301.5C317 295.701 321.701 291 327.5 291C327.596 291 327.692 291.001 327.787 291.004C327.858 291.006 327.929 291.008 328 291.012V283.988C327.834 283.996 327.668 284 327.5 284C321.701 284 317 279.299 317 273.5C317 267.701 321.701 263 327.5 263C327.668 263 327.834 263.004 328 263.012V256.988C327.834 256.996 327.668 257 327.5 257C321.701 257 317 252.299 317 246.5C317 240.701 321.701 236 327.5 236C327.668 236 327.834 236.004 328 236.012V228.988C327.834 228.996 327.668 229 327.5 229C321.701 229 317 224.299 317 218.5C317 212.701 321.701 208 327.5 208C327.595 208 327.689 208.001 327.784 208.004C327.856 208.006 327.928 208.008 328 208.012V200.989C327.834 200.996 327.668 201 327.5 201C321.701 201 317 196.523 317 191C317 185.477 321.701 181 327.5 181C327.668 181 327.834 181.004 328 181.011V173.988C327.834 173.996 327.668 174 327.5 174C321.701 174 317 169.299 317 163.5C317 157.701 321.701 153 327.5 153C327.668 153 327.834 153.004 328 153.012V145.988C327.834 145.996 327.668 146 327.5 146C321.701 146 317 141.299 317 135.5C317 129.701 321.701 125 327.5 125C327.668 125 327.834 125.004 328 125.012V118.988C327.926 118.992 327.852 118.994 327.778 118.996C327.686 118.999 327.593 119 327.5 119C321.701 119 317 114.299 317 108.5C317 102.701 321.701 98 327.5 98C327.668 98 327.834 98.0039 328 98.0117V90.9883C327.834 90.9961 327.668 91 327.5 91C321.701 91 317 86.299 317 80.5C317 74.701 321.701 70 327.5 70C327.668 70 327.834 70.0039 328 70.0117V62.9889C327.834 62.9963 327.668 63 327.5 63C321.701 63 317 58.5228 317 53C317 47.4771 321.701 43 327.5 43C327.668 43 327.834 43.0037 328 43.0111V35.9883C327.834 35.9961 327.668 36 327.5 36C321.701 36 317 31.299 317 25.5C317 19.701 321.701 15 327.5 15C327.668 15 327.834 15.0039 328 15.0117V10.7005C323.408 9.57899 320 5.43748 320 0.499991C320 0.332381 320.004 0.165689 320.012 0L312.988 0C312.996 0.165689 313 0.332382 313 0.499992C313 6.29898 308.299 11 302.5 11C296.701 11 292 6.29898 292 0.499991C292 0.332381 292.004 0.165689 292.012 0L284.988 0C284.996 0.165691 285 0.332386 285 0.499998C285 6.29899 280.299 11 274.5 11Z" fill="#FFF5E2"/>
<path d="M274.5 11V12.2V11ZM264.012 0L265.21 0.0562983L265.269 -1.2H264.012V0ZM256.988 0V-1.2H255.731L255.79 0.0562982L256.988 0ZM246.5 11V12.2V11ZM236.012 0L237.21 0.0561882L237.269 -1.2H236.012V0ZM228.988 0V-1.2L227.731 -1.2L227.79 0.0561881L228.988 0ZM218.5 11V12.2V11ZM208.012 0L209.21 0.0561882L209.269 -1.2H208.012V0ZM200.988 0V-1.2H199.731L199.79 0.0561881L200.988 0ZM190.5 11V12.2V11ZM180.012 0L181.21 0.0561882L181.269 -1.2H180.012V0ZM172.988 0V-1.2L171.731 -1.2L171.79 0.0561881L172.988 0ZM162.5 11V12.2V11ZM152.012 0L153.21 0.0561882L153.269 -1.2H152.012V0ZM144.988 0V-1.2H143.731L143.79 0.0561881L144.988 0ZM134.5 11V12.2V11ZM124.012 0L125.21 0.0561882L125.269 -1.2H124.012V0ZM116.988 0V-1.2L115.731 -1.2L115.79 0.0561881L116.988 0ZM106.5 11V12.2V11ZM96.0117 0L97.2104 0.0561882L97.2693 -1.2H96.0117V0ZM88.9883 0V-1.2H87.7307L87.7896 0.0561881L88.9883 0ZM78.5 11V12.2V11ZM68.0117 0L69.2104 0.0561882L69.2693 -1.2H68.0117V0ZM62.9883 0V-1.2H61.7307L61.7896 0.0561881L62.9883 0ZM52.5 11V12.2V11ZM42.0117 0L43.2104 0.0561882L43.2693 -1.2H42.0117V0ZM36.9883 0V-1.2L35.7307 -1.2L35.7896 0.0561881L36.9883 0ZM26.5 11V12.2V11ZM16 0.499997L17.2 0.499997V0.499997L16 0.499997ZM16.0117 0L17.2104 0.0561882L17.2693 -1.2H16.0117V0ZM10.9883 0V-1.2H9.73072L9.78961 0.056195L10.9883 0ZM11 0.499998L12.2 0.499998V0.499998L11 0.499998ZM0 10.9883L0.056196 9.78962L-1.2 9.73073V10.9883H0ZM0 15.0117H-1.2V16.1567L-0.0561961 16.2104L0 15.0117ZM0 35.9883L-0.0561965 34.7896L-1.2 34.8432V35.9883H0ZM0 43.0111H-1.2L-1.2 44.1587L-0.0535258 44.2099L0 43.0111ZM0 62.9889L-0.0535258 61.79L-1.2 61.8412V62.9889H0ZM0 70.0117H-1.2V71.1567L-0.0561957 71.2104L0 70.0117ZM0 90.9883L-0.0561957 89.7896L-1.2 89.8432V90.9883H0ZM0 98.0117H-1.2V99.1567L-0.0561957 99.2104L0 98.0117ZM0 118.988L-0.0561957 117.79L-1.2 117.843V118.988H0ZM0 125.012H-1.2V126.157L-0.0561957 126.21L0 125.012ZM0 145.988L-0.0561973 144.79L-1.2 144.843V145.988H0ZM0 153.012H-1.2V154.157L-0.0561973 154.21L0 153.012ZM0 173.988L-0.0561973 172.79L-1.2 172.843V173.988H0ZM0 181.011H-1.2V182.159L-0.053525 182.21L0 181.011ZM0 200.989L-0.053525 199.79L-1.2 199.841V200.989H0ZM0 208.012H-1.2V209.157L-0.0561973 209.21L0 208.012ZM0 228.988L-0.0561973 227.79L-1.2 227.843L-1.2 228.988H0ZM0 236.012H-1.2V237.157L-0.0561973 237.21L0 236.012ZM0 256.988L-0.0561973 255.79L-1.2 255.843V256.988H0ZM0 263.012H-1.2V264.157L-0.0561973 264.21L0 263.012ZM0 283.988L-0.0561973 282.79L-1.2 282.843V283.988H0ZM0 291.012H-1.2L-1.2 292.157L-0.0561973 292.21L0 291.012ZM0 311.988L-0.0561973 310.79L-1.2 310.843V311.988H0ZM0 319.011H-1.2V320.159L-0.0535283 320.21L0 319.011ZM0 338.989L-0.0535283 337.79L-1.2 337.841V338.989H0ZM0 346.012H-1.2V347.157L-0.0561973 347.21L0 346.012ZM0 366.988L-0.0561973 365.79L-1.2 365.843V366.988H0ZM0 374.012H-1.2V375.157L-0.0561973 375.21L0 374.012ZM0 394.988L-0.0561973 393.79L-1.2 393.843V394.988H0ZM0 402.011H-1.2V403.159L-0.0535283 403.21L0 402.011ZM0 421.989L-0.0535283 420.79L-1.2 420.841V421.989H0ZM0 429.012H-1.2V430.157L-0.0561973 430.21L0 429.012ZM0 449.988L-0.0561973 448.79L-1.2 448.843V449.988H0ZM0 457.011H-1.2V458.159L-0.0535283 458.21L0 457.011ZM0 476.989L-0.0535283 475.79L-1.2 475.841L-1.2 476.989H0ZM0 484.012H-1.2V485.157L-0.0561973 485.21L0 484.012ZM0 504.988L-0.0561973 503.79L-1.2 503.843V504.988H0ZM0 512.012H-1.2V513.157L-0.0561973 513.21L0 512.012ZM0 532.988L-0.0561973 531.79L-1.2 531.843L-1.2 532.988H0ZM0 540.011H-1.2V541.159L-0.0535217 541.21L0 540.011ZM0 559.989L-0.0535217 558.79L-1.2 558.841V559.989H0ZM0 567.012H-1.2V568.157L-0.0561973 568.21L0 567.012ZM0 587.988L-0.0561973 586.79L-1.2 586.843V587.988H0ZM0 595.012H-1.2L-1.2 596.157L-0.0561973 596.21L0 595.012ZM0 615.988L-0.0561973 614.79L-1.2 614.843V615.988H0ZM0 622.012H-1.2V623.157L-0.0561973 623.21L0 622.012ZM0 642.988L-0.0561973 641.79L-1.2 641.843V642.988H0ZM0 650.012H-1.2V651.157L-0.0561973 651.21L0 650.012ZM0 670.988L-0.0561973 669.79L-1.2 669.843V670.988H0ZM0 678.011H-1.2V679.159L-0.0535217 679.21L0 678.011ZM0 697.989L-0.0535217 696.79L-1.2 696.841V697.989H0ZM0 705.012H-1.2V706.157L-0.0561973 706.21L0 705.012ZM9.89366 717L8.70575 716.83L8.50981 718.2H9.89366V717ZM16.1063 717V718.2H17.4902L17.2942 716.83L16.1063 717ZM36.8937 717L35.7057 716.83L35.5098 718.2H36.8937V717ZM42.1063 717V718.2H43.4902L43.2942 716.83L42.1063 717ZM62.8937 717L61.7057 716.83L61.5098 718.2H62.8937V717ZM68.1063 717V718.2H69.4902L69.2942 716.83L68.1063 717ZM88.8937 717L87.7057 716.83L87.5098 718.2H88.8937V717ZM96.1063 717V718.2H97.4902L97.2942 716.83L96.1063 717ZM116.894 717L115.706 716.83L115.51 718.2H116.894V717ZM124.106 717V718.2H125.49L125.294 716.83L124.106 717ZM144.894 717L143.706 716.83L143.51 718.2H144.894V717ZM152.106 717V718.2H153.49L153.294 716.83L152.106 717ZM172.894 717L171.706 716.83L171.51 718.2H172.894V717ZM180.106 717V718.2H181.49L181.294 716.83L180.106 717ZM200.894 717L199.706 716.83L199.51 718.2H200.894V717ZM208.106 717V718.2H209.49L209.294 716.83L208.106 717ZM228.894 717L227.706 716.83L227.51 718.2H228.894V717ZM236.106 717V718.2H237.49L237.294 716.83L236.106 717ZM256.894 717L255.706 716.83L255.51 718.2H256.894V717ZM264.106 717V718.2H265.49L265.294 716.83L264.106 717ZM284.894 717L283.706 716.83L283.51 718.2H284.894V717ZM292.106 717V718.2H293.49L293.294 716.83L292.106 717ZM312.894 717L311.706 716.83L311.51 718.2H312.894V717ZM317.106 717V718.2H318.49L318.294 716.83L317.106 717ZM327.702 705.002L327.679 706.202H327.679L327.702 705.002ZM328 705.012L327.944 706.21L329.2 706.269V705.012H328ZM328 697.989H329.2V696.734L327.947 696.79L328 697.989ZM328 678.011L327.947 679.21L329.2 679.266V678.011H328ZM328 670.988H329.2V669.731L327.944 669.79L328 670.988ZM328 650.012L327.944 651.21L329.2 651.269V650.012H328ZM328 642.988H329.2V641.735L327.948 641.789L328 642.988ZM327.959 642.99L328.011 644.189L328.012 644.189L327.959 642.99ZM327.914 642.992L327.958 644.191L327.966 644.191L327.914 642.992ZM327.876 642.993L327.918 644.193L327.92 644.193L327.876 642.993ZM327.781 642.996L327.813 644.196H327.814L327.781 642.996ZM328 622.012L327.944 623.21L329.2 623.269V622.012H328ZM328 615.988H329.2V614.731L327.944 614.79L328 615.988ZM328 595.012L327.944 596.21L329.2 596.269V595.012H328ZM328 587.988H329.2V586.731L327.944 586.79L328 587.988ZM327.769 587.997L327.799 589.196H327.8L327.769 587.997ZM328 567.012L327.944 568.21L329.2 568.269V567.012H328ZM328 559.989H329.2V558.734L327.947 558.79L328 559.989ZM328 540.011L327.947 541.21L329.2 541.266V540.011H328ZM328 532.988H329.2V531.731L327.944 531.79L328 532.988ZM327.878 532.993L327.837 531.794H327.837L327.878 532.993ZM327.762 532.997L327.791 534.196H327.792L327.762 532.997ZM328 512.012L327.944 513.21L329.2 513.269V512.012H328ZM328 504.988H329.2V503.731L327.944 503.79L328 504.988ZM327.724 484.002L327.75 482.803L327.724 484.002ZM328 484.012L327.944 485.21L329.2 485.269V484.012H328ZM328 476.989H329.2V475.734L327.947 475.79L328 476.989ZM328 457.011L327.947 458.21L329.2 458.266V457.011H328ZM328 449.988H329.2V448.731L327.944 448.79L328 449.988ZM328 429.012L327.944 430.21L329.2 430.269V429.012H328ZM328 421.989H329.2V420.734L327.947 420.79L328 421.989ZM327.759 421.997L327.787 423.197H327.787L327.759 421.997ZM327.642 421.999L327.627 420.799L327.627 420.799L327.642 421.999ZM327.544 422L327.546 423.2L327.548 423.2L327.544 422ZM327.5 422V423.2H327.503L327.5 422ZM328 402.011L327.947 403.21L329.2 403.266V402.011H328ZM328 394.988H329.2V393.731L327.944 393.79L328 394.988ZM328 374.012L327.944 375.21L329.2 375.269V374.012H328ZM328 366.988H329.2V365.731L327.944 365.79L328 366.988ZM328 346.012L327.944 347.21L329.2 347.269V346.012H328ZM328 338.989H329.2V337.734L327.947 337.79L328 338.989ZM328 319.011L327.947 320.21L329.2 320.266V319.011H328ZM328 311.988H329.2V310.731L327.944 310.79L328 311.988ZM327.743 311.997L327.77 313.197H327.77L327.743 311.997ZM327.787 291.004L327.755 292.203L327.755 292.203L327.787 291.004ZM328 291.012L327.944 292.21L329.2 292.269V291.012H328ZM328 283.988H329.2V282.731L327.944 282.79L328 283.988ZM328 263.012L327.944 264.21L329.2 264.269V263.012H328ZM328 256.988H329.2V255.731L327.944 255.79L328 256.988ZM328 236.012L327.944 237.21L329.2 237.269V236.012H328ZM328 228.988H329.2V227.731L327.944 227.79L328 228.988ZM327.784 208.004L327.752 209.203L327.752 209.203L327.784 208.004ZM328 208.012L327.944 209.21L329.2 209.269V208.012H328ZM328 200.989H329.2V199.734L327.946 199.79L328 200.989ZM328 181.011L327.946 182.21L329.2 182.266V181.011H328ZM328 173.988H329.2V172.731L327.944 172.79L328 173.988ZM328 153.012L327.944 154.21L329.2 154.269V153.012H328ZM328 145.988H329.2V144.731L327.944 144.79L328 145.988ZM328 125.012L327.944 126.21L329.2 126.269V125.012H328ZM328 118.988H329.2V117.731L327.944 117.79L328 118.988ZM327.778 118.996L327.809 120.196H327.81L327.778 118.996ZM328 98.0117L327.944 99.2104L329.2 99.2693V98.0117H328ZM328 90.9883H329.2V89.7307L327.944 89.7896L328 90.9883ZM328 70.0117L327.944 71.2104L329.2 71.2693V70.0117H328ZM328 62.9889H329.2V61.7341L327.946 61.79L328 62.9889ZM328 43.0111L327.946 44.2099L329.2 44.2659V43.0111H328ZM328 35.9883H329.2V34.7307L327.944 34.7896L328 35.9883ZM327.5 15V16.2V15ZM328 15.0117L327.944 16.2104L329.2 16.2693V15.0117H328ZM328 10.7005H329.2V9.75836L328.285 9.53481L328 10.7005ZM320.012 0L321.21 0.056299L321.269 -1.2H320.012V0ZM312.988 0V-1.2H311.731L311.79 0.0562989L312.988 0ZM302.5 11V9.79999V11ZM292.012 0L293.21 0.056299L293.269 -1.2H292.012V0ZM284.988 0V-1.2L283.731 -1.2L283.79 0.0562982L284.988 0ZM262.8 0.499997C262.8 6.96173 268.038 12.2 274.5 12.2V9.8C269.364 9.8 265.2 5.63625 265.2 0.499997L262.8 0.499997ZM262.813 -0.0562983C262.804 0.128272 262.8 0.313739 262.8 0.499997L265.2 0.499997C265.2 0.351031 265.203 0.203108 265.21 0.0562983L262.813 -0.0562983ZM256.988 1.2L264.012 1.2V-1.2L256.988 -1.2V1.2ZM258.2 0.499998C258.2 0.31374 258.196 0.128273 258.187 -0.0562982L255.79 0.0562982C255.797 0.203109 255.8 0.351032 255.8 0.499998L258.2 0.499998ZM246.5 12.2C252.962 12.2 258.2 6.96173 258.2 0.499998L255.8 0.499998C255.8 5.63624 251.636 9.8 246.5 9.8V12.2ZM234.8 0.499997C234.8 6.96173 240.038 12.2 246.5 12.2V9.8C241.364 9.8 237.2 5.63624 237.2 0.499997L234.8 0.499997ZM234.813 -0.0561882C234.804 0.128236 234.8 0.313665 234.8 0.499997L237.2 0.499997C237.2 0.351105 237.203 0.203145 237.21 0.0561882L234.813 -0.0561882ZM228.988 1.2L236.012 1.2V-1.2L228.988 -1.2V1.2ZM230.2 0.499998C230.2 0.313666 230.196 0.128237 230.187 -0.0561881L227.79 0.0561881C227.797 0.203145 227.8 0.351105 227.8 0.499998L230.2 0.499998ZM218.5 12.2C224.962 12.2 230.2 6.96173 230.2 0.499998L227.8 0.499998C227.8 5.63625 223.636 9.8 218.5 9.8V12.2ZM206.8 0.499997C206.8 6.96173 212.038 12.2 218.5 12.2V9.8C213.364 9.8 209.2 5.63624 209.2 0.499997L206.8 0.499997ZM206.813 -0.0561882C206.804 0.128236 206.8 0.313665 206.8 0.499997L209.2 0.499997C209.2 0.351105 209.203 0.203145 209.21 0.0561882L206.813 -0.0561882ZM200.988 1.2L208.012 1.2V-1.2L200.988 -1.2V1.2ZM202.2 0.499998C202.2 0.313666 202.196 0.128237 202.187 -0.0561881L199.79 0.0561881C199.797 0.203145 199.8 0.351105 199.8 0.499998L202.2 0.499998ZM190.5 12.2C196.962 12.2 202.2 6.96173 202.2 0.499998L199.8 0.499998C199.8 5.63625 195.636 9.8 190.5 9.8V12.2ZM178.8 0.499997C178.8 6.96173 184.038 12.2 190.5 12.2V9.8C185.364 9.8 181.2 5.63624 181.2 0.499997L178.8 0.499997ZM178.813 -0.0561882C178.804 0.128236 178.8 0.313665 178.8 0.499997L181.2 0.499997C181.2 0.351105 181.203 0.203145 181.21 0.0561882L178.813 -0.0561882ZM172.988 1.2L180.012 1.2V-1.2L172.988 -1.2V1.2ZM174.2 0.499998C174.2 0.313666 174.196 0.128237 174.187 -0.0561881L171.79 0.0561881C171.797 0.203145 171.8 0.351105 171.8 0.499998L174.2 0.499998ZM162.5 12.2C168.962 12.2 174.2 6.96173 174.2 0.499998L171.8 0.499998C171.8 5.63625 167.636 9.8 162.5 9.8V12.2ZM150.8 0.499997C150.8 6.96173 156.038 12.2 162.5 12.2V9.8C157.364 9.8 153.2 5.63624 153.2 0.499997L150.8 0.499997ZM150.813 -0.0561882C150.804 0.128236 150.8 0.313665 150.8 0.499997L153.2 0.499997C153.2 0.351105 153.203 0.203145 153.21 0.0561882L150.813 -0.0561882ZM144.988 1.2L152.012 1.2V-1.2L144.988 -1.2V1.2ZM146.2 0.499998C146.2 0.313666 146.196 0.128237 146.187 -0.0561881L143.79 0.0561881C143.797 0.203145 143.8 0.351105 143.8 0.499998L146.2 0.499998ZM134.5 12.2C140.962 12.2 146.2 6.96173 146.2 0.499998L143.8 0.499998C143.8 5.63625 139.636 9.8 134.5 9.8V12.2ZM122.8 0.499997C122.8 6.96173 128.038 12.2 134.5 12.2V9.8C129.364 9.8 125.2 5.63625 125.2 0.499997L122.8 0.499997ZM122.813 -0.0561882C122.804 0.1282 122.8 0.313629 122.8 0.499997L125.2 0.499997C125.2 0.351142 125.203 0.203181 125.21 0.0561882L122.813 -0.0561882ZM116.988 1.2L124.012 1.2V-1.2L116.988 -1.2V1.2ZM118.2 0.499998C118.2 0.313629 118.196 0.1282 118.187 -0.0561881L115.79 0.0561881C115.797 0.203182 115.8 0.351142 115.8 0.499998L118.2 0.499998ZM106.5 12.2C112.962 12.2 118.2 6.96173 118.2 0.499998L115.8 0.499998C115.8 5.63625 111.636 9.8 106.5 9.8V12.2ZM94.8 0.499997C94.8 6.96173 100.038 12.2 106.5 12.2V9.8C101.364 9.8 97.2 5.63625 97.2 0.499997L94.8 0.499997ZM94.813 -0.0561882C94.8044 0.1282 94.8 0.313629 94.8 0.499997L97.2 0.499997C97.2 0.351142 97.2035 0.203181 97.2104 0.0561882L94.813 -0.0561882ZM88.9883 1.2L96.0117 1.2V-1.2L88.9883 -1.2V1.2ZM90.2 0.499998C90.2 0.313629 90.1956 0.1282 90.187 -0.0561881L87.7896 0.0561881C87.7965 0.203182 87.8 0.351142 87.8 0.499998L90.2 0.499998ZM78.5 12.2C84.9617 12.2 90.2 6.96173 90.2 0.499998L87.8 0.499998C87.8 5.63625 83.6362 9.8 78.5 9.8V12.2ZM66.8 0.499997C66.8 6.96173 72.0383 12.2 78.5 12.2V9.8C73.3637 9.8 69.2 5.63625 69.2 0.499997L66.8 0.499997ZM66.813 -0.0561882C66.8044 0.1282 66.8 0.313629 66.8 0.499997L69.2 0.499997C69.2 0.351142 69.2035 0.203181 69.2104 0.0561882L66.813 -0.0561882ZM62.9883 1.2L68.0117 1.2V-1.2L62.9883 -1.2V1.2ZM64.2 0.499998C64.2 0.313629 64.1956 0.1282 64.187 -0.0561881L61.7896 0.0561881C61.7965 0.203182 61.8 0.351142 61.8 0.499998L64.2 0.499998ZM52.5 12.2C58.9617 12.2 64.2 6.96173 64.2 0.499998L61.8 0.499998C61.8 5.63625 57.6362 9.8 52.5 9.8V12.2ZM40.8 0.499997C40.8 6.96173 46.0383 12.2 52.5 12.2V9.8C47.3637 9.8 43.2 5.63625 43.2 0.499997L40.8 0.499997ZM40.813 -0.0561882C40.8044 0.1282 40.8 0.313629 40.8 0.499997L43.2 0.499997C43.2 0.351142 43.2035 0.203181 43.2104 0.0561882L40.813 -0.0561882ZM36.9883 1.2H42.0117V-1.2H36.9883V1.2ZM38.2 0.499998C38.2 0.313629 38.1956 0.1282 38.187 -0.0561881L35.7896 0.0561881C35.7965 0.203182 35.8 0.351142 35.8 0.499998L38.2 0.499998ZM26.5 12.2C32.9617 12.2 38.2 6.96173 38.2 0.499998L35.8 0.499998C35.8 5.63625 31.6362 9.8 26.5 9.8V12.2ZM14.8 0.499997C14.8 6.96173 20.0383 12.2 26.5 12.2V9.8C21.3637 9.8 17.2 5.63625 17.2 0.499997L14.8 0.499997ZM14.813 -0.0561882C14.8044 0.128204 14.8 0.313633 14.8 0.499997L17.2 0.499997C17.2 0.351137 17.2035 0.203177 17.2104 0.0561882L14.813 -0.0561882ZM10.9883 1.2L16.0117 1.2V-1.2L10.9883 -1.2V1.2ZM12.2 0.499998C12.2 0.313639 12.1956 0.128207 12.187 -0.056195L9.78961 0.056195C9.7965 0.203175 9.79999 0.351133 9.79999 0.499998L12.2 0.499998ZM0.499989 12.2C6.96172 12.2 12.2 6.96173 12.2 0.499998L9.79999 0.499998C9.79999 5.63625 5.63624 9.8 0.499989 9.8L0.499989 12.2ZM-0.056196 12.187C0.128203 12.1956 0.313632 12.2 0.499989 12.2L0.499989 9.8C0.351127 9.8 0.203172 9.79651 0.056196 9.78962L-0.056196 12.187ZM1.2 15.0117L1.2 10.9883H-1.2L-1.2 15.0117H1.2ZM11.2 25.5C11.2 19.2247 6.26017 14.1039 0.0561961 13.813L-0.0561961 16.2104C4.87345 16.4415 8.79999 20.5125 8.79999 25.5H11.2ZM0.0561965 37.187C6.26017 36.8961 11.2 31.7753 11.2 25.5H8.79999C8.79999 30.4874 4.87345 34.5585 -0.0561965 34.7896L0.0561965 37.187ZM1.2 43.0111L1.2 35.9883H-1.2L-1.2 43.0111H1.2ZM11.2 53C11.2 46.941 6.20642 42.087 0.0535258 41.8123L-0.0535258 44.2099C4.9272 44.4323 8.79999 48.3326 8.79999 53H11.2ZM0.0535258 64.1877C6.20642 63.9129 11.2 59.059 11.2 53H8.79999C8.79999 57.6674 4.9272 61.5677 -0.0535258 61.79L0.0535258 64.1877ZM1.2 70.0117L1.2 62.9889H-1.2L-1.2 70.0117H1.2ZM11.2 80.5C11.2 74.2247 6.26017 69.1039 0.0561957 68.813L-0.0561957 71.2104C4.87345 71.4415 8.79999 75.5125 8.79999 80.5H11.2ZM0.0561957 92.187C6.26017 91.8961 11.2 86.7753 11.2 80.5H8.79999C8.79999 85.4874 4.87345 89.5585 -0.0561957 89.7896L0.0561957 92.187ZM1.2 98.0117L1.2 90.9883H-1.2L-1.2 98.0117H1.2ZM11.2 108.5C11.2 102.225 6.26017 97.1039 0.0561957 96.813L-0.0561957 99.2104C4.87345 99.4415 8.79999 103.513 8.79999 108.5H11.2ZM0.0561957 120.187C6.26017 119.896 11.2 114.775 11.2 108.5H8.79999C8.79999 113.487 4.87345 117.559 -0.0561957 117.79L0.0561957 120.187ZM1.2 125.012L1.2 118.988H-1.2L-1.2 125.012H1.2ZM11.2 135.5C11.2 129.225 6.26017 124.104 0.0561957 123.813L-0.0561957 126.21C4.87345 126.441 8.79999 130.513 8.79999 135.5H11.2ZM0.0561973 147.187C6.26017 146.896 11.2 141.775 11.2 135.5H8.79999C8.79999 140.487 4.87345 144.559 -0.0561973 144.79L0.0561973 147.187ZM1.2 153.012L1.2 145.988H-1.2L-1.2 153.012H1.2ZM11.2 163.5C11.2 157.225 6.26017 152.104 0.0561973 151.813L-0.0561973 154.21C4.87345 154.441 8.79999 158.513 8.79999 163.5H11.2ZM0.0561973 175.187C6.26017 174.896 11.2 169.775 11.2 163.5H8.79999C8.79999 168.487 4.87345 172.559 -0.0561973 172.79L0.0561973 175.187ZM1.2 181.011L1.2 173.988H-1.2L-1.2 181.011H1.2ZM11.2 191C11.2 184.941 6.20643 180.087 0.053525 179.812L-0.053525 182.21C4.9272 182.432 8.79999 186.333 8.79999 191H11.2ZM0.053525 202.188C6.20642 201.913 11.2 197.059 11.2 191H8.79999C8.79999 195.667 4.9272 199.568 -0.053525 199.79L0.053525 202.188ZM1.2 208.012L1.2 200.989H-1.2L-1.2 208.012H1.2ZM11.2 218.5C11.2 212.225 6.26017 207.104 0.0561973 206.813L-0.0561973 209.21C4.87345 209.441 8.79999 213.513 8.79999 218.5H11.2ZM0.0561973 230.187C6.26017 229.896 11.2 224.775 11.2 218.5H8.79999C8.79999 223.487 4.87345 227.559 -0.0561973 227.79L0.0561973 230.187ZM1.2 236.012L1.2 228.988H-1.2L-1.2 236.012H1.2ZM11.2 246.5C11.2 240.225 6.26017 235.104 0.0561973 234.813L-0.0561973 237.21C4.87345 237.441 8.79999 241.513 8.79999 246.5H11.2ZM0.0561973 258.187C6.26017 257.896 11.2 252.775 11.2 246.5H8.79999C8.79999 251.487 4.87345 255.559 -0.0561973 255.79L0.0561973 258.187ZM1.2 263.012L1.2 256.988H-1.2L-1.2 263.012H1.2ZM11.2 273.5C11.2 267.225 6.26017 262.104 0.0561973 261.813L-0.0561973 264.21C4.87346 264.441 8.79999 268.513 8.79999 273.5H11.2ZM0.0561973 285.187C6.26017 284.896 11.2 279.775 11.2 273.5H8.79999C8.79999 278.487 4.87345 282.559 -0.0561973 282.79L0.0561973 285.187ZM1.2 291.012L1.2 283.988H-1.2L-1.2 291.012H1.2ZM11.2 301.5C11.2 295.225 6.26017 290.104 0.0561973 289.813L-0.0561973 292.21C4.87346 292.441 8.79999 296.513 8.79999 301.5H11.2ZM0.0561973 313.187C6.26017 312.896 11.2 307.775 11.2 301.5H8.79999C8.79999 306.487 4.87345 310.559 -0.0561973 310.79L0.0561973 313.187ZM1.2 319.011L1.2 311.988H-1.2L-1.2 319.011H1.2ZM11.2 329C11.2 322.941 6.20642 318.087 0.0535283 317.812L-0.0535283 320.21C4.9272 320.432 8.79999 324.333 8.79999 329H11.2ZM0.0535283 340.188C6.20642 339.913 11.2 335.059 11.2 329H8.79999C8.79999 333.667 4.9272 337.568 -0.0535283 337.79L0.0535283 340.188ZM1.2 346.012L1.2 338.989H-1.2L-1.2 346.012H1.2ZM11.2 356.5C11.2 350.225 6.26017 345.104 0.0561973 344.813L-0.0561973 347.21C4.87346 347.441 8.79999 351.513 8.79999 356.5H11.2ZM0.0561973 368.187C6.26017 367.896 11.2 362.775 11.2 356.5H8.79999C8.79999 361.487 4.87345 365.559 -0.0561973 365.79L0.0561973 368.187ZM1.2 374.012L1.2 366.988H-1.2L-1.2 374.012H1.2ZM11.2 384.5C11.2 378.225 6.26017 373.104 0.0561973 372.813L-0.0561973 375.21C4.87346 375.441 8.79999 379.513 8.79999 384.5H11.2ZM0.0561973 396.187C6.26017 395.896 11.2 390.775 11.2 384.5H8.79999C8.79999 389.487 4.87345 393.559 -0.0561973 393.79L0.0561973 396.187ZM1.2 402.011L1.2 394.988H-1.2L-1.2 402.011H1.2ZM11.2 412C11.2 405.941 6.20642 401.087 0.0535283 400.812L-0.0535283 403.21C4.9272 403.432 8.79999 407.333 8.79999 412H11.2ZM0.0535283 423.188C6.20642 422.913 11.2 418.059 11.2 412H8.79999C8.79999 416.667 4.9272 420.568 -0.0535283 420.79L0.0535283 423.188ZM1.2 429.012L1.2 421.989H-1.2L-1.2 429.012H1.2ZM11.2 439.5C11.2 433.225 6.26017 428.104 0.0561973 427.813L-0.0561973 430.21C4.87346 430.441 8.79999 434.513 8.79999 439.5H11.2ZM0.0561973 451.187C6.26017 450.896 11.2 445.775 11.2 439.5H8.79999C8.79999 444.487 4.87345 448.559 -0.0561973 448.79L0.0561973 451.187ZM1.2 457.011L1.2 449.988H-1.2L-1.2 457.011H1.2ZM11.2 467C11.2 460.941 6.20642 456.087 0.0535283 455.812L-0.0535283 458.21C4.9272 458.432 8.79999 462.333 8.79999 467H11.2ZM0.0535283 478.188C6.20642 477.913 11.2 473.059 11.2 467H8.79999C8.79999 471.667 4.9272 475.568 -0.0535283 475.79L0.0535283 478.188ZM1.2 484.012L1.2 476.989H-1.2L-1.2 484.012H1.2ZM11.2 494.5C11.2 488.225 6.26017 483.104 0.0561973 482.813L-0.0561973 485.21C4.87346 485.441 8.79999 489.513 8.79999 494.5H11.2ZM0.0561973 506.187C6.26017 505.896 11.2 500.775 11.2 494.5H8.79999C8.79999 499.487 4.87345 503.559 -0.0561973 503.79L0.0561973 506.187ZM1.2 512.012L1.2 504.988H-1.2L-1.2 512.012H1.2ZM11.2 522.5C11.2 516.225 6.26016 511.104 0.0561973 510.813L-0.0561973 513.21C4.87346 513.442 8.79999 517.513 8.79999 522.5H11.2ZM0.0561973 534.187C6.26016 533.896 11.2 528.775 11.2 522.5H8.79999C8.79999 527.487 4.87346 531.558 -0.0561973 531.79L0.0561973 534.187ZM1.2 540.011L1.2 532.988H-1.2L-1.2 540.011H1.2ZM11.2 550C11.2 543.941 6.20643 539.087 0.0535217 538.812L-0.0535217 541.21C4.92719 541.432 8.79999 545.333 8.79999 550H11.2ZM0.0535217 561.188C6.20643 560.913 11.2 556.059 11.2 550H8.79999C8.79999 554.667 4.92719 558.568 -0.0535217 558.79L0.0535217 561.188ZM1.2 567.012L1.2 559.989H-1.2L-1.2 567.012H1.2ZM11.2 577.5C11.2 571.225 6.26016 566.104 0.0561973 565.813L-0.0561973 568.21C4.87346 568.442 8.79999 572.513 8.79999 577.5H11.2ZM0.0561973 589.187C6.26016 588.896 11.2 583.775 11.2 577.5H8.79999C8.79999 582.487 4.87346 586.558 -0.0561973 586.79L0.0561973 589.187ZM1.2 595.012L1.2 587.988H-1.2L-1.2 595.012H1.2ZM11.2 605.5C11.2 599.225 6.26016 594.104 0.0561973 593.813L-0.0561973 596.21C4.87346 596.442 8.79999 600.513 8.79999 605.5H11.2ZM0.0561973 617.187C6.26016 616.896 11.2 611.775 11.2 605.5H8.79999C8.79999 610.487 4.87346 614.558 -0.0561973 614.79L0.0561973 617.187ZM1.2 622.012L1.2 615.988H-1.2L-1.2 622.012H1.2ZM11.2 632.5C11.2 626.225 6.26016 621.104 0.0561973 620.813L-0.0561973 623.21C4.87346 623.442 8.79999 627.513 8.79999 632.5H11.2ZM0.0561973 644.187C6.26016 643.896 11.2 638.775 11.2 632.5H8.79999C8.79999 637.487 4.87346 641.558 -0.0561973 641.79L0.0561973 644.187ZM1.2 650.012L1.2 642.988H-1.2L-1.2 650.012H1.2ZM11.2 660.5C11.2 654.225 6.26016 649.104 0.0561973 648.813L-0.0561973 651.21C4.87346 651.442 8.79999 655.513 8.79999 660.5H11.2ZM0.0561973 672.187C6.26016 671.896 11.2 666.775 11.2 660.5H8.79999C8.79999 665.487 4.87346 669.558 -0.0561973 669.79L0.0561973 672.187ZM1.2 678.011L1.2 670.988H-1.2L-1.2 678.011H1.2ZM11.2 688C11.2 681.941 6.20643 677.087 0.0535217 676.812L-0.0535217 679.21C4.92719 679.432 8.79999 683.333 8.79999 688H11.2ZM0.0535217 699.188C6.20643 698.913 11.2 694.059 11.2 688H8.79999C8.79999 692.667 4.92719 696.568 -0.0535217 696.79L0.0535217 699.188ZM1.2 705.012L1.2 697.989H-1.2L-1.2 705.012H1.2ZM11.2 715.5C11.2 709.225 6.26016 704.104 0.0561973 703.813L-0.0561973 706.21C4.87346 706.442 8.79999 710.513 8.79999 715.5H11.2ZM11.0816 717.17C11.1597 716.624 11.2 716.066 11.2 715.5H8.79999C8.79999 715.952 8.7678 716.396 8.70575 716.83L11.0816 717.17ZM16.1063 715.8H9.89366V718.2H16.1063V715.8ZM14.8 715.5C14.8 716.066 14.8403 716.624 14.9184 717.17L17.2942 716.83C17.2322 716.396 17.2 715.952 17.2 715.5H14.8ZM26.5 703.8C20.0383 703.8 14.8 709.038 14.8 715.5H17.2C17.2 710.364 21.3637 706.2 26.5 706.2L26.5 703.8ZM38.2 715.5C38.2 709.038 32.9617 703.8 26.5 703.8L26.5 706.2C31.6362 706.2 35.8 710.364 35.8 715.5H38.2ZM38.0816 717.17C38.1597 716.624 38.2 716.066 38.2 715.5H35.8C35.8 715.952 35.7678 716.396 35.7057 716.83L38.0816 717.17ZM42.1063 715.8H36.8937V718.2H42.1063V715.8ZM40.8 715.5C40.8 716.066 40.8403 716.624 40.9184 717.17L43.2942 716.83C43.2322 716.396 43.2 715.952 43.2 715.5H40.8ZM52.5 703.8C46.0383 703.8 40.8 709.038 40.8 715.5H43.2C43.2 710.364 47.3637 706.2 52.5 706.2V703.8ZM64.2 715.5C64.2 709.038 58.9617 703.8 52.5 703.8V706.2C57.6362 706.2 61.8 710.364 61.8 715.5H64.2ZM64.0816 717.17C64.1597 716.624 64.2 716.066 64.2 715.5H61.8C61.8 715.952 61.7678 716.396 61.7057 716.83L64.0816 717.17ZM68.1063 715.8H62.8937V718.2H68.1063V715.8ZM66.8 715.5C66.8 716.066 66.8403 716.624 66.9184 717.17L69.2942 716.83C69.2322 716.396 69.2 715.952 69.2 715.5H66.8ZM78.5 703.8C72.0383 703.8 66.8 709.038 66.8 715.5H69.2C69.2 710.364 73.3637 706.2 78.5 706.2V703.8ZM90.2 715.5C90.2 709.038 84.9617 703.8 78.5 703.8V706.2C83.6362 706.2 87.8 710.364 87.8 715.5H90.2ZM90.0816 717.17C90.1597 716.624 90.2 716.066 90.2 715.5H87.8C87.8 715.952 87.7678 716.396 87.7057 716.83L90.0816 717.17ZM96.1063 715.8H88.8937V718.2H96.1063V715.8ZM94.8 715.5C94.8 716.066 94.8403 716.624 94.9184 717.17L97.2942 716.83C97.2322 716.396 97.2 715.952 97.2 715.5H94.8ZM106.5 703.8C100.038 703.8 94.8 709.038 94.8 715.5H97.2C97.2 710.364 101.364 706.2 106.5 706.2V703.8ZM118.2 715.5C118.2 709.038 112.962 703.8 106.5 703.8V706.2C111.636 706.2 115.8 710.364 115.8 715.5H118.2ZM118.082 717.17C118.16 716.624 118.2 716.066 118.2 715.5H115.8C115.8 715.952 115.768 716.396 115.706 716.83L118.082 717.17ZM124.106 715.8H116.894V718.2H124.106V715.8ZM122.8 715.5C122.8 716.066 122.84 716.624 122.918 717.17L125.294 716.83C125.232 716.396 125.2 715.952 125.2 715.5H122.8ZM134.5 703.8C128.038 703.8 122.8 709.038 122.8 715.5H125.2C125.2 710.364 129.364 706.2 134.5 706.2V703.8ZM146.2 715.5C146.2 709.038 140.962 703.8 134.5 703.8V706.2C139.636 706.2 143.8 710.364 143.8 715.5H146.2ZM146.082 717.17C146.16 716.624 146.2 716.066 146.2 715.5H143.8C143.8 715.952 143.768 716.396 143.706 716.83L146.082 717.17ZM152.106 715.8H144.894V718.2H152.106V715.8ZM150.8 715.5C150.8 716.066 150.84 716.624 150.918 717.17L153.294 716.83C153.232 716.396 153.2 715.952 153.2 715.5H150.8ZM162.5 703.8C156.038 703.8 150.8 709.038 150.8 715.5H153.2C153.2 710.364 157.364 706.2 162.5 706.2V703.8ZM174.2 715.5C174.2 709.038 168.962 703.8 162.5 703.8V706.2C167.636 706.2 171.8 710.364 171.8 715.5H174.2ZM174.082 717.17C174.16 716.624 174.2 716.066 174.2 715.5H171.8C171.8 715.952 171.768 716.396 171.706 716.83L174.082 717.17ZM180.106 715.8H172.894V718.2H180.106V715.8ZM178.8 715.5C178.8 716.066 178.84 716.624 178.918 717.17L181.294 716.83C181.232 716.396 181.2 715.952 181.2 715.5H178.8ZM190.5 703.8C184.038 703.8 178.8 709.038 178.8 715.5H181.2C181.2 710.364 185.364 706.2 190.5 706.2V703.8ZM202.2 715.5C202.2 709.038 196.962 703.8 190.5 703.8V706.2C195.636 706.2 199.8 710.364 199.8 715.5H202.2ZM202.082 717.17C202.16 716.624 202.2 716.066 202.2 715.5H199.8C199.8 715.952 199.768 716.396 199.706 716.83L202.082 717.17ZM208.106 715.8H200.894V718.2H208.106V715.8ZM206.8 715.5C206.8 716.066 206.84 716.624 206.918 717.17L209.294 716.83C209.232 716.396 209.2 715.952 209.2 715.5H206.8ZM218.5 703.8C212.038 703.8 206.8 709.038 206.8 715.5H209.2C209.2 710.364 213.364 706.2 218.5 706.2V703.8ZM230.2 715.5C230.2 709.038 224.962 703.8 218.5 703.8V706.2C223.636 706.2 227.8 710.364 227.8 715.5H230.2ZM230.082 717.17C230.16 716.624 230.2 716.066 230.2 715.5H227.8C227.8 715.952 227.768 716.396 227.706 716.83L230.082 717.17ZM236.106 715.8H228.894V718.2H236.106V715.8ZM234.8 715.5C234.8 716.066 234.84 716.624 234.918 717.17L237.294 716.83C237.232 716.396 237.2 715.952 237.2 715.5H234.8ZM246.5 703.8C240.038 703.8 234.8 709.038 234.8 715.5H237.2C237.2 710.364 241.364 706.2 246.5 706.2V703.8ZM258.2 715.5C258.2 709.038 252.962 703.8 246.5 703.8V706.2C251.636 706.2 255.8 710.364 255.8 715.5H258.2ZM258.082 717.17C258.16 716.624 258.2 716.066 258.2 715.5H255.8C255.8 715.952 255.768 716.396 255.706 716.83L258.082 717.17ZM264.106 715.8H256.894V718.2H264.106V715.8ZM265.294 716.83C265.232 716.396 265.2 715.952 265.2 715.5H262.8C262.8 716.066 262.84 716.624 262.918 717.17L265.294 716.83ZM265.2 715.5C265.2 710.364 269.364 706.2 274.5 706.2V703.8C268.038 703.8 262.8 709.038 262.8 715.5H265.2ZM274.5 706.2C279.636 706.2 283.8 710.364 283.8 715.5H286.2C286.2 709.038 280.962 703.8 274.5 703.8V706.2ZM283.8 715.5C283.8 715.952 283.768 716.396 283.706 716.83L286.082 717.17C286.16 716.624 286.2 716.066 286.2 715.5H283.8ZM292.106 715.8H284.894V718.2H292.106V715.8ZM290.8 715.5C290.8 716.066 290.84 716.624 290.918 717.17L293.294 716.83C293.232 716.396 293.2 715.952 293.2 715.5H290.8ZM302.5 703.8C296.038 703.8 290.8 709.038 290.8 715.5H293.2C293.2 710.364 297.364 706.2 302.5 706.2V703.8ZM314.2 715.5C314.2 709.038 308.962 703.8 302.5 703.8V706.2C307.636 706.2 311.8 710.364 311.8 715.5H314.2ZM314.082 717.17C314.16 716.624 314.2 716.066 314.2 715.5H311.8C311.8 715.952 311.768 716.396 311.706 716.83L314.082 717.17ZM317.106 715.8H312.894V718.2H317.106V715.8ZM315.8 715.5C315.8 716.066 315.84 716.624 315.918 717.17L318.294 716.83C318.232 716.396 318.2 715.952 318.2 715.5H315.8ZM327.5 703.8C321.038 703.8 315.8 709.038 315.8 715.5H318.2C318.2 710.364 322.364 706.2 327.5 706.2V703.8ZM327.725 703.802C327.65 703.801 327.575 703.8 327.5 703.8V706.2C327.56 706.2 327.62 706.201 327.679 706.202L327.725 703.802ZM328.056 703.813C327.946 703.808 327.836 703.804 327.724 703.802L327.679 706.202C327.767 706.203 327.856 706.206 327.944 706.21L328.056 703.813ZM326.8 697.989V705.012H329.2V697.989H326.8ZM327.5 699.2C327.685 699.2 327.87 699.196 328.053 699.188L327.947 696.79C327.799 696.797 327.65 696.8 327.5 696.8V699.2ZM315.8 688C315.8 694.24 321.094 699.2 327.5 699.2V696.8C322.308 696.8 318.2 692.806 318.2 688H315.8ZM327.5 676.8C321.094 676.8 315.8 681.76 315.8 688H318.2C318.2 683.194 322.308 679.2 327.5 679.2V676.8ZM328.053 676.812C327.87 676.804 327.685 676.8 327.5 676.8V679.2C327.65 679.2 327.799 679.203 327.947 679.21L328.053 676.812ZM326.8 670.988V678.011H329.2V670.988H326.8ZM327.5 672.2C327.687 672.2 327.872 672.196 328.056 672.187L327.944 669.79C327.797 669.797 327.649 669.8 327.5 669.8V672.2ZM315.8 660.5C315.8 666.962 321.038 672.2 327.5 672.2V669.8C322.364 669.8 318.2 665.636 318.2 660.5H315.8ZM327.5 648.8C321.038 648.8 315.8 654.038 315.8 660.5H318.2C318.2 655.364 322.364 651.2 327.5 651.2V648.8ZM328.056 648.813C327.872 648.804 327.687 648.8 327.5 648.8V651.2C327.649 651.2 327.797 651.203 327.944 651.21L328.056 648.813ZM326.8 642.988V650.012H329.2V642.988H326.8ZM328.012 644.189L328.052 644.187L327.948 641.789L327.907 641.791L328.012 644.189ZM327.966 644.191L328.011 644.189L327.908 641.791L327.862 641.793L327.966 644.191ZM327.92 644.193L327.958 644.191L327.87 641.793L327.832 641.794L327.92 644.193ZM327.814 644.196C327.849 644.195 327.883 644.194 327.918 644.193L327.834 641.794C327.806 641.795 327.777 641.796 327.749 641.797L327.814 644.196ZM327.5 644.2C327.604 644.2 327.709 644.199 327.813 644.196L327.75 641.797C327.667 641.799 327.584 641.8 327.5 641.8V644.2ZM315.8 632.5C315.8 638.962 321.038 644.2 327.5 644.2V641.8C322.364 641.8 318.2 637.636 318.2 632.5H315.8ZM327.5 620.8C321.038 620.8 315.8 626.038 315.8 632.5H318.2C318.2 627.364 322.364 623.2 327.5 623.2V620.8ZM328.056 620.813C327.872 620.804 327.687 620.8 327.5 620.8V623.2C327.649 623.2 327.797 623.203 327.944 623.21L328.056 620.813ZM326.8 615.988V622.012H329.2V615.988H326.8ZM327.5 617.2C327.687 617.2 327.872 617.196 328.056 617.187L327.944 614.79C327.797 614.797 327.649 614.8 327.5 614.8V617.2ZM315.8 605.5C315.8 611.962 321.038 617.2 327.5 617.2V614.8C322.364 614.8 318.2 610.636 318.2 605.5H315.8ZM327.5 593.8C321.038 593.8 315.8 599.038 315.8 605.5H318.2C318.2 600.364 322.364 596.2 327.5 596.2V593.8ZM328.056 593.813C327.872 593.804 327.687 593.8 327.5 593.8V596.2C327.649 596.2 327.797 596.203 327.944 596.21L328.056 593.813ZM326.8 587.988V595.012H329.2V587.988H326.8ZM327.8 589.196C327.885 589.194 327.971 589.191 328.056 589.187L327.944 586.79C327.876 586.793 327.808 586.795 327.739 586.797L327.8 589.196ZM327.5 589.2C327.6 589.2 327.7 589.199 327.799 589.196L327.739 586.797C327.659 586.799 327.58 586.8 327.5 586.8V589.2ZM315.8 577.5C315.8 583.962 321.038 589.2 327.5 589.2V586.8C322.364 586.8 318.2 582.636 318.2 577.5H315.8ZM327.5 565.8C321.038 565.8 315.8 571.038 315.8 577.5H318.2C318.2 572.364 322.364 568.2 327.5 568.2V565.8ZM328.056 565.813C327.872 565.804 327.687 565.8 327.5 565.8V568.2C327.649 568.2 327.797 568.203 327.944 568.21L328.056 565.813ZM326.8 559.989V567.012H329.2V559.989H326.8ZM327.5 561.2C327.685 561.2 327.87 561.196 328.053 561.188L327.947 558.79C327.799 558.797 327.65 558.8 327.5 558.8V561.2ZM315.8 550C315.8 556.24 321.094 561.2 327.5 561.2V558.8C322.308 558.8 318.2 554.806 318.2 550H315.8ZM327.5 538.8C321.094 538.8 315.8 543.76 315.8 550H318.2C318.2 545.194 322.308 541.2 327.5 541.2V538.8ZM328.053 538.812C327.87 538.804 327.685 538.8 327.5 538.8V541.2C327.65 541.2 327.799 541.203 327.947 541.21L328.053 538.812ZM326.8 532.988V540.011H329.2V532.988H326.8ZM327.92 534.193C327.966 534.191 328.012 534.189 328.056 534.187L327.944 531.79C327.907 531.791 327.871 531.793 327.837 531.794L327.92 534.193ZM327.792 534.196C327.835 534.195 327.877 534.194 327.92 534.193L327.837 531.794C327.802 531.795 327.767 531.796 327.732 531.797L327.792 534.196ZM327.5 534.2C327.598 534.2 327.695 534.199 327.791 534.196L327.732 531.797C327.655 531.799 327.577 531.8 327.5 531.8V534.2ZM315.8 522.5C315.8 528.962 321.038 534.2 327.5 534.2V531.8C322.364 531.8 318.2 527.636 318.2 522.5H315.8ZM327.5 510.8C321.038 510.8 315.8 516.038 315.8 522.5H318.2C318.2 517.364 322.364 513.2 327.5 513.2V510.8ZM328.056 510.813C327.872 510.804 327.687 510.8 327.5 510.8V513.2C327.649 513.2 327.797 513.203 327.944 513.21L328.056 510.813ZM326.8 504.988V512.012H329.2V504.988H326.8ZM327.5 506.2C327.686 506.2 327.872 506.196 328.056 506.187L327.944 503.79C327.797 503.797 327.649 503.8 327.5 503.8V506.2ZM315.8 494.5C315.8 500.962 321.038 506.2 327.5 506.2V503.8C322.364 503.8 318.2 499.636 318.2 494.5H315.8ZM327.5 482.8C321.038 482.8 315.8 488.038 315.8 494.5H318.2C318.2 489.364 322.364 485.2 327.5 485.2V482.8ZM327.75 482.803C327.667 482.801 327.583 482.8 327.5 482.8V485.2C327.567 485.2 327.633 485.201 327.699 485.202L327.75 482.803ZM328.056 482.813C327.954 482.808 327.852 482.805 327.75 482.803L327.699 485.202C327.781 485.204 327.863 485.207 327.944 485.21L328.056 482.813ZM326.8 476.989V484.012H329.2V476.989H326.8ZM327.5 478.2C327.686 478.2 327.87 478.196 328.053 478.188L327.947 475.79C327.799 475.797 327.65 475.8 327.5 475.8V478.2ZM315.8 467C315.8 473.24 321.094 478.2 327.5 478.2V475.8C322.308 475.8 318.2 471.806 318.2 467H315.8ZM327.5 455.8C321.094 455.8 315.8 460.76 315.8 467H318.2C318.2 462.194 322.308 458.2 327.5 458.2V455.8ZM328.053 455.812C327.87 455.804 327.686 455.8 327.5 455.8V458.2C327.65 458.2 327.799 458.203 327.947 458.21L328.053 455.812ZM326.8 449.988V457.011H329.2V449.988H326.8ZM327.5 451.2C327.686 451.2 327.872 451.196 328.056 451.187L327.944 448.79C327.797 448.797 327.649 448.8 327.5 448.8V451.2ZM315.8 439.5C315.8 445.962 321.038 451.2 327.5 451.2V448.8C322.364 448.8 318.2 444.636 318.2 439.5H315.8ZM327.5 427.8C321.038 427.8 315.8 433.038 315.8 439.5H318.2C318.2 434.364 322.364 430.2 327.5 430.2V427.8ZM328.056 427.813C327.872 427.804 327.686 427.8 327.5 427.8V430.2C327.649 430.2 327.797 430.203 327.944 430.21L328.056 427.813ZM326.8 421.989V429.012H329.2V421.989H326.8ZM327.787 423.197C327.876 423.195 327.965 423.192 328.053 423.188L327.947 420.79C327.875 420.793 327.803 420.796 327.731 420.797L327.787 423.197ZM327.658 423.199C327.701 423.198 327.744 423.198 327.787 423.197L327.732 420.797C327.697 420.798 327.662 420.799 327.627 420.799L327.658 423.199ZM327.548 423.2C327.585 423.2 327.622 423.199 327.658 423.199L327.627 420.799C327.598 420.8 327.569 420.8 327.539 420.8L327.548 423.2ZM327.503 423.2L327.546 423.2L327.541 420.8L327.497 420.8L327.503 423.2ZM315.8 412C315.8 418.24 321.094 423.2 327.5 423.2V420.8C322.308 420.8 318.2 416.806 318.2 412H315.8ZM327.5 400.8C321.094 400.8 315.8 405.76 315.8 412H318.2C318.2 407.194 322.308 403.2 327.5 403.2V400.8ZM328.053 400.812C327.87 400.804 327.686 400.8 327.5 400.8V403.2C327.65 403.2 327.799 403.203 327.947 403.21L328.053 400.812ZM326.8 394.988V402.011H329.2V394.988H326.8ZM327.5 396.2C327.686 396.2 327.872 396.196 328.056 396.187L327.944 393.79C327.797 393.797 327.649 393.8 327.5 393.8V396.2ZM315.8 384.5C315.8 390.962 321.038 396.2 327.5 396.2V393.8C322.364 393.8 318.2 389.636 318.2 384.5H315.8ZM327.5 372.8C321.038 372.8 315.8 378.038 315.8 384.5H318.2C318.2 379.364 322.364 375.2 327.5 375.2V372.8ZM328.056 372.813C327.872 372.804 327.686 372.8 327.5 372.8V375.2C327.649 375.2 327.797 375.203 327.944 375.21L328.056 372.813ZM326.8 366.988V374.012H329.2V366.988H326.8ZM327.5 368.2C327.686 368.2 327.872 368.196 328.056 368.187L327.944 365.79C327.797 365.797 327.649 365.8 327.5 365.8V368.2ZM315.8 356.5C315.8 362.962 321.038 368.2 327.5 368.2V365.8C322.364 365.8 318.2 361.636 318.2 356.5H315.8ZM327.5 344.8C321.038 344.8 315.8 350.038 315.8 356.5H318.2C318.2 351.364 322.364 347.2 327.5 347.2V344.8ZM328.056 344.813C327.872 344.804 327.686 344.8 327.5 344.8V347.2C327.649 347.2 327.797 347.203 327.944 347.21L328.056 344.813ZM326.8 338.989V346.012H329.2V338.989H326.8ZM327.5 340.2C327.686 340.2 327.87 340.196 328.053 340.188L327.947 337.79C327.799 337.797 327.65 337.8 327.5 337.8V340.2ZM315.8 329C315.8 335.24 321.094 340.2 327.5 340.2V337.8C322.308 337.8 318.2 333.806 318.2 329H315.8ZM327.5 317.8C321.094 317.8 315.8 322.76 315.8 329H318.2C318.2 324.194 322.308 320.2 327.5 320.2V317.8ZM328.053 317.812C327.87 317.804 327.686 317.8 327.5 317.8V320.2C327.65 320.2 327.799 320.203 327.947 320.21L328.053 317.812ZM326.8 311.988V319.011H329.2V311.988H326.8ZM327.77 313.197C327.866 313.195 327.961 313.191 328.056 313.187L327.944 310.79C327.868 310.793 327.792 310.796 327.716 310.798L327.77 313.197ZM327.5 313.2C327.59 313.2 327.68 313.199 327.77 313.197L327.716 310.798C327.644 310.799 327.572 310.8 327.5 310.8V313.2ZM315.8 301.5C315.8 307.962 321.038 313.2 327.5 313.2V310.8C322.364 310.8 318.2 306.636 318.2 301.5H315.8ZM327.5 289.8C321.038 289.8 315.8 295.038 315.8 301.5H318.2C318.2 296.364 322.364 292.2 327.5 292.2V289.8ZM327.819 289.804C327.713 289.801 327.607 289.8 327.5 289.8V292.2C327.585 292.2 327.67 292.201 327.755 292.203L327.819 289.804ZM328.056 289.813C327.978 289.809 327.898 289.806 327.819 289.804L327.755 292.203C327.818 292.205 327.881 292.207 327.944 292.21L328.056 289.813ZM326.8 283.988V291.012H329.2V283.988H326.8ZM327.5 285.2C327.686 285.2 327.872 285.196 328.056 285.187L327.944 282.79C327.797 282.797 327.649 282.8 327.5 282.8V285.2ZM315.8 273.5C315.8 279.962 321.038 285.2 327.5 285.2V282.8C322.364 282.8 318.2 278.636 318.2 273.5H315.8ZM327.5 261.8C321.038 261.8 315.8 267.038 315.8 273.5H318.2C318.2 268.364 322.364 264.2 327.5 264.2V261.8ZM328.056 261.813C327.872 261.804 327.686 261.8 327.5 261.8V264.2C327.649 264.2 327.797 264.203 327.944 264.21L328.056 261.813ZM326.8 256.988V263.012H329.2V256.988H326.8ZM327.5 258.2C327.686 258.2 327.872 258.196 328.056 258.187L327.944 255.79C327.797 255.797 327.649 255.8 327.5 255.8V258.2ZM315.8 246.5C315.8 252.962 321.038 258.2 327.5 258.2V255.8C322.364 255.8 318.2 251.636 318.2 246.5H315.8ZM327.5 234.8C321.038 234.8 315.8 240.038 315.8 246.5H318.2C318.2 241.364 322.364 237.2 327.5 237.2V234.8ZM328.056 234.813C327.872 234.804 327.686 234.8 327.5 234.8V237.2C327.649 237.2 327.797 237.203 327.944 237.21L328.056 234.813ZM326.8 228.988V236.012H329.2V228.988H326.8ZM327.5 230.2C327.686 230.2 327.872 230.196 328.056 230.187L327.944 227.79C327.797 227.796 327.649 227.8 327.5 227.8V230.2ZM315.8 218.5C315.8 224.962 321.038 230.2 327.5 230.2V227.8C322.364 227.8 318.2 223.636 318.2 218.5H315.8ZM327.5 206.8C321.038 206.8 315.8 212.038 315.8 218.5H318.2C318.2 213.364 322.364 209.2 327.5 209.2V206.8ZM327.815 206.804C327.711 206.801 327.605 206.8 327.5 206.8V209.2C327.584 209.2 327.668 209.201 327.752 209.203L327.815 206.804ZM328.056 206.813C327.976 206.809 327.896 206.806 327.815 206.804L327.752 209.203C327.816 209.205 327.88 209.207 327.944 209.21L328.056 206.813ZM326.8 200.989V208.012H329.2V200.989H326.8ZM327.5 202.2C327.685 202.2 327.87 202.196 328.054 202.188L327.946 199.79C327.799 199.797 327.65 199.8 327.5 199.8V202.2ZM315.8 191C315.8 197.24 321.094 202.2 327.5 202.2V199.8C322.308 199.8 318.2 195.806 318.2 191H315.8ZM327.5 179.8C321.094 179.8 315.8 184.76 315.8 191H318.2C318.2 186.194 322.308 182.2 327.5 182.2V179.8ZM328.054 179.812C327.87 179.804 327.685 179.8 327.5 179.8V182.2C327.65 182.2 327.799 182.203 327.946 182.21L328.054 179.812ZM326.8 173.988V181.011H329.2V173.988H326.8ZM327.5 175.2C327.686 175.2 327.872 175.196 328.056 175.187L327.944 172.79C327.797 172.796 327.649 172.8 327.5 172.8V175.2ZM315.8 163.5C315.8 169.962 321.038 175.2 327.5 175.2V172.8C322.364 172.8 318.2 168.636 318.2 163.5H315.8ZM327.5 151.8C321.038 151.8 315.8 157.038 315.8 163.5H318.2C318.2 158.364 322.364 154.2 327.5 154.2V151.8ZM328.056 151.813C327.872 151.804 327.686 151.8 327.5 151.8V154.2C327.649 154.2 327.797 154.203 327.944 154.21L328.056 151.813ZM326.8 145.988V153.012H329.2V145.988H326.8ZM327.5 147.2C327.686 147.2 327.872 147.196 328.056 147.187L327.944 144.79C327.797 144.796 327.649 144.8 327.5 144.8V147.2ZM315.8 135.5C315.8 141.962 321.038 147.2 327.5 147.2V144.8C322.364 144.8 318.2 140.636 318.2 135.5H315.8ZM327.5 123.8C321.038 123.8 315.8 129.038 315.8 135.5H318.2C318.2 130.364 322.364 126.2 327.5 126.2V123.8ZM328.056 123.813C327.872 123.804 327.686 123.8 327.5 123.8V126.2C327.649 126.2 327.797 126.203 327.944 126.21L328.056 123.813ZM326.8 118.988V125.012H329.2V118.988H326.8ZM327.81 120.196C327.892 120.194 327.974 120.191 328.056 120.187L327.944 117.79C327.878 117.793 327.813 117.795 327.747 117.797L327.81 120.196ZM327.5 120.2C327.603 120.2 327.707 120.199 327.809 120.196L327.747 117.797C327.665 117.799 327.583 117.8 327.5 117.8V120.2ZM315.8 108.5C315.8 114.962 321.038 120.2 327.5 120.2V117.8C322.364 117.8 318.2 113.636 318.2 108.5H315.8ZM327.5 96.8C321.038 96.8 315.8 102.038 315.8 108.5H318.2C318.2 103.364 322.364 99.2 327.5 99.2V96.8ZM328.056 96.813C327.872 96.8044 327.686 96.8 327.5 96.8V99.2C327.649 99.2 327.797 99.2035 327.944 99.2104L328.056 96.813ZM326.8 90.9883V98.0117H329.2V90.9883H326.8ZM327.5 92.2C327.686 92.2 327.872 92.1956 328.056 92.187L327.944 89.7896C327.797 89.7965 327.649 89.8 327.5 89.8V92.2ZM315.8 80.5C315.8 86.9617 321.038 92.2 327.5 92.2V89.8C322.364 89.8 318.2 85.6362 318.2 80.5H315.8ZM327.5 68.8C321.038 68.8 315.8 74.0383 315.8 80.5H318.2C318.2 75.3637 322.364 71.2 327.5 71.2V68.8ZM328.056 68.813C327.872 68.8044 327.686 68.8 327.5 68.8V71.2C327.649 71.2 327.797 71.2035 327.944 71.2104L328.056 68.813ZM326.8 62.9889V70.0117H329.2V62.9889H326.8ZM327.5 64.2C327.685 64.2 327.87 64.1959 328.054 64.1877L327.946 61.79C327.799 61.7966 327.65 61.8 327.5 61.8V64.2ZM315.8 53C315.8 59.2401 321.094 64.2 327.5 64.2V61.8C322.308 61.8 318.2 57.8056 318.2 53H315.8ZM327.5 41.8C321.094 41.8 315.8 46.7599 315.8 53H318.2C318.2 48.1944 322.308 44.2 327.5 44.2V41.8ZM328.054 41.8123C327.87 41.8041 327.685 41.8 327.5 41.8V44.2C327.65 44.2 327.799 44.2033 327.946 44.2099L328.054 41.8123ZM326.8 35.9883V43.0111H329.2V35.9883H326.8ZM327.5 37.2C327.686 37.2 327.872 37.1956 328.056 37.187L327.944 34.7896C327.797 34.7965 327.649 34.8 327.5 34.8V37.2ZM315.8 25.5C315.8 31.9617 321.038 37.2 327.5 37.2V34.8C322.364 34.8 318.2 30.6362 318.2 25.5H315.8ZM327.5 13.8C321.038 13.8 315.8 19.0383 315.8 25.5H318.2C318.2 20.3637 322.364 16.2 327.5 16.2V13.8ZM328.056 13.813C327.872 13.8044 327.686 13.8 327.5 13.8V16.2C327.649 16.2 327.797 16.2035 327.944 16.2104L328.056 13.813ZM326.8 10.7005V15.0117H329.2V10.7005H326.8ZM318.8 0.499991C318.8 6.00336 322.599 10.6166 327.715 11.8663L328.285 9.53481C324.217 8.54142 321.2 4.8716 321.2 0.499991L318.8 0.499991ZM318.813 -0.056299C318.804 0.12827 318.8 0.313735 318.8 0.499991L321.2 0.499991C321.2 0.351028 321.203 0.203107 321.21 0.056299L318.813 -0.056299ZM312.988 1.2L320.012 1.2V-1.2L312.988 -1.2V1.2ZM314.2 0.499992C314.2 0.313736 314.196 0.128271 314.187 -0.0562989L311.79 0.0562989C311.797 0.203107 311.8 0.351028 311.8 0.499992L314.2 0.499992ZM302.5 12.2C308.962 12.2 314.2 6.96172 314.2 0.499992L311.8 0.499992C311.8 5.63624 307.636 9.79999 302.5 9.79999V12.2ZM290.8 0.499991C290.8 6.96172 296.038 12.2 302.5 12.2V9.79999C297.364 9.79999 293.2 5.63624 293.2 0.499991L290.8 0.499991ZM290.813 -0.056299C290.804 0.12827 290.8 0.313735 290.8 0.499991L293.2 0.499991C293.2 0.351028 293.203 0.203107 293.21 0.056299L290.813 -0.056299ZM284.988 1.2L292.012 1.2V-1.2L284.988 -1.2V1.2ZM286.2 0.499998C286.2 0.31374 286.196 0.128273 286.187 -0.0562982L283.79 0.0562982C283.797 0.203109 283.8 0.351032 283.8 0.499998L286.2 0.499998ZM274.5 12.2C280.962 12.2 286.2 6.96173 286.2 0.499998L283.8 0.499998C283.8 5.63625 279.636 9.8 274.5 9.8V12.2Z" fill="#B4751D" mask="url(#path-1-inside-1_359_1516)"/>
</svg>
