<svg width="251" height="151" viewBox="0 0 251 151" fill="none" xmlns="http://www.w3.org/2000/svg">
<rect x="11.3301" width="240" height="130" rx="65" transform="rotate(5 11.3301 0)" fill="#F6C164"/>
<path d="M56.2053 92.4477L55.679 98.4634L53.6164 98.2829L54.1427 92.2672L52.4583 92.1198L52.6448 89.9886L58.2136 90.4758L58.0272 92.6071L56.2053 92.4477ZM63.8762 96.0284L61.8136 95.848L61.54 98.9761L59.4087 98.7897L60.1215 90.6427L62.184 90.8231L61.9314 93.7107L63.9939 93.8911L64.2465 91.0036L66.309 91.184L65.5963 99.331L63.5337 99.1506C63.6025 99.1566 63.8762 96.0284 63.8762 96.0284ZM68.6466 91.3885L74.0607 91.8622L73.8742 93.9935L70.5226 93.7003L70.4429 94.6112L73.3304 94.8638L73.1635 96.7717L70.276 96.519L70.1828 97.5847L73.5344 97.8779L73.3479 100.009L67.9338 99.5355L68.6466 91.3885ZM77.4326 105.978L77.7198 102.695L79.7824 102.876L80.4154 95.6396L78.3529 95.4591L78.6326 92.2622L85.8686 92.8953L85.5889 96.0922L83.5264 95.9117L82.8933 103.148L84.9559 103.328L84.6687 106.611L77.4326 105.978ZM90.014 107.079L86.8859 106.805L88.0858 93.0893L90.9046 93.3359L94.6557 101.336L95.3219 93.7223L98.5188 94.002L97.3188 107.718L94.5 107.471L90.7429 99.5393L90.0828 107.085L90.014 107.079ZM115.287 106.831L111.248 106.477L110.347 108.858L107.081 108.572L112.011 95.1825L116.583 95.5824L119.113 109.625L115.83 109.337L115.287 106.831ZM112.272 103.484L114.799 103.705L114.025 98.4934L112.272 103.484ZM129.768 103.646L130.368 96.7884L133.496 97.0621L132.836 104.608C132.63 106.962 133.02 107.845 134.24 107.952C135.375 108.051 135.998 107.257 136.204 104.902L136.865 97.3568L140.061 97.6365L139.467 104.426C139.007 109.685 137.706 111.494 134.045 111.173C130.294 110.897 129.315 108.82 129.768 103.646ZM161.171 113.304L161.458 110.021L163.521 110.202L164.154 102.966L162.091 102.785L162.371 99.5884L169.607 100.221L169.327 103.418L167.265 103.238L166.632 110.474L168.694 110.654L168.407 113.937L161.171 113.304ZM170.248 106.945C170.629 102.597 172.917 100.199 176.114 100.479C179.311 100.759 181.146 103.534 180.767 107.866C180.387 112.214 178.683 115.061 174.867 114.728C171.052 114.394 169.868 111.294 170.248 106.945ZM177.484 107.579C177.684 105.293 177.117 103.857 175.828 103.745C174.539 103.632 173.731 104.947 173.531 107.233C173.298 109.897 173.78 111.324 175.155 111.445C176.53 111.565 177.251 110.243 177.484 107.579ZM185.096 115.397L181.899 115.118L183.099 101.402L185.918 101.648L189.824 109.663L190.49 102.048L193.618 102.322L192.418 116.038L189.6 115.791L185.694 107.777C185.695 107.76 185.096 115.397 185.096 115.397ZM108.449 98.0922L109.57 94.9689L100.736 94.196L99.536 107.912L102.664 108.185L103.111 103.081L106.531 103.38L107.653 100.257L103.373 99.8823L103.567 97.6651L108.449 98.0922ZM118.869 95.7824L119.432 99.053L121.872 99.2666L120.952 109.785L124.08 110.059L125 99.5402L127.957 99.7989L128.236 96.602L118.869 95.7824ZM147.738 109.67L143.698 109.316L142.797 111.697L139.515 111.409L144.444 98.02L149.033 98.4215L151.563 112.464L148.28 112.176C148.298 112.178 147.738 109.67 147.738 109.67ZM144.74 106.324L147.249 106.544L146.475 101.332L144.74 106.324ZM150.941 98.5884L151.572 101.865L153.927 102.071L153.007 112.59L156.135 112.864L157.055 102.345L160.029 102.605L160.309 99.4079L150.941 98.5884ZM53.3477 100.563L73.1651 102.297L72.8779 105.58L53.0605 103.846L53.3477 100.563Z" fill="#4A4E00"/>
<path d="M134.903 54.649C132.422 54.8996 130.725 57.6608 131.04 60.9963C131.354 64.3318 133.448 66.7318 135.927 66.4984C138.409 66.2479 140.105 63.4867 139.791 60.1512C139.545 56.8217 137.384 54.3985 134.903 54.649ZM135.723 63.6921C134.953 63.7806 133.908 62.4596 133.752 60.6793C133.596 58.8991 134.348 57.4236 135.117 57.3522C135.887 57.2637 136.931 58.5848 137.087 60.365C137.243 62.1452 136.491 63.6208 135.723 63.6921Z" fill="#4A4E00"/>
<path d="M142.12 49.3573C139.837 46.5424 137.032 45.1539 134.105 45.3481C131.171 45.6283 123.274 48.0029 116.573 50.9498C111.216 53.3907 107.406 55.7592 105.187 58.163C105.013 58.3729 104.776 58.508 104.466 58.4809L100.831 58.8557C100.223 58.8718 99.548 58.6741 99.1933 58.1755C98.1068 56.539 96.2516 55.7705 94.3831 56.144C92.1992 56.5591 90.7356 58.4401 90.6119 60.6461C90.5814 61.7865 90.9508 62.9099 91.6409 63.7324C91.9172 64.1375 92.0312 64.6151 91.7515 65.041C90.9377 66.4246 90.945 68.1225 91.7357 69.5772C92.5263 71.0319 93.9899 71.922 95.6631 71.9992C95.8865 72.0187 96.0412 72.0322 96.2707 71.983C97.9821 71.821 99.4392 70.8054 100.119 69.1676C100.321 68.6484 100.894 68.2309 101.588 68.2223L105.147 67.9275C105.462 67.8858 105.666 68.1288 105.708 68.4442C106.441 74.1198 108.288 79.3386 110.963 83.7985C111.098 84.0355 111.469 84.1545 111.713 83.9335L116.766 80.6172L117.408 80.2058C118.547 79.4568 118.323 77.6706 117.059 77.2656L115.043 76.5524C114.74 76.4566 114.538 76.1964 114.402 75.9594C113.957 74.9159 113.586 73.8097 113.307 72.6422C113.185 72.2505 113.604 71.8196 113.975 71.9386C115.323 72.3683 116.81 72.7928 118.404 73.1747C125.472 74.9362 133.667 75.8956 136.618 75.6169C139.57 75.3382 142.105 73.4817 143.834 70.3424C145.483 67.3345 146.193 63.5691 145.846 59.6245C145.639 55.6576 144.261 52.004 142.12 49.3573ZM102.562 65.3979L101.414 65.4534C99.7715 65.6214 98.2972 66.6355 97.6306 68.1186C97.341 68.8553 96.6069 69.328 95.8334 69.2603C94.9165 69.2493 94.1896 68.6489 93.9771 67.7123C93.8751 67.0972 94.0016 66.6407 94.1662 66.3433C94.9875 64.8738 94.824 63.1795 93.7904 61.9287C93.5865 61.6857 93.3102 61.2805 93.3643 60.6618C93.3753 59.7448 93.9757 59.018 94.9123 58.8055C94.981 58.8115 95.0669 58.819 95.1417 58.7563C95.8428 58.6617 96.5032 59.0313 96.9035 59.6032C97.7876 60.9795 99.3394 61.6521 101.026 61.5745L102.111 61.4443L103.18 62.2998L102.324 63.3681L103.392 64.2236L102.562 65.3979ZM136.499 73.2164C132.016 73.5862 127.946 68.2422 127.325 61.2776C126.705 54.3129 129.846 48.3008 134.331 47.9138C138.816 47.5268 142.885 52.8881 143.505 59.8527C144.125 66.8174 140.984 72.8295 136.499 73.2164ZM164.822 58.4964L158.714 59.0357L161.362 55.8901C161.704 55.5391 161.372 54.9732 160.902 55.0013L150.23 55.8342C149.623 55.8503 149.098 56.4972 149.268 57.1355C149.376 57.6819 149.944 58.1126 150.491 58.0045L156.531 57.4592L153.883 60.6048C153.54 60.9558 153.872 61.5217 154.342 61.4936L164.934 60.5845C165.473 60.5623 165.984 60.0701 165.944 59.5298C166 58.8938 165.438 58.3943 164.822 58.4964ZM147.12 48.4265L152.646 45.8444L151.233 49.7216C151.037 50.1721 151.537 50.5969 152.022 50.3968L161.632 45.8686C162.123 45.5998 162.468 45.0238 162.222 44.4655C161.966 43.8368 161.299 43.536 160.739 43.7988L155.145 46.3749L156.558 42.4977C156.753 42.0472 156.254 41.6225 155.768 41.8225L146.09 46.3447C145.53 46.6074 145.309 47.3502 145.64 47.9161C145.956 48.4633 146.63 48.6781 147.12 48.4265ZM163.101 73.6213L157.178 72.0294L160.736 69.9679C161.141 69.6916 161.039 69.0765 160.6 68.9515L150.326 66.2168C149.731 66.0954 149.073 66.4882 148.95 67.1009C148.829 67.6965 149.235 68.1996 149.762 68.315L155.615 69.9009L152.041 71.9609C151.635 72.2372 151.737 72.8523 152.177 72.9774L162.45 75.712C162.977 75.8274 163.604 75.5878 163.806 75.0685C164.032 74.4648 163.706 73.8302 163.101 73.6213Z" fill="#4A4E00"/>
<rect x="20.8754" y="11.3752" width="219" height="109" rx="54.5" transform="rotate(5 20.8754 11.3752)" stroke="#4A4E00"/>
</svg>
