<svg width="362" height="362" viewBox="0 0 362 362" fill="none" xmlns="http://www.w3.org/2000/svg">
<mask id="path-1-outside-1_67_578" maskUnits="userSpaceOnUse" x="5.96046e-08" y="5.96046e-08" width="362" height="362" fill="black">
<rect fill="white" x="5.96046e-08" y="5.96046e-08" width="362" height="362"/>
<path fill-rule="evenodd" clip-rule="evenodd" d="M345.201 1C348.903 7.61392 354.386 13.0966 361 16.7995V345.201C354.386 348.903 348.903 354.386 345.201 361H16.7995C13.0966 354.386 7.61392 348.903 1 345.201L1 16.7995C7.61392 13.0966 13.0966 7.61392 16.7995 1L345.201 1Z"/>
</mask>
<path d="M361 16.7995H362V16.2133L361.489 15.9269L361 16.7995ZM345.201 1L346.073 0.511486L345.787 5.96046e-08H345.201V1ZM361 345.201L361.489 346.073L362 345.787V345.201H361ZM345.201 361V362H345.787L346.073 361.489L345.201 361ZM16.7995 361L15.9269 361.489L16.2133 362H16.7995V361ZM1 345.201H5.96046e-08V345.787L0.511486 346.073L1 345.201ZM1 16.7995L0.511486 15.9269L5.96046e-08 16.2133V16.7995H1ZM16.7995 1V5.96046e-08H16.2133L15.9269 0.511486L16.7995 1ZM361.489 15.9269C355.036 12.3142 349.686 6.96442 346.073 0.511486L344.328 1.48851C348.121 8.26343 353.737 13.879 360.511 17.6721L361.489 15.9269ZM362 345.201V16.7995H360V345.201H362ZM346.073 361.489C349.686 355.036 355.036 349.686 361.489 346.073L360.511 344.328C353.737 348.121 348.121 353.737 344.328 360.511L346.073 361.489ZM16.7995 362H345.201V360H16.7995V362ZM0.511486 346.073C6.96442 349.686 12.3142 355.036 15.9269 361.489L17.6721 360.511C13.879 353.737 8.26343 348.121 1.48851 344.328L0.511486 346.073ZM5.96046e-08 16.7995L5.96046e-08 345.201H2L2 16.7995H5.96046e-08ZM15.9269 0.511486C12.3142 6.96442 6.96442 12.3142 0.511486 15.9269L1.48851 17.6721C8.26343 13.879 13.879 8.26343 17.6721 1.48851L15.9269 0.511486ZM345.201 5.96046e-08L16.7995 5.96046e-08V2L345.201 2V5.96046e-08Z" fill="#4A4E00" mask="url(#path-1-outside-1_67_578)"/>
</svg>
