<svg width="288" height="125" viewBox="0 0 288 125" fill="none" xmlns="http://www.w3.org/2000/svg">
<rect y="24.4033" width="280" height="100" rx="50" transform="rotate(-5 0 24.4033)" fill="#F6C164"/>
<rect x="11.3757" y="33.9482" width="259" height="79" rx="39.5" transform="rotate(-5 11.3757 33.9482)" stroke="#4A4E00"/>
<path fill-rule="evenodd" clip-rule="evenodd" d="M58.9631 56.52C59.4945 56.4735 60.2205 56.5885 60.9932 57.2368C61.7493 57.7072 61.8425 58.7719 61.742 59.6752C61.6269 60.4002 61.4954 60.9482 60.6553 61.5582C59.8142 62.1682 58.9266 62.2459 58.9266 62.2459L59.2215 65.6174L60.9429 66.8977L59.4544 68.2793L59.8737 73.0719C59.8737 73.0719 61.3777 71.8674 62.2561 69.6436L62.4032 69.2728C62.4653 69.9823 62.5585 71.0481 61.9877 72.7074C61.7256 73.8033 60.9322 74.9467 59.7513 75.7649C57.8919 76.9995 56.4719 77.1238 54.8592 77.0864C52.8602 76.7248 50.9918 75.8164 49.7717 74.1342C48.7754 72.9699 48.2803 71.4028 48.1405 69.8056C48.0391 66.5947 50.1129 63.7309 52.6828 62.4331C53.0225 62.2249 53.1997 62.2094 53.7321 62.1628C53.5549 62.1783 53.2152 62.3865 52.891 62.7729C52.0498 63.3819 51.4335 64.5098 51.1559 65.4286L56.279 62.655L56.9312 70.1095L52.8574 72.6128C53.4519 73.2757 54.9652 74.2173 56.2071 74.1086C58.5458 74.261 59.6946 73.0886 59.6946 73.0886L59.2753 68.296L57.3914 67.2094L59.0424 65.6341L58.7475 62.2626C57.832 62.1491 56.9228 61.9897 56.0233 61.7849C54.9431 61.7009 51.67 61.0928 51.3148 61.1239C50.7669 60.9934 50.0563 61.0555 49.7332 61.4418C49.41 61.8281 49.2794 62.376 49.5021 62.8929C49.5332 63.2482 49.7269 63.4098 49.9195 63.5714C49.9195 63.5714 49.7423 63.5869 49.3726 63.4408C48.8091 63.1321 48.2136 62.4692 48.136 61.5815C48.0428 60.5168 48.3048 59.4199 49.3086 58.6171C49.9715 58.0226 50.8281 57.5897 51.9085 57.6747C53.5211 57.7121 55.7294 58.4133 57.7284 58.7749C58.4534 58.89 58.9858 58.8434 59.4882 58.4415C59.6498 58.2488 60.1512 57.848 59.7503 57.3456C59.1558 56.6826 58.4453 56.7448 57.7202 56.6287C58.2371 56.405 58.4152 56.3895 58.9631 56.52ZM53.8622 71.811L53.2255 64.5336L51.1891 65.7847C51.1891 65.7847 50.7654 67.0732 50.9207 68.8485C51.2221 70.253 52.0723 71.788 52.6669 72.452L53.8622 71.811ZM80.1726 61.819C80.1726 61.819 78.4904 63.0391 77.4878 63.8428L75.1117 65.3032L75.7172 72.2243L74.7147 73.029L74.9073 73.1906L75.7329 72.4034L78.983 74.8014L83.9508 70.2535L83.7571 70.091L81.1189 72.6472L78.4321 70.5569L78.3701 69.8473L82.8521 65.8784L80.1726 61.819ZM80.6694 67.4982L78.3399 69.491L77.8275 63.6336L80.6694 67.4982ZM67.8574 78.4561C68.5669 78.394 69.6472 78.478 71.1823 77.6288C72.7019 76.6024 73.2726 74.942 73.1174 73.1677L73.077 70.6664L72.5957 65.1643L73.4212 64.3771L73.4057 64.2L72.403 65.0026L69.8779 62.7197L67.0781 65.4685L66.3172 56.7721L62.8379 59.9383C63.0306 60.1 63.564 60.0533 63.6416 60.941L64.713 73.187L63.209 74.3915L63.4016 74.5532L64.0658 73.9607L66.3662 75.7268L69.5056 72.7677L69.3119 72.6062L68.6645 73.3778L67.6993 72.5688L67.1092 65.8238L67.9192 64.8585L69.6717 66.4941L70.1841 72.3514C70.3238 73.9476 70.4946 75.9 69.6847 76.8664C68.891 78.0067 68.7129 78.0223 67.8574 78.4561ZM91.0466 75.7124C89.611 75.6595 89.0165 74.9966 88.9543 74.285C88.9233 73.9308 89.3779 72.9955 90.0885 72.9333C90.9606 72.6785 91.7013 72.9728 92.4894 73.7972L95.3733 69.9691L95.1962 69.9846L94.3861 70.949C93.599 70.1244 92.295 69.5225 91.0364 69.4531L90.1203 58.9813L99.3961 73.0145C99.3961 73.0145 99.5887 73.1761 99.944 73.145C100.121 73.1295 100.106 72.9524 100.106 72.9524L98.8167 58.2205C99.5118 57.9812 100.367 57.5484 100.869 57.1465C102.326 55.4096 101.461 53.6974 101.269 53.5347C101.331 54.2453 100.682 55.0169 99.8112 55.2716C98.5682 55.3804 97.5884 54.3932 97.5884 54.3932L94.8818 58.2068L95.0754 58.3683L95.8699 57.2259C97.0278 58.1975 97.7384 58.1353 98.6406 58.2359L99.386 66.7552L92.4042 56.4561C91.7942 55.615 91.0071 54.7905 89.587 54.9147C88.167 55.039 87.2109 56.374 87.1424 57.6314C87.074 58.8899 87.2821 59.2286 87.2821 59.2286C87.2821 59.2286 87.335 57.7931 88.2227 57.7154C89.1103 57.6377 89.5277 58.3162 89.9285 58.8176L90.2081 62.013C89.3204 62.0906 87.1908 62.2769 87.3927 64.5846C87.4548 65.2942 88.0648 66.1352 88.4512 66.4594C89.0147 66.7681 89.5471 66.7216 89.5471 66.7216C89.5471 66.7216 88.8054 66.4284 88.9215 65.7033C89.0376 64.9782 90.4566 64.8541 90.4721 65.0312L90.8603 69.4685C90.1508 69.5306 88.1984 69.7014 87.2879 71.57C86.8487 72.6824 86.9575 73.9253 87.7446 74.7499C88.3369 75.412 89.3021 76.2209 91.0466 75.7124ZM106.796 59.4898C106.796 59.4898 105.292 60.6943 104.112 61.5136L101.735 62.9739L102.341 69.895L101.338 70.6997L101.531 70.8613L102.534 70.0587L105.607 72.4722L110.574 67.9244L110.381 67.7617L107.743 70.3179L105.233 68.2121L105.171 67.5026L109.475 63.5492L106.796 59.4898ZM107.293 65.169L105.141 67.1462L104.628 61.2888L107.293 65.169ZM115.192 71.6326L112.342 69.736L111.355 70.7158L111.162 70.5542L112.327 69.5568L111.814 63.7005C111.597 61.2156 109.352 62.1281 109.297 59.4495C109.204 58.3847 110.191 57.4039 110.869 56.9865C111.386 56.7628 112.097 56.7007 112.097 56.7007C112.097 56.7007 111.078 57.3262 111.349 58.3755C111.828 59.7645 114.313 59.5471 114.661 61.483L115.251 68.228L117.15 69.4928L117.652 69.0899L117.015 61.8135L115.873 61.019L118.156 58.4939L120.65 60.4216L119.84 61.3869L120.399 67.7766L122.861 69.348L123.201 69.1398L122.518 61.331L121.376 60.5365L123.659 58.0114L126.313 59.7466L127.123 58.7812L127.316 58.9429L125.357 61.0816L125.901 67.2943L120.694 71.1471L117.667 69.266L115.192 71.6326ZM225.893 49.0702C225.893 49.0702 224.211 50.2903 223.209 51.0939L220.833 52.5542L221.438 59.4753L220.435 60.2801L220.629 60.4416L221.454 59.6545L224.703 62.0526L229.672 57.5046L229.477 57.3421L226.84 59.8982L224.153 57.8079L224.091 57.0984L228.574 53.1294L225.893 49.0702ZM226.39 54.7494L224.06 56.7421L223.548 50.8848L226.39 54.7494ZM201.664 54.2303L201.841 54.2148L202.665 53.4267L204.225 54.8996L204.722 60.5799L204.058 61.1754L206.6 63.6354L208.703 61.1249L207.724 60.1387L207.134 53.3937L207.62 52.8147L209.387 54.6275L209.884 60.3067L209.398 60.8857L211.731 63.008L213.851 60.6746L212.887 59.8655L212.281 52.9434L212.767 52.3644L214.712 54.1616L215.194 59.6637L214.709 60.2436L217.249 62.7037L220.179 59.406L219.987 59.2443L219.339 60.016L217.988 58.8827L217.429 52.493L218.415 51.5123L218.4 51.3351L217.234 52.3305L214.903 50.2101L212.089 52.7807L209.755 50.6605L206.942 53.231L204.61 51.1106L201.664 54.2303Z" fill="#4A4E00"/>
<path fill-rule="evenodd" clip-rule="evenodd" d="M195.259 54.6123L196.083 53.8242L197.466 55.3126L198.025 61.7034L197.215 62.6677L197.407 62.8283L198.217 61.8641L200.566 64.1635L203.349 61.2376L203.156 61.0739L202.332 61.8631L200.964 60.5507L200.406 54.162L201.392 53.1813L201.376 53.0031L200.39 53.9839L198.042 51.6854L195.259 54.6123ZM195.664 49.0316L197.623 46.8929L199.746 48.6745L197.626 51.0069L195.664 49.0316Z" fill="#4A4E00"/>
<path fill-rule="evenodd" clip-rule="evenodd" d="M192.08 44.8738C192.613 44.8273 193.516 44.9267 194.287 45.5752C194.866 46.061 195.139 47.1101 195.037 48.0134C194.922 48.7385 194.614 49.3019 193.95 49.8965C193.11 50.5065 192.223 50.584 192.223 50.584L192.518 53.9555L194.238 55.2359L192.751 56.6175L193.17 61.41C193.17 61.41 194.673 60.2056 195.552 57.9818L195.698 57.611C195.761 58.3205 195.854 59.3863 195.284 61.0456C195.021 62.1415 194.05 63.3004 193.048 64.1031C191.188 65.3377 189.592 65.4773 187.977 65.4401C186.158 65.0629 184.289 64.1544 183.068 62.4723C182.073 61.308 181.577 59.741 181.437 58.1438C181.157 54.9484 183.409 52.069 185.979 50.7713C186.32 50.563 186.496 50.5476 187.029 50.5009C186.673 50.5321 186.512 50.7246 186.187 51.111C185.347 51.72 184.731 52.8479 184.452 53.7667L189.576 50.993L190.228 58.4476L186.154 60.951C186.748 61.6139 188.261 62.5555 189.504 62.4467C191.665 62.6147 192.814 61.4422 192.814 61.4422L192.395 56.6497L190.69 55.5474L192.162 53.9877L191.867 50.6162C190.964 50.5156 189.868 50.2546 189.143 50.1386C188.24 50.039 184.967 49.4309 184.435 49.4775C184.063 49.3315 183.354 49.3936 183.031 49.7799C182.705 50.1663 182.576 50.7141 182.622 51.2465C182.831 51.5863 183.025 51.7477 183.217 51.9094C183.217 51.9094 183.04 51.9249 182.669 51.7789C182.105 51.4702 181.51 50.8074 181.432 49.9197C181.162 48.8704 181.602 47.7579 182.427 46.9708C183.269 46.3607 184.124 45.9279 185.206 46.0128C186.817 46.0502 189.025 46.7516 190.847 47.1287C191.749 47.2282 192.282 47.1815 192.783 46.7797C192.945 46.5871 193.269 46.2017 192.867 45.6994C192.451 45.0209 191.742 45.083 191.016 44.9669C191.532 44.7433 191.712 44.7276 192.08 44.8738ZM187.159 60.1491L186.522 52.8717L184.483 54.123C184.483 54.123 183.883 55.427 184.217 57.1866C184.341 58.6067 185.368 60.1263 185.963 60.7902L187.159 60.1491ZM232.769 62.2394C232.428 62.4497 230.978 62.2176 230.482 60.6506C229.988 59.0854 230.976 58.1055 232.418 56.1894L230.326 54.7631L230.031 51.3905C230.031 51.3905 231.404 50.7339 232.407 49.9312L234.412 48.3249C234.412 48.3249 235.392 49.3121 236.265 49.0572C237.67 48.7548 237.577 47.69 237.384 47.5284C237.769 47.8527 238.41 49.048 236.19 52.2827L238.461 53.6934L238.834 57.9525C238.834 57.9525 236.457 59.4128 234.466 61.1975C234.466 61.1975 233.085 59.7079 232.081 60.5106C231.24 61.1207 231.672 61.9784 232.769 62.2394ZM230.714 59.1993C230.714 59.1993 231.625 57.3318 233.608 57.5152C235.413 57.7164 236.101 59.443 236.101 59.443L235.729 55.1848L234.392 54.2288C233.274 55.7566 230.961 57.9263 230.714 59.1993ZM232.761 49.9002L233.056 53.2728L234.215 54.2443C234.215 54.2443 236.529 52.0745 237.245 50.0444C237.245 50.0444 236.321 51.7347 234.676 51.3421C233.402 51.0956 232.761 49.9002 232.761 49.9002ZM155.323 58.1061L156.148 57.318L156.325 57.3025L155.516 58.2678L156.106 65.0118C156.106 65.0118 154.408 66.0558 153.406 66.8584L151.046 68.4958L147.618 66.1134L146.97 66.885L146.793 66.9005L147.602 65.9342L146.965 58.6579C146.965 58.6579 148.339 58.0012 149.519 57.183C150.522 56.3793 151.701 55.5612 151.701 55.5612L155.323 58.1061ZM150.527 64.6064L153.212 66.6959L152.575 59.4195L149.89 57.329L150.527 64.6064ZM161.472 56.8522L163.254 54.7289C163.254 54.7289 163.447 54.8905 163.818 55.0376C164.01 55.1992 164.558 55.3308 165.076 55.106C165.415 54.8979 165.399 54.7197 165.739 54.5115C165.879 56.1087 165.262 57.2366 164.405 57.6686C163.89 57.8921 162.855 58.3406 161.488 57.0293L162.125 64.3067L163.638 65.2483L164.464 64.459L164.641 64.4435L161.695 67.5642L159.008 65.4728L158.199 66.4391L158.006 66.2754L159.14 64.9237L158.597 58.7121L157.584 57.3698L156.76 58.1579L156.582 58.1734L159.529 55.0537L161.472 56.8522ZM170.094 59.3177L173.177 53.6823C173.177 53.6823 173.756 54.1681 174.66 54.2675C175.755 54.5297 176.728 53.3716 176.728 53.3716C176.675 54.8072 176.105 56.4664 174.522 56.7844C173.295 57.0703 171.96 56.1141 171.96 56.1141L171.829 56.662L177.468 63.8588L178.454 62.8791L178.646 63.0407L175.362 66.3695L170.094 59.3177Z" fill="#4A4E00"/>
<path fill-rule="evenodd" clip-rule="evenodd" d="M166.455 52.4815C166.346 51.2396 165.752 50.5766 165.041 50.6388L168.892 47.6185L170.274 63.4162L171.431 64.387L172.079 63.6154L172.273 63.7768L169.327 66.8975L167.009 64.9544L166.2 65.9186L166.007 65.757L167.479 64.1963L166.455 52.4815ZM133.056 55.0455C132.963 53.9807 132.384 53.4949 131.673 53.5571C130.593 53.4721 130.556 55.0858 130.556 55.0858C130.556 55.0858 130.27 53.8584 131.079 52.8941C131.565 52.3152 132.552 51.3344 134.003 51.5654C135.631 51.7809 136.272 52.9762 136.366 54.041L137.654 68.772C137.654 68.772 138.202 68.9045 138.558 68.8735C139.106 69.004 139.461 68.9729 139.461 68.9729L137.908 51.2227L138.085 51.2072L138.302 53.6921L141.265 50.7505L143.936 52.6627L144.924 51.6818L145.101 51.6663L143.952 52.8398L145.147 66.506C145.225 67.3926 145.125 68.2968 144.284 68.9079C142.618 70.3061 140.187 69.0858 138.041 69.0951C136.589 68.8631 134.267 68.8888 133.682 70.3699C133.536 70.7417 133.598 71.4512 134.354 71.9215C135.852 72.6839 141.669 69.6711 143.892 70.5506C145.923 71.2664 146.031 72.5093 145.768 73.6063C145.391 75.4282 143.115 75.9843 143.115 75.9843C143.115 75.9843 144.294 75.1661 143.847 74.1334C143.623 73.6165 143.252 73.4684 142.025 73.7563C139.394 74.3434 136.486 75.8493 134.278 75.149C133.167 74.7098 132.171 73.5445 132.224 72.1089C132.053 70.1565 134.298 69.2451 134.298 69.2451L133.677 62.1448C133.485 61.9832 132.419 62.0764 132.111 62.6398C131.833 63.5585 132.752 63.8351 132.752 63.8351C132.752 63.8351 132.042 63.8973 131.27 63.2498C131.062 62.9101 130.258 61.9074 131.037 60.5879C131.492 59.6536 132.364 59.3989 133.429 59.3057L133.056 55.0455ZM139.654 69.1334C139.654 69.1334 140.735 69.2194 141.221 68.6395C142.046 67.8523 141.806 67.1573 141.806 67.1573L141.324 61.6542C141.324 61.6542 140.907 60.9748 140.197 61.0368C139.488 61.0989 139.017 61.8561 139.017 61.8561L139.654 69.1334ZM140.689 54.3777L139.16 53.2601L138.319 53.8701L138.769 59.018C138.769 59.018 139.348 59.5038 140.059 59.4416C140.769 59.3794 141.077 58.8161 141.077 58.8161L140.689 54.3777ZM141.108 59.1703C141.108 59.1703 140.784 59.5567 140.074 59.6187C139.365 59.6808 138.8 59.3722 138.8 59.3722L138.987 61.5028C138.987 61.5028 139.473 60.9238 140.183 60.8617C140.894 60.7995 141.294 61.3009 141.294 61.3009L141.108 59.1703Z" fill="#4A4E00"/>
</svg>
