<svg width="729" height="29" viewBox="0 0 729 29" fill="none" xmlns="http://www.w3.org/2000/svg">
<path opacity="0.4" d="M321 14.5L1 14.5" stroke="#B4751D" stroke-width="2" stroke-linecap="round"/>
<path d="M372.618 24.002C372.156 23.918 371.694 23.918 371.232 23.582C370.644 23.12 370.224 22.574 370.098 21.86C369.846 20.726 369.888 19.634 370.224 18.626C370.518 17.576 370.938 16.568 371.232 15.518C371.61 14.09 371.988 12.662 372.198 11.192C372.324 10.646 372.198 9.134 372.114 8.546C371.526 9.302 362.328 11.108 359.094 8.84L359.346 10.142C359.514 10.688 359.43 11.234 359.22 11.738C359.01 12.242 358.926 12.746 358.506 13.124C358.422 13.208 358.338 13.376 358.296 13.502C358.17 13.964 357.876 14.384 357.498 14.678C357.12 15.056 356.784 15.56 356.364 15.896C355.398 16.736 354.474 17.618 353.466 18.29C351.912 19.298 350.316 20.306 348.51 20.81C347.334 21.188 346.2 21.398 344.982 21.356C342.756 21.356 341.622 19.76 341.58 17.912C341.538 16.442 342 15.098 342.84 13.838C343.218 13.208 343.638 12.536 344.058 11.906C344.31 11.612 344.604 11.318 344.856 11.066C345.276 10.688 345.654 10.268 346.116 9.932C346.62 9.554 347.124 9.176 347.67 8.924C348.384 8.588 349.098 8.378 349.896 8.084C349.896 7.916 349.896 7.706 349.938 7.538C349.98 6.824 350.358 6.446 351.072 6.446C352.122 6.488 353.172 6.53 354.18 6.614C355.398 6.866 355.944 6.992 356.784 6.992C358.674 6.236 364.26 9.848 371.19 7.034L370.812 6.53C370.854 6.362 370.728 6.194 370.644 6.068C370.35 5.522 370.056 4.976 369.846 4.43C369.552 3.8 369.636 3.17 370.098 2.624C370.77 1.742 372.282 1.616 373.08 2.456C373.164 2.498 373.206 2.54 373.248 2.624C373.458 3.422 373.71 4.178 373.416 5.018C373.374 5.186 373.29 5.396 373.206 5.564C373.122 5.858 373.164 6.11 373.332 6.404L374.088 8.504L374.214 9.428C374.382 10.478 374.214 11.57 374.088 12.62C374.004 13.292 373.71 13.922 373.542 14.594C373.542 14.636 373.5 14.678 373.5 14.72C372.954 16.652 372.198 18.416 371.82 20.39L371.694 20.978C371.61 21.818 372.282 22.616 373.164 22.532C374.172 22.406 375.18 22.238 376.146 21.692C376.776 21.272 377.49 20.936 378.162 20.558C379.38 19.844 380.682 19.13 381.858 18.374C382.908 17.66 383.916 16.862 384.882 16.022C385.554 15.434 386.142 14.72 386.772 14.09C387.15 13.712 387.528 13.376 387.864 12.998C388.2 12.662 388.62 12.578 388.998 12.704C389.334 12.914 389.544 13.208 389.418 13.586C389.208 14.132 388.872 14.636 388.368 15.014C388.242 15.098 388.074 15.182 387.99 15.308C387.36 16.232 386.436 16.778 385.638 17.45C385.008 17.996 384.336 18.5 383.706 19.004C382.824 19.634 381.984 20.264 381.144 20.894C380.892 21.02 380.598 21.146 380.346 21.314C379.548 21.776 378.666 22.322 377.826 22.742C377.028 23.162 376.188 23.582 375.306 23.792C374.466 24.086 373.542 24.254 372.618 24.002ZM344.688 19.634C345.948 19.802 347.082 19.298 348.132 18.752C349.266 18.206 350.358 17.66 351.45 17.03C352.164 16.568 352.962 16.106 353.592 15.518C354.432 14.72 355.146 13.88 355.902 13.082C356.448 12.368 356.952 11.654 357.162 10.73C357.288 10.184 357.162 9.848 356.7 9.554C356.532 9.428 356.364 9.344 356.196 9.302C355.65 9.134 355.104 9.05 354.558 8.924C354.264 8.84 353.886 8.924 353.55 8.798C352.836 8.672 352.248 8.84 351.744 9.428C351.66 9.554 351.534 9.638 351.45 9.722C351.03 10.1 350.652 10.394 350.064 10.394C349.476 10.394 348.888 10.478 348.384 10.856C347.67 11.402 346.956 11.906 346.242 12.536C345.318 13.292 344.688 14.342 344.226 15.476C343.848 16.19 343.554 17.03 343.344 17.828C343.092 18.878 343.596 19.592 344.688 19.634Z" fill="#B4751D"/>
<path opacity="0.4" d="M728 14.5L408 14.5" stroke="#B4751D" stroke-width="2" stroke-linecap="round"/>
</svg>
