<svg width="42" height="42" viewBox="0 0 42 42" fill="none" xmlns="http://www.w3.org/2000/svg">
<circle cx="21" cy="21" r="21" fill="#4A4E00"/>
<g clip-path="url(#clip0_359_708)">
<path d="M28.3041 24.3103C28.1787 25.2631 27.7108 26.1376 26.9878 26.7706C26.2647 27.4036 25.336 27.7517 24.375 27.75C18.7922 27.75 14.25 23.2078 14.25 17.625C14.2483 16.664 14.5964 15.7353 15.2294 15.0123C15.8624 14.2892 16.7369 13.8213 17.6897 13.6959C17.9306 13.6665 18.1746 13.7158 18.3852 13.8364C18.5958 13.9571 18.7618 14.1426 18.8583 14.3653L20.3433 17.6805V17.689C20.4172 17.8595 20.4477 18.0456 20.4321 18.2307C20.4165 18.4159 20.3553 18.5943 20.254 18.75C20.2413 18.769 20.228 18.7866 20.2139 18.8041L18.75 20.5395C19.2766 21.6096 20.396 22.7191 21.4802 23.2472L23.1916 21.791C23.2085 21.7769 23.2261 21.7637 23.2444 21.7516C23.4 21.6479 23.579 21.5845 23.7652 21.5673C23.9515 21.5501 24.1391 21.5797 24.311 21.6532L24.3202 21.6574L27.6326 23.1417C27.8557 23.2379 28.0417 23.4037 28.1627 23.6143C28.2837 23.825 28.3333 24.0691 28.3041 24.3103Z" fill="#FFF5E2"/>
</g>
<defs>
<clipPath id="clip0_359_708">
<rect width="18" height="18" fill="white" transform="translate(12 12)"/>
</clipPath>
</defs>
</svg>
