<svg width="24" height="25" viewBox="0 0 24 25" fill="none" xmlns="http://www.w3.org/2000/svg">
<g clip-path="url(#clip0_67_1548)">
<path d="M13.5253 4.80599C13.5508 4.71081 13.5947 4.62158 13.6547 4.54339C13.7147 4.4652 13.7894 4.3996 13.8748 4.35032C13.9601 4.30104 14.0543 4.26906 14.152 4.2562C14.2496 4.24334 14.3489 4.24985 14.4441 4.27537C15.8344 4.63813 17.103 5.36497 18.119 6.38103C19.1351 7.39708 19.8619 8.66562 20.2247 10.056C20.2502 10.1512 20.2567 10.2504 20.2439 10.3481C20.231 10.4458 20.199 10.54 20.1497 10.6253C20.1005 10.7106 20.0349 10.7854 19.9567 10.8454C19.8785 10.9053 19.7893 10.9493 19.6941 10.9747C19.6307 10.9914 19.5655 10.9999 19.5 11.0001C19.3349 11.0001 19.1743 10.9456 19.0433 10.8451C18.9122 10.7446 18.8181 10.6036 18.7753 10.4441C18.4796 9.30893 17.8865 8.27316 17.0571 7.4436C16.2277 6.61403 15.192 6.02069 14.0569 5.72474C13.9616 5.69938 13.8723 5.65549 13.794 5.59558C13.7157 5.53566 13.65 5.4609 13.6006 5.37557C13.5513 5.29024 13.5192 5.19601 13.5063 5.09828C13.4933 5.00054 13.4998 4.90122 13.5253 4.80599ZM13.3069 8.72474C14.5997 9.06974 15.4303 9.9013 15.7753 11.1941C15.8181 11.3536 15.9122 11.4946 16.0433 11.5951C16.1743 11.6956 16.3349 11.7501 16.5 11.7501C16.5655 11.7499 16.6307 11.7414 16.6941 11.7247C16.7893 11.6993 16.8785 11.6553 16.9567 11.5954C17.0349 11.5354 17.1005 11.4606 17.1497 11.3753C17.199 11.29 17.231 11.1958 17.2439 11.0981C17.2567 11.0004 17.2502 10.9012 17.2247 10.806C16.7447 9.00974 15.4903 7.75537 13.6941 7.27537C13.5019 7.22402 13.2971 7.25113 13.1249 7.35073C12.9527 7.45033 12.8271 7.61426 12.7758 7.80646C12.7244 7.99866 12.7516 8.20338 12.8512 8.37559C12.9508 8.54781 13.1147 8.6734 13.3069 8.72474ZM20.0972 16.1057L15.6806 14.1266L15.6684 14.121C15.4392 14.0229 15.189 13.9836 14.9407 14.0065C14.6924 14.0294 14.4537 14.1139 14.2463 14.2522C14.2218 14.2684 14.1984 14.2859 14.1759 14.3047L11.8941 16.2501C10.4484 15.5479 8.95595 14.0666 8.25376 12.6397L10.2019 10.3232C10.2206 10.2997 10.2384 10.2763 10.2553 10.251C10.3907 10.0441 10.4729 9.80692 10.4945 9.56059C10.5161 9.31427 10.4764 9.06642 10.3791 8.83912V8.82787L8.39438 4.4038C8.2657 4.10687 8.04444 3.85951 7.76362 3.69865C7.4828 3.5378 7.1575 3.47208 6.83626 3.5113C5.56592 3.67847 4.39986 4.30234 3.55588 5.26639C2.7119 6.23045 2.24771 7.46876 2.25001 8.75005C2.25001 16.1938 8.30626 22.2501 15.75 22.2501C17.0313 22.2523 18.2696 21.7882 19.2337 20.9442C20.1977 20.1002 20.8216 18.9341 20.9888 17.6638C21.0281 17.3427 20.9625 17.0174 20.8018 16.7366C20.6411 16.4558 20.394 16.2345 20.0972 16.1057Z" fill="#FFF5E2"/>
</g>
<defs>
<clipPath id="clip0_67_1548">
<rect width="24" height="24" fill="white" transform="translate(0 0.5)"/>
</clipPath>
</defs>
</svg>
