<svg width="402" height="185" viewBox="0 0 402 185" fill="none" xmlns="http://www.w3.org/2000/svg">
<mask id="path-1-inside-1_67_2245" fill="white">
<path fill-rule="evenodd" clip-rule="evenodd" d="M20 0L380 0C380 11.0457 388.954 20 400 20C400.675 20 401.342 19.9666 402 19.9012V163.099C401.342 163.033 400.675 163 400 163C388.954 163 380 171.954 380 183C380 183.675 380.033 184.342 380.099 185H19.9012C19.9666 184.342 20 183.675 20 183C20 171.954 11.0457 163 0 163L0 20C11.0457 20 20 11.0457 20 0Z"/>
</mask>
<path fill-rule="evenodd" clip-rule="evenodd" d="M20 0L380 0C380 11.0457 388.954 20 400 20C400.675 20 401.342 19.9666 402 19.9012V163.099C401.342 163.033 400.675 163 400 163C388.954 163 380 171.954 380 183C380 183.675 380.033 184.342 380.099 185H19.9012C19.9666 184.342 20 183.675 20 183C20 171.954 11.0457 163 0 163L0 20C11.0457 20 20 11.0457 20 0Z" fill="#FFF5E2"/>
<path d="M380 0L381.188 0V-1.18794H380V0ZM20 0V-1.18794H18.8121V0L20 0ZM402 19.9012H403.188V18.5895L401.883 18.7191L402 19.9012ZM402 163.099L401.883 164.281L403.188 164.41V163.099H402ZM380.099 185V186.188H381.41L381.281 184.883L380.099 185ZM19.9012 185L18.7191 184.883L18.5895 186.188H19.9012V185ZM0 163H-1.18794V164.188H0L0 163ZM0 20L0 18.8121H-1.18794V20H0ZM380 -1.18794L20 -1.18794V1.18794L380 1.18794V-1.18794ZM400 18.8121C389.61 18.8121 381.188 10.3896 381.188 0L378.812 0C378.812 11.7018 388.298 21.1879 400 21.1879V18.8121ZM401.883 18.7191C401.264 18.7806 400.636 18.8121 400 18.8121V21.1879C400.714 21.1879 401.421 21.1526 402.117 21.0834L401.883 18.7191ZM403.188 163.099V19.9012H400.812V163.099H403.188ZM400 164.188C400.636 164.188 401.264 164.219 401.883 164.281L402.117 161.917C401.421 161.847 400.714 161.812 400 161.812V164.188ZM381.188 183C381.188 172.61 389.61 164.188 400 164.188V161.812C388.298 161.812 378.812 171.298 378.812 183H381.188ZM381.281 184.883C381.219 184.264 381.188 183.636 381.188 183H378.812C378.812 183.714 378.847 184.421 378.917 185.117L381.281 184.883ZM19.9012 186.188H380.099V183.812H19.9012V186.188ZM18.8121 183C18.8121 183.636 18.7806 184.264 18.7191 184.883L21.0834 185.117C21.1526 184.421 21.1879 183.714 21.1879 183H18.8121ZM0 164.188C10.3896 164.188 18.8121 172.61 18.8121 183H21.1879C21.1879 171.298 11.7018 161.812 0 161.812L0 164.188ZM-1.18794 20L-1.18794 163H1.18794L1.18794 20H-1.18794ZM18.8121 0C18.8121 10.3896 10.3896 18.8121 0 18.8121L0 21.1879C11.7018 21.1879 21.1879 11.7018 21.1879 0L18.8121 0Z" fill="#B4751D" mask="url(#path-1-inside-1_67_2245)"/>
</svg>
