<svg width="360" height="145" viewBox="0 0 360 145" fill="none" xmlns="http://www.w3.org/2000/svg">
<mask id="path-1-inside-1_67_2252" fill="white">
<path fill-rule="evenodd" clip-rule="evenodd" d="M344.201 0C347.903 6.61392 353.386 12.0966 360 15.7995V130.201C353.722 133.715 348.464 138.833 344.779 145H15.221C11.5361 138.833 6.27764 133.715 0 130.201L0 15.7995C6.61392 12.0966 12.0966 6.61392 15.7995 0L344.201 0Z"/>
</mask>
<path fill-rule="evenodd" clip-rule="evenodd" d="M344.201 0C347.903 6.61392 353.386 12.0966 360 15.7995V130.201C353.722 133.715 348.464 138.833 344.779 145H15.221C11.5361 138.833 6.27764 133.715 0 130.201L0 15.7995C6.61392 12.0966 12.0966 6.61392 15.7995 0L344.201 0Z" fill="#FAEDD6"/>
<path d="M360 15.7995H361.188V15.1031L360.58 14.7629L360 15.7995ZM344.201 0L345.237 -0.580327L344.897 -1.18794H344.201V0ZM360 130.201L360.58 131.237L361.188 130.897V130.201H360ZM344.779 145V146.188H345.453L345.799 145.609L344.779 145ZM15.221 145L14.2012 145.609L14.5469 146.188H15.221V145ZM0 130.201H-1.18794V130.897L-0.580327 131.237L0 130.201ZM0 15.7995L-0.580327 14.7629L-1.18794 15.1031V15.7995H0ZM15.7995 0V-1.18794H15.1031L14.7629 -0.580327L15.7995 0ZM360.58 14.7629C354.158 11.1671 348.833 5.84235 345.237 -0.580327L343.164 0.580327C346.974 7.3855 352.615 13.0261 359.42 16.836L360.58 14.7629ZM361.188 130.201V15.7995H358.812V130.201H361.188ZM345.799 145.609C349.377 139.621 354.484 134.65 360.58 131.237L359.42 129.164C352.96 132.78 347.551 138.046 343.759 144.391L345.799 145.609ZM15.221 146.188H344.779V143.812H15.221V146.188ZM-0.580327 131.237C5.51571 134.65 10.6228 139.621 14.2012 145.609L16.2407 144.391C12.4495 138.046 7.03957 132.78 0.580327 129.164L-0.580327 131.237ZM-1.18794 15.7995L-1.18794 130.201H1.18794L1.18794 15.7995H-1.18794ZM14.7629 -0.580327C11.1671 5.84235 5.84235 11.1671 -0.580327 14.7629L0.580327 16.836C7.3855 13.0261 13.0261 7.3855 16.836 0.580327L14.7629 -0.580327ZM344.201 -1.18794L15.7995 -1.18794V1.18794L344.201 1.18794V-1.18794Z" fill="#B4751D" mask="url(#path-1-inside-1_67_2252)"/>
</svg>
