<svg width="96" height="96" viewBox="0 0 96 96" fill="none" xmlns="http://www.w3.org/2000/svg">
<path d="M48 23.5285L57.5448 0L57.3608 25.3915L75.1854 7.31385L65.2956 30.7044L88.6861 20.8146L70.6085 38.6392L96 38.4552L72.4715 48L96 57.5448L70.6085 57.3608L88.6861 75.1854L65.2956 65.2956L75.1854 88.6861L57.3608 70.6085L57.5448 96L48 72.4715L38.4552 96L38.6392 70.6085L20.8146 88.6861L30.7044 65.2956L7.31385 75.1854L25.3915 57.3608L0 57.5448L23.5285 48L0 38.4552L25.3915 38.6392L7.31385 20.8146L30.7044 30.7044L20.8146 7.31385L38.6392 25.3915L38.4552 0L48 23.5285Z" fill="#FFF5E2"/>
</svg>
