<svg width="64" height="64" viewBox="0 0 64 64" fill="none" xmlns="http://www.w3.org/2000/svg">
<g opacity="0.2">
<path d="M40.1244 46.5254H33.2979L31.4346 64H40.1244V46.5254Z" fill="#B4751D"/>
<path d="M50.7005 46.5254H43.874V64H52.5639L50.7005 46.5254Z" fill="#B4751D"/>
<path d="M27.1621 38.3252C27.1621 40.779 29.1586 42.7754 31.6125 42.7754H52.3866C54.8405 42.7754 56.837 40.779 56.837 38.3252V38.0918H27.1621V38.3252Z" fill="#B4751D"/>
<path d="M40.1249 25.3008H35.5618L34.5977 34.3417H40.1249V25.3008Z" fill="#B4751D"/>
<path d="M43.874 25.3008V34.3417H49.4013L48.4371 25.3008H43.874Z" fill="#B4751D"/>
<path d="M33.8762 21.5508H50.1237C52.5775 21.5508 54.574 19.5544 54.574 17.1006V16.8672H29.4258V17.1006C29.4258 19.5544 31.4223 21.5508 33.8762 21.5508Z" fill="#B4751D"/>
<path d="M46.639 8.43359H37.36L36.8605 13.1172H47.1385L46.639 8.43359Z" fill="#B4751D"/>
<path d="M35.6738 4.68363H48.3241C50.778 4.68363 52.7744 2.68725 52.7744 0.233375V0H31.2236V0.233375C31.2236 2.68725 33.22 4.68363 35.6738 4.68363Z" fill="#B4751D"/>
</g>
</svg>
