<svg width="64" height="64" viewBox="0 0 64 64" fill="none" xmlns="http://www.w3.org/2000/svg">
<g clip-path="url(#clip0_67_220)">
<path d="M3.99924 19.4575V23.2076H7.45768V39.4579H25.2679C26.4696 36.9467 29.0352 35.2078 31.9999 35.2078C34.9646 35.2078 37.5301 36.9467 38.7318 39.4579H56.542V23.2076H60.0005V19.4575H3.99924ZM15.8177 32.8499V29.0998H19.5678V32.8499H15.8177ZM44.4318 32.8499V29.0998H48.1819V32.8499H44.4318Z" fill="#B4751D" fill-opacity="0.2"/>
<path d="M53.2084 15.5825V8.79076H46.6164V2.59327L41.94 1.32387C35.4368 -0.44129 28.5625 -0.44129 22.0597 1.32387L17.3832 2.59314V8.79064H10.791V15.5824L53.2084 15.5825Z" fill="#B4751D" fill-opacity="0.2"/>
<path d="M7.45724 43.208H24.541V51.4582H7.45724V43.208Z" fill="#B4751D" fill-opacity="0.2"/>
<path d="M39.4582 55.2085H56.5419V64.0003H39.4582V55.2085Z" fill="#B4751D" fill-opacity="0.2"/>
<path d="M39.4582 43.208H56.5419V51.4582H39.4582V43.208Z" fill="#B4751D" fill-opacity="0.2"/>
<path d="M7.45724 55.208H24.541V63.9999H7.45724V55.208Z" fill="#B4751D" fill-opacity="0.2"/>
</g>
<defs>
<clipPath id="clip0_67_220">
<rect width="64" height="64" fill="white"/>
</clipPath>
</defs>
</svg>
