<svg width="64" height="64" viewBox="0 0 64 64" fill="none" xmlns="http://www.w3.org/2000/svg">
<g opacity="0.2">
<path d="M23.1925 22.1622H40.8076V31.0625H44.5576V3.2793H40.8076V12.5634C40.1378 12.1152 39.3324 11.8534 38.4658 11.8534C37.1674 11.8534 36.0064 12.4407 35.2329 13.3637C34.4594 12.4407 33.2985 11.8534 32 11.8534C30.7016 11.8534 29.5406 12.4407 28.7671 13.3637C27.9936 12.4407 26.8328 11.8534 25.5343 11.8534C24.6676 11.8534 23.8624 12.1152 23.1925 12.5634V3.2793H19.4425V31.0625H23.1925V22.1622Z" fill="#B4751D"/>
<path d="M4.21674 26.3789H11.0087V31.0625H4.21674V26.3789Z" fill="#B4751D"/>
<path d="M11.0087 22.6289V21.3413C11.0087 19.4687 9.48524 17.9453 7.61274 17.9453C5.74024 17.9453 4.21674 19.4688 4.21674 21.3413V22.6289H11.0087Z" fill="#B4751D"/>
<path d="M59.7833 22.6289V21.3413C59.7833 19.4687 58.2598 17.9453 56.3873 17.9453C54.5148 17.9453 52.9913 19.4688 52.9913 21.3413V22.6289H59.7833Z" fill="#B4751D"/>
<path d="M52.9913 26.3789H59.7833V31.0625H52.9913V26.3789Z" fill="#B4751D"/>
<path d="M48.7744 43.2461H64V60.7207H48.7744V43.2461Z" fill="#B4751D"/>
<path d="M45.0244 60.7207V43.2461H18.9756V60.7207H23.6593V47.9297H40.3409V60.7207H45.0244Z" fill="#B4751D"/>
<path d="M48.7744 34.8125H64V39.4961H48.7744V34.8125Z" fill="#B4751D"/>
<path d="M0 43.2461H15.2256V60.7207H0L0 43.2461Z" fill="#B4751D"/>
<path d="M27.4092 51.6797H36.5909V60.7207H27.4092V51.6797Z" fill="#B4751D"/>
<path d="M0 34.8125H15.2256V39.4961H0L0 34.8125Z" fill="#B4751D"/>
<path d="M18.9756 34.8125H45.0244V39.4961H18.9756V34.8125Z" fill="#B4751D"/>
</g>
</svg>
